<svg width="21" height="26" viewBox="0 0 21 26" fill="none" xmlns="http://www.w3.org/2000/svg">
<path d="M4.84119 22.4375V23.7331C4.84119 24.1371 4.69968 24.4805 4.41666 24.7633C4.13364 25.0461 3.78989 25.1875 3.38541 25.1875C2.98116 25.1875 2.63798 25.0461 2.35588 24.7633C2.07377 24.4805 1.93272 24.1371 1.93272 23.7331V21.4434C1.50257 21.1173 1.10417 20.6558 0.7375 20.0591C0.370833 19.4623 0.1875 18.792 0.1875 18.0482V5.25C0.1875 3.58579 1.01468 2.36766 2.66903 1.59559C4.32316 0.823531 6.93336 0.4375 10.4997 0.4375C14.1947 0.4375 16.8373 0.808521 18.4272 1.55056C20.0174 2.29238 20.8125 3.52552 20.8125 5.25V18.0482C20.8125 18.792 20.6292 19.4623 20.2625 20.0591C19.8958 20.6558 19.4974 21.1173 19.0673 21.4434V23.7331C19.0673 24.1371 18.9258 24.4805 18.6427 24.7633C18.3595 25.0461 18.0157 25.1875 17.6115 25.1875C17.207 25.1875 16.8637 25.0461 16.5816 24.7633C16.2997 24.4805 16.1588 24.1371 16.1588 23.7331V22.4375H4.84119ZM2.25 11.4375H18.75V6.30772H2.25V11.4375ZM5.69059 18.7357C6.19087 18.7357 6.61505 18.5605 6.96316 18.2101C7.31149 17.8599 7.48566 17.4347 7.48566 16.9344C7.48566 16.4341 7.31046 16.0099 6.96006 15.6618C6.6099 15.3135 6.18468 15.1393 5.68441 15.1393C5.18414 15.1393 4.75995 15.3145 4.41184 15.6649C4.06351 16.0151 3.88934 16.4403 3.88934 16.9406C3.88934 17.4409 4.06454 17.8651 4.41494 18.2132C4.7651 18.5615 5.19032 18.7357 5.69059 18.7357ZM15.3156 18.7357C15.8159 18.7357 16.2401 18.5605 16.5882 18.2101C16.9365 17.8599 17.1107 17.4347 17.1107 16.9344C17.1107 16.4341 16.9355 16.0099 16.5851 15.6618C16.2349 15.3135 15.8097 15.1393 15.3094 15.1393C14.8091 15.1393 14.3849 15.3145 14.0368 15.6649C13.6885 16.0151 13.5143 16.4403 13.5143 16.9406C13.5143 17.4409 13.6895 17.8651 14.0399 18.2132C14.3901 18.5615 14.8153 18.7357 15.3156 18.7357ZM2.63088 4.24522H18.454C18.163 3.69705 17.4261 3.26908 16.2434 2.96131C15.0604 2.65377 13.1601 2.5 10.5423 2.5C7.96691 2.5 6.08774 2.66087 4.90478 2.98262C3.72182 3.30437 2.96385 3.72524 2.63088 4.24522ZM5 20.375H16C16.7563 20.375 17.4036 20.1057 17.9422 19.5672C18.4807 19.0286 18.75 18.3813 18.75 17.625V13.5H2.25V17.625C2.25 18.3813 2.51927 19.0286 3.05781 19.5672C3.59635 20.1057 4.24375 20.375 5 20.375Z" fill="white" fill-opacity="0.6"/>
</svg>
