<svg width="25" height="25" viewBox="0 0 25 25" fill="none" xmlns="http://www.w3.org/2000/svg">
<mask id="mask0_60_1213" style="mask-type:alpha" maskUnits="userSpaceOnUse" x="0" y="0" width="25" height="25">
<rect width="25" height="25" fill="#D9D9D9"/>
</mask>
<g mask="url(#mask0_60_1213)">
<path d="M11.7188 13.2806H6.5105C6.28914 13.2806 6.10364 13.2057 5.95399 13.0559C5.80416 12.906 5.72925 12.7204 5.72925 12.4991C5.72925 12.2776 5.80416 12.0921 5.95399 11.9426C6.10364 11.7929 6.28914 11.7181 6.5105 11.7181H11.7188V6.50977C11.7188 6.28841 11.7937 6.10291 11.9436 5.95326C12.0934 5.80343 12.279 5.72852 12.5003 5.72852C12.7219 5.72852 12.9074 5.80343 13.0569 5.95326C13.2065 6.10291 13.2813 6.28841 13.2813 6.50977V11.7181H18.4897C18.711 11.7181 18.8965 11.793 19.0462 11.9428C19.196 12.0927 19.2709 12.2783 19.2709 12.4996C19.2709 12.7211 19.196 12.9066 19.0462 13.0561C18.8965 13.2058 18.711 13.2806 18.4897 13.2806H13.2813V18.4889C13.2813 18.7103 13.2064 18.8958 13.0566 19.0454C12.9068 19.1953 12.7212 19.2702 12.4998 19.2702C12.2783 19.2702 12.0928 19.1953 11.9433 19.0454C11.7937 18.8958 11.7188 18.7103 11.7188 18.4889V13.2806Z" fill="white" fill-opacity="0.8"/>
</g>
</svg>
