<svg width="27" height="27" viewBox="0 0 27 27" fill="none" xmlns="http://www.w3.org/2000/svg">
<path d="M9.03125 22.9136C9.26752 22.9136 9.46323 22.836 9.61837 22.6809C9.77352 22.5257 9.85109 22.33 9.85109 22.0938V13.8173C10.4733 13.6603 10.9902 13.3469 11.4017 12.8771C11.8133 12.4073 12.0191 11.8358 12.0191 11.1625V6.06984C12.0191 5.90416 11.9592 5.76139 11.8393 5.64153C11.7195 5.52145 11.5767 5.46141 11.411 5.46141C11.2453 5.46141 11.1026 5.52145 10.9827 5.64153C10.8629 5.76139 10.8029 5.90416 10.8029 6.06984V9.98309H9.63934V6.06984C9.63934 5.90416 9.57942 5.76139 9.45956 5.64153C9.33971 5.52145 9.19694 5.46141 9.03125 5.46141C8.86556 5.46141 8.72279 5.52145 8.60294 5.64153C8.48308 5.76139 8.42316 5.90416 8.42316 6.06984V9.98309H7.25956V6.06984C7.25956 5.90416 7.19964 5.76139 7.07978 5.64153C6.95993 5.52145 6.81716 5.46141 6.65147 5.46141C6.48578 5.46141 6.34301 5.52145 6.22316 5.64153C6.1033 5.76139 6.04337 5.90416 6.04337 6.06984V11.1625C6.04337 11.8358 6.24917 12.4073 6.66075 12.8771C7.07233 13.3469 7.58922 13.6603 8.21141 13.8173V22.0938C8.21141 22.33 8.28898 22.5257 8.44413 22.6809C8.59927 22.836 8.79498 22.9136 9.03125 22.9136ZM17.2812 22.9136C17.5175 22.9136 17.7132 22.836 17.8684 22.6809C18.0235 22.5257 18.1011 22.33 18.1011 22.0938V14.2614C18.8484 13.939 19.4362 13.3899 19.8645 12.6142C20.2931 11.8384 20.5073 10.9208 20.5073 9.86141C20.5073 8.59939 20.2006 7.5506 19.5871 6.71506C18.9736 5.87929 18.205 5.46141 17.2812 5.46141C16.3575 5.46141 15.5889 5.87929 14.9754 6.71506C14.3619 7.5506 14.0552 8.59939 14.0552 9.86141C14.0552 10.9208 14.2694 11.8384 14.698 12.6142C15.1263 13.3899 15.7141 13.939 16.4614 14.2614V22.0938C16.4614 22.33 16.539 22.5257 16.6941 22.6809C16.8493 22.836 17.045 22.9136 17.2812 22.9136ZM2.92316 26.5625C2.22855 26.5625 1.64062 26.3219 1.15938 25.8406C0.678125 25.3594 0.4375 24.7715 0.4375 24.0768V2.92316C0.4375 2.22855 0.678125 1.64062 1.15938 1.15938C1.64062 0.678125 2.22855 0.4375 2.92316 0.4375H24.0768C24.7715 0.4375 25.3594 0.678125 25.8406 1.15938C26.3219 1.64062 26.5625 2.22855 26.5625 2.92316V24.0768C26.5625 24.7715 26.3219 25.3594 25.8406 25.8406C25.3594 26.3219 24.7715 26.5625 24.0768 26.5625H2.92316ZM2.92316 24.5H24.0768C24.1827 24.5 24.2797 24.4559 24.3677 24.3677C24.4559 24.2797 24.5 24.1827 24.5 24.0768V2.92316C24.5 2.81728 24.4559 2.72034 24.3677 2.63234C24.2797 2.54411 24.1827 2.5 24.0768 2.5H2.92316C2.81728 2.5 2.72034 2.54411 2.63234 2.63234C2.54411 2.72034 2.5 2.81728 2.5 2.92316V24.0768C2.5 24.1827 2.54411 24.2797 2.63234 24.3677C2.72034 24.4559 2.81728 24.5 2.92316 24.5Z" fill="white" fill-opacity="0.6"/>
</svg>
