<svg width="27" height="18" viewBox="0 0 27 18" fill="none" xmlns="http://www.w3.org/2000/svg">
<path d="M0.4375 16.4062V9.875C0.4375 9.36213 0.559188 8.8646 0.802563 8.38244C1.04571 7.90027 1.38235 7.50404 1.8125 7.19375V3.6875C1.8125 2.72683 2.14525 1.91375 2.81075 1.24825C3.47625 0.582749 4.28933 0.25 5.25 0.25H11.0938C11.5945 0.25 12.0431 0.347396 12.4395 0.542188C12.8362 0.736979 13.1897 1.00625 13.5 1.35C13.8103 1.00625 14.1638 0.736979 14.5605 0.542188C14.9569 0.347396 15.4055 0.25 15.9062 0.25H21.75C22.7107 0.25 23.5238 0.582749 24.1893 1.24825C24.8547 1.91375 25.1875 2.72683 25.1875 3.6875V7.19375C25.6176 7.50404 25.9543 7.90027 26.1974 8.38244C26.4408 8.8646 26.5625 9.36213 26.5625 9.875V16.4062C26.5625 16.6984 26.4636 16.9433 26.2658 17.1408C26.0681 17.3386 25.8231 17.4375 25.5309 17.4375C25.2385 17.4375 24.9936 17.3386 24.7963 17.1408C24.5988 16.9433 24.5 16.6984 24.5 16.4062V14.6875H2.5V16.4062C2.5 16.6984 2.40111 16.9433 2.20334 17.1408C2.00557 17.3386 1.76059 17.4375 1.46841 17.4375C1.17599 17.4375 0.931125 17.3386 0.733813 17.1408C0.536271 16.9433 0.4375 16.6984 0.4375 16.4062ZM14.5312 6.4375H23.125V3.6875C23.125 3.29792 22.9932 2.97135 22.7297 2.70781C22.4661 2.44427 22.1396 2.3125 21.75 2.3125H15.9062C15.5167 2.3125 15.1901 2.44427 14.9266 2.70781C14.663 2.97135 14.5312 3.29792 14.5312 3.6875V6.4375ZM3.875 6.4375H12.4688V3.6875C12.4688 3.29792 12.337 2.97135 12.0734 2.70781C11.8099 2.44427 11.4833 2.3125 11.0938 2.3125H5.25C4.86042 2.3125 4.53385 2.44427 4.27031 2.70781C4.00677 2.97135 3.875 3.29792 3.875 3.6875V6.4375ZM2.5 12.625H24.5V9.875C24.5 9.48542 24.3682 9.15885 24.1047 8.89531C23.8411 8.63177 23.5146 8.5 23.125 8.5H3.875C3.48542 8.5 3.15885 8.63177 2.89531 8.89531C2.63177 9.15885 2.5 9.48542 2.5 9.875V12.625Z" fill="white" fill-opacity="0.6"/>
</svg>
