<svg width="21" height="26" viewBox="0 0 21 26" fill="none" xmlns="http://www.w3.org/2000/svg">
<path d="M10.4996 23.8311C13.1896 21.423 15.248 19.1132 16.6751 16.9018C18.1021 14.6903 18.8156 12.7534 18.8156 11.091C18.8156 8.58437 18.0192 6.52371 16.4265 4.909C14.8338 3.29429 12.8582 2.48694 10.4996 2.48694C8.14101 2.48694 6.16536 3.29429 4.57266 4.909C2.97995 6.52371 2.18359 8.58437 2.18359 11.091C2.18359 12.7534 2.8971 14.6903 4.32413 16.9018C5.75115 19.1132 7.80964 21.423 10.4996 23.8311ZM10.4996 25.7928C10.2317 25.7928 9.9638 25.7467 9.69591 25.6543C9.42778 25.5617 9.18532 25.4185 8.96853 25.2246C7.7347 24.0875 6.58004 22.9165 5.50456 21.7115C4.42931 20.5068 3.49466 19.3024 2.70059 18.0983C1.9063 16.8943 1.27781 15.7009 0.815125 14.5182C0.352438 13.3352 0.121094 12.1928 0.121094 11.091C0.121094 7.91796 1.14742 5.34911 3.20006 3.38447C5.25294 1.41982 7.68611 0.4375 10.4996 0.4375C13.3131 0.4375 15.7462 1.41982 17.7991 3.38447C19.8518 5.34911 20.8781 7.91796 20.8781 11.091C20.8781 12.1928 20.6467 13.3329 20.1841 14.5113C19.7214 15.6899 19.0952 16.8834 18.3055 18.0918C17.5155 19.3002 16.5829 20.5046 15.5077 21.705C14.4324 22.9056 13.2778 24.0743 12.0437 25.2112C11.8301 25.4051 11.5873 25.5505 11.3153 25.6474C11.0435 25.7444 10.7716 25.7928 10.4996 25.7928ZM10.502 13.3147C11.1861 13.3147 11.7709 13.0711 12.2565 12.5839C12.7423 12.0967 12.9853 11.5111 12.9853 10.827C12.9853 10.1429 12.7416 9.55799 12.2544 9.07216C11.7672 8.58655 11.1815 8.34375 10.4972 8.34375C9.81312 8.34375 9.22829 8.58735 8.74269 9.07456C8.25686 9.56177 8.01394 10.1475 8.01394 10.8318C8.01394 11.5159 8.25754 12.1007 8.74475 12.5863C9.23196 13.0719 9.81771 13.3147 10.502 13.3147Z" fill="white" fill-opacity="0.6"/>
</svg>
