<svg width="19" height="19" viewBox="0 0 19 19" fill="none" xmlns="http://www.w3.org/2000/svg">
<path d="M2.52858 18.3538C2.00237 18.3538 1.55697 18.1716 1.19238 17.807C0.8278 17.4424 0.645508 16.997 0.645508 16.4708V2.52858C0.645508 2.00237 0.8278 1.55697 1.19238 1.19238C1.55697 0.8278 2.00237 0.645508 2.52858 0.645508H8.31764C8.53934 0.645508 8.72502 0.720334 8.87467 0.869987C9.02415 1.01947 9.09889 1.20506 9.09889 1.42676C9.09889 1.64846 9.02415 1.83405 8.87467 1.98353C8.72502 2.13318 8.53934 2.20801 8.31764 2.20801H2.52858C2.44837 2.20801 2.37494 2.24143 2.30827 2.30827C2.24143 2.37493 2.20801 2.44837 2.20801 2.52858V16.4708C2.20801 16.551 2.24143 16.6244 2.30827 16.6911C2.37494 16.7579 2.44837 16.7913 2.52858 16.7913H16.4708C16.551 16.7913 16.6244 16.7579 16.6911 16.6911C16.7579 16.6244 16.7913 16.551 16.7913 16.4708V10.6817C16.7913 10.46 16.8662 10.2743 17.0158 10.1247C17.1653 9.9752 17.3509 9.90046 17.5726 9.90046C17.7943 9.90046 17.9799 9.9752 18.1294 10.1247C18.279 10.2743 18.3538 10.46 18.3538 10.6817V16.4708C18.3538 16.997 18.1716 17.4424 17.807 17.807C17.4424 18.1716 16.997 18.3538 16.4708 18.3538H2.52858ZM16.7913 3.30567L7.67285 12.4244C7.52858 12.5685 7.34724 12.6423 7.12884 12.6458C6.91061 12.6491 6.72598 12.5753 6.57494 12.4244C6.42407 12.2734 6.34863 12.0904 6.34863 11.8755C6.34863 11.6605 6.42407 11.4775 6.57494 11.3265L15.6937 2.20801H12.3643C12.1426 2.20801 11.957 2.13318 11.8075 1.98353C11.6578 1.83405 11.583 1.64846 11.583 1.42676C11.583 1.20506 11.6578 1.01947 11.8075 0.869987C11.957 0.720334 12.1426 0.645508 12.3643 0.645508H17.4122C17.6808 0.645508 17.9048 0.735351 18.0843 0.915038C18.264 1.09455 18.3538 1.3186 18.3538 1.58717V6.63509C18.3538 6.85679 18.279 7.04238 18.1294 7.19186C17.9799 7.34152 17.7943 7.41634 17.5726 7.41634C17.3509 7.41634 17.1653 7.34152 17.0158 7.19186C16.8662 7.04238 16.7913 6.85679 16.7913 6.63509V3.30567Z" fill="white" fill-opacity="0.8"/>
</svg>
