<svg width="19" height="19" viewBox="0 0 19 19" fill="none" xmlns="http://www.w3.org/2000/svg">
<path d="M8.46875 10.5312H1.59375C1.30156 10.5312 1.0567 10.4324 0.859156 10.2346C0.661386 10.0368 0.5625 9.79184 0.5625 9.49966C0.5625 9.20724 0.661386 8.96237 0.859156 8.76506C1.0567 8.56752 1.30156 8.46875 1.59375 8.46875H8.46875V1.59375C8.46875 1.30156 8.56764 1.0567 8.76541 0.859156C8.96318 0.661386 9.20816 0.5625 9.50034 0.5625C9.79276 0.5625 10.0376 0.661386 10.2349 0.859156C10.4325 1.0567 10.5312 1.30156 10.5312 1.59375V8.46875H17.4062C17.6984 8.46875 17.9433 8.56764 18.1408 8.76541C18.3386 8.96318 18.4375 9.20816 18.4375 9.50034C18.4375 9.79276 18.3386 10.0376 18.1408 10.2349C17.9433 10.4325 17.6984 10.5312 17.4062 10.5312H10.5312V17.4062C10.5312 17.6984 10.4324 17.9433 10.2346 18.1408C10.0368 18.3386 9.79184 18.4375 9.49966 18.4375C9.20724 18.4375 8.96237 18.3386 8.76506 18.1408C8.56752 17.9433 8.46875 17.6984 8.46875 17.4062V10.5312Z" fill="white" fill-opacity="0.8"/>
</svg>
