<svg width="21" height="11" viewBox="0 0 21 11" fill="none" xmlns="http://www.w3.org/2000/svg">
<path d="M9.99907 2.44998L1.83859 10.6105C1.62337 10.8257 1.36996 10.9306 1.07836 10.9252C0.786581 10.9196 0.533083 10.8092 0.31786 10.5939C0.102638 10.3785 -0.00497627 10.125 -0.00497627 9.83344C-0.00497627 9.54185 0.102638 9.28835 0.31786 9.07294L8.61159 0.762692C8.80749 0.566789 9.02696 0.421623 9.26999 0.327192C9.51301 0.232762 9.75604 0.185546 9.99907 0.185546C10.2421 0.185546 10.4851 0.232762 10.7282 0.327192C10.9712 0.421623 11.1906 0.56679 11.3865 0.762692L19.6971 9.07294C19.9123 9.28835 20.0171 9.54464 20.0115 9.84184C20.0059 10.139 19.8955 10.3952 19.6803 10.6105C19.4651 10.8257 19.2116 10.9333 18.9198 10.9333C18.6282 10.9333 18.3748 10.8257 18.1595 10.6105L9.99907 2.44998Z" fill="white"/>
</svg>
