<svg width="165" height="64" viewBox="0 0 165 64" fill="none" xmlns="http://www.w3.org/2000/svg">
<g clip-path="url(#clip0_26_1204)">
<path d="M33.9693 41.1826C30.9655 41.1866 28.4927 43.5512 28.4927 46.51C28.4927 49.4687 30.9655 51.8094 33.9693 51.8174C37.0009 51.8054 39.4538 49.4408 39.4538 46.51C39.4538 43.5791 37.0009 41.1866 33.9693 41.1826ZM33.894 49.389C32.3247 49.389 31.1359 48.097 31.1359 46.514C31.1359 44.9309 32.404 43.611 33.9653 43.611C35.5267 43.611 36.7512 44.899 36.7512 46.514C36.7512 48.1289 35.4672 49.389 33.89 49.389H33.894Z" fill="white"/>
<path d="M8.82911 37.5148C9.66923 38.3482 10.6282 39.074 11.5674 39.5445L11.6665 39.5963L13.2833 37.6704L13.1288 37.5826C11.5912 36.7452 10.3865 35.6885 9.60186 34.3527C8.82118 33.0408 8.42094 31.5096 8.42094 29.6873V27.9727H5.52808V29.5039C5.52808 31.4817 5.08028 33.0368 4.24809 34.4006C3.31286 35.9079 1.92984 37.1241 0.158456 38.2485L0.00390625 38.3442L1.7634 40.1745L1.85851 40.1187C2.90073 39.5445 4.01032 38.6632 4.97725 37.6823C5.8134 36.825 6.5386 35.8999 6.97451 35.0266C7.39853 35.8799 8.0524 36.7532 8.83307 37.5029L8.82911 37.5148Z" fill="white"/>
<path d="M5.70264 50.5614H17.8209V42.2314H5.70264V50.5614ZM8.42113 44.5841H15.0906V48.2128H8.42113V44.5841Z" fill="white"/>
<path d="M17.8646 27.4814H15.1738V41.2783H17.8646V35.1734H21.023V32.7211H17.8646V27.4814Z" fill="white"/>
<path d="M86.5875 38.2198C87.4712 38.9934 88.4857 39.6434 89.4368 40.0621L89.5359 40.1099L90.9902 38.1281L90.8357 38.0524C89.4487 37.3346 88.2083 36.4494 87.3207 35.3727C86.4132 34.2682 85.8742 32.9403 85.8742 31.3373V30.8668H89.8806V28.4902H78.9948V30.8668H83.0012V31.437C83.0012 32.8925 82.5177 34.2522 81.7251 35.4286C80.7899 36.8401 79.4228 37.9806 78.0992 38.7143L77.9248 38.81L79.712 40.6722L79.8111 40.6243C80.778 40.074 81.8401 39.2406 82.7515 38.3076C83.4807 37.538 84.1345 36.7245 84.5348 35.915C85.0183 36.7006 85.7593 37.4901 86.5875 38.2238V38.2198Z" fill="white"/>
<path d="M106.077 44.6398H115.873V50.5613H118.595V42.2832H106.077V44.6398Z" fill="white"/>
<path d="M112.837 35.1538C112.837 33.8499 112.259 32.6496 111.395 31.7325H114.086V29.3838H108.95V26.7959H106.033V29.3838H100.774V31.7325H103.521C102.684 32.6496 102.098 33.8379 102.098 35.1538C102.098 38.0607 104.48 40.4253 107.46 40.4333C110.44 40.4253 112.837 38.0607 112.841 35.1538H112.837ZM104.694 35.0461C104.694 33.4352 106.045 32.0714 107.456 32.0714C108.866 32.0714 110.214 33.4431 110.218 35.0461C110.218 36.6292 108.866 37.9969 107.456 38.0009C106.041 37.9969 104.694 36.6292 104.694 35.0461Z" fill="white"/>
<path d="M118.595 27.4814H115.904V41.3262H118.595V36.0427H121.757V33.5943H118.595V27.4814Z" fill="white"/>
<path d="M95.7694 27.4814H93.0747V41.3262H95.7694V35.1734H98.9278V32.7211H95.7694V27.4814Z" fill="white"/>
<path d="M157.007 37.9208H147.9V30.9427H154.839V28.4863H145.174V40.3054H157.007V37.9208Z" fill="white"/>
<path d="M37.2621 31.5886H33.0259V34.017H37.2621V41.7608H39.9569V27.4814H37.2621V31.5886Z" fill="white"/>
<path d="M30.4148 37.8736C31.2549 38.707 32.2337 39.4328 33.1769 39.9232L33.2799 39.983L34.9007 38.0571L34.7422 37.9653C33.2046 37.1599 32.0237 36.1032 31.2351 34.7873C30.4306 33.4834 30.0304 31.8963 30.0304 30.07V27.9766H27.1296V29.8986C27.1296 31.8764 26.6897 33.4275 25.8734 34.7673C24.9381 36.3025 23.5353 37.5227 21.76 38.6432L21.6094 38.7389L23.3728 40.5772L23.46 40.5214C24.5062 39.9472 25.588 39.1138 26.551 38.1607C27.4189 37.2875 28.148 36.3424 28.5839 35.4253C29 36.2547 29.6381 37.108 30.4068 37.8736H30.4148Z" fill="white"/>
<path d="M89.9879 41.1826C86.9841 41.1866 84.5113 43.5512 84.5073 46.51C84.5113 49.4408 86.9841 51.8094 89.9879 51.8174C93.0155 51.8054 95.4725 49.4408 95.4725 46.51C95.4725 43.5791 93.0155 41.1866 89.9879 41.1826ZM89.9087 49.389C88.3433 49.389 87.1505 48.097 87.1505 46.514C87.1505 44.9309 88.4147 43.611 89.9879 43.611C91.5611 43.611 92.7698 44.899 92.7738 46.514C92.7698 48.097 91.4859 49.389 89.9087 49.389Z" fill="white"/>
<path d="M151.859 43.209H149.133V50.562H161.877V48.1376H151.859V43.209Z" fill="white"/>
<path d="M161.814 33.8775V27.4814H159.123V44.5042H161.814V36.3218H165V33.8775H161.814Z" fill="white"/>
<path d="M139.02 33.718H136.753V27.8722H134.209V49.9672H136.753V36.3776H139.02V50.5613H141.663V27.4814H139.02V33.718Z" fill="white"/>
<path d="M130.468 36.7807C129.862 35.4448 129.612 33.9575 129.612 32.1232V31.2499H132.667V28.7617H123.783V31.2499H126.937V32.1671C126.937 33.9017 126.711 35.3172 126.164 36.6331C125.534 38.1404 124.472 39.5041 122.78 40.9556L122.661 41.0673L124.333 42.7341L124.436 42.6543C125.277 42.0283 126.156 41.1231 126.893 40.19C127.512 39.4005 128.035 38.587 128.368 37.8693C128.704 38.5671 129.231 39.3686 129.846 40.1182C130.563 40.9955 131.367 41.8289 132.14 42.3233L132.247 42.3951L133.654 40.7004L133.543 40.5967C132.029 39.2689 131.09 38.0846 130.472 36.7767L130.468 36.7807Z" fill="white"/>
<path d="M7.65637 58.5255C6.36449 58.0629 6.12276 57.7519 6.12276 57.2176C6.12276 56.6832 6.49527 56.2606 7.37898 56.2606C8.02492 56.2606 8.46083 56.4719 8.92844 56.8627L9.38813 56.2925C8.84522 55.8578 8.29042 55.5986 7.42653 55.5986C6.21787 55.5986 5.40153 56.2167 5.40153 57.2614C5.40153 58.1985 5.87707 58.6491 7.26802 59.1555C8.44894 59.5822 8.80955 59.9291 8.80955 60.5272C8.80955 61.2171 8.27457 61.6398 7.41464 61.6398C6.74889 61.6398 6.18617 61.3327 5.69874 60.8622L5.21924 61.4005C5.72648 61.9149 6.51508 62.2977 7.39086 62.2977C8.73822 62.2977 9.53079 61.5082 9.53079 60.4913C9.53079 59.4745 9.09091 59.0399 7.66034 58.5175L7.65637 58.5255Z" fill="white"/>
<path d="M12.4591 57.2295C11.829 57.2295 11.2544 57.385 10.8304 57.6163L11.0919 58.1825C11.4882 57.9512 11.9043 57.8077 12.4116 57.8077C13.1169 57.8077 13.4657 58.1586 13.4657 58.8883V59.4665C13.1803 59.307 12.7444 59.1834 12.253 59.1834C11.294 59.1834 10.3984 59.6499 10.3984 60.7465C10.3984 61.9228 11.195 62.3016 11.9479 62.3016C12.6414 62.3016 13.1169 61.9786 13.4617 61.6078V62.202H14.1512V58.8046C14.1512 57.6721 13.4974 57.2295 12.4591 57.2295ZM13.4617 61.0057C13.1685 61.4124 12.6929 61.7394 12.0668 61.7394C11.4763 61.7394 11.0761 61.4204 11.0761 60.6947C11.0761 60.0846 11.5041 59.7337 12.2134 59.7337C12.8039 59.7337 13.1447 59.8413 13.4577 60.0168V61.0017L13.4617 61.0057Z" fill="white"/>
<path d="M21.1063 59.3509V62.202H21.7998V59.2312C21.7998 57.8077 21.1855 57.2295 20.1948 57.2295C19.4102 57.2295 19.0139 57.5963 18.7286 58.0629C18.4987 57.5963 18.0826 57.2295 17.401 57.2295C16.8264 57.2295 16.4183 57.5046 16.1726 57.9273V57.3332H15.4751V62.2059H16.1726V59.3549C16.1726 58.2742 16.5887 57.8316 17.2544 57.8316C17.9202 57.8316 18.2966 58.2383 18.2966 59.3549V62.2059H18.9901V59.3549C18.9901 58.2742 19.4102 57.8316 20.068 57.8316C20.7694 57.8316 21.1102 58.2383 21.1102 59.3549L21.1063 59.3509Z" fill="white"/>
<path d="M24.5738 59.3748C23.7535 59 23.5078 58.8365 23.5078 58.4258C23.5078 58.0749 23.801 57.8196 24.3122 57.8196C24.8234 57.8196 25.1405 57.9592 25.5169 58.2583L25.9053 57.7439C25.5367 57.4368 25.0216 57.2295 24.3519 57.2295C23.4761 57.2295 22.842 57.7279 22.842 58.4696C22.842 59.2512 23.2462 59.5463 24.2171 59.9649C25.0731 60.3358 25.3624 60.5591 25.3624 60.9578C25.3624 61.4324 25.0493 61.7115 24.3836 61.7115C23.9041 61.7115 23.4523 61.5121 23.0639 61.1732L22.6558 61.6836C23.1194 62.0584 23.698 62.3056 24.3637 62.3056C25.2039 62.3056 26.0242 61.8909 26.0242 60.9339C26.0242 60.0606 25.4892 59.7935 24.5738 59.3788V59.3748Z" fill="white"/>
<path d="M30.0702 60.1763C30.0702 61.2449 29.5392 61.6955 28.8734 61.6955C28.0927 61.6955 27.7242 61.225 27.7242 60.1763V57.3292H27.0347V60.2959C27.0347 61.6955 27.7044 62.2977 28.7268 62.2977C29.341 62.2977 29.7888 62.0106 30.0662 61.6038V62.198H30.7597V57.3252H30.0662V60.1723L30.0702 60.1763Z" fill="white"/>
<path d="M35.6538 62.202V59.2312C35.6538 57.8276 34.9801 57.2295 33.9538 57.2295C33.3475 57.2295 32.8957 57.5126 32.6223 57.9273V57.3332H31.9248V62.2059H32.6223V59.3549C32.6223 58.2902 33.1414 57.8316 33.819 57.8316C34.5918 57.8316 34.9643 58.3061 34.9643 59.3549V62.2059H35.6578L35.6538 62.202Z" fill="white"/>
<path d="M37.8332 63.466L38.0551 63.9963C39.8542 63.9365 40.5081 63.2347 40.5081 61.7673V57.3292H39.8185V57.8755C39.4777 57.4847 39.0656 57.2295 38.4553 57.2295C37.4369 57.2295 36.6245 58.1147 36.6245 59.8453C36.6245 61.5759 37.3933 62.3016 38.3642 62.3016C39.0181 62.3016 39.4817 61.9786 39.8225 61.6078V61.859C39.8225 62.9915 39.454 63.4182 37.8371 63.466H37.8332ZM38.5346 61.6995C37.7698 61.6995 37.3061 61.0615 37.3061 59.8373C37.3061 58.5254 37.7024 57.8316 38.5069 57.8316C39.0815 57.8316 39.5491 58.1586 39.8146 58.5613V60.9977C39.4738 61.4284 39.0498 61.6995 38.5306 61.6995H38.5346Z" fill="white"/>
<path d="M48.1445 58.9081C48.1445 56.6791 46.8963 55.7021 45.2002 55.7021H43.4922V62.2018H45.0694C46.7972 62.2018 48.1445 61.2648 48.1445 58.9041V58.9081ZM44.2134 56.3601H45.1447C46.6307 56.3601 47.4233 57.2732 47.4233 58.9321C47.4233 60.8022 46.5554 61.5439 45.1605 61.5439H44.2095V56.3601H44.2134Z" fill="white"/>
<path d="M49.9913 57.9351V57.333H49.2979V62.2058H49.9913V59.3467C49.9913 58.4136 50.3678 57.8753 51.0455 57.8753C51.3664 57.8753 51.5804 57.9471 51.7707 58.0587L51.945 57.3569C51.7825 57.2812 51.5487 57.2373 51.1921 57.2373C50.6729 57.2373 50.2093 57.5483 49.9953 57.9431L49.9913 57.9351Z" fill="white"/>
<path d="M56.086 61.7394L55.7651 61.237C55.3212 61.536 54.9883 61.6995 54.4217 61.6995C53.6331 61.6995 53.1417 61.0416 53.0743 60.0048H56.304C56.3278 59.8892 56.3357 59.7895 56.3357 59.622C56.3357 58.2304 55.6501 57.2295 54.386 57.2295C53.2328 57.2295 52.3848 58.1905 52.3848 59.7377C52.3848 61.6557 53.4626 62.3016 54.3503 62.3016C55.0795 62.3016 55.5075 62.1063 56.09 61.7394H56.086ZM54.3781 57.8276C55.2261 57.8276 55.6343 58.4856 55.6898 59.4346H53.0743C53.1535 58.346 53.6568 57.8276 54.3781 57.8276Z" fill="white"/>
<path d="M58.6378 62.3016C59.3313 62.3016 59.8108 61.9786 60.1516 61.6078V62.202H60.8451V58.8046C60.8451 57.6721 60.1913 57.2295 59.1451 57.2295C58.515 57.2295 57.9443 57.385 57.5203 57.6163L57.7819 58.1825C58.1782 57.9512 58.5943 57.8077 59.1015 57.8077C59.8108 57.8077 60.1516 58.1586 60.1516 58.8883V59.4665C59.8703 59.307 59.4344 59.1834 58.9509 59.1834C57.9879 59.1834 57.0884 59.6499 57.0884 60.7465C57.0884 61.9228 57.8849 62.3016 58.6378 62.3016ZM58.9073 59.7377C59.4938 59.7377 59.8386 59.8453 60.1516 60.0208V61.0057C59.8584 61.4124 59.3868 61.7394 58.7647 61.7394C58.1425 61.7394 57.7739 61.4204 57.7739 60.6947C57.7739 60.0846 58.2019 59.7337 58.9113 59.7337L58.9073 59.7377Z" fill="white"/>
<path d="M67.7962 59.3509V62.202H68.4857V59.2312C68.4857 57.8077 67.8714 57.2295 66.8807 57.2295C66.0961 57.2295 65.6998 57.5963 65.4145 58.0629C65.1847 57.5963 64.7725 57.2295 64.0869 57.2295C63.5123 57.2295 63.1081 57.5046 62.8585 57.9273V57.3332H62.1689V62.2059H62.8585V59.3549C62.8585 58.2742 63.2746 57.8316 63.9403 57.8316C64.6061 57.8316 64.9825 58.2383 64.9825 59.3549V62.2059H65.6721V59.3549C65.6721 58.2742 66.0961 57.8316 66.7539 57.8316C67.4514 57.8316 67.7962 58.2383 67.7962 59.3549V59.3509Z" fill="white"/>
<path d="M73.6652 58.5254C72.3733 58.0629 72.1355 57.7558 72.1355 57.2175C72.1355 56.6792 72.5041 56.2605 73.3878 56.2605C74.0377 56.2605 74.4696 56.4718 74.9372 56.8626L75.3969 56.2964C74.854 55.8617 74.2992 55.6025 73.4353 55.6025C72.2267 55.6025 71.4143 56.2166 71.4143 57.2614C71.4143 58.1984 71.8819 58.653 73.2808 59.1514C74.4617 59.5821 74.8223 59.925 74.8223 60.5271C74.8223 61.213 74.2873 61.6397 73.4274 61.6397C72.7616 61.6397 72.1989 61.3286 71.7075 60.8581L71.228 61.3924C71.7353 61.9148 72.5239 62.2936 73.3957 62.2936C74.7391 62.2936 75.5356 61.5041 75.5356 60.4873C75.5356 59.4705 75.0957 59.0358 73.6652 58.5134V58.5254Z" fill="white"/>
<path d="M78.4759 57.8316C78.9633 57.8316 79.2883 58.0071 79.637 58.3261L80.0531 57.8037C79.6727 57.4687 79.1734 57.2295 78.5195 57.2295C77.505 57.2295 76.4351 57.9871 76.4351 59.7935C76.4351 61.4922 77.4059 62.3056 78.4759 62.3056C79.1536 62.3056 79.6251 62.0464 80.0333 61.6277L79.6172 61.1851C79.2883 61.5081 78.9713 61.7035 78.5037 61.7035C77.6437 61.7035 77.1365 60.9339 77.1365 59.7337C77.1365 58.5334 77.723 57.8316 78.4799 57.8316H78.4759Z" fill="white"/>
<path d="M83.0173 57.2298C82.4109 57.2298 81.9552 57.5129 81.6778 57.9276V55.6348H80.9883V62.2062H81.6778V59.3551C81.6778 58.2865 82.2088 57.8319 82.8785 57.8319C83.6553 57.8319 84.0198 58.3024 84.0198 59.3551V62.2062H84.7133V59.2315C84.7133 57.8319 84.0397 57.2298 83.0133 57.2298H83.0173Z" fill="white"/>
<path d="M87.8047 57.2295C86.6277 57.2295 85.6846 58.1147 85.6846 59.7735C85.6846 61.4324 86.5881 62.3056 87.769 62.3056C88.9499 62.3056 89.8931 61.3885 89.8931 59.7337C89.8931 58.0788 88.9816 57.2295 87.8047 57.2295ZM87.7928 61.7035C86.9527 61.7035 86.386 61.0376 86.386 59.7536C86.386 58.4696 86.9527 57.8316 87.7928 57.8316C88.6329 57.8316 89.1996 58.4736 89.1996 59.7536C89.1996 61.0336 88.6289 61.7035 87.7928 61.7035Z" fill="white"/>
<path d="M91.6325 55.6348H90.939V62.2062H91.6325V55.6348Z" fill="white"/>
<path d="M94.795 57.2295C94.1689 57.2295 93.5942 57.389 93.1742 57.6203L93.4318 58.1905C93.8281 57.9552 94.2442 57.8157 94.7514 57.8157C95.4607 57.8157 95.8015 58.1705 95.8015 58.8883V59.4705C95.5162 59.307 95.0803 59.1874 94.5968 59.1874C93.6339 59.1874 92.7383 59.6539 92.7383 60.7505C92.7383 61.9308 93.5308 62.3056 94.2877 62.3056C94.9812 62.3056 95.4607 61.9866 95.8015 61.6118V62.2059H96.495V58.8086C96.495 57.6721 95.8412 57.2295 94.795 57.2295ZM95.8015 61.0057C95.5083 61.4124 95.0328 61.7394 94.4106 61.7394C93.8241 61.7394 93.4238 61.4204 93.4238 60.6986C93.4238 60.0846 93.8518 59.7416 94.5612 59.7416C95.1516 59.7416 95.4924 59.8453 95.8055 60.0208V61.0057H95.8015Z" fill="white"/>
<path d="M98.5079 57.9353V57.3292H97.8145V62.2059H98.5079V59.3469C98.5079 58.4178 98.8844 57.8715 99.5581 57.8715C99.883 57.8715 100.093 57.9433 100.287 58.0549L100.462 57.3491C100.299 57.2773 100.065 57.2295 99.7087 57.2295C99.1896 57.2295 98.7259 57.5405 98.5079 57.9353Z" fill="white"/>
<path d="M103.121 59.3749C102.296 59 102.051 58.8326 102.051 58.4218C102.051 58.0709 102.348 57.8157 102.855 57.8157C103.362 57.8157 103.687 57.9593 104.064 58.2544L104.452 57.744C104.08 57.4369 103.568 57.2256 102.903 57.2256C102.023 57.2256 101.389 57.724 101.389 58.4697C101.389 59.2513 101.797 59.5463 102.768 59.961C103.624 60.3319 103.913 60.5552 103.913 60.9539C103.913 61.4324 103.596 61.7076 102.938 61.7076C102.455 61.7076 102.003 61.5082 101.615 61.1693L101.21 61.6797C101.67 62.0545 102.253 62.3017 102.918 62.3017C103.755 62.3017 104.579 61.887 104.579 60.93C104.579 60.0528 104.044 59.7896 103.128 59.3709L103.121 59.3749Z" fill="white"/>
<path d="M107.73 57.2298C107.119 57.2298 106.668 57.5129 106.39 57.9276V55.6348H105.701V62.2062H106.39V59.3551C106.39 58.2865 106.917 57.8319 107.591 57.8319C108.364 57.8319 108.732 58.3024 108.732 59.3551V62.2062H109.426V59.2315C109.426 57.8319 108.752 57.2298 107.73 57.2298Z" fill="white"/>
<path d="M111.483 57.3291H110.793V62.2059H111.483V57.3291Z" fill="white"/>
<path d="M111.153 55.4629C110.868 55.4629 110.646 55.6862 110.646 55.9693C110.646 56.2365 110.868 56.4598 111.153 56.4598C111.407 56.4598 111.633 56.2365 111.633 55.9693C111.633 55.6862 111.407 55.4629 111.153 55.4629Z" fill="white"/>
<path d="M115.029 57.2295C114.375 57.2295 113.912 57.5525 113.571 57.9273V57.3332H112.881V64.0003H113.571V61.6596C113.912 62.0464 114.328 62.3056 114.938 62.3056C115.953 62.3056 116.765 61.4124 116.765 59.6898C116.765 57.9672 115.996 57.2295 115.029 57.2295ZM114.883 61.7035C114.312 61.7035 113.84 61.3765 113.571 60.9698V58.5374C113.912 58.1147 114.34 57.8316 114.855 57.8316C115.624 57.8316 116.087 58.4736 116.087 59.6978C116.087 61.0057 115.691 61.7035 114.883 61.7035Z" fill="white"/>
<path d="M120.43 56.364H123.505V55.7061H119.709V62.2057H120.43V59.1752H122.202V58.5213H120.43V56.364Z" fill="white"/>
<path d="M125.61 57.2295C124.433 57.2295 123.486 58.1147 123.486 59.7735C123.486 61.4324 124.393 62.3056 125.57 62.3056C126.747 62.3056 127.694 61.3885 127.694 59.7337C127.694 58.0788 126.791 57.2295 125.61 57.2295ZM125.59 61.7035C124.75 61.7035 124.187 61.0376 124.187 59.7536C124.187 58.4696 124.75 57.8316 125.59 57.8316C126.43 57.8316 127.005 58.4736 127.005 59.7536C127.005 61.0336 126.434 61.7035 125.59 61.7035Z" fill="white"/>
<path d="M131.518 60.1762C131.518 61.2449 130.995 61.6994 130.322 61.6994C129.545 61.6994 129.176 61.2289 129.176 60.1762V57.3291H128.483V60.2998C128.483 61.7034 129.157 62.3055 130.183 62.3055C130.785 62.3055 131.237 62.0224 131.514 61.6117V62.2059H132.208V57.3291H131.514V60.1762H131.518Z" fill="white"/>
<path d="M135.402 57.2295C134.796 57.2295 134.344 57.5126 134.063 57.9273V57.3332H133.369V62.2099H134.063V59.3588C134.063 58.2902 134.59 57.8356 135.263 57.8356C136.04 57.8356 136.409 58.3061 136.409 59.3588V62.2099H137.098V59.2352C137.098 57.8356 136.424 57.2335 135.398 57.2335L135.402 57.2295Z" fill="white"/>
<path d="M141.267 57.8797C140.926 57.489 140.51 57.2298 139.9 57.2298C138.885 57.2298 138.073 58.115 138.073 59.8496C138.073 61.5842 138.838 62.3059 139.808 62.3059C140.462 62.3059 140.922 61.9869 141.267 61.6121V62.2062H141.96V55.6348H141.267V57.8837V57.8797ZM141.267 60.998C140.926 61.4247 140.498 61.7038 139.983 61.7038C139.218 61.7038 138.754 61.0658 138.754 59.8376C138.754 58.5257 139.151 57.8319 139.955 57.8319C140.53 57.8319 140.993 58.1549 141.267 58.5656V60.998Z" fill="white"/>
<path d="M144.897 57.2295C144.267 57.2295 143.696 57.389 143.272 57.6203L143.529 58.1905C143.93 57.9552 144.346 57.8157 144.849 57.8157C145.558 57.8157 145.899 58.1705 145.899 58.8883V59.4705C145.614 59.307 145.178 59.1874 144.691 59.1874C143.735 59.1874 142.836 59.6539 142.836 60.7505C142.836 61.9308 143.632 62.3056 144.389 62.3056C145.083 62.3056 145.558 61.9866 145.899 61.6118V62.2059H146.593V58.8086C146.593 57.6721 145.939 57.2295 144.897 57.2295ZM145.899 61.0057C145.606 61.4124 145.134 61.7394 144.504 61.7394C143.918 61.7394 143.522 61.4204 143.522 60.6986C143.522 60.0846 143.946 59.7416 144.655 59.7416C145.245 59.7416 145.586 59.8453 145.899 60.0208V61.0057Z" fill="white"/>
<path d="M148.8 55.6348H148.107V57.3335H147.508V57.9196H148.107V61.2093C148.107 62.0148 148.432 62.3099 149.034 62.3099C149.399 62.3099 149.656 62.2581 149.926 62.1424L149.973 61.5403C149.751 61.632 149.569 61.6799 149.288 61.6799C148.919 61.6799 148.8 61.5323 148.8 61.0937V57.9196H150.001V57.3335H148.8V55.6348Z" fill="white"/>
<path d="M151.57 55.4629C151.285 55.4629 151.059 55.6862 151.059 55.9693C151.059 56.2365 151.285 56.4598 151.57 56.4598C151.832 56.4598 152.054 56.2365 152.054 55.9693C152.054 55.6862 151.832 55.4629 151.57 55.4629Z" fill="white"/>
<path d="M151.899 57.3291H151.209V62.2059H151.899V57.3291Z" fill="white"/>
<path d="M155.069 57.2295C153.892 57.2295 152.949 58.1147 152.949 59.7735C152.949 61.4324 153.853 62.3056 155.034 62.3056C156.215 62.3056 157.154 61.3885 157.154 59.7337C157.154 58.0788 156.25 57.2295 155.069 57.2295ZM155.046 61.7035C154.209 61.7035 153.647 61.0376 153.647 59.7536C153.647 58.4696 154.209 57.8316 155.046 57.8316C155.882 57.8316 156.46 58.4736 156.46 59.7536C156.46 61.0336 155.89 61.7035 155.046 61.7035Z" fill="white"/>
<path d="M160.181 57.2295C159.571 57.2295 159.119 57.5126 158.842 57.9273V57.3332H158.148V62.2099H158.842V59.3588C158.842 58.2902 159.369 57.8356 160.043 57.8356C160.823 57.8356 161.188 58.3061 161.188 59.3588V62.2099H161.877V59.2352C161.877 57.8356 161.204 57.2335 160.181 57.2335V57.2295Z" fill="white"/>
<path d="M88.6757 10.8182L83.3536 8.60112L88.6757 6.38405L87.7286 4.08723L82.4065 6.3043L84.6138 0.949034L82.3312 0L80.1279 5.35526L77.9206 0L75.642 0.949034L77.8453 6.3043L72.5232 4.08723L71.5801 6.38405L76.8982 8.60112L71.5801 10.8182L72.5232 13.115L77.8453 10.894L75.642 16.2492L77.9246 17.2022L80.1279 11.847L82.3312 17.2022L84.6138 16.2492L82.4065 10.894L87.7286 13.115L88.6757 10.8182Z" fill="white"/>
<path d="M54.2272 25.7673H57.77V16.249H45.6636V19.455H54.2272V25.7673Z" fill="white"/>
<path d="M68.0413 25.7673H71.5801V16.249H59.4736V19.455H68.0413V25.7673Z" fill="white"/>
<path d="M45.0928 30.6874H68.0415V35.5881H71.5803V27.4814H45.0928V30.6874Z" fill="white"/>
<path d="M53.6562 50.5616H71.5761V37.2393H53.6562V50.5616ZM57.199 40.4452H68.0413V47.3556H57.199V40.4452Z" fill="white"/>
</g>
<defs>
<clipPath id="clip0_26_1204">
<rect width="165" height="64" fill="white"/>
</clipPath>
</defs>
</svg>
