<svg width="191" height="73" viewBox="0 0 191 73" fill="none" xmlns="http://www.w3.org/2000/svg">
<g clip-path="url(#clip0_47_126)">
<path d="M39.322 46.9746C35.8449 46.9792 32.9824 49.6763 32.9824 53.0511C32.9824 56.4259 35.8449 59.0958 39.322 59.1049C42.8313 59.0912 45.6708 56.3941 45.6708 53.0511C45.6708 49.7081 42.8313 46.9792 39.322 46.9746ZM39.2349 56.335C37.4183 56.335 36.0421 54.8613 36.0421 53.0557C36.0421 51.25 37.5101 49.7445 39.3174 49.7445C41.1248 49.7445 42.5423 51.2136 42.5423 53.0557C42.5423 54.8977 41.056 56.335 39.2303 56.335H39.2349Z" fill="#004289"/>
<path d="M10.2207 42.7903C11.1932 43.7409 12.3033 44.5687 13.3905 45.1054L13.5052 45.1645L15.3768 42.9677L15.1979 42.8676C13.418 41.9125 12.0235 40.7072 11.1152 39.1835C10.2115 37.6871 9.74824 35.9406 9.74824 33.862V31.9062H6.39953V33.6528C6.39953 35.9087 5.88117 37.6826 4.91784 39.2381C3.83525 40.9573 2.23429 42.3446 0.183786 43.6272L0.00488281 43.7363L2.04163 45.824L2.15172 45.7603C3.35817 45.1054 4.64261 44.1002 5.7619 42.9813C6.72981 42.0034 7.56928 40.9482 8.07388 39.9522C8.56472 40.9255 9.32162 41.9216 10.2253 42.7767L10.2207 42.7903Z" fill="#004289"/>
<path d="M6.60156 57.6723H20.6294V48.1709H6.60156V57.6723ZM9.74843 50.8544H17.4688V54.9933H9.74843V50.8544Z" fill="#004289"/>
<path d="M20.6792 31.3467H17.5645V47.0838H20.6792V40.1203H24.3353V37.3231H20.6792V31.3467Z" fill="#004289"/>
<path d="M100.232 43.5949C101.255 44.4773 102.429 45.2186 103.53 45.6962L103.645 45.7508L105.328 43.4903L105.149 43.4039C103.544 42.5852 102.108 41.5755 101.081 40.3474C100.03 39.0875 99.4062 37.573 99.4062 35.7445V35.2079H104.044V32.4971H91.4427V35.2079H96.0804V35.8583C96.0804 37.5184 95.5207 39.0693 94.6033 40.4111C93.5207 42.0212 91.9381 43.322 90.4059 44.1589L90.2041 44.268L92.273 46.3921L92.3876 46.3375C93.5069 45.7098 94.7363 44.7593 95.7914 43.695C96.6355 42.8171 97.3924 41.8893 97.8557 40.966C98.4153 41.862 99.2731 42.7626 100.232 43.5994V43.5949Z" fill="#004289"/>
<path d="M122.792 50.9185H134.132V57.6727H137.283V48.2305H122.792V50.9185Z" fill="#004289"/>
<path d="M130.618 40.0977C130.618 38.6104 129.948 37.2413 128.948 36.1952H132.063V33.5163H126.118V30.5645H122.742V33.5163H116.654V36.1952H119.833C118.865 37.2413 118.186 38.5967 118.186 40.0977C118.186 43.4134 120.943 46.1105 124.393 46.1196C127.843 46.1105 130.618 43.4134 130.623 40.0977H130.618ZM121.191 39.9749C121.191 38.1374 122.755 36.5818 124.388 36.5818C126.021 36.5818 127.581 38.1464 127.586 39.9749C127.586 41.7805 126.021 43.3406 124.388 43.3451C122.751 43.3406 121.191 41.7805 121.191 39.9749Z" fill="#004289"/>
<path d="M137.284 31.3467H134.169V47.1383H137.284V41.1119H140.944V38.3192H137.284V31.3467Z" fill="#004289"/>
<path d="M110.861 31.3467H107.741V47.1383H110.861V40.1203H114.517V37.3231H110.861V31.3467Z" fill="#004289"/>
<path d="M181.747 43.2544H171.206V35.2949H179.238V32.4932H168.05V45.9743H181.747V43.2544Z" fill="#004289"/>
<path d="M43.1343 36.0314H38.2305V38.8013H43.1343V47.6341H46.2536V31.3467H43.1343V36.0314Z" fill="#004289"/>
<path d="M35.2076 43.2C36.1801 44.1506 37.3131 44.9784 38.4049 45.5378L38.5241 45.606L40.4003 43.4092L40.2168 43.3046C38.437 42.3858 37.07 41.1805 36.1571 39.6796C35.2259 38.1923 34.7626 36.3821 34.7626 34.299V31.9111H31.4047V34.1034C31.4047 36.3594 30.8955 38.1286 29.9505 39.6569C28.868 41.408 27.2441 42.7997 25.189 44.0778L25.0146 44.187L27.056 46.2837L27.1569 46.22C28.3679 45.5651 29.6203 44.6145 30.735 43.5275C31.7396 42.5314 32.5836 41.4534 33.0882 40.4073C33.5699 41.3534 34.3085 42.3267 35.1984 43.2H35.2076Z" fill="#004289"/>
<path d="M104.168 46.9746C100.691 46.9792 97.8288 49.6763 97.8242 53.0511C97.8288 56.3941 100.691 59.0958 104.168 59.1049C107.673 59.0912 110.517 56.3941 110.517 53.0511C110.517 49.7081 107.673 46.9792 104.168 46.9746ZM104.077 56.335C102.265 56.335 100.884 54.8613 100.884 53.0557C100.884 51.25 102.347 49.7445 104.168 49.7445C105.99 49.7445 107.389 51.2136 107.393 53.0557C107.389 54.8613 105.902 56.335 104.077 56.335Z" fill="#004289"/>
<path d="M175.789 49.2852H172.633V57.6722H187.385V54.9068H175.789V49.2852Z" fill="#004289"/>
<path d="M187.312 38.6421V31.3467H184.197V50.7633H187.312V41.4302H191V38.6421H187.312Z" fill="#004289"/>
<path d="M160.926 38.4602H158.302V31.7924H155.357V56.9945H158.302V41.4939H160.926V57.6722H163.986V31.3467H160.926V38.4602Z" fill="#004289"/>
<path d="M151.027 41.9532C150.325 40.4296 150.036 38.7331 150.036 36.6408V35.6448H153.573V32.8066H143.288V35.6448H146.94V36.6909C146.94 38.6694 146.678 40.284 146.045 41.785C145.316 43.5042 144.087 45.0597 142.128 46.7153L141.99 46.8427L143.926 48.7438L144.045 48.6529C145.018 47.9388 146.036 46.9063 146.889 45.842C147.605 44.9415 148.211 44.0136 148.596 43.1949C148.986 43.9909 149.596 44.9051 150.307 45.7602C151.137 46.7608 152.068 47.7114 152.963 48.2754L153.087 48.3572L154.715 46.4242L154.587 46.306C152.835 44.7914 151.747 43.4405 151.032 41.9487L151.027 41.9532Z" fill="#004289"/>
<path d="M8.86218 66.7545C7.36674 66.2269 7.08691 65.8721 7.08691 65.2626C7.08691 64.6532 7.51812 64.171 8.54108 64.171C9.2888 64.171 9.7934 64.4121 10.3347 64.8578L10.8668 64.2074C10.2384 63.7117 9.59615 63.416 8.59612 63.416C7.19701 63.416 6.25203 64.121 6.25203 65.3127C6.25203 66.3815 6.8025 66.8955 8.41263 67.4731C9.77964 67.9598 10.1971 68.3555 10.1971 69.0377C10.1971 69.8246 9.5778 70.3067 8.58236 70.3067C7.8117 70.3067 7.16031 69.9565 6.59607 69.4198L6.04102 70.0338C6.62819 70.6205 7.54105 71.0571 8.55484 71.0571C10.1145 71.0571 11.032 70.1566 11.032 68.9968C11.032 67.837 10.5228 67.3412 8.86677 66.7454L8.86218 66.7545Z" fill="#004289"/>
<path d="M14.4215 65.2764C13.6921 65.2764 13.027 65.4538 12.5361 65.7176L12.8389 66.3634C13.2976 66.0996 13.7793 65.9359 14.3665 65.9359C15.183 65.9359 15.5867 66.3361 15.5867 67.1684V67.828C15.2564 67.646 14.7518 67.505 14.183 67.505C13.0729 67.505 12.0361 68.0372 12.0361 69.288C12.0361 70.6297 12.9582 71.0618 13.8298 71.0618C14.6325 71.0618 15.183 70.6934 15.5821 70.2704V70.9481H16.3803V67.0729C16.3803 65.7812 15.6234 65.2764 14.4215 65.2764ZM15.5821 69.5836C15.2426 70.0475 14.6922 70.4205 13.9674 70.4205C13.2839 70.4205 12.8206 70.0566 12.8206 69.2288C12.8206 68.5329 13.316 68.1327 14.1371 68.1327C14.8206 68.1327 15.2151 68.2555 15.5775 68.4556V69.579L15.5821 69.5836Z" fill="#004289"/>
<path d="M24.4316 67.6961V70.9481H25.2344V67.5596C25.2344 65.9359 24.5233 65.2764 23.3765 65.2764C22.4682 65.2764 22.0095 65.6948 21.6792 66.227C21.4132 65.6948 20.9315 65.2764 20.1425 65.2764C19.4773 65.2764 19.0049 65.5902 18.7204 66.0723V65.3946H17.9131V70.9526H18.7204V67.7006C18.7204 66.468 19.2021 65.9632 19.9728 65.9632C20.7434 65.9632 21.1792 66.4271 21.1792 67.7006V70.9526H21.982V67.7006C21.982 66.468 22.4682 65.9632 23.2297 65.9632C24.0417 65.9632 24.4362 66.4271 24.4362 67.7006L24.4316 67.6961Z" fill="#004289"/>
<path d="M28.4448 67.7233C27.4953 67.2958 27.2109 67.1093 27.2109 66.6409C27.2109 66.2406 27.5503 65.9495 28.1421 65.9495C28.7338 65.9495 29.1008 66.1087 29.5366 66.4498L29.9862 65.8631C29.5596 65.5129 28.9632 65.2764 28.188 65.2764C27.1742 65.2764 26.4402 65.8449 26.4402 66.6909C26.4402 67.5823 26.9081 67.9189 28.032 68.3965C29.0228 68.8195 29.3577 69.0742 29.3577 69.529C29.3577 70.0703 28.9953 70.3886 28.2247 70.3886C27.6696 70.3886 27.1467 70.1612 26.6971 69.7746L26.2246 70.3568C26.7613 70.7843 27.4311 71.0663 28.2017 71.0663C29.1742 71.0663 30.1238 70.5933 30.1238 69.5017C30.1238 68.5056 29.5045 68.2009 28.4448 67.7279V67.7233Z" fill="#004289"/>
<path d="M34.8078 68.6378C34.8078 69.8567 34.1931 70.3707 33.4224 70.3707C32.5187 70.3707 32.0921 69.834 32.0921 68.6378V65.3903H31.2939V68.7742C31.2939 70.3707 32.0692 71.0575 33.2527 71.0575C33.9637 71.0575 34.4821 70.73 34.8032 70.2661V70.9437H35.606V65.3857H34.8032V68.6332L34.8078 68.6378Z" fill="#004289"/>
<path d="M41.2717 70.9481V67.5596C41.2717 65.9586 40.4919 65.2764 39.3038 65.2764C38.6019 65.2764 38.079 65.5993 37.7624 66.0723V65.3946H36.9551V70.9526H37.7624V67.7006C37.7624 66.4862 38.3634 65.9632 39.1478 65.9632C40.0423 65.9632 40.4735 66.5044 40.4735 67.7006V70.9526H41.2763L41.2717 70.9481Z" fill="#004289"/>
<path d="M43.7946 72.3899L44.0515 72.9948C46.1341 72.9266 46.891 72.1261 46.891 70.4523V65.3901H46.0928V66.0132C45.6983 65.5675 45.2213 65.2764 44.5148 65.2764C43.3359 65.2764 42.3955 66.2861 42.3955 68.26C42.3955 70.234 43.2854 71.0618 44.4093 71.0618C45.1662 71.0618 45.7029 70.6934 46.0974 70.2704V70.5569C46.0974 71.8486 45.6708 72.3353 43.7992 72.3899H43.7946ZM44.6066 70.375C43.7212 70.375 43.1845 69.6473 43.1845 68.2509C43.1845 66.7546 43.6432 65.9632 44.5745 65.9632C45.2396 65.9632 45.7809 66.3361 46.0883 66.7955V69.5745C45.6938 70.0657 45.2029 70.375 44.602 70.375H44.6066Z" fill="#004289"/>
<path d="M55.7302 67.191C55.7302 64.6485 54.2852 63.5342 52.3218 63.5342H50.3447V70.9479H52.1705C54.1705 70.9479 55.7302 69.879 55.7302 67.1865V67.191ZM51.1796 64.2846H52.2576C53.9778 64.2846 54.8953 65.3262 54.8953 67.2183C54.8953 69.3514 53.8907 70.1974 52.276 70.1974H51.175V64.2846H51.1796Z" fill="#004289"/>
<path d="M57.8682 66.0821V65.3953H57.0654V70.9533H57.8682V67.6922C57.8682 66.6279 58.304 66.0139 59.0884 66.0139C59.46 66.0139 59.7077 66.0957 59.9279 66.2231L60.1297 65.4226C59.9416 65.3362 59.671 65.2861 59.2581 65.2861C58.6572 65.2861 58.1205 65.6409 57.8728 66.0912L57.8682 66.0821Z" fill="#004289"/>
<path d="M64.9232 70.4205L64.5516 69.8474C64.0378 70.1885 63.6525 70.375 62.9965 70.375C62.0837 70.375 61.5148 69.6245 61.4369 68.442H65.1755C65.203 68.3101 65.2122 68.1964 65.2122 68.0053C65.2122 66.418 64.4186 65.2764 62.9552 65.2764C61.6203 65.2764 60.6387 66.3725 60.6387 68.1372C60.6387 70.325 61.8864 71.0618 62.914 71.0618C63.758 71.0618 64.2534 70.8389 64.9278 70.4205H64.9232ZM62.9461 65.9586C63.9277 65.9586 64.4002 66.7091 64.4645 67.7916H61.4369C61.5286 66.5499 62.1112 65.9586 62.9461 65.9586Z" fill="#004289"/>
<path d="M67.8776 71.0618C68.6804 71.0618 69.2354 70.6934 69.6299 70.2704V70.9481H70.4327V67.0729C70.4327 65.7812 69.6758 65.2764 68.4648 65.2764C67.7354 65.2764 67.0748 65.4538 66.584 65.7176L66.8868 66.3634C67.3455 66.0996 67.8271 65.9359 68.4143 65.9359C69.2354 65.9359 69.6299 66.3361 69.6299 67.1684V67.828C69.3042 67.646 68.7996 67.505 68.24 67.505C67.1253 67.505 66.084 68.0372 66.084 69.288C66.084 70.6297 67.006 71.0618 67.8776 71.0618ZM68.1895 68.1372C68.8685 68.1372 69.2675 68.26 69.6299 68.4602V69.5836C69.2905 70.0475 68.7446 70.4205 68.0244 70.4205C67.3042 70.4205 66.8776 70.0566 66.8776 69.2288C66.8776 68.5329 67.373 68.1327 68.1941 68.1327L68.1895 68.1372Z" fill="#004289"/>
<path d="M78.4788 67.6961V70.9481H79.2769V67.5596C79.2769 65.9359 78.5659 65.2764 77.4191 65.2764C76.5108 65.2764 76.0521 65.6948 75.7218 66.227C75.4558 65.6948 74.9787 65.2764 74.1851 65.2764C73.5199 65.2764 73.052 65.5902 72.763 66.0723V65.3946H71.9648V70.9526H72.763V67.7006C72.763 66.468 73.2447 65.9632 74.0154 65.9632C74.786 65.9632 75.2218 66.4271 75.2218 67.7006V70.9526H76.02V67.7006C76.02 66.468 76.5108 65.9632 77.2723 65.9632C78.0797 65.9632 78.4788 66.4271 78.4788 67.7006V67.6961Z" fill="#004289"/>
<path d="M85.2723 66.7548C83.7769 66.2272 83.5017 65.877 83.5017 65.263C83.5017 64.6489 83.9283 64.1714 84.9512 64.1714C85.7035 64.1714 86.2036 64.4124 86.7449 64.8582L87.277 64.2123C86.6485 63.7165 86.0063 63.4209 85.0063 63.4209C83.6072 63.4209 82.6668 64.1213 82.6668 65.313C82.6668 66.3818 83.2081 66.9003 84.8274 67.4689C86.1944 67.9601 86.6118 68.3512 86.6118 69.038C86.6118 69.8203 85.9925 70.307 84.9971 70.307C84.2264 70.307 83.575 69.9522 83.0062 69.4155L82.4512 70.025C83.0383 70.6208 83.9512 71.0529 84.9604 71.0529C86.5155 71.0529 87.4375 70.1524 87.4375 68.9925C87.4375 67.8327 86.9283 67.337 85.2723 66.7411V66.7548Z" fill="#004289"/>
<path d="M90.841 65.9632C91.4052 65.9632 91.7813 66.1633 92.185 66.5271L92.6667 65.9313C92.2263 65.5493 91.6483 65.2764 90.8914 65.2764C89.7171 65.2764 88.4785 66.1405 88.4785 68.2009C88.4785 70.1385 89.6024 71.0663 90.841 71.0663C91.6254 71.0663 92.1713 70.7707 92.6438 70.2931L92.1621 69.7883C91.7813 70.1567 91.4144 70.3795 90.8731 70.3795C89.8776 70.3795 89.2905 69.5017 89.2905 68.1327C89.2905 66.7637 89.9694 65.9632 90.8455 65.9632H90.841Z" fill="#004289"/>
<path d="M96.0987 65.2763C95.3968 65.2763 94.8693 65.5993 94.5482 66.0723V63.457H93.75V70.9526H94.5482V67.7006C94.5482 66.4816 95.1629 65.9631 95.9381 65.9631C96.8372 65.9631 97.2593 66.4998 97.2593 67.7006V70.9526H98.062V67.5596C98.062 65.9631 97.2822 65.2763 96.0941 65.2763H96.0987Z" fill="#004289"/>
<path d="M101.64 65.2764C100.277 65.2764 99.1855 66.2861 99.1855 68.1782C99.1855 70.0703 100.231 71.0663 101.598 71.0663C102.965 71.0663 104.057 70.0202 104.057 68.1327C104.057 66.2452 103.002 65.2764 101.64 65.2764ZM101.626 70.3795C100.653 70.3795 99.9975 69.62 99.9975 68.1554C99.9975 66.6909 100.653 65.9632 101.626 65.9632C102.598 65.9632 103.254 66.6954 103.254 68.1554C103.254 69.6154 102.594 70.3795 101.626 70.3795Z" fill="#004289"/>
<path d="M106.071 63.457H105.269V70.9526H106.071V63.457Z" fill="#004289"/>
<path d="M109.731 65.2764C109.007 65.2764 108.341 65.4583 107.855 65.7221L108.153 66.3725C108.612 66.1042 109.094 65.945 109.681 65.945C110.502 65.945 110.897 66.3498 110.897 67.1684V67.8325C110.566 67.646 110.062 67.5096 109.502 67.5096C108.387 67.5096 107.351 68.0417 107.351 69.2925C107.351 70.6388 108.268 71.0663 109.144 71.0663C109.947 71.0663 110.502 70.7025 110.897 70.2749V70.9526H111.699V67.0775C111.699 65.7812 110.942 65.2764 109.731 65.2764ZM110.897 69.5836C110.557 70.0475 110.007 70.4205 109.286 70.4205C108.607 70.4205 108.144 70.0566 108.144 69.2334C108.144 68.5329 108.64 68.1418 109.461 68.1418C110.144 68.1418 110.539 68.26 110.901 68.4602V69.5836H110.897Z" fill="#004289"/>
<path d="M114.03 66.0814V65.3901H113.228V70.9526H114.03V67.6915C114.03 66.6318 114.466 66.0086 115.246 66.0086C115.622 66.0086 115.865 66.0905 116.09 66.2179L116.292 65.4128C116.104 65.3309 115.833 65.2764 115.42 65.2764C114.819 65.2764 114.283 65.6311 114.03 66.0814Z" fill="#004289"/>
<path d="M119.369 67.724C118.415 67.2964 118.131 67.1054 118.131 66.6369C118.131 66.2367 118.475 65.9456 119.062 65.9456C119.649 65.9456 120.025 66.1093 120.461 66.4459L120.911 65.8637C120.479 65.5135 119.888 65.2725 119.117 65.2725C118.099 65.2725 117.365 65.841 117.365 66.6915C117.365 67.583 117.837 67.9196 118.961 68.3926C119.952 68.8156 120.287 69.0703 120.287 69.5251C120.287 70.0709 119.92 70.3847 119.158 70.3847C118.599 70.3847 118.076 70.1573 117.626 69.7707L117.158 70.3529C117.69 70.7804 118.365 71.0624 119.135 71.0624C120.103 71.0624 121.057 70.5894 121.057 69.4978C121.057 68.4972 120.438 68.197 119.378 67.7194L119.369 67.724Z" fill="#004289"/>
<path d="M124.704 65.2763C123.998 65.2763 123.475 65.5993 123.154 66.0723V63.457H122.355V70.9526H123.154V67.7006C123.154 66.4816 123.764 65.9631 124.544 65.9631C125.438 65.9631 125.865 66.4998 125.865 67.7006V70.9526H126.667V67.5596C126.667 65.9631 125.888 65.2763 124.704 65.2763Z" fill="#004289"/>
<path d="M129.048 65.3906H128.25V70.9532H129.048V65.3906Z" fill="#004289"/>
<path d="M128.668 63.2617C128.338 63.2617 128.081 63.5164 128.081 63.8394C128.081 64.1441 128.338 64.3988 128.668 64.3988C128.962 64.3988 129.223 64.1441 129.223 63.8394C129.223 63.5164 128.962 63.2617 128.668 63.2617Z" fill="#004289"/>
<path d="M133.154 65.2764C132.397 65.2764 131.861 65.6448 131.466 66.0723V65.3946H130.668V72.9994H131.466V70.3295C131.861 70.7707 132.342 71.0663 133.049 71.0663C134.223 71.0663 135.163 70.0475 135.163 68.0827C135.163 66.1178 134.274 65.2764 133.154 65.2764ZM132.985 70.3795C132.324 70.3795 131.778 70.0066 131.466 69.5427V66.7682C131.861 66.2861 132.356 65.9632 132.952 65.9632C133.842 65.9632 134.379 66.6954 134.379 68.0918C134.379 69.5836 133.92 70.3795 132.985 70.3795Z" fill="#004289"/>
<path d="M139.406 64.2895H142.966V63.5391H138.571V70.9528H139.406V67.4961H141.457V66.7502H139.406V64.2895Z" fill="#004289"/>
<path d="M145.402 65.2764C144.04 65.2764 142.943 66.2861 142.943 68.1782C142.943 70.0703 143.994 71.0663 145.356 71.0663C146.719 71.0663 147.815 70.0202 147.815 68.1327C147.815 66.2452 146.769 65.2764 145.402 65.2764ZM145.379 70.3795C144.407 70.3795 143.755 69.62 143.755 68.1554C143.755 66.6909 144.407 65.9632 145.379 65.9632C146.352 65.9632 147.017 66.6954 147.017 68.1554C147.017 69.6154 146.356 70.3795 145.379 70.3795Z" fill="#004289"/>
<path d="M152.241 68.6381C152.241 69.857 151.636 70.3755 150.856 70.3755C149.957 70.3755 149.53 69.8388 149.53 68.6381V65.3906H148.728V68.7791C148.728 70.3801 149.507 71.0669 150.695 71.0669C151.393 71.0669 151.916 70.744 152.237 70.2755V70.9532H153.04V65.3906H152.237V68.6381H152.241Z" fill="#004289"/>
<path d="M156.737 65.2764C156.035 65.2764 155.512 65.5993 155.187 66.0723V65.3946H154.384V70.9572H155.187V67.7052C155.187 66.4862 155.797 65.9677 156.577 65.9677C157.476 65.9677 157.902 66.5044 157.902 67.7052V70.9572H158.7V67.5642C158.7 65.9677 157.921 65.2809 156.732 65.2809L156.737 65.2764Z" fill="#004289"/>
<path d="M163.526 66.0177C163.132 65.572 162.65 65.2763 161.944 65.2763C160.769 65.2763 159.829 66.2861 159.829 68.2646C159.829 70.2431 160.714 71.0663 161.838 71.0663C162.595 71.0663 163.127 70.7024 163.526 70.2749V70.9526H164.329V63.457H163.526V66.0223V66.0177ZM163.526 69.5745C163.132 70.0611 162.636 70.3795 162.04 70.3795C161.155 70.3795 160.618 69.6518 160.618 68.2509C160.618 66.7545 161.077 65.9631 162.008 65.9631C162.673 65.9631 163.21 66.3315 163.526 66.8V69.5745Z" fill="#004289"/>
<path d="M167.728 65.2764C166.999 65.2764 166.338 65.4583 165.847 65.7221L166.146 66.3725C166.609 66.1042 167.091 65.945 167.673 65.945C168.494 65.945 168.889 66.3498 168.889 67.1684V67.8325C168.558 67.646 168.054 67.5096 167.49 67.5096C166.384 67.5096 165.343 68.0417 165.343 69.2925C165.343 70.6388 166.265 71.0663 167.141 71.0663C167.944 71.0663 168.494 70.7025 168.889 70.2749V70.9526H169.692V67.0775C169.692 65.7812 168.935 65.2764 167.728 65.2764ZM168.889 69.5836C168.549 70.0475 168.003 70.4205 167.274 70.4205C166.595 70.4205 166.136 70.0566 166.136 69.2334C166.136 68.5329 166.627 68.1418 167.448 68.1418C168.132 68.1418 168.526 68.26 168.889 68.4602V69.5836Z" fill="#004289"/>
<path d="M172.246 63.457H171.444V65.3946H170.751V66.0632H171.444V69.8155C171.444 70.7343 171.82 71.0709 172.517 71.0709C172.939 71.0709 173.237 71.0117 173.549 70.8798L173.604 70.193C173.347 70.2977 173.136 70.3522 172.811 70.3522C172.384 70.3522 172.246 70.1839 172.246 69.6836V66.0632H173.636V65.3946H172.246V63.457Z" fill="#004289"/>
<path d="M175.453 63.2617C175.123 63.2617 174.861 63.5164 174.861 63.8394C174.861 64.1441 175.123 64.3988 175.453 64.3988C175.756 64.3988 176.013 64.1441 176.013 63.8394C176.013 63.5164 175.756 63.2617 175.453 63.2617Z" fill="#004289"/>
<path d="M175.834 65.3906H175.036V70.9532H175.834V65.3906Z" fill="#004289"/>
<path d="M179.504 65.2764C178.142 65.2764 177.05 66.2861 177.05 68.1782C177.05 70.0703 178.096 71.0663 179.463 71.0663C180.83 71.0663 181.917 70.0202 181.917 68.1327C181.917 66.2452 180.871 65.2764 179.504 65.2764ZM179.476 70.3795C178.509 70.3795 177.857 69.62 177.857 68.1554C177.857 66.6909 178.509 65.9632 179.476 65.9632C180.444 65.9632 181.114 66.6954 181.114 68.1554C181.114 69.6154 180.454 70.3795 179.476 70.3795Z" fill="#004289"/>
<path d="M185.422 65.2764C184.715 65.2764 184.192 65.5993 183.871 66.0723V65.3946H183.068V70.9572H183.871V67.7052C183.871 66.4862 184.481 65.9677 185.261 65.9677C186.165 65.9677 186.587 66.5044 186.587 67.7052V70.9572H187.385V67.5642C187.385 65.9677 186.605 65.2809 185.422 65.2809V65.2764Z" fill="#004289"/>
<path d="M102.649 12.3395L96.4881 9.81065L102.649 7.28181L101.552 4.66199L95.3918 7.19084L97.9469 1.08249L95.3046 0L92.7541 6.10835L90.199 0L87.5613 1.08249L90.1118 7.19084L83.9511 4.66199L82.8594 7.28181L89.0155 9.81065L82.8594 12.3395L83.9511 14.9593L90.1118 12.4259L87.5613 18.5343L90.2036 19.6213L92.7541 13.513L95.3046 19.6213L97.9469 18.5343L95.3918 12.4259L101.552 14.9593L102.649 12.3395Z" fill="#009FE3"/>
<path d="M62.7715 29.3909H66.8725V18.5342H52.8584V22.191H62.7715V29.3909Z" fill="#009FE3"/>
<path d="M78.7634 29.3909H82.8598V18.5342H68.8457V22.191H78.7634V29.3909Z" fill="#009FE3"/>
<path d="M52.1982 35.0035H78.7631V40.5933H82.8595V31.3467H52.1982V35.0035Z" fill="#009FE3"/>
<path d="M62.1113 57.6724H82.8549V42.4766H62.1113V57.6724ZM66.2123 46.1334H78.7631V54.0156H66.2123V46.1334Z" fill="#009FE3"/>
</g>
<defs>
<clipPath id="clip0_47_126">
<rect width="191" height="73" fill="white"/>
</clipPath>
</defs>
</svg>
