<svg width="323" height="112" viewBox="0 0 323 112" fill="none" xmlns="http://www.w3.org/2000/svg">
<path d="M4.352 1.504H5.456V2.944C5.456 3.872 5.29067 4.73067 4.96 5.52C4.62933 6.30933 4.16533 6.99733 3.568 7.584C2.97067 8.17067 2.26133 8.624 1.44 8.944L0.736 7.888C1.472 7.61067 2.112 7.22667 2.656 6.736C3.2 6.24533 3.616 5.67467 3.904 5.024C4.20267 4.36267 4.352 3.66933 4.352 2.944V1.504ZM4.592 1.504H5.664V2.912C5.664 3.41333 5.74933 3.89867 5.92 4.368C6.10133 4.83733 6.34667 5.27467 6.656 5.68C6.96533 6.07467 7.33333 6.42667 7.76 6.736C8.19733 7.04533 8.67733 7.296 9.2 7.488L8.496 8.528C7.728 8.22933 7.05067 7.80267 6.464 7.248C5.87733 6.69333 5.41867 6.048 5.088 5.312C4.75733 4.56533 4.592 3.76533 4.592 2.912V1.504ZM10.704 0.768H12.032V9.232H10.704V0.768ZM11.664 4.368H14.16V5.472H11.664V4.368ZM2.944 9.904H12.032V15.056H2.944V9.904ZM10.72 10.976H4.24V13.968H10.72V10.976ZM19.1668 1.584H20.2708V3.072C20.2708 4.01067 20.1001 4.87467 19.7588 5.664C19.4281 6.45333 18.9588 7.14667 18.3508 7.744C17.7534 8.33067 17.0388 8.77867 16.2068 9.088L15.5028 8.016C16.2494 7.74933 16.8948 7.37067 17.4388 6.88C17.9828 6.38933 18.4041 5.81867 18.7028 5.168C19.0121 4.50667 19.1668 3.808 19.1668 3.072V1.584ZM19.4068 1.584H20.4788V3.024C20.4788 3.70667 20.6281 4.352 20.9268 4.96C21.2254 5.568 21.6361 6.10667 22.1588 6.576C22.6921 7.03467 23.3108 7.38133 24.0148 7.616L23.2948 8.656C22.5161 8.35733 21.8334 7.936 21.2468 7.392C20.6601 6.848 20.2068 6.20267 19.8868 5.456C19.5668 4.70933 19.4068 3.89867 19.4068 3.024V1.584ZM26.0948 0.768H27.4228V9.328H26.0948V0.768ZM22.6548 9.76C24.1481 9.76 25.3214 10 26.1748 10.48C27.0388 10.96 27.4708 11.632 27.4708 12.496C27.4708 13.3493 27.0388 14.016 26.1748 14.496C25.3214 14.976 24.1481 15.216 22.6548 15.216C21.1614 15.216 19.9828 14.976 19.1188 14.496C18.2654 14.016 17.8388 13.3493 17.8388 12.496C17.8388 11.632 18.2654 10.96 19.1188 10.48C19.9828 10 21.1614 9.76 22.6548 9.76ZM22.6548 10.816C21.9294 10.816 21.3054 10.8853 20.7828 11.024C20.2601 11.152 19.8548 11.344 19.5668 11.6C19.2894 11.8453 19.1508 12.144 19.1508 12.496C19.1508 12.8373 19.2894 13.136 19.5668 13.392C19.8548 13.6373 20.2601 13.8293 20.7828 13.968C21.3054 14.096 21.9294 14.16 22.6548 14.16C23.3908 14.16 24.0148 14.096 24.5268 13.968C25.0494 13.8293 25.4494 13.6373 25.7268 13.392C26.0148 13.136 26.1588 12.8373 26.1588 12.496C26.1588 12.144 26.0148 11.8453 25.7268 11.6C25.4494 11.344 25.0494 11.152 24.5268 11.024C24.0148 10.8853 23.3908 10.816 22.6548 10.816ZM22.9427 3.824H26.3668V4.928H22.9427V3.824ZM31.5015 1.456H35.3255V2.544H31.5015V1.456ZM34.8455 1.456H36.1415V1.888C36.1415 2.16533 36.1308 2.54933 36.1095 3.04C36.0988 3.53067 36.0455 4.112 35.9495 4.784C35.8535 5.44533 35.6882 6.18667 35.4535 7.008L34.1575 6.848C34.3922 6.02667 34.5575 5.30133 34.6535 4.672C34.7495 4.032 34.8028 3.48267 34.8135 3.024C34.8348 2.55467 34.8455 2.176 34.8455 1.888V1.456ZM37.2135 1.456H41.1015V2.544H37.2135V1.456ZM40.5095 1.456H41.7895V2.032C41.7895 2.512 41.7628 3.17333 41.7095 4.016C41.6668 4.85867 41.4962 5.872 41.1975 7.056L39.9015 6.88C40.1042 6.10133 40.2482 5.408 40.3335 4.8C40.4188 4.18133 40.4668 3.64267 40.4775 3.184C40.4988 2.72533 40.5095 2.34133 40.5095 2.032V1.456ZM30.2375 6.448H43.3415V7.536H30.2375V6.448ZM36.0935 7.28H37.4055V10.448H36.0935V7.28ZM31.8695 9.968H41.6775V15.04H31.8695V9.968ZM40.3655 11.024H33.1655V13.968H40.3655V11.024ZM48.5243 2.32H49.6123V3.488C49.6123 4.384 49.4416 5.21067 49.1003 5.968C48.7696 6.72533 48.3003 7.38667 47.6923 7.952C47.0949 8.51733 46.3856 8.94933 45.5643 9.248L44.8923 8.192C45.6176 7.936 46.2523 7.57333 46.7963 7.104C47.3403 6.624 47.7616 6.07467 48.0603 5.456C48.3696 4.83733 48.5243 4.18133 48.5243 3.488V2.32ZM48.7643 2.32H49.8523V3.488C49.8523 4.11733 49.9963 4.71467 50.2843 5.28C50.5723 5.84533 50.9776 6.34133 51.5003 6.768C52.0229 7.19467 52.6363 7.53067 53.3403 7.776L52.7163 8.816C51.9056 8.53867 51.2069 8.13867 50.6203 7.616C50.0336 7.09333 49.5749 6.48 49.2443 5.776C48.9243 5.06133 48.7643 4.29867 48.7643 3.488V2.32ZM45.2923 1.84H53.0363V2.928H45.2923V1.84ZM54.8603 0.768H56.1883V9.488H54.8603V0.768ZM55.8203 4.448H58.3163V5.552H55.8203V4.448ZM51.5803 9.888C52.5616 9.888 53.4043 9.99467 54.1083 10.208C54.8229 10.4107 55.3723 10.7093 55.7563 11.104C56.1403 11.4987 56.3323 11.9787 56.3323 12.544C56.3323 13.1093 56.1403 13.5893 55.7563 13.984C55.3723 14.3787 54.8229 14.6827 54.1083 14.896C53.4043 15.1093 52.5616 15.216 51.5803 15.216C50.5989 15.216 49.7509 15.1093 49.0363 14.896C48.3216 14.6827 47.7723 14.3787 47.3883 13.984C47.0043 13.5893 46.8123 13.1093 46.8123 12.544C46.8123 11.9787 47.0043 11.4987 47.3883 11.104C47.7723 10.7093 48.3216 10.4107 49.0363 10.208C49.7509 9.99467 50.5989 9.888 51.5803 9.888ZM51.5803 10.944C50.8656 10.944 50.2469 11.008 49.7243 11.136C49.2123 11.264 48.8176 11.4453 48.5403 11.68C48.2629 11.9147 48.1243 12.2027 48.1243 12.544C48.1243 12.8853 48.2629 13.1787 48.5403 13.424C48.8176 13.6587 49.2123 13.84 49.7243 13.968C50.2469 14.096 50.8656 14.16 51.5803 14.16C52.2949 14.16 52.9083 14.096 53.4203 13.968C53.9323 13.84 54.3269 13.6587 54.6043 13.424C54.8816 13.1787 55.0203 12.8853 55.0203 12.544C55.0203 12.2027 54.8816 11.9147 54.6043 11.68C54.3269 11.4453 53.9323 11.264 53.4203 11.136C52.9083 11.008 52.2949 10.944 51.5803 10.944ZM59.707 2.304H68.251V3.376H59.707V2.304ZM63.979 4.128C64.6617 4.128 65.2643 4.23467 65.787 4.448C66.3097 4.66133 66.715 4.96533 67.003 5.36C67.291 5.744 67.435 6.20267 67.435 6.736C67.435 7.26933 67.291 7.728 67.003 8.112C66.715 8.496 66.3097 8.8 65.787 9.024C65.2643 9.23733 64.6617 9.344 63.979 9.344C63.2963 9.344 62.6937 9.23733 62.171 9.024C61.6483 8.8 61.2377 8.496 60.939 8.112C60.651 7.728 60.507 7.26933 60.507 6.736C60.507 6.20267 60.651 5.744 60.939 5.36C61.2377 4.96533 61.6483 4.66133 62.171 4.448C62.6937 4.23467 63.2963 4.128 63.979 4.128ZM63.979 5.152C63.3177 5.152 62.7843 5.296 62.379 5.584C61.9843 5.86133 61.787 6.24533 61.787 6.736C61.787 7.216 61.9843 7.6 62.379 7.888C62.7843 8.16533 63.3177 8.304 63.979 8.304C64.6297 8.304 65.1577 8.16533 65.563 7.888C65.9683 7.6 66.171 7.216 66.171 6.736C66.171 6.24533 65.9683 5.86133 65.563 5.584C65.1683 5.296 64.6403 5.152 63.979 5.152ZM69.579 0.768H70.907V9.824H69.579V0.768ZM70.539 4.768H73.035V5.872H70.539V4.768ZM61.499 10.608H70.907V15.248H69.579V11.696H61.499V10.608ZM63.323 0.704H64.651V2.896H63.323V0.704ZM85.4498 0.768H86.7298V15.248H85.4498V0.768ZM83.1618 6.608H85.9458V7.728H83.1618V6.608ZM82.2978 1.072H83.5618V14.512H82.2978V1.072ZM77.3858 3.008H78.4098V4.688C78.4098 5.54133 78.3404 6.35733 78.2018 7.136C78.0631 7.91467 77.8498 8.62933 77.5618 9.28C77.2844 9.93067 76.9378 10.512 76.5218 11.024C76.1058 11.5253 75.6204 11.9413 75.0658 12.272L74.2338 11.248C74.9378 10.864 75.5191 10.3467 75.9778 9.696C76.4364 9.03467 76.7831 8.27733 77.0178 7.424C77.2631 6.57067 77.3858 5.65867 77.3858 4.688V3.008ZM77.6258 3.008H78.6658V4.688C78.6658 5.56267 78.7831 6.39467 79.0178 7.184C79.2524 7.97333 79.5991 8.67733 80.0578 9.296C80.5164 9.904 81.0871 10.384 81.7698 10.736L80.9858 11.76C80.2498 11.344 79.6311 10.784 79.1298 10.08C78.6284 9.376 78.2498 8.56533 77.9938 7.648C77.7484 6.73067 77.6258 5.744 77.6258 4.688V3.008ZM74.5858 2.48H81.2898V3.568H74.5858V2.48ZM99.0165 0.768H100.345V11.248H99.0165V0.768ZM99.9285 5.056H102.489V6.16H99.9285V5.056ZM89.7845 7.584H90.9045C91.8965 7.584 92.7658 7.57333 93.5125 7.552C94.2592 7.53067 94.9472 7.48267 95.5765 7.408C96.2058 7.33333 96.8405 7.232 97.4805 7.104L97.6405 8.192C96.9685 8.32 96.3072 8.42133 95.6565 8.496C95.0165 8.57067 94.3178 8.624 93.5605 8.656C92.8032 8.67733 91.9178 8.688 90.9045 8.688H89.7845V7.584ZM89.7845 2.016H96.1685V3.104H91.0965V8.176H89.7845V2.016ZM91.3365 13.84H100.985V14.928H91.3365V13.84ZM91.3365 10.192H92.6485V14.336H91.3365V10.192ZM103.831 8.384H116.903V9.456H103.831V8.384ZM105.511 13.84H115.447V14.928H105.511V13.84ZM105.511 10.736H106.839V14.16H105.511V10.736ZM110.359 1.264C111.394 1.264 112.29 1.38133 113.047 1.616C113.815 1.84 114.407 2.17067 114.823 2.608C115.239 3.03467 115.447 3.54667 115.447 4.144C115.447 4.74133 115.239 5.25867 114.823 5.696C114.407 6.13333 113.815 6.46933 113.047 6.704C112.29 6.928 111.394 7.04 110.359 7.04C109.325 7.04 108.423 6.928 107.655 6.704C106.898 6.46933 106.311 6.13333 105.895 5.696C105.479 5.25867 105.271 4.74133 105.271 4.144C105.271 3.54667 105.479 3.03467 105.895 2.608C106.311 2.17067 106.898 1.84 107.655 1.616C108.423 1.38133 109.325 1.264 110.359 1.264ZM110.359 2.336C109.613 2.336 108.957 2.41067 108.391 2.56C107.837 2.69867 107.405 2.90667 107.095 3.184C106.786 3.45067 106.631 3.77067 106.631 4.144C106.631 4.51733 106.786 4.84267 107.095 5.12C107.405 5.38667 107.837 5.59467 108.391 5.744C108.957 5.88267 109.613 5.952 110.359 5.952C111.127 5.952 111.789 5.88267 112.343 5.744C112.898 5.59467 113.325 5.38667 113.623 5.12C113.933 4.84267 114.087 4.51733 114.087 4.144C114.087 3.77067 113.933 3.45067 113.623 3.184C113.325 2.90667 112.898 2.69867 112.343 2.56C111.789 2.41067 111.127 2.336 110.359 2.336ZM123.488 2.224H132.784V3.312H123.488V2.224ZM122.128 12.112H135.2V13.216H122.128V12.112ZM125.328 7.344H126.656V12.512H125.328V7.344ZM132.352 2.224H133.68V3.808C133.68 4.416 133.669 5.04533 133.648 5.696C133.637 6.34667 133.595 7.04533 133.52 7.792C133.456 8.528 133.339 9.344 133.168 10.24L131.856 10.096C132.101 8.80533 132.245 7.664 132.288 6.672C132.331 5.66933 132.352 4.71467 132.352 3.808V2.224ZM128.912 7.344H130.224V12.512H128.912V7.344ZM140.287 8.256H141.615V11.12H140.287V8.256ZM145.151 8.256H146.463V11.104H145.151V8.256ZM136.847 7.744H149.919V8.816H136.847V7.744ZM138.303 10.624H148.303V15.248H146.975V11.696H138.303V10.624ZM143.375 1.104C144.42 1.104 145.322 1.216 146.079 1.44C146.836 1.664 147.423 1.984 147.839 2.4C148.255 2.80533 148.463 3.296 148.463 3.872C148.463 4.45867 148.255 4.96 147.839 5.376C147.423 5.78133 146.836 6.096 146.079 6.32C145.322 6.544 144.42 6.656 143.375 6.656C142.34 6.656 141.439 6.544 140.671 6.32C139.914 6.096 139.327 5.78133 138.911 5.376C138.495 4.96 138.287 4.45867 138.287 3.872C138.287 3.296 138.495 2.80533 138.911 2.4C139.327 1.984 139.914 1.664 140.671 1.44C141.439 1.216 142.34 1.104 143.375 1.104ZM143.375 2.16C142.618 2.16 141.956 2.22933 141.391 2.368C140.836 2.496 140.404 2.688 140.095 2.944C139.796 3.2 139.647 3.50933 139.647 3.872C139.647 4.23467 139.796 4.544 140.095 4.8C140.404 5.056 140.836 5.25333 141.391 5.392C141.956 5.53067 142.618 5.6 143.375 5.6C144.143 5.6 144.804 5.53067 145.359 5.392C145.924 5.25333 146.356 5.056 146.655 4.8C146.954 4.544 147.103 4.23467 147.103 3.872C147.103 3.50933 146.954 3.2 146.655 2.944C146.356 2.688 145.924 2.496 145.359 2.368C144.804 2.22933 144.143 2.16 143.375 2.16ZM155.144 12.256H168.264V13.376H155.144V12.256ZM160.984 8.752H162.296V12.624H160.984V8.752ZM160.936 1.728H162.104V2.848C162.104 3.47733 161.992 4.06933 161.768 4.624C161.554 5.168 161.256 5.68 160.872 6.16C160.488 6.62933 160.045 7.05067 159.544 7.424C159.053 7.79733 158.525 8.112 157.96 8.368C157.394 8.624 156.818 8.81067 156.232 8.928L155.656 7.824C156.168 7.73867 156.674 7.58933 157.176 7.376C157.688 7.152 158.168 6.88533 158.616 6.576C159.064 6.256 159.464 5.904 159.816 5.52C160.168 5.12533 160.44 4.704 160.632 4.256C160.834 3.79733 160.936 3.328 160.936 2.848V1.728ZM161.176 1.728H162.328V2.848C162.328 3.33867 162.429 3.808 162.632 4.256C162.834 4.704 163.112 5.12533 163.464 5.52C163.816 5.904 164.216 6.256 164.664 6.576C165.122 6.896 165.602 7.16267 166.104 7.376C166.616 7.58933 167.128 7.73867 167.64 7.824L167.064 8.928C166.477 8.81067 165.901 8.624 165.336 8.368C164.77 8.112 164.237 7.79733 163.736 7.424C163.234 7.05067 162.792 6.62933 162.408 6.16C162.024 5.68 161.72 5.16267 161.496 4.608C161.282 4.05333 161.176 3.46667 161.176 2.848V1.728ZM173.879 8H175.207V11.296H173.879V8ZM174.551 1.712C175.308 1.712 175.975 1.856 176.551 2.144C177.137 2.42133 177.596 2.816 177.927 3.328C178.257 3.84 178.423 4.43733 178.423 5.12C178.423 5.78133 178.257 6.37333 177.927 6.896C177.596 7.408 177.137 7.808 176.551 8.096C175.975 8.37333 175.308 8.512 174.551 8.512C173.804 8.512 173.137 8.37333 172.551 8.096C171.964 7.808 171.5 7.408 171.159 6.896C170.828 6.37333 170.663 5.78133 170.663 5.12C170.663 4.43733 170.828 3.84 171.159 3.328C171.5 2.816 171.964 2.42133 172.551 2.144C173.137 1.856 173.804 1.712 174.551 1.712ZM174.551 2.864C174.06 2.864 173.617 2.96 173.223 3.152C172.839 3.33333 172.535 3.59467 172.311 3.936C172.087 4.26667 171.975 4.66133 171.975 5.12C171.975 5.55733 172.087 5.952 172.311 6.304C172.535 6.64533 172.839 6.912 173.223 7.104C173.617 7.28533 174.06 7.376 174.551 7.376C175.052 7.376 175.495 7.28533 175.879 7.104C176.263 6.912 176.567 6.64533 176.791 6.304C177.015 5.952 177.127 5.55733 177.127 5.12C177.127 4.66133 177.015 4.26667 176.791 3.936C176.567 3.59467 176.263 3.33333 175.879 3.152C175.495 2.96 175.052 2.864 174.551 2.864ZM180.327 0.768H181.655V15.264H180.327V0.768ZM170.118 12.112L169.943 11.008C170.828 11.008 171.799 11.0027 172.855 10.992C173.911 10.9707 174.999 10.928 176.119 10.864C177.249 10.7893 178.337 10.672 179.383 10.512L179.495 11.488C178.407 11.6907 177.303 11.8347 176.183 11.92C175.073 12.0053 174.001 12.0587 172.967 12.08C171.932 12.1013 170.982 12.112 170.118 12.112ZM190.197 4.784H193.397V5.872H190.197V4.784ZM190.085 8.416H193.365V9.504H190.085V8.416ZM195.605 0.768H196.885V15.248H195.605V0.768ZM192.693 1.152H193.957V14.512H192.693V1.152ZM189.477 2.608H190.757C190.757 3.86667 190.576 5.07733 190.213 6.24C189.851 7.392 189.269 8.46933 188.469 9.472C187.68 10.464 186.64 11.3493 185.349 12.128L184.565 11.168C185.696 10.4853 186.624 9.71733 187.349 8.864C188.075 8 188.608 7.06667 188.949 6.064C189.301 5.05067 189.477 3.97867 189.477 2.848V2.608ZM185.205 2.608H189.989V3.696H185.205V2.608ZM199.3 8.112H212.372V9.2H199.3V8.112ZM205.172 0.735999H206.484V2.752H205.172V0.735999ZM205.108 2.88H206.276V3.104C206.276 3.70133 206.121 4.23467 205.812 4.704C205.513 5.17333 205.092 5.57867 204.548 5.92C204.015 6.26133 203.396 6.53867 202.692 6.752C201.999 6.95467 201.257 7.09867 200.468 7.184L200.052 6.16C200.756 6.096 201.412 5.97867 202.02 5.808C202.628 5.63733 203.161 5.41867 203.62 5.152C204.089 4.88533 204.452 4.58133 204.708 4.24C204.975 3.89867 205.108 3.52 205.108 3.104V2.88ZM205.396 2.88H206.548V3.104C206.548 3.52 206.676 3.89867 206.932 4.24C207.199 4.58133 207.561 4.88533 208.02 5.152C208.489 5.41867 209.028 5.63733 209.636 5.808C210.244 5.97867 210.9 6.096 211.604 6.16L211.204 7.184C210.415 7.09867 209.668 6.95467 208.964 6.752C208.271 6.53867 207.652 6.26133 207.108 5.92C206.575 5.57867 206.153 5.17333 205.844 4.704C205.545 4.23467 205.396 3.70133 205.396 3.104V2.88ZM200.644 2.176H211.044V3.248H200.644V2.176ZM205.828 10.416C207.385 10.416 208.596 10.624 209.46 11.04C210.335 11.4453 210.772 12.0373 210.772 12.816C210.772 13.5947 210.335 14.1867 209.46 14.592C208.596 15.008 207.385 15.216 205.828 15.216C204.271 15.216 203.055 15.008 202.18 14.592C201.305 14.1867 200.868 13.5947 200.868 12.816C200.868 12.0373 201.305 11.4453 202.18 11.04C203.055 10.624 204.271 10.416 205.828 10.416ZM205.828 11.424C204.676 11.424 203.785 11.5467 203.156 11.792C202.527 12.0267 202.212 12.368 202.212 12.816C202.212 13.264 202.527 13.6107 203.156 13.856C203.785 14.0907 204.676 14.208 205.828 14.208C206.969 14.208 207.855 14.0907 208.484 13.856C209.124 13.6107 209.444 13.264 209.444 12.816C209.444 12.368 209.124 12.0267 208.484 11.792C207.855 11.5467 206.969 11.424 205.828 11.424ZM218.707 1.824C219.464 1.824 220.131 1.968 220.707 2.256C221.293 2.53333 221.752 2.928 222.083 3.44C222.413 3.952 222.579 4.54933 222.579 5.232C222.579 5.904 222.413 6.50133 222.083 7.024C221.752 7.536 221.293 7.936 220.707 8.224C220.131 8.50133 219.464 8.64 218.707 8.64C217.96 8.64 217.293 8.50133 216.707 8.224C216.12 7.936 215.656 7.536 215.315 7.024C214.984 6.50133 214.819 5.904 214.819 5.232C214.819 4.54933 214.984 3.952 215.315 3.44C215.656 2.928 216.12 2.53333 216.707 2.256C217.293 1.968 217.96 1.824 218.707 1.824ZM218.707 2.976C218.216 2.976 217.773 3.072 217.379 3.264C216.995 3.44533 216.691 3.70667 216.467 4.048C216.243 4.38933 216.131 4.784 216.131 5.232C216.131 5.68 216.243 6.07467 216.467 6.416C216.691 6.75733 216.995 7.024 217.379 7.216C217.773 7.39733 218.216 7.488 218.707 7.488C219.208 7.488 219.651 7.39733 220.035 7.216C220.419 7.024 220.723 6.75733 220.947 6.416C221.171 6.07467 221.283 5.68 221.283 5.232C221.283 4.784 221.171 4.38933 220.947 4.048C220.723 3.70667 220.419 3.44533 220.035 3.264C219.651 3.072 219.208 2.976 218.707 2.976ZM224.483 0.768H225.811V15.264H224.483V0.768ZM214.275 12.096L214.099 10.976C214.984 10.976 215.955 10.9707 217.011 10.96C218.067 10.9387 219.155 10.896 220.275 10.832C221.405 10.7573 222.493 10.64 223.539 10.48L223.651 11.456C222.563 11.6587 221.459 11.808 220.339 11.904C219.229 11.9893 218.157 12.0427 217.123 12.064C216.088 12.0853 215.139 12.096 214.275 12.096ZM242.844 0.768H244.172V8.256H242.844V0.768ZM234.812 8.992H244.172V12.48H236.14V14.464H234.86V11.472H242.86V10.048H234.812V8.992ZM234.86 14.016H244.668V15.088H234.86V14.016ZM236.076 1.184H237.18V2.288C237.18 3.184 237.009 4.02133 236.668 4.8C236.326 5.57867 235.846 6.256 235.228 6.832C234.609 7.39733 233.894 7.82933 233.084 8.128L232.412 7.072C232.956 6.88 233.452 6.624 233.9 6.304C234.348 5.984 234.732 5.616 235.052 5.2C235.382 4.77333 235.633 4.31467 235.804 3.824C235.985 3.33333 236.076 2.82133 236.076 2.288V1.184ZM236.316 1.184H237.42V2.288C237.42 2.78933 237.505 3.27467 237.676 3.744C237.857 4.21333 238.108 4.64533 238.428 5.04C238.758 5.43467 239.148 5.78667 239.596 6.096C240.044 6.39467 240.534 6.63467 241.068 6.816L240.412 7.856C239.804 7.64267 239.249 7.36 238.748 7.008C238.246 6.64533 237.814 6.224 237.452 5.744C237.089 5.25333 236.806 4.72 236.604 4.144C236.412 3.55733 236.316 2.93867 236.316 2.288V1.184ZM257.562 0.768H258.89V8.272H257.562V0.768ZM249.53 8.976H258.89V12.448H250.858V14.496H249.578V11.472H257.578V10.016H249.53V8.976ZM249.578 14.032H259.386V15.088H249.578V14.032ZM250.89 2.048H251.978V2.816C251.978 3.65867 251.802 4.448 251.45 5.184C251.109 5.90933 250.629 6.544 250.01 7.088C249.392 7.62133 248.672 8.02667 247.85 8.304L247.226 7.248C247.77 7.07733 248.266 6.84267 248.714 6.544C249.162 6.24533 249.546 5.89867 249.866 5.504C250.197 5.10933 250.448 4.688 250.618 4.24C250.8 3.78133 250.89 3.30667 250.89 2.816V2.048ZM251.162 2.048H252.234V2.816C252.234 3.27467 252.32 3.72267 252.49 4.16C252.672 4.58667 252.928 4.98133 253.258 5.344C253.589 5.70667 253.978 6.02667 254.426 6.304C254.874 6.58133 255.365 6.8 255.898 6.96L255.258 8C254.448 7.744 253.733 7.36533 253.114 6.864C252.506 6.352 252.026 5.75467 251.674 5.072C251.333 4.37867 251.162 3.62667 251.162 2.816V2.048ZM247.578 1.584H255.498V2.672H247.578V1.584ZM265.433 2.24H266.521V3.424C266.521 4.29867 266.35 5.12 266.009 5.888C265.678 6.656 265.209 7.328 264.601 7.904C263.993 8.46933 263.289 8.90133 262.489 9.2L261.801 8.144C262.334 7.952 262.82 7.696 263.257 7.376C263.705 7.056 264.094 6.688 264.425 6.272C264.756 5.84533 265.006 5.392 265.177 4.912C265.348 4.42133 265.433 3.92533 265.433 3.424V2.24ZM265.689 2.24H266.777V3.408C266.777 4.02667 266.921 4.62933 267.209 5.216C267.497 5.792 267.908 6.30933 268.441 6.768C268.974 7.216 269.588 7.568 270.281 7.824L269.609 8.864C268.82 8.576 268.132 8.16 267.545 7.616C266.958 7.072 266.5 6.43733 266.169 5.712C265.849 4.98667 265.689 4.21867 265.689 3.408V2.24ZM269.497 4.544H272.713V5.648H269.497V4.544ZM262.217 1.76H269.945V2.848H262.217V1.76ZM263.993 10.208H273.657V15.248H272.329V11.296H263.993V10.208ZM272.329 0.768H273.657V9.424H272.329V0.768ZM287 0.783999H288.328V11.344H287V0.783999ZM279.032 13.84H288.776V14.928H279.032V13.84ZM279.032 10.272H280.36V14.208H279.032V10.272ZM280.568 1.792C281.293 1.792 281.939 1.94133 282.504 2.24C283.069 2.53867 283.517 2.96 283.848 3.504C284.179 4.03733 284.344 4.65067 284.344 5.344C284.344 6.03733 284.179 6.656 283.848 7.2C283.517 7.73333 283.069 8.15467 282.504 8.464C281.939 8.76267 281.293 8.912 280.568 8.912C279.853 8.912 279.208 8.76267 278.632 8.464C278.067 8.15467 277.619 7.73333 277.288 7.2C276.957 6.656 276.792 6.03733 276.792 5.344C276.792 4.65067 276.957 4.03733 277.288 3.504C277.619 2.96 278.067 2.53867 278.632 2.24C279.208 1.94133 279.853 1.792 280.568 1.792ZM280.568 2.944C280.099 2.944 279.677 3.04533 279.304 3.248C278.931 3.45067 278.632 3.73333 278.408 4.096C278.195 4.45867 278.088 4.87467 278.088 5.344C278.088 5.824 278.195 6.24533 278.408 6.608C278.632 6.96 278.931 7.23733 279.304 7.44C279.677 7.64267 280.099 7.744 280.568 7.744C281.037 7.744 281.459 7.64267 281.832 7.44C282.216 7.23733 282.515 6.96 282.728 6.608C282.941 6.24533 283.048 5.824 283.048 5.344C283.048 4.87467 282.941 4.45867 282.728 4.096C282.515 3.73333 282.216 3.45067 281.832 3.248C281.459 3.04533 281.037 2.944 280.568 2.944ZM296.129 2.224H305.425V3.312H296.129V2.224ZM294.769 12.112H307.841V13.216H294.769V12.112ZM297.969 7.344H299.297V12.512H297.969V7.344ZM304.993 2.224H306.321V3.808C306.321 4.416 306.31 5.04533 306.289 5.696C306.278 6.34667 306.235 7.04533 306.161 7.792C306.097 8.528 305.979 9.344 305.809 10.24L304.497 10.096C304.742 8.80533 304.886 7.664 304.929 6.672C304.971 5.66933 304.993 4.71467 304.993 3.808V2.224ZM301.553 7.344H302.865V12.512H301.553V7.344ZM312.928 8.256H314.256V11.12H312.928V8.256ZM317.792 8.256H319.104V11.104H317.792V8.256ZM309.488 7.744H322.56V8.816H309.488V7.744ZM310.944 10.624H320.944V15.248H319.616V11.696H310.944V10.624ZM316.016 1.104C317.061 1.104 317.962 1.216 318.72 1.44C319.477 1.664 320.064 1.984 320.48 2.4C320.896 2.80533 321.104 3.296 321.104 3.872C321.104 4.45867 320.896 4.96 320.48 5.376C320.064 5.78133 319.477 6.096 318.72 6.32C317.962 6.544 317.061 6.656 316.016 6.656C314.981 6.656 314.08 6.544 313.312 6.32C312.554 6.096 311.968 5.78133 311.552 5.376C311.136 4.96 310.928 4.45867 310.928 3.872C310.928 3.296 311.136 2.80533 311.552 2.4C311.968 1.984 312.554 1.664 313.312 1.44C314.08 1.216 314.981 1.104 316.016 1.104ZM316.016 2.16C315.258 2.16 314.597 2.22933 314.032 2.368C313.477 2.496 313.045 2.688 312.736 2.944C312.437 3.2 312.288 3.50933 312.288 3.872C312.288 4.23467 312.437 4.544 312.736 4.8C313.045 5.056 313.477 5.25333 314.032 5.392C314.597 5.53067 315.258 5.6 316.016 5.6C316.784 5.6 317.445 5.53067 318 5.392C318.565 5.25333 318.997 5.056 319.296 4.8C319.594 4.544 319.744 4.23467 319.744 3.872C319.744 3.50933 319.594 3.2 319.296 2.944C318.997 2.688 318.565 2.496 318 2.368C317.445 2.22933 316.784 2.16 316.016 2.16ZM11.344 24.768H12.672V39.248H11.344V24.768ZM7.104 26.336H8.416C8.416 27.3813 8.288 28.3893 8.032 29.36C7.78667 30.3307 7.39733 31.2533 6.864 32.128C6.33067 32.992 5.63733 33.7973 4.784 34.544C3.93067 35.2907 2.896 35.9573 1.68 36.544L0.976 35.472C2.37333 34.8 3.52533 34.016 4.432 33.12C5.33867 32.224 6.01067 31.2267 6.448 30.128C6.88533 29.0187 7.104 27.824 7.104 26.544V26.336ZM1.648 26.336H7.664V27.408H1.648V26.336ZM19.6468 33.456H20.9748V35.84H19.6468V33.456ZM25.9828 24.768H27.3108V39.248H25.9828V24.768ZM15.7908 36.496L15.5988 35.376C16.5161 35.3653 17.5081 35.3547 18.5748 35.344C19.6414 35.3333 20.7294 35.296 21.8388 35.232C22.9481 35.168 24.0201 35.0667 25.0548 34.928L25.1508 35.92C24.0841 36.0907 23.0014 36.2187 21.9028 36.304C20.8041 36.3787 19.7321 36.432 18.6868 36.464C17.6414 36.4853 16.6761 36.496 15.7908 36.496ZM15.9028 26.544H24.6868V27.616H15.9028V26.544ZM20.2868 28.432C20.9801 28.432 21.5881 28.544 22.1108 28.768C22.6334 28.992 23.0388 29.3067 23.3268 29.712C23.6254 30.1067 23.7748 30.576 23.7748 31.12C23.7748 31.6533 23.6254 32.1227 23.3268 32.528C23.0388 32.9333 22.6334 33.248 22.1108 33.472C21.5881 33.6853 20.9801 33.792 20.2868 33.792C19.6041 33.792 19.0014 33.6853 18.4788 33.472C17.9561 33.248 17.5508 32.9333 17.2628 32.528C16.9748 32.1227 16.8307 31.6533 16.8307 31.12C16.8307 30.576 16.9748 30.1067 17.2628 29.712C17.5508 29.3067 17.9561 28.992 18.4788 28.768C19.0014 28.544 19.6041 28.432 20.2868 28.432ZM20.2868 29.472C19.6468 29.472 19.1188 29.6213 18.7028 29.92C18.2868 30.2187 18.0788 30.6187 18.0788 31.12C18.0788 31.6107 18.2868 32.0053 18.7028 32.304C19.1188 32.6027 19.6468 32.752 20.2868 32.752C20.9481 32.752 21.4814 32.6027 21.8868 32.304C22.3028 32.0053 22.5108 31.6107 22.5108 31.12C22.5108 30.6187 22.3028 30.2187 21.8868 29.92C21.4814 29.6213 20.9481 29.472 20.2868 29.472ZM19.6468 24.784H20.9748V27.12H19.6468V24.784ZM37.6076 31.568H38.9196V33.408H37.6076V31.568ZM43.7036 24.784H45.0316V34.48H43.7036V24.784ZM44.4716 29.152H47.1436V30.256H44.4716V29.152ZM33.8956 34.064L33.7356 32.992C34.5996 32.992 35.5436 32.9867 36.5676 32.976C37.6023 32.9547 38.6583 32.912 39.7356 32.848C40.813 32.784 41.8476 32.6827 42.8396 32.544L42.9356 33.488C41.9116 33.6693 40.861 33.8027 39.7836 33.888C38.717 33.9627 37.677 34.0107 36.6636 34.032C35.661 34.0533 34.7383 34.064 33.8956 34.064ZM35.5116 35.216H45.0316V39.248H43.7036V36.272H35.5116V35.216ZM34.1036 26.08H42.4076V27.088H34.1036V26.08ZM38.2476 27.632C39.2716 27.632 40.0876 27.824 40.6956 28.208C41.3143 28.592 41.6236 29.1147 41.6236 29.776C41.6236 30.4373 41.3143 30.96 40.6956 31.344C40.0876 31.728 39.2716 31.92 38.2476 31.92C37.2343 31.92 36.4183 31.728 35.7996 31.344C35.181 30.96 34.8716 30.4373 34.8716 29.776C34.8716 29.1147 35.181 28.592 35.7996 28.208C36.4183 27.824 37.2343 27.632 38.2476 27.632ZM38.2476 28.56C37.6076 28.56 37.0956 28.6667 36.7116 28.88C36.3276 29.0933 36.1356 29.392 36.1356 29.776C36.1356 30.1387 36.3276 30.4373 36.7116 30.672C37.0956 30.896 37.6076 31.008 38.2476 31.008C38.8876 31.008 39.3996 30.896 39.7836 30.672C40.1676 30.4373 40.3596 30.1387 40.3596 29.776C40.3596 29.392 40.1676 29.0933 39.7836 28.88C39.3996 28.6667 38.8876 28.56 38.2476 28.56ZM37.6076 24.656H38.9196V26.576H37.6076V24.656ZM59.5424 24.768H60.8064V39.248H59.5424V24.768ZM57.0944 30.576H59.8784V31.664H57.0944V30.576ZM56.2624 25.088H57.4944V38.496H56.2624V25.088ZM49.0464 34.56H49.9904C50.705 34.56 51.3504 34.5547 51.9264 34.544C52.513 34.5227 53.0677 34.48 53.5904 34.416C54.1237 34.352 54.6677 34.2613 55.2224 34.144L55.3504 35.248C54.7744 35.3653 54.2144 35.456 53.6704 35.52C53.137 35.584 52.5717 35.6267 51.9744 35.648C51.3877 35.6693 50.7264 35.68 49.9904 35.68H49.0464V34.56ZM49.0464 26.528H54.4224V27.616H50.3744V35.072H49.0464V26.528ZM63.2371 31.488H76.3571V32.512H63.2371V31.488ZM64.8051 33.664H74.7251V36.752H66.1491V38.448H64.8371V35.84H73.4131V34.624H64.8051V33.664ZM64.8371 38.096H75.1891V39.056H64.8371V38.096ZM64.9011 25.2H74.6771V28.208H66.2451V29.776H64.9331V27.312H73.3651V26.144H64.9011V25.2ZM64.9331 29.456H74.9331V30.416H64.9331V29.456ZM86.27 25.456C86.9953 25.456 87.6353 25.584 88.19 25.84C88.7447 26.0853 89.1767 26.432 89.486 26.88C89.806 27.3173 89.966 27.8347 89.966 28.432C89.966 29.008 89.806 29.5253 89.486 29.984C89.1767 30.432 88.7447 30.784 88.19 31.04C87.6353 31.2853 86.9953 31.408 86.27 31.408C85.566 31.408 84.9367 31.2853 84.382 31.04C83.8273 30.784 83.39 30.432 83.07 29.984C82.75 29.5253 82.59 29.008 82.59 28.432C82.59 27.8347 82.75 27.3173 83.07 26.88C83.39 26.432 83.8273 26.0853 84.382 25.84C84.9367 25.584 85.566 25.456 86.27 25.456ZM86.27 26.544C85.8113 26.544 85.4007 26.624 85.038 26.784C84.6753 26.944 84.3873 27.168 84.174 27.456C83.9713 27.7333 83.87 28.0587 83.87 28.432C83.87 28.7947 83.9713 29.12 84.174 29.408C84.3873 29.6853 84.6753 29.904 85.038 30.064C85.4007 30.224 85.8113 30.304 86.27 30.304C86.75 30.304 87.1713 30.224 87.534 30.064C87.8967 29.904 88.1793 29.6853 88.382 29.408C88.5953 29.12 88.702 28.7947 88.702 28.432C88.702 28.0587 88.5953 27.7333 88.382 27.456C88.1793 27.168 87.8967 26.944 87.534 26.784C87.1713 26.624 86.75 26.544 86.27 26.544ZM85.694 33.024H87.022V38.8H85.694V33.024ZM92.094 24.784H93.406V39.248H92.094V24.784ZM81.694 33.744L81.518 32.624C82.414 32.624 83.3953 32.6133 84.462 32.592C85.5393 32.5707 86.6433 32.5227 87.774 32.448C88.9153 32.3733 90.0087 32.256 91.054 32.096L91.15 33.088C90.0727 33.2907 88.974 33.44 87.854 33.536C86.734 33.6213 85.646 33.6747 84.59 33.696C83.5447 33.7173 82.5793 33.7333 81.694 33.744ZM106.173 24.784H107.501V35.632H106.173V24.784ZM107.085 29.536H109.629V30.64H107.085V29.536ZM96.3008 26.544H104.845V27.616H96.3008V26.544ZM100.573 28.4C101.255 28.4 101.858 28.5173 102.381 28.752C102.903 28.976 103.309 29.2907 103.597 29.696C103.885 30.0907 104.029 30.56 104.029 31.104C104.029 31.648 103.885 32.1227 103.597 32.528C103.309 32.9227 102.903 33.232 102.381 33.456C101.858 33.68 101.255 33.792 100.573 33.792C99.8901 33.792 99.2874 33.68 98.7648 33.456C98.2421 33.232 97.8314 32.9227 97.5328 32.528C97.2448 32.1227 97.1008 31.648 97.1008 31.104C97.1008 30.56 97.2448 30.0907 97.5328 29.696C97.8314 29.2907 98.2421 28.976 98.7648 28.752C99.2874 28.5173 99.8901 28.4 100.573 28.4ZM100.573 29.44C99.9221 29.44 99.3941 29.5947 98.9888 29.904C98.5834 30.2027 98.3808 30.6027 98.3808 31.104C98.3808 31.6053 98.5834 32.0053 98.9888 32.304C99.3941 32.6027 99.9221 32.752 100.573 32.752C101.234 32.752 101.762 32.6027 102.157 32.304C102.562 32.0053 102.765 31.6053 102.765 31.104C102.765 30.6027 102.562 30.2027 102.157 29.904C101.762 29.5947 101.234 29.44 100.573 29.44ZM99.9168 24.784H101.245V27.088H99.9168V24.784ZM98.4928 37.84H108.141V38.928H98.4928V37.84ZM98.4928 34.768H99.8048V38.288H98.4928V34.768ZM118.134 26.32H119.222V27.488C119.222 28.384 119.051 29.2107 118.71 29.968C118.379 30.7253 117.91 31.3867 117.302 31.952C116.704 32.5173 115.995 32.9493 115.174 33.248L114.502 32.192C115.227 31.936 115.862 31.5733 116.406 31.104C116.95 30.624 117.371 30.0747 117.67 29.456C117.979 28.8373 118.134 28.1813 118.134 27.488V26.32ZM118.374 26.32H119.462V27.488C119.462 28.1173 119.606 28.7147 119.894 29.28C120.182 29.8453 120.587 30.3413 121.11 30.768C121.632 31.1947 122.246 31.5307 122.95 31.776L122.326 32.816C121.515 32.5387 120.816 32.1387 120.23 31.616C119.643 31.0933 119.184 30.48 118.854 29.776C118.534 29.0613 118.374 28.2987 118.374 27.488V26.32ZM114.902 25.84H122.646V26.928H114.902V25.84ZM124.47 24.768H125.798V33.488H124.47V24.768ZM125.43 28.448H127.926V29.552H125.43V28.448ZM121.19 33.888C122.171 33.888 123.014 33.9947 123.718 34.208C124.432 34.4107 124.982 34.7093 125.366 35.104C125.75 35.4987 125.942 35.9787 125.942 36.544C125.942 37.1093 125.75 37.5893 125.366 37.984C124.982 38.3787 124.432 38.6827 123.718 38.896C123.014 39.1093 122.171 39.216 121.19 39.216C120.208 39.216 119.36 39.1093 118.646 38.896C117.931 38.6827 117.382 38.3787 116.998 37.984C116.614 37.5893 116.422 37.1093 116.422 36.544C116.422 35.9787 116.614 35.4987 116.998 35.104C117.382 34.7093 117.931 34.4107 118.646 34.208C119.36 33.9947 120.208 33.888 121.19 33.888ZM121.19 34.944C120.475 34.944 119.856 35.008 119.334 35.136C118.822 35.264 118.427 35.4453 118.15 35.68C117.872 35.9147 117.734 36.2027 117.734 36.544C117.734 36.8853 117.872 37.1787 118.15 37.424C118.427 37.6587 118.822 37.84 119.334 37.968C119.856 38.096 120.475 38.16 121.19 38.16C121.904 38.16 122.518 38.096 123.03 37.968C123.542 37.84 123.936 37.6587 124.214 37.424C124.491 37.1787 124.63 36.8853 124.63 36.544C124.63 36.2027 124.491 35.9147 124.214 35.68C123.936 35.4453 123.542 35.264 123.03 35.136C122.518 35.008 121.904 34.944 121.19 34.944ZM129.316 26.304H137.86V27.376H129.316V26.304ZM133.588 28.128C134.271 28.128 134.874 28.2347 135.396 28.448C135.919 28.6613 136.324 28.9653 136.612 29.36C136.9 29.744 137.044 30.2027 137.044 30.736C137.044 31.2693 136.9 31.728 136.612 32.112C136.324 32.496 135.919 32.8 135.396 33.024C134.874 33.2373 134.271 33.344 133.588 33.344C132.906 33.344 132.303 33.2373 131.78 33.024C131.258 32.8 130.847 32.496 130.548 32.112C130.26 31.728 130.116 31.2693 130.116 30.736C130.116 30.2027 130.26 29.744 130.548 29.36C130.847 28.9653 131.258 28.6613 131.78 28.448C132.303 28.2347 132.906 28.128 133.588 28.128ZM133.588 29.152C132.927 29.152 132.394 29.296 131.988 29.584C131.594 29.8613 131.396 30.2453 131.396 30.736C131.396 31.216 131.594 31.6 131.988 31.888C132.394 32.1653 132.927 32.304 133.588 32.304C134.239 32.304 134.767 32.1653 135.172 31.888C135.578 31.6 135.78 31.216 135.78 30.736C135.78 30.2453 135.578 29.8613 135.172 29.584C134.778 29.296 134.25 29.152 133.588 29.152ZM139.188 24.768H140.516V33.824H139.188V24.768ZM140.148 28.768H142.644V29.872H140.148V28.768ZM131.108 34.608H140.516V39.248H139.188V35.696H131.108V34.608ZM132.932 24.704H134.26V26.896H132.932V24.704ZM147.539 26.016H148.627V28.608C148.627 29.408 148.526 30.192 148.323 30.96C148.131 31.728 147.854 32.448 147.491 33.12C147.128 33.792 146.702 34.3893 146.211 34.912C145.72 35.4347 145.187 35.8507 144.611 36.16L143.795 35.088C144.328 34.8213 144.819 34.464 145.267 34.016C145.726 33.5573 146.126 33.0347 146.467 32.448C146.808 31.8613 147.07 31.2427 147.251 30.592C147.443 29.9307 147.539 29.2693 147.539 28.608V26.016ZM147.779 26.016H148.851V28.608C148.851 29.248 148.942 29.8827 149.123 30.512C149.315 31.1413 149.582 31.7333 149.923 32.288C150.264 32.8427 150.654 33.3387 151.091 33.776C151.539 34.2133 152.019 34.56 152.531 34.816L151.715 35.872C151.15 35.584 150.627 35.1893 150.147 34.688C149.678 34.1867 149.262 33.616 148.899 32.976C148.547 32.3253 148.27 31.632 148.067 30.896C147.875 30.1493 147.779 29.3867 147.779 28.608V26.016ZM153.795 24.768H155.123V39.248H153.795V24.768ZM154.819 30.624H157.491V31.76H154.819V30.624ZM165.986 28.224H169.874V29.312H165.986V28.224ZM162.674 25.44C163.389 25.44 164.023 25.584 164.578 25.872C165.143 26.1493 165.586 26.5387 165.906 27.04C166.226 27.5413 166.386 28.1227 166.386 28.784C166.386 29.4453 166.226 30.032 165.906 30.544C165.586 31.0453 165.143 31.44 164.578 31.728C164.023 32.0053 163.389 32.144 162.674 32.144C161.949 32.144 161.303 32.0053 160.738 31.728C160.183 31.44 159.746 31.0453 159.426 30.544C159.106 30.032 158.946 29.4453 158.946 28.784C158.946 28.1227 159.106 27.5413 159.426 27.04C159.746 26.5387 160.183 26.1493 160.738 25.872C161.303 25.584 161.949 25.44 162.674 25.44ZM162.674 26.56C162.194 26.56 161.767 26.656 161.394 26.848C161.031 27.0293 160.743 27.2907 160.53 27.632C160.317 27.9627 160.21 28.3467 160.21 28.784C160.21 29.2213 160.317 29.6107 160.53 29.952C160.743 30.2827 161.031 30.544 161.394 30.736C161.767 30.928 162.194 31.024 162.674 31.024C163.143 31.024 163.559 30.928 163.922 30.736C164.295 30.544 164.589 30.2827 164.802 29.952C165.015 29.6107 165.122 29.2213 165.122 28.784C165.122 28.3467 165.015 27.9627 164.802 27.632C164.589 27.2907 164.295 27.0293 163.922 26.848C163.559 26.656 163.143 26.56 162.674 26.56ZM169.298 24.768H170.626V32.544H169.298V24.768ZM161.362 33.264H162.674V35.072H169.298V33.264H170.626V39.056H161.362V33.264ZM162.674 36.128V37.968H169.298V36.128H162.674ZM174.097 26.352H180.625V27.44H174.097V26.352ZM176.353 30.496H177.665V35.392H176.353V30.496ZM180.081 26.352H181.393V27.136C181.393 27.7227 181.371 28.4907 181.329 29.44C181.297 30.3893 181.179 31.536 180.977 32.88L179.665 32.768C179.878 31.456 180.001 30.336 180.033 29.408C180.065 28.48 180.081 27.7227 180.081 27.136V26.352ZM183.201 24.768H184.529V39.248H183.201V24.768ZM184.161 30.816H186.833V31.952H184.161V30.816ZM173.457 36.08L173.297 34.976C174.161 34.9653 175.105 34.9547 176.129 34.944C177.163 34.9227 178.209 34.88 179.265 34.816C180.331 34.752 181.35 34.6613 182.321 34.544L182.401 35.536C181.398 35.696 180.369 35.8133 179.313 35.888C178.267 35.9627 177.243 36.016 176.241 36.048C175.238 36.0693 174.31 36.08 173.457 36.08ZM191.738 32.224H204.81V33.328H191.738V32.224ZM197.61 30.08H198.938V32.576H197.61V30.08ZM193.194 34.736H203.194V39.248H201.866V35.808H193.194V34.736ZM193.466 25.104H194.778V26.752H201.786V25.104H203.098V30.528H193.466V25.104ZM194.778 27.776V29.456H201.786V27.776H194.778ZM210.28 26.848H211.368V29.184C211.368 29.952 211.262 30.7093 211.048 31.456C210.835 32.192 210.536 32.8907 210.152 33.552C209.779 34.2027 209.342 34.7787 208.84 35.28C208.339 35.7813 207.8 36.176 207.224 36.464L206.456 35.408C206.979 35.152 207.47 34.8053 207.928 34.368C208.398 33.9307 208.808 33.4293 209.16 32.864C209.512 32.2987 209.784 31.7013 209.976 31.072C210.179 30.4427 210.28 29.8133 210.28 29.184V26.848ZM210.552 26.848H211.624V29.184C211.624 29.792 211.72 30.4 211.912 31.008C212.115 31.6053 212.392 32.1707 212.744 32.704C213.107 33.2267 213.518 33.6907 213.976 34.096C214.446 34.5013 214.947 34.8213 215.48 35.056L214.744 36.112C214.158 35.8347 213.608 35.4613 213.096 34.992C212.584 34.5227 212.136 33.984 211.752 33.376C211.379 32.7573 211.086 32.096 210.872 31.392C210.659 30.6773 210.552 29.9413 210.552 29.184V26.848ZM206.92 26.256H215V27.36H206.92V26.256ZM216.968 24.768H218.296V39.248H216.968V24.768ZM231.703 24.784H233.031V35.472H231.703V24.784ZM223.735 37.84H233.479V38.928H223.735V37.84ZM223.735 34.48H225.063V38.416H223.735V34.48ZM225.095 27.536H226.183V28.144C226.183 29.008 226.012 29.8133 225.671 30.56C225.33 31.296 224.855 31.9413 224.247 32.496C223.639 33.04 222.93 33.4507 222.119 33.728L221.463 32.688C222.007 32.5067 222.498 32.2667 222.935 31.968C223.383 31.6587 223.767 31.3067 224.087 30.912C224.418 30.5067 224.668 30.0747 224.839 29.616C225.01 29.1467 225.095 28.656 225.095 28.144V27.536ZM225.319 27.536H226.407V28.144C226.407 28.624 226.498 29.0827 226.679 29.52C226.86 29.9573 227.111 30.368 227.431 30.752C227.762 31.1253 228.151 31.456 228.599 31.744C229.047 32.0213 229.538 32.2453 230.071 32.416L229.431 33.472C228.62 33.2053 227.906 32.8107 227.287 32.288C226.668 31.7653 226.183 31.152 225.831 30.448C225.49 29.744 225.319 28.976 225.319 28.144V27.536ZM221.815 26.704H229.671V27.776H221.815V26.704ZM225.095 24.848H226.423V27.232H225.095V24.848ZM239.638 33.392H240.966V35.744H239.638V33.392ZM245.718 24.768H247.046V39.248H245.718V24.768ZM246.63 30.912H249.302V32.032H246.63V30.912ZM235.926 36.496L235.718 35.376C236.592 35.376 237.542 35.3707 238.566 35.36C239.6 35.3387 240.656 35.296 241.734 35.232C242.811 35.168 243.851 35.0667 244.854 34.928L244.95 35.904C243.915 36.0853 242.859 36.2187 241.782 36.304C240.715 36.3893 239.68 36.4427 238.678 36.464C237.686 36.4853 236.768 36.496 235.926 36.496ZM235.974 26.528H244.614V27.6H235.974V26.528ZM240.31 28.432C240.982 28.432 241.574 28.544 242.086 28.768C242.598 28.992 242.998 29.3067 243.286 29.712C243.574 30.1067 243.718 30.576 243.718 31.12C243.718 31.6533 243.574 32.1227 243.286 32.528C242.998 32.9333 242.598 33.248 242.086 33.472C241.574 33.6853 240.982 33.792 240.31 33.792C239.638 33.792 239.04 33.6853 238.518 33.472C238.006 33.248 237.606 32.9333 237.318 32.528C237.04 32.1227 236.902 31.6533 236.902 31.12C236.902 30.576 237.04 30.1067 237.318 29.712C237.606 29.3067 238.006 28.992 238.518 28.768C239.04 28.544 239.638 28.432 240.31 28.432ZM240.31 29.472C239.659 29.472 239.136 29.6213 238.742 29.92C238.347 30.2187 238.15 30.6187 238.15 31.12C238.15 31.6107 238.347 32.0053 238.742 32.304C239.136 32.6027 239.659 32.752 240.31 32.752C240.95 32.752 241.467 32.6027 241.862 32.304C242.256 32.0053 242.454 31.6107 242.454 31.12C242.454 30.6187 242.256 30.2187 241.862 29.92C241.467 29.6213 240.95 29.472 240.31 29.472ZM239.638 24.8H240.966V27.232H239.638V24.8ZM254.293 26.24H255.381V27.424C255.381 28.2987 255.21 29.12 254.869 29.888C254.538 30.656 254.069 31.328 253.461 31.904C252.853 32.4693 252.149 32.9013 251.349 33.2L250.661 32.144C251.194 31.952 251.679 31.696 252.117 31.376C252.565 31.056 252.954 30.688 253.285 30.272C253.615 29.8453 253.866 29.392 254.036 28.912C254.207 28.4213 254.293 27.9253 254.293 27.424V26.24ZM254.549 26.24H255.637V27.408C255.637 28.0267 255.781 28.6293 256.069 29.216C256.357 29.792 256.767 30.3093 257.301 30.768C257.834 31.216 258.447 31.568 259.141 31.824L258.469 32.864C257.679 32.576 256.991 32.16 256.405 31.616C255.818 31.072 255.359 30.4373 255.029 29.712C254.709 28.9867 254.549 28.2187 254.549 27.408V26.24ZM258.357 28.544H261.573V29.648H258.357V28.544ZM251.077 25.76H258.805V26.848H251.077V25.76ZM252.853 34.208H262.517V39.248H261.189V35.296H252.853V34.208ZM261.189 24.768H262.517V33.424H261.189V24.768ZM275.859 24.784H277.187V35.344H275.859V24.784ZM267.891 37.84H277.635V38.928H267.891V37.84ZM267.891 34.272H269.219V38.208H267.891V34.272ZM269.427 25.792C270.153 25.792 270.798 25.9413 271.363 26.24C271.929 26.5387 272.377 26.96 272.707 27.504C273.038 28.0373 273.203 28.6507 273.203 29.344C273.203 30.0373 273.038 30.656 272.707 31.2C272.377 31.7333 271.929 32.1547 271.363 32.464C270.798 32.7627 270.153 32.912 269.427 32.912C268.713 32.912 268.067 32.7627 267.491 32.464C266.926 32.1547 266.478 31.7333 266.147 31.2C265.817 30.656 265.651 30.0373 265.651 29.344C265.651 28.6507 265.817 28.0373 266.147 27.504C266.478 26.96 266.926 26.5387 267.491 26.24C268.067 25.9413 268.713 25.792 269.427 25.792ZM269.427 26.944C268.958 26.944 268.537 27.0453 268.163 27.248C267.79 27.4507 267.491 27.7333 267.267 28.096C267.054 28.4587 266.947 28.8747 266.947 29.344C266.947 29.824 267.054 30.2453 267.267 30.608C267.491 30.96 267.79 31.2373 268.163 31.44C268.537 31.6427 268.958 31.744 269.427 31.744C269.897 31.744 270.318 31.6427 270.691 31.44C271.075 31.2373 271.374 30.96 271.587 30.608C271.801 30.2453 271.907 29.824 271.907 29.344C271.907 28.8747 271.801 28.4587 271.587 28.096C271.374 27.7333 271.075 27.4507 270.691 27.248C270.318 27.0453 269.897 26.944 269.427 26.944ZM284.988 26.224H294.284V27.312H284.988V26.224ZM283.628 36.112H296.7V37.216H283.628V36.112ZM286.828 31.344H288.156V36.512H286.828V31.344ZM293.852 26.224H295.18V27.808C295.18 28.416 295.169 29.0453 295.148 29.696C295.137 30.3467 295.095 31.0453 295.02 31.792C294.956 32.528 294.839 33.344 294.668 34.24L293.356 34.096C293.601 32.8053 293.745 31.664 293.788 30.672C293.831 29.6693 293.852 28.7147 293.852 27.808V26.224ZM290.412 31.344H291.724V36.512H290.412V31.344ZM301.787 32.256H303.115V35.12H301.787V32.256ZM306.651 32.256H307.963V35.104H306.651V32.256ZM298.347 31.744H311.419V32.816H298.347V31.744ZM299.803 34.624H309.803V39.248H308.475V35.696H299.803V34.624ZM304.875 25.104C305.92 25.104 306.822 25.216 307.579 25.44C308.336 25.664 308.923 25.984 309.339 26.4C309.755 26.8053 309.963 27.296 309.963 27.872C309.963 28.4587 309.755 28.96 309.339 29.376C308.923 29.7813 308.336 30.096 307.579 30.32C306.822 30.544 305.92 30.656 304.875 30.656C303.84 30.656 302.939 30.544 302.171 30.32C301.414 30.096 300.827 29.7813 300.411 29.376C299.995 28.96 299.787 28.4587 299.787 27.872C299.787 27.296 299.995 26.8053 300.411 26.4C300.827 25.984 301.414 25.664 302.171 25.44C302.939 25.216 303.84 25.104 304.875 25.104ZM304.875 26.16C304.118 26.16 303.456 26.2293 302.891 26.368C302.336 26.496 301.904 26.688 301.595 26.944C301.296 27.2 301.147 27.5093 301.147 27.872C301.147 28.2347 301.296 28.544 301.595 28.8C301.904 29.056 302.336 29.2533 302.891 29.392C303.456 29.5307 304.118 29.6 304.875 29.6C305.643 29.6 306.304 29.5307 306.859 29.392C307.424 29.2533 307.856 29.056 308.155 28.8C308.454 28.544 308.603 28.2347 308.603 27.872C308.603 27.5093 308.454 27.2 308.155 26.944C307.856 26.688 307.424 26.496 306.859 26.368C306.304 26.2293 305.643 26.16 304.875 26.16ZM7.312 52H11.696V53.088H7.312V52ZM7.312 56.576H11.696V57.664H7.312V56.576ZM4.656 49.888C5.36 49.888 5.984 50.096 6.528 50.512C7.072 50.9173 7.49333 51.4987 7.792 52.256C8.10133 53.0133 8.256 53.904 8.256 54.928C8.256 55.952 8.10133 56.8427 7.792 57.6C7.49333 58.3573 7.072 58.944 6.528 59.36C5.984 59.776 5.36 59.984 4.656 59.984C3.96267 59.984 3.33867 59.776 2.784 59.36C2.24 58.944 1.81333 58.3573 1.504 57.6C1.20533 56.8427 1.056 55.952 1.056 54.928C1.056 53.904 1.20533 53.0133 1.504 52.256C1.81333 51.4987 2.24 50.9173 2.784 50.512C3.33867 50.096 3.96267 49.888 4.656 49.888ZM4.656 51.072C4.19733 51.072 3.792 51.232 3.44 51.552C3.088 51.8613 2.81067 52.3093 2.608 52.896C2.416 53.472 2.32 54.1493 2.32 54.928C2.32 55.7067 2.416 56.3893 2.608 56.976C2.81067 57.552 3.088 58 3.44 58.32C3.792 58.64 4.19733 58.8 4.656 58.8C5.12533 58.8 5.536 58.64 5.888 58.32C6.24 58 6.512 57.552 6.704 56.976C6.90667 56.3893 7.008 55.7067 7.008 54.928C7.008 54.1493 6.90667 53.472 6.704 52.896C6.512 52.3093 6.24 51.8613 5.888 51.552C5.536 51.232 5.12533 51.072 4.656 51.072ZM11.392 48.768H12.704V63.264H11.392V48.768ZM26.0948 48.784H27.4228V59.472H26.0948V48.784ZM22.9588 53.232H26.3508V54.336H22.9588V53.232ZM21.6148 49.888H23.0228C23.0228 51.136 22.7454 52.2773 22.1908 53.312C21.6361 54.336 20.8574 55.2267 19.8548 55.984C18.8521 56.7413 17.6681 57.3493 16.3028 57.808L15.7428 56.736C16.9161 56.3413 17.9454 55.8347 18.8307 55.216C19.7161 54.5973 20.3988 53.8827 20.8788 53.072C21.3694 52.2613 21.6148 51.3813 21.6148 50.432V49.888ZM16.4628 49.888H22.4788V50.992H16.4628V49.888ZM18.2708 61.84H27.7908V62.928H18.2708V61.84ZM18.2708 58.384H19.6148V62.384H18.2708V58.384ZM33.8156 60.288H46.9356V61.392H33.8156V60.288ZM39.7036 56.784H41.0316V60.656H39.7036V56.784ZM39.6716 50.608H40.8076V51.488C40.8076 52.0853 40.6956 52.6507 40.4716 53.184C40.2583 53.7067 39.9596 54.1973 39.5756 54.656C39.2023 55.104 38.765 55.504 38.2636 55.856C37.773 56.1973 37.245 56.496 36.6796 56.752C36.125 56.9973 35.565 57.1787 34.9996 57.296L34.4556 56.24C34.9463 56.1547 35.4423 56.0107 35.9436 55.808C36.445 55.5947 36.9143 55.3387 37.3516 55.04C37.7996 54.7413 38.1943 54.4053 38.5356 54.032C38.8876 53.6587 39.165 53.2587 39.3676 52.832C39.5703 52.4053 39.6716 51.9573 39.6716 51.488V50.608ZM39.9276 50.608H41.0476V51.488C41.0476 51.9573 41.149 52.4053 41.3516 52.832C41.5543 53.248 41.8316 53.6427 42.1836 54.016C42.5356 54.3893 42.9356 54.7253 43.3836 55.024C43.8316 55.312 44.3063 55.5573 44.8076 55.76C45.3196 55.9627 45.8263 56.1013 46.3276 56.176L45.7836 57.232C45.2076 57.1147 44.637 56.9387 44.0716 56.704C43.5063 56.4587 42.973 56.1653 42.4716 55.824C41.981 55.472 41.5436 55.0773 41.1596 54.64C40.7756 54.192 40.4716 53.7067 40.2476 53.184C40.0343 52.6507 39.9276 52.0853 39.9276 51.488V50.608ZM34.9036 50.08H45.8156V51.184H34.9036V50.08ZM52.1824 49.584H53.2864V51.072C53.2864 52.0107 53.1157 52.8747 52.7744 53.664C52.4437 54.4533 51.9744 55.1467 51.3664 55.744C50.769 56.3307 50.0544 56.7787 49.2224 57.088L48.5184 56.016C49.265 55.7493 49.9104 55.3707 50.4544 54.88C50.9984 54.3893 51.4197 53.8187 51.7184 53.168C52.0277 52.5067 52.1824 51.808 52.1824 51.072V49.584ZM52.4224 49.584H53.4944V51.024C53.4944 51.7067 53.6437 52.352 53.9424 52.96C54.241 53.568 54.6517 54.1067 55.1744 54.576C55.7077 55.0347 56.3264 55.3813 57.0304 55.616L56.3104 56.656C55.5317 56.3573 54.849 55.936 54.2624 55.392C53.6757 54.848 53.2224 54.2027 52.9024 53.456C52.5824 52.7093 52.4224 51.8987 52.4224 51.024V49.584ZM59.1104 48.768H60.4384V57.328H59.1104V48.768ZM55.6704 57.76C57.1637 57.76 58.337 58 59.1904 58.48C60.0544 58.96 60.4864 59.632 60.4864 60.496C60.4864 61.3493 60.0544 62.016 59.1904 62.496C58.337 62.976 57.1637 63.216 55.6704 63.216C54.177 63.216 52.9984 62.976 52.1344 62.496C51.281 62.016 50.8544 61.3493 50.8544 60.496C50.8544 59.632 51.281 58.96 52.1344 58.48C52.9984 58 54.177 57.76 55.6704 57.76ZM55.6704 58.816C54.945 58.816 54.321 58.8853 53.7984 59.024C53.2757 59.152 52.8704 59.344 52.5824 59.6C52.305 59.8453 52.1664 60.144 52.1664 60.496C52.1664 60.8373 52.305 61.136 52.5824 61.392C52.8704 61.6373 53.2757 61.8293 53.7984 61.968C54.321 62.096 54.945 62.16 55.6704 62.16C56.4064 62.16 57.0304 62.096 57.5424 61.968C58.065 61.8293 58.465 61.6373 58.7424 61.392C59.0304 61.136 59.1744 60.8373 59.1744 60.496C59.1744 60.144 59.0304 59.8453 58.7424 59.6C58.465 59.344 58.065 59.152 57.5424 59.024C57.0304 58.8853 56.4064 58.816 55.6704 58.816ZM55.9584 51.824H59.3824V52.928H55.9584V51.824ZM70.3673 50.016H71.4553V52.608C71.4553 53.408 71.3539 54.192 71.1513 54.96C70.9593 55.728 70.6819 56.448 70.3193 57.12C69.9566 57.792 69.5299 58.3893 69.0393 58.912C68.5486 59.4347 68.0153 59.8507 67.4393 60.16L66.6233 59.088C67.1566 58.8213 67.6473 58.464 68.0953 58.016C68.5539 57.5573 68.9539 57.0347 69.2953 56.448C69.6366 55.8613 69.8979 55.2427 70.0793 54.592C70.2713 53.9307 70.3673 53.2693 70.3673 52.608V50.016ZM70.6073 50.016H71.6793V52.608C71.6793 53.248 71.7699 53.8827 71.9513 54.512C72.1433 55.1413 72.4099 55.7333 72.7513 56.288C73.0926 56.8427 73.4819 57.3387 73.9193 57.776C74.3673 58.2133 74.8473 58.56 75.3593 58.816L74.5433 59.872C73.9779 59.584 73.4553 59.1893 72.9753 58.688C72.5059 58.1867 72.0899 57.616 71.7273 56.976C71.3753 56.3253 71.0979 55.632 70.8953 54.896C70.7033 54.1493 70.6073 53.3867 70.6073 52.608V50.016ZM76.6233 48.768H77.9513V63.248H76.6233V48.768ZM77.6473 54.624H80.3193V55.76H77.6473V54.624ZM88.814 52.224H92.702V53.312H88.814V52.224ZM85.502 49.44C86.2167 49.44 86.8513 49.584 87.406 49.872C87.9713 50.1493 88.414 50.5387 88.734 51.04C89.054 51.5413 89.214 52.1227 89.214 52.784C89.214 53.4453 89.054 54.032 88.734 54.544C88.414 55.0453 87.9713 55.44 87.406 55.728C86.8513 56.0053 86.2167 56.144 85.502 56.144C84.7767 56.144 84.1313 56.0053 83.566 55.728C83.0113 55.44 82.574 55.0453 82.254 54.544C81.934 54.032 81.774 53.4453 81.774 52.784C81.774 52.1227 81.934 51.5413 82.254 51.04C82.574 50.5387 83.0113 50.1493 83.566 49.872C84.1313 49.584 84.7767 49.44 85.502 49.44ZM85.502 50.56C85.022 50.56 84.5953 50.656 84.222 50.848C83.8593 51.0293 83.5713 51.2907 83.358 51.632C83.1447 51.9627 83.038 52.3467 83.038 52.784C83.038 53.2213 83.1447 53.6107 83.358 53.952C83.5713 54.2827 83.8593 54.544 84.222 54.736C84.5953 54.928 85.022 55.024 85.502 55.024C85.9713 55.024 86.3873 54.928 86.75 54.736C87.1233 54.544 87.4167 54.2827 87.63 53.952C87.8433 53.6107 87.95 53.2213 87.95 52.784C87.95 52.3467 87.8433 51.9627 87.63 51.632C87.4167 51.2907 87.1233 51.0293 86.75 50.848C86.3873 50.656 85.9713 50.56 85.502 50.56ZM92.126 48.768H93.454V56.544H92.126V48.768ZM84.19 57.264H85.502V59.072H92.126V57.264H93.454V63.056H84.19V57.264ZM85.502 60.128V61.968H92.126V60.128H85.502ZM102.797 49.024C104.397 49.024 105.645 49.2427 106.541 49.68C107.437 50.1067 107.885 50.72 107.885 51.52C107.885 52.3307 107.437 52.9547 106.541 53.392C105.645 53.8187 104.397 54.032 102.797 54.032C101.207 54.032 99.9594 53.8187 99.0528 53.392C98.1568 52.9547 97.7088 52.3307 97.7088 51.52C97.7088 50.72 98.1568 50.1067 99.0528 49.68C99.9594 49.2427 101.207 49.024 102.797 49.024ZM102.797 50.016C102.018 50.016 101.351 50.0747 100.797 50.192C100.242 50.3093 99.8154 50.48 99.5168 50.704C99.2288 50.928 99.0848 51.2 99.0848 51.52C99.0848 51.84 99.2288 52.1173 99.5168 52.352C99.8154 52.576 100.242 52.7467 100.797 52.864C101.351 52.9707 102.018 53.024 102.797 53.024C103.586 53.024 104.258 52.9707 104.813 52.864C105.367 52.7467 105.789 52.576 106.077 52.352C106.375 52.1173 106.525 51.84 106.525 51.52C106.525 51.2 106.375 50.928 106.077 50.704C105.789 50.48 105.367 50.3093 104.813 50.192C104.258 50.0747 103.586 50.016 102.797 50.016ZM96.2688 55.008H109.341V56.08H96.2688V55.008ZM97.8528 57.312H107.661V60.576H99.1808V62.32H97.8848V59.6H106.365V58.336H97.8528V57.312ZM97.8848 62.048H108.093V63.088H97.8848V62.048ZM125.094 48.768H126.422V56.256H125.094V48.768ZM117.062 56.992H126.422V60.48H118.39V62.464H117.11V59.472H125.11V58.048H117.062V56.992ZM117.11 62.016H126.918V63.088H117.11V62.016ZM118.326 49.184H119.43V50.288C119.43 51.184 119.259 52.0213 118.918 52.8C118.576 53.5787 118.096 54.256 117.478 54.832C116.859 55.3973 116.144 55.8293 115.334 56.128L114.662 55.072C115.206 54.88 115.702 54.624 116.15 54.304C116.598 53.984 116.982 53.616 117.302 53.2C117.632 52.7733 117.883 52.3147 118.054 51.824C118.235 51.3333 118.326 50.8213 118.326 50.288V49.184ZM118.566 49.184H119.67V50.288C119.67 50.7893 119.755 51.2747 119.926 51.744C120.107 52.2133 120.358 52.6453 120.678 53.04C121.008 53.4347 121.398 53.7867 121.846 54.096C122.294 54.3947 122.784 54.6347 123.318 54.816L122.662 55.856C122.054 55.6427 121.499 55.36 120.998 55.008C120.496 54.6453 120.064 54.224 119.702 53.744C119.339 53.2533 119.056 52.72 118.854 52.144C118.662 51.5573 118.566 50.9387 118.566 50.288V49.184ZM133.092 50.016H134.196V52.608C134.196 53.44 134.09 54.2507 133.876 55.04C133.674 55.8187 133.38 56.5493 132.996 57.232C132.623 57.904 132.18 58.5013 131.668 59.024C131.167 59.536 130.618 59.9413 130.02 60.24L129.204 59.136C129.748 58.8907 130.255 58.5387 130.724 58.08C131.194 57.6213 131.604 57.104 131.956 56.528C132.308 55.9413 132.586 55.312 132.788 54.64C132.991 53.968 133.092 53.2907 133.092 52.608V50.016ZM133.316 50.016H134.42V52.608C134.42 53.2693 134.516 53.92 134.708 54.56C134.911 55.2 135.188 55.808 135.54 56.384C135.903 56.9493 136.314 57.4507 136.772 57.888C137.242 58.3147 137.743 58.6507 138.276 58.896L137.476 59.952C136.89 59.6747 136.346 59.2853 135.844 58.784C135.343 58.2827 134.9 57.7067 134.516 57.056C134.143 56.4053 133.85 55.7013 133.636 54.944C133.423 54.1867 133.316 53.408 133.316 52.608V50.016ZM139.796 48.768H141.124V63.264H139.796V48.768ZM153.907 48.768H155.235V57.488H153.907V48.768ZM154.867 52.608H157.363V53.728H154.867V52.608ZM146.147 58.304H155.235V63.056H146.147V58.304ZM153.923 59.376H147.443V61.968H153.923V59.376ZM144.035 50.304H152.579V51.376H144.035V50.304ZM148.307 52.096C149 52.096 149.603 52.2027 150.115 52.416C150.638 52.6293 151.043 52.9333 151.331 53.328C151.619 53.712 151.763 54.16 151.763 54.672C151.763 55.1947 151.619 55.648 151.331 56.032C151.043 56.416 150.638 56.7147 150.115 56.928C149.603 57.1413 149 57.248 148.307 57.248C147.614 57.248 147.006 57.1413 146.483 56.928C145.971 56.7147 145.566 56.416 145.267 56.032C144.979 55.648 144.835 55.1947 144.835 54.672C144.835 54.16 144.979 53.712 145.267 53.328C145.566 52.9333 145.971 52.6293 146.483 52.416C147.006 52.2027 147.614 52.096 148.307 52.096ZM148.307 53.12C147.646 53.12 147.112 53.2587 146.707 53.536C146.312 53.8133 146.115 54.192 146.115 54.672C146.115 55.152 146.312 55.536 146.707 55.824C147.112 56.1013 147.646 56.24 148.307 56.24C148.958 56.24 149.486 56.1013 149.891 55.824C150.296 55.536 150.499 55.152 150.499 54.672C150.499 54.192 150.296 53.8133 149.891 53.536C149.496 53.2587 148.968 53.12 148.307 53.12ZM147.651 48.656H148.979V50.848H147.651V48.656ZM165.25 49.696C166.263 49.696 167.165 49.8613 167.954 50.192C168.743 50.5227 169.367 50.9867 169.826 51.584C170.285 52.1813 170.514 52.88 170.514 53.68C170.514 54.4907 170.285 55.1947 169.826 55.792C169.367 56.3893 168.743 56.8533 167.954 57.184C167.165 57.5147 166.263 57.68 165.25 57.68C164.258 57.68 163.362 57.5147 162.562 57.184C161.773 56.8533 161.149 56.3893 160.69 55.792C160.231 55.1947 160.002 54.4907 160.002 53.68C160.002 52.88 160.231 52.1813 160.69 51.584C161.149 50.9867 161.773 50.5227 162.562 50.192C163.362 49.8613 164.258 49.696 165.25 49.696ZM165.25 50.768C164.493 50.768 163.815 50.8907 163.218 51.136C162.621 51.3813 162.146 51.7227 161.794 52.16C161.442 52.5867 161.266 53.0933 161.266 53.68C161.266 54.256 161.442 54.7627 161.794 55.2C162.146 55.6373 162.621 55.9787 163.218 56.224C163.815 56.4693 164.493 56.592 165.25 56.592C166.018 56.592 166.701 56.4693 167.298 56.224C167.895 55.9787 168.365 55.6373 168.706 55.2C169.058 54.7627 169.234 54.256 169.234 53.68C169.234 53.0933 169.058 52.5867 168.706 52.16C168.365 51.7227 167.895 51.3813 167.298 51.136C166.701 50.8907 166.018 50.768 165.25 50.768ZM158.722 60.224H171.842V61.328H158.722V60.224ZM173.441 60.352H186.561V61.456H173.441V60.352ZM179.313 57.264H180.625V60.816H179.313V57.264ZM175.041 49.84H184.929V54.224H176.385V57.12H175.073V53.168H183.617V50.928H175.041V49.84ZM175.073 56.56H185.265V57.648H175.073V56.56ZM198.943 48.768H200.287V63.248H198.943V48.768ZM196.447 54H199.583V55.152H196.447V54ZM190.175 50.048H191.167V53.296C191.167 53.872 191.13 54.4747 191.055 55.104C190.981 55.7333 190.853 56.352 190.671 56.96C190.501 57.5573 190.261 58.1173 189.951 58.64C189.653 59.152 189.274 59.5787 188.815 59.92L187.935 58.976C188.383 58.656 188.751 58.272 189.039 57.824C189.327 57.3653 189.551 56.8747 189.711 56.352C189.882 55.8293 189.999 55.3067 190.063 54.784C190.138 54.2613 190.175 53.7653 190.175 53.296V50.048ZM190.463 50.048H191.423V53.296C191.423 53.7333 191.45 54.2133 191.503 54.736C191.567 55.2587 191.674 55.7867 191.823 56.32C191.983 56.8533 192.202 57.3653 192.479 57.856C192.757 58.336 193.114 58.7467 193.551 59.088L192.815 60.08C192.335 59.728 191.941 59.28 191.631 58.736C191.322 58.1813 191.082 57.5893 190.911 56.96C190.741 56.3307 190.623 55.7013 190.559 55.072C190.495 54.432 190.463 53.84 190.463 53.296V50.048ZM194.191 50.048H195.167V53.296C195.167 53.8613 195.135 54.464 195.071 55.104C195.007 55.744 194.89 56.3787 194.719 57.008C194.559 57.6373 194.325 58.2187 194.015 58.752C193.706 59.2853 193.306 59.728 192.815 60.08L192.079 59.088C192.527 58.7467 192.885 58.3413 193.151 57.872C193.429 57.4027 193.642 56.9067 193.791 56.384C193.941 55.8507 194.042 55.3227 194.095 54.8C194.159 54.2667 194.191 53.7653 194.191 53.296V50.048ZM194.479 50.048H195.471V53.296C195.471 53.776 195.503 54.2827 195.567 54.816C195.642 55.3387 195.759 55.8613 195.919 56.384C196.09 56.896 196.319 57.376 196.607 57.824C196.895 58.272 197.263 58.656 197.711 58.976L196.879 59.968C196.41 59.616 196.021 59.184 195.711 58.672C195.402 58.16 195.157 57.6053 194.975 57.008C194.794 56.4 194.666 55.7813 194.591 55.152C194.517 54.512 194.479 53.8933 194.479 53.296V50.048ZM217.432 48.768H218.712V63.248H217.432V48.768ZM215.096 54.592H217.88V55.68H215.096V54.592ZM211.368 50.64H212.632C212.632 51.568 212.542 52.4747 212.36 53.36C212.179 54.2453 211.88 55.0987 211.464 55.92C211.059 56.7307 210.51 57.4933 209.816 58.208C209.123 58.912 208.259 59.5573 207.224 60.144L206.456 59.2C207.672 58.5173 208.638 57.744 209.352 56.88C210.067 56.016 210.579 55.0827 210.888 54.08C211.208 53.0667 211.368 52 211.368 50.88V50.64ZM207.016 50.64H211.8V51.728H207.016V50.64ZM214.232 49.152H215.48V62.528H214.232V49.152ZM231.703 48.784H233.031V59.344H231.703V48.784ZM223.735 61.84H233.479V62.928H223.735V61.84ZM223.735 58.272H225.063V62.208H223.735V58.272ZM225.271 49.792C225.996 49.792 226.642 49.9413 227.207 50.24C227.772 50.5387 228.22 50.96 228.551 51.504C228.882 52.0373 229.047 52.6507 229.047 53.344C229.047 54.0373 228.882 54.656 228.551 55.2C228.22 55.7333 227.772 56.1547 227.207 56.464C226.642 56.7627 225.996 56.912 225.271 56.912C224.556 56.912 223.911 56.7627 223.335 56.464C222.77 56.1547 222.322 55.7333 221.991 55.2C221.66 54.656 221.495 54.0373 221.495 53.344C221.495 52.6507 221.66 52.0373 221.991 51.504C222.322 50.96 222.77 50.5387 223.335 50.24C223.911 49.9413 224.556 49.792 225.271 49.792ZM225.271 50.944C224.802 50.944 224.38 51.0453 224.007 51.248C223.634 51.4507 223.335 51.7333 223.111 52.096C222.898 52.4587 222.791 52.8747 222.791 53.344C222.791 53.824 222.898 54.2453 223.111 54.608C223.335 54.96 223.634 55.2373 224.007 55.44C224.38 55.6427 224.802 55.744 225.271 55.744C225.74 55.744 226.162 55.6427 226.535 55.44C226.919 55.2373 227.218 54.96 227.431 54.608C227.644 54.2453 227.751 53.824 227.751 53.344C227.751 52.8747 227.644 52.4587 227.431 52.096C227.218 51.7333 226.919 51.4507 226.535 51.248C226.162 51.0453 225.74 50.944 225.271 50.944ZM236.294 65.04L235.942 64.176C236.443 63.952 236.838 63.648 237.126 63.264C237.414 62.88 237.552 62.4427 237.542 61.952L237.382 60.64L238.102 61.712C237.995 61.8293 237.878 61.9147 237.75 61.968C237.632 62.0107 237.504 62.032 237.366 62.032C237.078 62.032 236.827 61.9413 236.614 61.76C236.4 61.5787 236.294 61.328 236.294 61.008C236.294 60.688 236.4 60.4373 236.614 60.256C236.838 60.0747 237.099 59.984 237.398 59.984C237.782 59.984 238.08 60.1387 238.294 60.448C238.518 60.7467 238.63 61.1627 238.63 61.696C238.63 62.464 238.416 63.136 237.99 63.712C237.574 64.288 237.008 64.7307 236.294 65.04ZM247.749 50.848H248.837V53.184C248.837 53.952 248.73 54.7093 248.517 55.456C248.304 56.192 248.005 56.8907 247.621 57.552C247.248 58.2027 246.81 58.7787 246.309 59.28C245.808 59.7813 245.269 60.176 244.693 60.464L243.925 59.408C244.448 59.152 244.938 58.8053 245.397 58.368C245.866 57.9307 246.277 57.4293 246.629 56.864C246.981 56.2987 247.253 55.7013 247.445 55.072C247.648 54.4427 247.749 53.8133 247.749 53.184V50.848ZM248.021 50.848H249.093V53.184C249.093 53.792 249.189 54.4 249.381 55.008C249.584 55.6053 249.861 56.1707 250.213 56.704C250.576 57.2267 250.986 57.6907 251.445 58.096C251.914 58.5013 252.416 58.8213 252.949 59.056L252.213 60.112C251.626 59.8347 251.077 59.4613 250.565 58.992C250.053 58.5227 249.605 57.984 249.221 57.376C248.848 56.7573 248.554 56.096 248.341 55.392C248.128 54.6773 248.021 53.9413 248.021 53.184V50.848ZM244.389 50.256H252.469V51.36H244.389V50.256ZM254.437 48.768H255.765V63.248H254.437V48.768ZM265.236 50.896H269.636V51.984H265.236V50.896ZM265.236 54.144H269.636V55.232H265.236V54.144ZM260.884 58.096H270.548V63.248H269.22V59.168H260.884V58.096ZM269.22 48.768H270.548V57.296H269.22V48.768ZM262.596 49.584C263.3 49.584 263.929 49.7333 264.484 50.032C265.049 50.32 265.492 50.7307 265.812 51.264C266.142 51.7867 266.308 52.384 266.308 53.056C266.308 53.7387 266.142 54.3413 265.812 54.864C265.492 55.3867 265.049 55.7973 264.484 56.096C263.929 56.3947 263.3 56.544 262.596 56.544C261.881 56.544 261.241 56.3947 260.676 56.096C260.121 55.7973 259.678 55.3867 259.348 54.864C259.028 54.3413 258.868 53.7387 258.868 53.056C258.868 52.384 259.028 51.7867 259.348 51.264C259.678 50.7307 260.121 50.32 260.676 50.032C261.241 49.7333 261.881 49.584 262.596 49.584ZM262.596 50.72C262.126 50.72 261.705 50.8213 261.332 51.024C260.958 51.2267 260.665 51.504 260.452 51.856C260.238 52.208 260.132 52.608 260.132 53.056C260.132 53.5147 260.238 53.9253 260.452 54.288C260.665 54.64 260.958 54.9173 261.332 55.12C261.705 55.312 262.126 55.408 262.596 55.408C263.054 55.408 263.47 55.312 263.844 55.12C264.217 54.9173 264.51 54.64 264.724 54.288C264.937 53.9253 265.044 53.5147 265.044 53.056C265.044 52.608 264.937 52.208 264.724 51.856C264.51 51.504 264.217 51.2267 263.844 51.024C263.47 50.8213 263.054 50.72 262.596 50.72ZM273.763 65.04L273.411 64.176C273.912 63.952 274.307 63.648 274.595 63.264C274.883 62.88 275.021 62.4427 275.011 61.952L274.851 60.64L275.571 61.712C275.464 61.8293 275.347 61.9147 275.219 61.968C275.101 62.0107 274.973 62.032 274.835 62.032C274.547 62.032 274.296 61.9413 274.083 61.76C273.869 61.5787 273.763 61.328 273.763 61.008C273.763 60.688 273.869 60.4373 274.083 60.256C274.307 60.0747 274.568 59.984 274.867 59.984C275.251 59.984 275.549 60.1387 275.763 60.448C275.987 60.7467 276.099 61.1627 276.099 61.696C276.099 62.464 275.885 63.136 275.459 63.712C275.043 64.288 274.477 64.7307 273.763 65.04ZM287.01 52.784H290.21V53.872H287.01V52.784ZM286.898 56.416H290.178V57.504H286.898V56.416ZM292.418 48.768H293.698V63.248H292.418V48.768ZM289.506 49.152H290.77V62.512H289.506V49.152ZM286.29 50.608H287.57C287.57 51.8667 287.388 53.0773 287.026 54.24C286.663 55.392 286.082 56.4693 285.282 57.472C284.492 58.464 283.452 59.3493 282.162 60.128L281.378 59.168C282.508 58.4853 283.436 57.7173 284.162 56.864C284.887 56 285.42 55.0667 285.762 54.064C286.114 53.0507 286.29 51.9787 286.29 50.848V50.608ZM282.018 50.608H286.802V51.696H282.018V50.608ZM296.113 56.112H309.185V57.2H296.113V56.112ZM301.985 48.736H303.297V50.752H301.985V48.736ZM301.921 50.88H303.089V51.104C303.089 51.7013 302.934 52.2347 302.625 52.704C302.326 53.1733 301.905 53.5787 301.361 53.92C300.827 54.2613 300.209 54.5387 299.505 54.752C298.811 54.9547 298.07 55.0987 297.281 55.184L296.865 54.16C297.569 54.096 298.225 53.9787 298.833 53.808C299.441 53.6373 299.974 53.4187 300.433 53.152C300.902 52.8853 301.265 52.5813 301.521 52.24C301.787 51.8987 301.921 51.52 301.921 51.104V50.88ZM302.209 50.88H303.361V51.104C303.361 51.52 303.489 51.8987 303.745 52.24C304.011 52.5813 304.374 52.8853 304.833 53.152C305.302 53.4187 305.841 53.6373 306.449 53.808C307.057 53.9787 307.713 54.096 308.417 54.16L308.017 55.184C307.227 55.0987 306.481 54.9547 305.777 54.752C305.083 54.5387 304.465 54.2613 303.921 53.92C303.387 53.5787 302.966 53.1733 302.657 52.704C302.358 52.2347 302.209 51.7013 302.209 51.104V50.88ZM297.457 50.176H307.857V51.248H297.457V50.176ZM302.641 58.416C304.198 58.416 305.409 58.624 306.273 59.04C307.147 59.4453 307.585 60.0373 307.585 60.816C307.585 61.5947 307.147 62.1867 306.273 62.592C305.409 63.008 304.198 63.216 302.641 63.216C301.083 63.216 299.867 63.008 298.993 62.592C298.118 62.1867 297.681 61.5947 297.681 60.816C297.681 60.0373 298.118 59.4453 298.993 59.04C299.867 58.624 301.083 58.416 302.641 58.416ZM302.641 59.424C301.489 59.424 300.598 59.5467 299.969 59.792C299.339 60.0267 299.025 60.368 299.025 60.816C299.025 61.264 299.339 61.6107 299.969 61.856C300.598 62.0907 301.489 62.208 302.641 62.208C303.782 62.208 304.667 62.0907 305.297 61.856C305.937 61.6107 306.257 61.264 306.257 60.816C306.257 60.368 305.937 60.0267 305.297 59.792C304.667 59.5467 303.782 59.424 302.641 59.424ZM10.688 72.768H12.032V83.344H10.688V72.768ZM11.616 77.152H14.16V78.272H11.616V77.152ZM6.736 73.888H8.144C8.144 75.136 7.86667 76.2667 7.312 77.28C6.768 78.2933 5.98933 79.1733 4.976 79.92C3.96267 80.6667 2.76267 81.2587 1.376 81.696L0.816 80.624C2.032 80.24 3.08267 79.744 3.968 79.136C4.85333 78.528 5.536 77.8293 6.016 77.04C6.496 76.2507 6.736 75.3973 6.736 74.48V73.888ZM1.408 73.888H7.424V74.992H1.408V73.888ZM3.008 85.84H12.656V86.928H3.008V85.84ZM3.008 82.272H4.336V86.272H3.008V82.272ZM20.4569 74.224H29.7529V75.312H20.4569V74.224ZM19.0969 84.112H32.1689V85.216H19.0969V84.112ZM22.2969 79.344H23.6249V84.512H22.2969V79.344ZM29.3209 74.224H30.6489V75.808C30.6489 76.416 30.6382 77.0453 30.6169 77.696C30.6062 78.3467 30.5635 79.0453 30.4889 79.792C30.4249 80.528 30.3075 81.344 30.1369 82.24L28.8249 82.096C29.0702 80.8053 29.2142 79.664 29.2569 78.672C29.2995 77.6693 29.3209 76.7147 29.3209 75.808V74.224ZM25.8809 79.344H27.1929V84.512H25.8809V79.344ZM37.2556 80.256H38.5836V83.12H37.2556V80.256ZM42.1196 80.256H43.4316V83.104H42.1196V80.256ZM33.8156 79.744H46.8876V80.816H33.8156V79.744ZM35.2716 82.624H45.2716V87.248H43.9436V83.696H35.2716V82.624ZM40.3436 73.104C41.389 73.104 42.2903 73.216 43.0476 73.44C43.805 73.664 44.3916 73.984 44.8076 74.4C45.2236 74.8053 45.4316 75.296 45.4316 75.872C45.4316 76.4587 45.2236 76.96 44.8076 77.376C44.3916 77.7813 43.805 78.096 43.0476 78.32C42.2903 78.544 41.389 78.656 40.3436 78.656C39.309 78.656 38.4076 78.544 37.6396 78.32C36.8823 78.096 36.2956 77.7813 35.8796 77.376C35.4636 76.96 35.2556 76.4587 35.2556 75.872C35.2556 75.296 35.4636 74.8053 35.8796 74.4C36.2956 73.984 36.8823 73.664 37.6396 73.44C38.4076 73.216 39.309 73.104 40.3436 73.104ZM40.3436 74.16C39.5863 74.16 38.925 74.2293 38.3596 74.368C37.805 74.496 37.373 74.688 37.0636 74.944C36.765 75.2 36.6156 75.5093 36.6156 75.872C36.6156 76.2347 36.765 76.544 37.0636 76.8C37.373 77.056 37.805 77.2533 38.3596 77.392C38.925 77.5307 39.5863 77.6 40.3436 77.6C41.1116 77.6 41.773 77.5307 42.3276 77.392C42.893 77.2533 43.325 77.056 43.6236 76.8C43.9223 76.544 44.0716 76.2347 44.0716 75.872C44.0716 75.5093 43.9223 75.2 43.6236 74.944C43.325 74.688 42.893 74.496 42.3276 74.368C41.773 74.2293 41.1116 74.16 40.3436 74.16ZM54.7104 73.744H56.1024C56.1024 74.9707 55.825 76.0747 55.2704 77.056C54.7157 78.0373 53.9264 78.88 52.9024 79.584C51.889 80.288 50.6784 80.832 49.2704 81.216L48.7584 80.16C49.9957 79.8187 51.057 79.3653 51.9424 78.8C52.8384 78.224 53.521 77.5627 53.9904 76.816C54.4704 76.0587 54.7104 75.232 54.7104 74.336V73.744ZM49.4944 73.744H55.5104V74.832H49.4944V73.744ZM50.7744 82.048H60.4384V87.216H59.1104V83.12H50.7744V82.048ZM59.1104 72.784H60.4384V81.408H59.1104V72.784ZM55.5104 75.36H59.3824V76.432H55.5104V75.36ZM55.3504 78.416H59.2704V79.504H55.3504V78.416ZM66.7731 76.208H67.8291V77.456C67.8291 78.2133 67.7278 78.9547 67.5251 79.68C67.3331 80.3947 67.0558 81.0613 66.6931 81.68C66.3411 82.2987 65.9251 82.848 65.4451 83.328C64.9651 83.7973 64.4371 84.1707 63.8611 84.448L63.1091 83.424C63.6425 83.168 64.1331 82.832 64.5811 82.416C65.0291 82 65.4131 81.5253 65.7331 80.992C66.0638 80.4587 66.3198 79.8933 66.5011 79.296C66.6825 78.688 66.7731 78.0747 66.7731 77.456V76.208ZM67.0291 76.208H68.0691V77.456C68.0691 78.032 68.1545 78.608 68.3251 79.184C68.5065 79.7493 68.7518 80.288 69.0611 80.8C69.3705 81.3013 69.7385 81.76 70.1651 82.176C70.6025 82.5813 71.0825 82.912 71.6051 83.168L70.8531 84.176C70.2878 83.8987 69.7705 83.5307 69.3011 83.072C68.8425 82.6027 68.4425 82.0747 68.1011 81.488C67.7598 80.8907 67.4931 80.2507 67.3011 79.568C67.1198 78.8747 67.0291 78.1707 67.0291 77.456V76.208ZM63.5091 75.28H71.2851V76.352H63.5091V75.28ZM66.7571 73.04H68.0851V75.872H66.7571V73.04ZM73.0451 72.768H74.3731V87.248H73.0451V72.768ZM74.0691 78.704H76.7411V79.824H74.0691V78.704ZM77.9559 79.488H91.0759V80.512H77.9559V79.488ZM79.5239 81.664H89.4439V84.752H80.8679V86.448H79.5559V83.84H88.1319V82.624H79.5239V81.664ZM79.5559 86.096H89.9079V87.056H79.5559V86.096ZM79.6199 73.2H89.3959V76.208H80.9639V77.776H79.6519V75.312H88.0839V74.144H79.6199V73.2ZM79.6519 77.456H89.6519V78.416H79.6519V77.456ZM96.2368 75.248H103.421V76.336H96.2368V75.248ZM99.8368 77.296C100.445 77.296 100.978 77.4347 101.437 77.712C101.906 77.9893 102.274 78.3787 102.541 78.88C102.807 79.3707 102.941 79.9413 102.941 80.592C102.941 81.2427 102.807 81.8187 102.541 82.32C102.274 82.8107 101.906 83.2 101.437 83.488C100.978 83.7653 100.445 83.904 99.8368 83.904C99.2394 83.904 98.7061 83.7653 98.2368 83.488C97.7674 83.2 97.3994 82.8107 97.1328 82.32C96.8661 81.8187 96.7328 81.2427 96.7328 80.592C96.7328 79.9413 96.8661 79.3707 97.1328 78.88C97.3994 78.3893 97.7674 78.0053 98.2368 77.728C98.7061 77.44 99.2394 77.296 99.8368 77.296ZM99.8368 78.416C99.4741 78.416 99.1434 78.512 98.8448 78.704C98.5568 78.8853 98.3274 79.1413 98.1568 79.472C97.9968 79.792 97.9168 80.1653 97.9168 80.592C97.9168 81.0187 97.9968 81.3973 98.1568 81.728C98.3274 82.0587 98.5568 82.3147 98.8448 82.496C99.1434 82.6773 99.4741 82.768 99.8368 82.768C100.21 82.768 100.541 82.6773 100.829 82.496C101.117 82.3147 101.341 82.0587 101.501 81.728C101.671 81.3973 101.757 81.0187 101.757 80.592C101.757 80.1653 101.671 79.792 101.501 79.472C101.341 79.1413 101.117 78.8853 100.829 78.704C100.541 78.512 100.21 78.416 99.8368 78.416ZM107.245 72.768H108.509V87.248H107.245V72.768ZM104.925 78.864H107.661V79.952H104.925V78.864ZM104.141 73.104H105.389V86.544H104.141V73.104ZM99.1808 73.2H100.493V75.904H99.1808V73.2ZM110.988 84.256H124.108V85.376H110.988V84.256ZM116.828 80.752H118.14V84.624H116.828V80.752ZM116.78 73.728H117.948V74.848C117.948 75.4773 117.836 76.0693 117.612 76.624C117.398 77.168 117.1 77.68 116.716 78.16C116.332 78.6293 115.889 79.0507 115.388 79.424C114.897 79.7973 114.369 80.112 113.804 80.368C113.238 80.624 112.662 80.8107 112.076 80.928L111.5 79.824C112.012 79.7387 112.518 79.5893 113.02 79.376C113.532 79.152 114.012 78.8853 114.46 78.576C114.908 78.256 115.308 77.904 115.66 77.52C116.012 77.1253 116.284 76.704 116.476 76.256C116.678 75.7973 116.78 75.328 116.78 74.848V73.728ZM117.02 73.728H118.172V74.848C118.172 75.3387 118.273 75.808 118.476 76.256C118.678 76.704 118.956 77.1253 119.308 77.52C119.66 77.904 120.06 78.256 120.508 78.576C120.966 78.896 121.446 79.1627 121.948 79.376C122.46 79.5893 122.972 79.7387 123.484 79.824L122.908 80.928C122.321 80.8107 121.745 80.624 121.18 80.368C120.614 80.112 120.081 79.7973 119.58 79.424C119.078 79.0507 118.636 78.6293 118.252 78.16C117.868 77.68 117.564 77.1627 117.34 76.608C117.126 76.0533 117.02 75.4667 117.02 74.848V73.728ZM135.514 72.768H136.826V87.248H135.514V72.768ZM136.522 78.72H139.194V79.84H136.522V78.72ZM125.626 75.088H134.154V76.176H125.626V75.088ZM129.962 77.36C130.645 77.36 131.248 77.504 131.77 77.792C132.304 78.08 132.72 78.4747 133.018 78.976C133.328 79.4667 133.482 80.0373 133.482 80.688C133.482 81.3387 133.328 81.9147 133.018 82.416C132.72 82.9173 132.304 83.312 131.77 83.6C131.248 83.8773 130.645 84.016 129.962 84.016C129.28 84.016 128.672 83.8773 128.138 83.6C127.616 83.312 127.2 82.9173 126.89 82.416C126.581 81.9147 126.426 81.3387 126.426 80.688C126.426 80.0373 126.581 79.4667 126.89 78.976C127.2 78.4747 127.616 78.08 128.138 77.792C128.672 77.504 129.28 77.36 129.962 77.36ZM129.962 78.464C129.525 78.464 129.136 78.56 128.794 78.752C128.453 78.944 128.181 79.2053 127.978 79.536C127.786 79.8667 127.69 80.2507 127.69 80.688C127.69 81.1253 127.786 81.5147 127.978 81.856C128.181 82.1867 128.453 82.448 128.794 82.64C129.136 82.8213 129.525 82.912 129.962 82.912C130.389 82.912 130.773 82.8213 131.114 82.64C131.456 82.448 131.722 82.1867 131.914 81.856C132.117 81.5147 132.218 81.1253 132.218 80.688C132.218 80.2507 132.117 79.8667 131.914 79.536C131.722 79.2053 131.456 78.944 131.114 78.752C130.773 78.56 130.389 78.464 129.962 78.464ZM129.274 72.944H130.602V75.568H129.274V72.944ZM141.817 74.224H151.129V75.312H141.817V74.224ZM140.425 84.112H153.497V85.216H140.425V84.112ZM145.513 78.944H146.825V84.672H145.513V78.944ZM150.617 74.224H151.945V75.648C151.945 76.2453 151.934 76.8747 151.913 77.536C151.902 78.1973 151.86 78.9227 151.785 79.712C151.721 80.5013 151.598 81.3813 151.417 82.352L150.073 82.192C150.35 80.8053 150.51 79.5893 150.553 78.544C150.596 77.488 150.617 76.5227 150.617 75.648V74.224ZM162.258 74.016H163.346V76.608C163.346 77.408 163.245 78.192 163.042 78.96C162.85 79.728 162.573 80.448 162.21 81.12C161.847 81.792 161.421 82.3893 160.93 82.912C160.439 83.4347 159.906 83.8507 159.33 84.16L158.514 83.088C159.047 82.8213 159.538 82.464 159.986 82.016C160.445 81.5573 160.845 81.0347 161.186 80.448C161.527 79.8613 161.789 79.2427 161.97 78.592C162.162 77.9307 162.258 77.2693 162.258 76.608V74.016ZM162.498 74.016H163.57V76.608C163.57 77.248 163.661 77.8827 163.842 78.512C164.034 79.1413 164.301 79.7333 164.642 80.288C164.983 80.8427 165.373 81.3387 165.81 81.776C166.258 82.2133 166.738 82.56 167.25 82.816L166.434 83.872C165.869 83.584 165.346 83.1893 164.866 82.688C164.397 82.1867 163.981 81.616 163.618 80.976C163.266 80.3253 162.989 79.632 162.786 78.896C162.594 78.1493 162.498 77.3867 162.498 76.608V74.016ZM168.514 72.768H169.842V87.248H168.514V72.768ZM169.538 78.624H172.21V79.76H169.538V78.624ZM177.569 81.456H178.897V83.84H177.569V81.456ZM183.905 72.768H185.233V87.248H183.905V72.768ZM173.713 84.496L173.521 83.376C174.438 83.3653 175.43 83.3547 176.497 83.344C177.563 83.3333 178.651 83.296 179.761 83.232C180.87 83.168 181.942 83.0667 182.977 82.928L183.073 83.92C182.006 84.0907 180.923 84.2187 179.825 84.304C178.726 84.3787 177.654 84.432 176.609 84.464C175.563 84.4853 174.598 84.496 173.713 84.496ZM173.825 74.544H182.609V75.616H173.825V74.544ZM178.209 76.432C178.902 76.432 179.51 76.544 180.033 76.768C180.555 76.992 180.961 77.3067 181.249 77.712C181.547 78.1067 181.697 78.576 181.697 79.12C181.697 79.6533 181.547 80.1227 181.249 80.528C180.961 80.9333 180.555 81.248 180.033 81.472C179.51 81.6853 178.902 81.792 178.209 81.792C177.526 81.792 176.923 81.6853 176.401 81.472C175.878 81.248 175.473 80.9333 175.185 80.528C174.897 80.1227 174.753 79.6533 174.753 79.12C174.753 78.576 174.897 78.1067 175.185 77.712C175.473 77.3067 175.878 76.992 176.401 76.768C176.923 76.544 177.526 76.432 178.209 76.432ZM178.209 77.472C177.569 77.472 177.041 77.6213 176.625 77.92C176.209 78.2187 176.001 78.6187 176.001 79.12C176.001 79.6107 176.209 80.0053 176.625 80.304C177.041 80.6027 177.569 80.752 178.209 80.752C178.87 80.752 179.403 80.6027 179.809 80.304C180.225 80.0053 180.433 79.6107 180.433 79.12C180.433 78.6187 180.225 78.2187 179.809 77.92C179.403 77.6213 178.87 77.472 178.209 77.472ZM177.569 72.784H178.897V75.12H177.569V72.784ZM188.143 80.432H201.231V81.504H188.143V80.432ZM194.015 78.56H195.343V80.88H194.015V78.56ZM189.871 77.984H199.695V79.024H189.871V77.984ZM189.871 73.184H199.615V74.24H191.199V78.544H189.871V73.184ZM190.799 75.568H199.231V76.576H190.799V75.568ZM194.687 82.576C196.255 82.576 197.471 82.7733 198.335 83.168C199.199 83.5627 199.631 84.1387 199.631 84.896C199.631 85.6533 199.199 86.2293 198.335 86.624C197.471 87.0187 196.255 87.216 194.687 87.216C193.109 87.216 191.887 87.0187 191.023 86.624C190.159 86.2293 189.727 85.6533 189.727 84.896C189.727 84.1387 190.159 83.5627 191.023 83.168C191.887 82.7733 193.109 82.576 194.687 82.576ZM194.671 83.584C193.519 83.584 192.629 83.696 191.999 83.92C191.37 84.144 191.055 84.4693 191.055 84.896C191.055 85.3333 191.37 85.664 191.999 85.888C192.629 86.1013 193.519 86.208 194.671 86.208C195.845 86.208 196.741 86.1013 197.359 85.888C197.989 85.664 198.303 85.3333 198.303 84.896C198.303 84.4693 197.989 84.144 197.359 83.92C196.741 83.696 195.845 83.584 194.671 83.584ZM212.782 72.768H214.11V81.184H212.782V72.768ZM213.534 76.464H216.238V77.584H213.534V76.464ZM205.006 81.824H206.318V83.344H212.782V81.824H214.11V87.056H205.006V81.824ZM206.318 84.384V85.984H212.782V84.384H206.318ZM202.91 74.256H211.454V75.328H202.91V74.256ZM207.182 76C207.875 76 208.478 76.1067 208.99 76.32C209.513 76.5227 209.918 76.816 210.206 77.2C210.494 77.5733 210.638 78.016 210.638 78.528C210.638 79.04 210.494 79.488 210.206 79.872C209.918 80.256 209.513 80.5547 208.99 80.768C208.478 80.9707 207.875 81.072 207.182 81.072C206.489 81.072 205.881 80.9707 205.358 80.768C204.846 80.5547 204.441 80.256 204.142 79.872C203.854 79.488 203.71 79.04 203.71 78.528C203.71 78.016 203.854 77.5733 204.142 77.2C204.441 76.816 204.846 76.5227 205.358 76.32C205.881 76.1067 206.489 76 207.182 76ZM207.182 77.008C206.521 77.008 205.987 77.1467 205.582 77.424C205.187 77.7013 204.99 78.0693 204.99 78.528C204.99 78.9973 205.187 79.3707 205.582 79.648C205.987 79.9253 206.521 80.064 207.182 80.064C207.833 80.064 208.361 79.9253 208.766 79.648C209.171 79.3707 209.374 78.9973 209.374 78.528C209.374 78.0693 209.171 77.7013 208.766 77.424C208.371 77.1467 207.843 77.008 207.182 77.008ZM206.526 72.64H207.854V74.832H206.526V72.64ZM221.927 73.712H228.679V79.616H221.927V73.712ZM227.383 74.768H223.223V78.56H227.383V74.768ZM231.703 72.768H233.031V81.072H231.703V72.768ZM227.767 82.8H228.903V83.072C228.903 83.5947 228.754 84.0853 228.455 84.544C228.167 84.992 227.767 85.4027 227.255 85.776C226.743 86.1387 226.156 86.4373 225.495 86.672C224.834 86.9173 224.14 87.0933 223.415 87.2L222.951 86.176C223.463 86.112 223.954 86.0107 224.423 85.872C224.892 85.7333 225.33 85.568 225.735 85.376C226.14 85.1733 226.492 84.9493 226.791 84.704C227.1 84.4587 227.34 84.1973 227.511 83.92C227.682 83.6427 227.767 83.36 227.767 83.072V82.8ZM227.975 82.8H229.127V83.072C229.127 83.4133 229.255 83.7547 229.511 84.096C229.767 84.4373 230.114 84.752 230.551 85.04C230.999 85.3173 231.506 85.5573 232.071 85.76C232.647 85.9627 233.25 86.1013 233.879 86.176L233.415 87.2C232.679 87.0933 231.986 86.9173 231.335 86.672C230.684 86.4267 230.103 86.1173 229.591 85.744C229.09 85.3707 228.695 84.96 228.407 84.512C228.119 84.0533 227.975 83.5733 227.975 83.072V82.8ZM223.527 82.064H233.367V83.088H223.527V82.064ZM227.783 80.656H229.127V82.528H227.783V80.656ZM241.136 73.456H250.448V74.544H241.136V73.456ZM239.472 78.624H252.592V79.712H239.472V78.624ZM245.344 79.376H246.672V82.768H245.344V79.376ZM249.584 73.456H250.896V74.512C250.896 75.1093 250.875 75.7867 250.832 76.544C250.789 77.2907 250.651 78.16 250.416 79.152L249.12 79.008C249.355 78.0267 249.488 77.1787 249.52 76.464C249.563 75.7493 249.584 75.0987 249.584 74.512V73.456ZM240.832 82.352H250.976V87.248H249.648V83.424H240.832V82.352ZM263.983 72.768H265.311V87.232H263.983V72.768ZM264.959 78.64H267.615V79.744H264.959V78.64ZM260.287 74.32H261.583C261.583 75.696 261.359 77.0133 260.911 78.272C260.463 79.52 259.759 80.6773 258.799 81.744C257.839 82.8 256.575 83.7173 255.007 84.496L254.271 83.472C255.615 82.8 256.729 82.016 257.615 81.12C258.511 80.2133 259.177 79.2107 259.615 78.112C260.063 77.0027 260.287 75.808 260.287 74.528V74.32ZM254.943 74.32H260.959V75.424H254.943V74.32ZM269.501 73.376H270.813V75.44H274.893V73.376H276.205V79.68H269.501V73.376ZM270.813 76.48V78.608H274.893V76.48H270.813ZM278.813 72.768H280.141V80.24H278.813V72.768ZM279.549 75.888H282.269V76.976H279.549V75.888ZM270.941 80.928H280.141V84.448H272.285V86.608H270.989V83.456H278.829V81.984H270.941V80.928ZM270.989 86.016H280.653V87.088H270.989V86.016ZM291.292 76.768H294.956V77.856H291.292V76.768ZM294.204 72.784H295.532V83.392H294.204V72.784ZM286.3 85.84H295.932V86.928H286.3V85.84ZM286.3 82.448H287.612V86.384H286.3V82.448ZM287.308 74.576H288.396V75.744C288.396 76.6187 288.225 77.4453 287.884 78.224C287.553 78.992 287.084 79.664 286.476 80.24C285.868 80.8053 285.164 81.2427 284.364 81.552L283.676 80.48C284.209 80.288 284.695 80.032 285.132 79.712C285.58 79.392 285.969 79.024 286.3 78.608C286.631 78.192 286.881 77.7387 287.052 77.248C287.223 76.7573 287.308 76.256 287.308 75.744V74.576ZM287.564 74.576H288.652V75.744C288.652 76.3627 288.796 76.9653 289.084 77.552C289.372 78.1387 289.783 78.6613 290.316 79.12C290.849 79.568 291.463 79.9147 292.156 80.16L291.484 81.216C290.695 80.928 290.007 80.512 289.42 79.968C288.833 79.4133 288.375 78.7733 288.044 78.048C287.724 77.3227 287.564 76.5547 287.564 75.744V74.576ZM284.092 73.952H291.82V75.04H284.092V73.952ZM304.219 78.4H306.939V79.488H304.219V78.4ZM309.371 72.768H310.651V87.248H309.371V72.768ZM306.491 73.072H307.755V86.512H306.491V73.072ZM301.595 73.984C302.224 73.984 302.768 74.1867 303.227 74.592C303.696 74.9973 304.059 75.5787 304.315 76.336C304.571 77.0933 304.699 77.984 304.699 79.008C304.699 80.0427 304.571 80.9387 304.315 81.696C304.059 82.4533 303.696 83.04 303.227 83.456C302.768 83.8613 302.224 84.064 301.595 84.064C300.987 84.064 300.448 83.8613 299.979 83.456C299.52 83.04 299.163 82.4533 298.907 81.696C298.651 80.9387 298.523 80.0427 298.523 79.008C298.523 77.984 298.651 77.0933 298.907 76.336C299.163 75.5787 299.52 74.9973 299.979 74.592C300.448 74.1867 300.987 73.984 301.595 73.984ZM301.595 75.216C301.222 75.216 300.896 75.3707 300.619 75.68C300.342 75.9893 300.128 76.4267 299.979 76.992C299.83 77.5573 299.755 78.2293 299.755 79.008C299.755 79.7867 299.83 80.464 299.979 81.04C300.128 81.6053 300.342 82.0427 300.619 82.352C300.896 82.6613 301.222 82.816 301.595 82.816C301.979 82.816 302.31 82.6613 302.587 82.352C302.875 82.0427 303.094 81.6053 303.243 81.04C303.392 80.464 303.467 79.7867 303.467 79.008C303.467 78.2293 303.392 77.5573 303.243 76.992C303.094 76.4267 302.875 75.9893 302.587 75.68C302.31 75.3707 301.979 75.216 301.595 75.216ZM11.344 96.768H12.672V111.248H11.344V96.768ZM7.104 98.336H8.416C8.416 99.3813 8.288 100.389 8.032 101.36C7.78667 102.331 7.39733 103.253 6.864 104.128C6.33067 104.992 5.63733 105.797 4.784 106.544C3.93067 107.291 2.896 107.957 1.68 108.544L0.976 107.472C2.37333 106.8 3.52533 106.016 4.432 105.12C5.33867 104.224 6.01067 103.227 6.448 102.128C6.88533 101.019 7.104 99.824 7.104 98.544V98.336ZM1.648 98.336H7.664V99.408H1.648V98.336ZM22.0308 100H26.4148V101.088H22.0308V100ZM22.0308 104.576H26.4148V105.664H22.0308V104.576ZM19.3748 97.888C20.0788 97.888 20.7028 98.096 21.2468 98.512C21.7908 98.9173 22.2121 99.4987 22.5108 100.256C22.8201 101.013 22.9748 101.904 22.9748 102.928C22.9748 103.952 22.8201 104.843 22.5108 105.6C22.2121 106.357 21.7908 106.944 21.2468 107.36C20.7028 107.776 20.0788 107.984 19.3748 107.984C18.6814 107.984 18.0574 107.776 17.5028 107.36C16.9588 106.944 16.5321 106.357 16.2228 105.6C15.9241 104.843 15.7747 103.952 15.7747 102.928C15.7747 101.904 15.9241 101.013 16.2228 100.256C16.5321 99.4987 16.9588 98.9173 17.5028 98.512C18.0574 98.096 18.6814 97.888 19.3748 97.888ZM19.3748 99.072C18.9161 99.072 18.5108 99.232 18.1588 99.552C17.8068 99.8613 17.5294 100.309 17.3268 100.896C17.1348 101.472 17.0388 102.149 17.0388 102.928C17.0388 103.707 17.1348 104.389 17.3268 104.976C17.5294 105.552 17.8068 106 18.1588 106.32C18.5108 106.64 18.9161 106.8 19.3748 106.8C19.8441 106.8 20.2548 106.64 20.6068 106.32C20.9588 106 21.2308 105.552 21.4228 104.976C21.6254 104.389 21.7268 103.707 21.7268 102.928C21.7268 102.149 21.6254 101.472 21.4228 100.896C21.2308 100.309 20.9588 99.8613 20.6068 99.552C20.2548 99.232 19.8441 99.072 19.3748 99.072ZM26.1108 96.768H27.4228V111.264H26.1108V96.768ZM40.0455 96.768H41.3575V111.248H40.0455V96.768ZM41.0535 102.72H43.7255V103.84H41.0535V102.72ZM30.1575 99.088H38.6855V100.176H30.1575V99.088ZM34.4935 101.36C35.1762 101.36 35.7788 101.504 36.3015 101.792C36.8348 102.08 37.2508 102.475 37.5495 102.976C37.8588 103.467 38.0135 104.037 38.0135 104.688C38.0135 105.339 37.8588 105.915 37.5495 106.416C37.2508 106.917 36.8348 107.312 36.3015 107.6C35.7788 107.877 35.1762 108.016 34.4935 108.016C33.8108 108.016 33.2028 107.877 32.6695 107.6C32.1468 107.312 31.7308 106.917 31.4215 106.416C31.1122 105.915 30.9575 105.339 30.9575 104.688C30.9575 104.037 31.1122 103.467 31.4215 102.976C31.7308 102.475 32.1468 102.08 32.6695 101.792C33.2028 101.504 33.8108 101.36 34.4935 101.36ZM34.4935 102.464C34.0562 102.464 33.6668 102.56 33.3255 102.752C32.9842 102.944 32.7122 103.205 32.5095 103.536C32.3175 103.867 32.2215 104.251 32.2215 104.688C32.2215 105.125 32.3175 105.515 32.5095 105.856C32.7122 106.187 32.9842 106.448 33.3255 106.64C33.6668 106.821 34.0562 106.912 34.4935 106.912C34.9202 106.912 35.3042 106.821 35.6455 106.64C35.9868 106.448 36.2535 106.187 36.4455 105.856C36.6482 105.515 36.7495 105.125 36.7495 104.688C36.7495 104.251 36.6482 103.867 36.4455 103.536C36.2535 103.205 35.9868 102.944 35.6455 102.752C35.3042 102.56 34.9202 102.464 34.4935 102.464ZM33.8055 96.944H35.1335V99.568H33.8055V96.944ZM55.5003 96.768H56.8283V111.248H55.5003V96.768ZM51.2603 98.336H52.5723C52.5723 99.3813 52.4443 100.389 52.1883 101.36C51.9429 102.331 51.5536 103.253 51.0203 104.128C50.4869 104.992 49.7936 105.797 48.9403 106.544C48.0869 107.291 47.0523 107.957 45.8363 108.544L45.1323 107.472C46.5296 106.8 47.6816 106.016 48.5883 105.12C49.4949 104.224 50.1669 103.227 50.6043 102.128C51.0416 101.019 51.2603 99.824 51.2603 98.544V98.336ZM45.8043 98.336H51.8203V99.408H45.8043V98.336ZM67.9731 97.456C68.6985 97.456 69.3385 97.584 69.8931 97.84C70.4478 98.0853 70.8798 98.432 71.1891 98.88C71.5091 99.3173 71.6691 99.8347 71.6691 100.432C71.6691 101.008 71.5091 101.525 71.1891 101.984C70.8798 102.432 70.4478 102.784 69.8931 103.04C69.3385 103.285 68.6985 103.408 67.9731 103.408C67.2691 103.408 66.6398 103.285 66.0851 103.04C65.5305 102.784 65.0931 102.432 64.7731 101.984C64.4531 101.525 64.2931 101.008 64.2931 100.432C64.2931 99.8347 64.4531 99.3173 64.7731 98.88C65.0931 98.432 65.5305 98.0853 66.0851 97.84C66.6398 97.584 67.2691 97.456 67.9731 97.456ZM67.9731 98.544C67.5145 98.544 67.1038 98.624 66.7411 98.784C66.3785 98.944 66.0905 99.168 65.8771 99.456C65.6745 99.7333 65.5731 100.059 65.5731 100.432C65.5731 100.795 65.6745 101.12 65.8771 101.408C66.0905 101.685 66.3785 101.904 66.7411 102.064C67.1038 102.224 67.5145 102.304 67.9731 102.304C68.4531 102.304 68.8745 102.224 69.2371 102.064C69.5998 101.904 69.8825 101.685 70.0851 101.408C70.2985 101.12 70.4051 100.795 70.4051 100.432C70.4051 100.059 70.2985 99.7333 70.0851 99.456C69.8825 99.168 69.5998 98.944 69.2371 98.784C68.8745 98.624 68.4531 98.544 67.9731 98.544ZM67.3971 105.024H68.7251V110.8H67.3971V105.024ZM73.7971 96.784H75.1091V111.248H73.7971V96.784ZM63.3971 105.744L63.2211 104.624C64.1171 104.624 65.0985 104.613 66.1651 104.592C67.2425 104.571 68.3465 104.523 69.4771 104.448C70.6185 104.373 71.7118 104.256 72.7571 104.096L72.8531 105.088C71.7758 105.291 70.6771 105.44 69.5571 105.536C68.4371 105.621 67.3491 105.675 66.2931 105.696C65.2478 105.717 64.2825 105.733 63.3971 105.744ZM77.9399 99.248H85.1239V100.336H77.9399V99.248ZM81.5399 101.296C82.1479 101.296 82.6812 101.435 83.1399 101.712C83.6092 101.989 83.9772 102.379 84.2439 102.88C84.5105 103.371 84.6439 103.941 84.6439 104.592C84.6439 105.243 84.5105 105.819 84.2439 106.32C83.9772 106.811 83.6092 107.2 83.1399 107.488C82.6812 107.765 82.1479 107.904 81.5399 107.904C80.9425 107.904 80.4092 107.765 79.9399 107.488C79.4705 107.2 79.1025 106.811 78.8359 106.32C78.5692 105.819 78.4359 105.243 78.4359 104.592C78.4359 103.941 78.5692 103.371 78.8359 102.88C79.1025 102.389 79.4705 102.005 79.9399 101.728C80.4092 101.44 80.9425 101.296 81.5399 101.296ZM81.5399 102.416C81.1772 102.416 80.8465 102.512 80.5479 102.704C80.2599 102.885 80.0305 103.141 79.8599 103.472C79.6999 103.792 79.6199 104.165 79.6199 104.592C79.6199 105.019 79.6999 105.397 79.8599 105.728C80.0305 106.059 80.2599 106.315 80.5479 106.496C80.8465 106.677 81.1772 106.768 81.5399 106.768C81.9132 106.768 82.2439 106.677 82.5319 106.496C82.8199 106.315 83.0439 106.059 83.2039 105.728C83.3745 105.397 83.4599 105.019 83.4599 104.592C83.4599 104.165 83.3745 103.792 83.2039 103.472C83.0439 103.141 82.8199 102.885 82.5319 102.704C82.2439 102.512 81.9132 102.416 81.5399 102.416ZM88.9479 96.768H90.2119V111.248H88.9479V96.768ZM86.6279 102.864H89.3639V103.952H86.6279V102.864ZM85.8439 97.104H87.0919V110.544H85.8439V97.104ZM80.8839 97.2H82.1959V99.904H80.8839V97.2ZM103.693 99.392H107.405V100.48H103.693V99.392ZM106.845 96.768H108.173V104.24H106.845V96.768ZM98.8608 104.976H108.173V108.448H100.189V110.64H98.8928V107.44H106.861V106.032H98.8608V104.976ZM98.8928 109.984H108.701V111.056H98.8928V109.984ZM99.8848 97.232H100.957V98.576C100.957 99.4613 100.791 100.288 100.461 101.056C100.13 101.813 99.6661 102.469 99.0688 103.024C98.4714 103.568 97.7674 103.984 96.9568 104.272L96.2528 103.216C96.9781 102.971 97.6128 102.619 98.1568 102.16C98.7008 101.701 99.1221 101.168 99.4208 100.56C99.7301 99.9413 99.8848 99.28 99.8848 98.576V97.232ZM100.093 97.232H101.181V98.576C101.181 99.0453 101.266 99.504 101.437 99.952C101.607 100.389 101.847 100.8 102.157 101.184C102.477 101.568 102.855 101.909 103.293 102.208C103.73 102.496 104.21 102.725 104.733 102.896L104.029 103.936C103.25 103.659 102.562 103.259 101.965 102.736C101.378 102.203 100.919 101.584 100.589 100.88C100.258 100.165 100.093 99.3973 100.093 98.576V97.232ZM121.516 96.784H122.844V104.736H121.516V96.784ZM111.74 103.328H112.908C113.782 103.328 114.593 103.317 115.34 103.296C116.097 103.275 116.833 103.232 117.548 103.168C118.262 103.093 119.004 102.997 119.772 102.88L119.932 103.968C119.132 104.096 118.364 104.192 117.628 104.256C116.902 104.32 116.156 104.368 115.388 104.4C114.63 104.421 113.804 104.432 112.908 104.432H111.74V103.328ZM111.708 97.472H118.267V101.408H113.036V104.048H111.74V100.368H116.972V98.56H111.708V97.472ZM113.5 105.456H114.812V107.152H121.532V105.456H122.844V111.056H113.5V105.456ZM114.812 108.208V109.968H121.532V108.208H114.812ZM126.858 103.008H134.25V104.096H126.858V103.008ZM129.818 103.872H131.146V107.2H129.818V103.872ZM126.858 98.144H134.186V99.216H128.17V103.392H126.858V98.144ZM136.17 96.768H137.498V111.264H136.17V96.768ZM125.962 108.128L125.786 107.008C126.736 107.008 127.744 107.003 128.81 106.992C129.877 106.971 130.96 106.933 132.058 106.88C133.157 106.816 134.213 106.725 135.226 106.608L135.338 107.584C134.282 107.744 133.205 107.867 132.106 107.952C131.018 108.027 129.952 108.075 128.906 108.096C127.872 108.117 126.89 108.128 125.962 108.128ZM144.121 105.584H145.161V106.432C145.161 107.061 145.033 107.685 144.777 108.304C144.521 108.912 144.148 109.456 143.657 109.936C143.177 110.416 142.585 110.789 141.881 111.056L141.225 110.064C141.833 109.84 142.35 109.536 142.777 109.152C143.214 108.757 143.545 108.325 143.769 107.856C144.004 107.376 144.121 106.901 144.121 106.432V105.584ZM144.409 105.584H145.401V106.432C145.401 106.923 145.497 107.413 145.689 107.904C145.881 108.384 146.169 108.827 146.553 109.232C146.937 109.627 147.422 109.947 148.009 110.192L147.433 111.184C146.74 110.907 146.169 110.517 145.721 110.016C145.273 109.515 144.942 108.955 144.729 108.336C144.516 107.707 144.409 107.072 144.409 106.432V105.584ZM149.465 105.584H150.457V106.432C150.457 106.997 150.35 107.595 150.137 108.224C149.924 108.843 149.593 109.419 149.145 109.952C148.697 110.485 148.126 110.896 147.433 111.184L146.873 110.192C147.449 109.915 147.929 109.563 148.313 109.136C148.697 108.709 148.985 108.256 149.177 107.776C149.369 107.296 149.465 106.848 149.465 106.432V105.584ZM149.737 105.584H150.761V106.432C150.761 106.933 150.873 107.424 151.097 107.904C151.332 108.384 151.662 108.811 152.089 109.184C152.526 109.557 153.054 109.851 153.673 110.064L153.001 111.056C152.297 110.8 151.7 110.437 151.209 109.968C150.729 109.499 150.361 108.96 150.105 108.352C149.86 107.744 149.737 107.104 149.737 106.432V105.584ZM147.545 100.4H151.369V101.488H147.545V100.4ZM144.377 97.584C145.081 97.584 145.71 97.728 146.265 98.016C146.83 98.304 147.273 98.704 147.593 99.216C147.913 99.728 148.073 100.315 148.073 100.976C148.073 101.648 147.913 102.24 147.593 102.752C147.273 103.253 146.83 103.648 146.265 103.936C145.71 104.224 145.081 104.368 144.377 104.368C143.662 104.368 143.022 104.224 142.457 103.936C141.902 103.648 141.465 103.253 141.145 102.752C140.825 102.24 140.665 101.648 140.665 100.976C140.665 100.315 140.825 99.728 141.145 99.216C141.465 98.704 141.902 98.304 142.457 98.016C143.022 97.728 143.662 97.584 144.377 97.584ZM144.377 98.704C143.908 98.704 143.486 98.8 143.113 98.992C142.75 99.184 142.462 99.456 142.249 99.808C142.036 100.149 141.929 100.539 141.929 100.976C141.929 101.424 142.036 101.819 142.249 102.16C142.462 102.501 142.75 102.773 143.113 102.976C143.486 103.168 143.908 103.264 144.377 103.264C144.836 103.264 145.246 103.168 145.609 102.976C145.982 102.773 146.276 102.501 146.489 102.16C146.702 101.819 146.809 101.424 146.809 100.976C146.809 100.539 146.702 100.149 146.489 99.808C146.276 99.456 145.982 99.184 145.609 98.992C145.246 98.8 144.836 98.704 144.377 98.704ZM151.001 96.768H152.329V105.024H151.001V96.768ZM156.792 105.456H158.104V107.12H165.192V105.456H166.504V111.056H156.792V105.456ZM158.104 108.16V109.984H165.192V108.16H158.104ZM155.144 103.36H168.216V104.448H155.144V103.36ZM161 96.928H162.152V97.584C162.152 98.0853 162.045 98.56 161.832 99.008C161.618 99.4453 161.325 99.8507 160.952 100.224C160.589 100.587 160.162 100.912 159.672 101.2C159.192 101.488 158.669 101.728 158.104 101.92C157.549 102.112 156.973 102.256 156.376 102.352L155.88 101.296C156.402 101.221 156.909 101.104 157.4 100.944C157.901 100.784 158.37 100.592 158.808 100.368C159.245 100.133 159.629 99.872 159.96 99.584C160.29 99.2853 160.546 98.9707 160.728 98.64C160.909 98.2987 161 97.9467 161 97.584V96.928ZM161.224 96.928H162.36V97.584C162.36 97.936 162.45 98.2827 162.632 98.624C162.824 98.9547 163.085 99.2693 163.416 99.568C163.746 99.856 164.125 100.117 164.552 100.352C164.989 100.587 165.453 100.789 165.944 100.96C166.445 101.12 166.952 101.232 167.464 101.296L166.984 102.352C166.386 102.256 165.805 102.112 165.24 101.92C164.685 101.728 164.162 101.488 163.672 101.2C163.192 100.901 162.765 100.565 162.392 100.192C162.029 99.8187 161.741 99.4133 161.528 98.976C161.325 98.5387 161.224 98.0747 161.224 97.584V96.928ZM180.391 96.768H181.703V111.248H180.391V96.768ZM170.775 98.192H172.087V107.152H170.775V98.192ZM170.775 106.368H171.959C173.068 106.368 174.193 106.32 175.335 106.224C176.487 106.117 177.671 105.941 178.887 105.696L179.062 106.816C177.804 107.083 176.593 107.269 175.431 107.376C174.268 107.472 173.111 107.52 171.959 107.52H170.775V106.368ZM194.373 96.768H195.701V111.264H194.373V96.768ZM195.397 102.48H198.069V103.584H195.397V102.48ZM185.205 106.528H186.341C187.227 106.528 188.037 106.517 188.773 106.496C189.52 106.464 190.235 106.411 190.917 106.336C191.611 106.261 192.315 106.16 193.029 106.032L193.189 107.168C192.443 107.296 191.717 107.397 191.013 107.472C190.32 107.547 189.595 107.595 188.837 107.616C188.08 107.637 187.248 107.648 186.341 107.648H185.205V106.528ZM185.205 98.176H191.909V99.264H186.517V107.04H185.205V98.176ZM200.724 110.208C200.436 110.208 200.185 110.107 199.972 109.904C199.769 109.691 199.668 109.424 199.668 109.104C199.668 108.763 199.769 108.491 199.972 108.288C200.185 108.085 200.436 107.984 200.724 107.984C201.012 107.984 201.257 108.085 201.46 108.288C201.673 108.491 201.78 108.763 201.78 109.104C201.78 109.424 201.673 109.691 201.46 109.904C201.257 110.107 201.012 110.208 200.724 110.208Z" fill="#555555"/>
</svg>
