<svg width="9" height="16" viewBox="0 0 9 16" fill="none" xmlns="http://www.w3.org/2000/svg">
<path d="M1.25016 15.8839C1.00572 15.8839 0.791829 15.7998 0.608496 15.6318C0.425163 15.4637 0.333496 15.2422 0.333496 14.9672V1.03385C0.333496 0.758854 0.425163 0.537326 0.608496 0.369271C0.791829 0.201215 1.00572 0.117188 1.25016 0.117188C1.31127 0.117188 1.52516 0.208854 1.89183 0.392188L8.53766 7.03802C8.69044 7.1908 8.79739 7.34358 8.8585 7.49635C8.91961 7.64913 8.95016 7.81719 8.95016 8.00052C8.95016 8.18386 8.91961 8.35191 8.8585 8.50469C8.79739 8.65747 8.69044 8.81024 8.53766 8.96302L1.89183 15.6089C1.80016 15.7005 1.70086 15.7693 1.59391 15.8151C1.48697 15.8609 1.37239 15.8839 1.25016 15.8839Z" fill="white"/>
</svg>
