<svg width="15" height="15" viewBox="0 0 15 15" fill="none" xmlns="http://www.w3.org/2000/svg">
<path d="M6.25 8.33333H1.04167C0.746528 8.33333 0.499132 8.23351 0.299479 8.03385C0.0998264 7.8342 0 7.58681 0 7.29167C0 6.99653 0.0998264 6.74913 0.299479 6.54948C0.499132 6.34983 0.746528 6.25 1.04167 6.25H6.25V1.04167C6.25 0.746528 6.34983 0.499132 6.54948 0.299479C6.74913 0.0998264 6.99653 0 7.29167 0C7.58681 0 7.8342 0.0998264 8.03385 0.299479C8.23351 0.499132 8.33333 0.746528 8.33333 1.04167V6.25H13.5417C13.8368 6.25 14.0842 6.34983 14.2839 6.54948C14.4835 6.74913 14.5833 6.99653 14.5833 7.29167C14.5833 7.58681 14.4835 7.8342 14.2839 8.03385C14.0842 8.23351 13.8368 8.33333 13.5417 8.33333H8.33333V13.5417C8.33333 13.8368 8.23351 14.0842 8.03385 14.2839C7.8342 14.4835 7.58681 14.5833 7.29167 14.5833C6.99653 14.5833 6.74913 14.4835 6.54948 14.2839C6.34983 14.0842 6.25 13.8368 6.25 13.5417V8.33333Z" fill="#1C1B1F"/>
</svg>
