<svg width="166" height="52" viewBox="0 0 166 52" fill="none" xmlns="http://www.w3.org/2000/svg">
<g clip-path="url(#clip0_12_502)">
<path d="M68.2628 43.5983C67.5325 44.2307 66.721 44.5469 65.8013 44.5469C64.8817 44.5469 64.0972 44.2307 63.3579 43.5893C62.6095 42.9479 62.2399 42.1077 62.2399 41.0778C62.2399 40.0479 62.6095 39.1536 63.3489 38.5302C64.0882 37.8978 64.9087 37.5907 65.8103 37.5907C66.712 37.5907 67.5234 37.9069 68.2538 38.5302C68.9841 39.1626 69.3538 40.0028 69.3538 41.0778C69.3538 42.1529 68.9931 42.9659 68.2628 43.5983ZM67.2169 39.3885C66.8653 38.9277 66.3964 38.6928 65.8013 38.6928C65.2062 38.6928 64.7464 38.9277 64.3858 39.3885C64.0251 39.8492 63.8448 40.4183 63.8448 41.0778C63.8448 41.7373 64.0251 42.2884 64.3858 42.7582C64.7464 43.2279 65.2243 43.4628 65.8013 43.4628C66.3784 43.4628 66.8653 43.2279 67.2169 42.7582C67.5685 42.2884 67.7398 41.7283 67.7398 41.0778C67.7398 40.4274 67.5685 39.8492 67.2169 39.3885ZM62.1136 33.8054C61.0136 35.0792 59.8776 36.0278 58.6874 36.6421C58.435 36.7776 58.2276 36.8228 58.0653 36.7776C57.903 36.7415 57.7948 36.6692 57.7587 36.5608C57.7137 36.4163 57.7768 36.2807 57.9391 36.1452C58.1014 36.0188 58.2276 35.9104 58.3178 35.8471C59.1743 35.2509 60.103 34.3023 61.1128 33.0014C62.1136 31.7005 62.8079 30.3815 63.1956 29.0625C63.2226 28.9451 63.2136 28.8277 63.1685 28.7283C63.1235 28.6199 63.0423 28.5657 62.9251 28.5657C62.4382 28.5657 62.0325 28.5657 61.7169 28.5566C61.4013 28.5566 60.9866 28.5747 60.4727 28.6289C60.3915 28.647 60.2833 28.6831 60.1391 28.7644C59.9948 28.8457 59.9136 28.8909 59.9046 28.8999C59.3727 28.7644 58.8858 28.5295 58.435 28.1862C58.1464 27.9604 58.0653 27.7345 58.1915 27.5087C58.3178 27.2828 58.5341 27.2015 58.8587 27.2648C59.3186 27.319 59.5981 27.3551 59.6882 27.3641C59.7784 27.3822 60.121 27.4093 60.6981 27.4635C60.9054 27.4725 61.3022 27.4816 61.8882 27.4816C62.4743 27.4816 62.9702 27.4454 63.394 27.3822C63.5112 27.3551 63.6374 27.3099 63.7726 27.2557C63.9079 27.1925 63.98 27.1654 63.989 27.1654C64.0161 27.1835 64.1333 27.2377 64.3497 27.3461C64.5571 27.4545 64.7103 27.5539 64.7825 27.6623C64.9628 27.8791 65.08 28.0869 65.1161 28.2946C65.1521 28.5024 65.1341 28.7464 65.0349 29.0083C65.4407 29.0625 65.7743 29.0896 66.0177 29.0896C66.2612 29.0896 66.6218 29.0987 67.0997 29.1258C67.2439 29.1438 67.3972 29.1438 67.5505 29.1258C67.7038 29.1258 67.848 29.1077 67.9923 29.0987V27.5539C67.9923 27.2919 67.9562 27.0389 67.8841 26.786C67.812 26.542 67.5415 26.3523 67.0636 26.2259C66.73 26.1355 66.6038 25.9639 66.6669 25.7199C66.73 25.476 66.9464 25.3766 67.298 25.4128C67.3071 25.4128 67.5234 25.4309 67.9292 25.458C68.3349 25.4941 68.7857 25.5754 69.2726 25.7199C69.3177 25.738 69.4439 25.7651 69.6693 25.8193C69.6693 25.8464 69.6333 26.0723 69.5611 26.4969C69.489 26.9215 69.4529 27.2828 69.4529 27.59V35.6484C69.4529 35.9826 69.4169 36.2446 69.3448 36.4434C69.2726 36.6421 69.1915 36.7776 69.1013 36.8409C69.0202 36.9041 68.8849 36.9493 68.6956 36.9673C68.5062 36.9854 68.362 36.9583 68.2718 36.877C68.1907 36.8138 68.1275 36.7325 68.0734 36.6331C68.0193 36.5337 67.9923 36.3801 67.9923 36.1633V34.0042C67.803 34.0042 67.5956 34.0042 67.3521 34.0222C67.1087 34.0403 66.8382 34.0584 66.5316 34.0855C66.4415 34.1035 66.3243 34.1487 66.189 34.23C66.0538 34.3204 65.9817 34.3655 65.9817 34.3746C65.9726 34.3746 65.8194 34.3384 65.5308 34.2752C65.2423 34.2119 64.8636 34.0132 64.4038 33.6789C64.1243 33.4892 64.0251 33.2905 64.0882 33.0737C64.1513 32.8568 64.3497 32.7755 64.6833 32.8297C65.1882 32.8839 65.5579 32.911 65.8013 32.9201C66.0448 32.9201 66.4234 32.9472 66.9374 32.9653C67.1087 32.9743 67.289 32.9833 67.4784 32.9653C67.6677 32.9653 67.848 32.9472 68.0013 32.9381V30.1376C67.83 30.1466 67.6407 30.1647 67.4243 30.1647C67.2169 30.1647 66.9825 30.1828 66.73 30.2099C66.6218 30.2189 66.5046 30.2731 66.3694 30.3544C66.2341 30.4448 66.162 30.4899 66.153 30.508C66.1439 30.508 65.9997 30.4809 65.7382 30.4176C65.4767 30.3544 65.1161 30.1737 64.6653 29.8756C64.0882 31.1946 63.2407 32.4955 62.1497 33.7602L62.1136 33.8054Z" fill="black"/>
<path d="M81.057 34.763C79.8578 36.2446 78.6496 37.2745 77.4234 37.8436C77.1439 37.9701 76.9275 38.0334 76.7833 38.0063C76.63 37.9882 76.5308 37.9069 76.4767 37.7804C76.4406 37.6359 76.5037 37.4913 76.666 37.3468C76.8283 37.2022 76.9636 37.0938 77.0718 37.0306C78.0365 36.3982 79.0193 35.3502 80.0291 33.8958C81.03 32.4413 81.6701 31.1404 81.9496 29.984C81.9857 29.8395 81.9857 29.713 81.9316 29.6136C81.8775 29.5142 81.7963 29.4691 81.6701 29.4691C81.1652 29.4691 80.7144 29.4691 80.2996 29.451C79.8849 29.4329 79.416 29.451 78.875 29.5052C78.7939 29.5233 78.6857 29.5685 78.5414 29.6407C78.3972 29.722 78.316 29.7672 78.307 29.7762C78.298 29.7762 78.1628 29.7401 77.9103 29.6678C77.6578 29.5956 77.3062 29.3968 76.8373 29.0625C76.5218 28.8367 76.4226 28.6108 76.5578 28.385C76.6931 28.1591 76.9185 28.0778 77.2341 28.1501C77.6849 28.2043 77.9554 28.2404 78.0546 28.2585C78.1537 28.2766 78.4964 28.3127 79.0734 28.3669C79.2898 28.385 79.7406 28.385 80.4349 28.385C81.1291 28.385 81.7062 28.3489 82.166 28.2675C82.2291 28.2585 82.3373 28.2133 82.4906 28.1501C82.6439 28.0869 82.725 28.0507 82.7431 28.0507C82.7701 28.0507 82.8783 28.0869 83.0767 28.1682C83.275 28.2495 83.4373 28.376 83.5726 28.5476C83.7439 28.7825 83.8521 29.0083 83.8881 29.1981C83.9242 29.3968 83.8881 29.6407 83.789 29.9298C83.1668 31.6644 82.2562 33.2724 81.066 34.754L81.057 34.763ZM88.0897 26.524C88.0176 26.9486 87.9816 27.3099 87.9816 27.6171V40.4183C87.9816 40.7526 87.9455 41.0417 87.8734 41.3037C87.8012 41.5566 87.7201 41.7192 87.6209 41.7915C87.5398 41.8548 87.4045 41.8999 87.2152 41.918C87.0258 41.9361 86.8816 41.909 86.7914 41.8277C86.7103 41.7644 86.6471 41.665 86.593 41.5386C86.5389 41.4121 86.5119 41.2404 86.5119 41.0327V27.5719C86.5119 27.3099 86.4758 27.057 86.4037 26.804C86.3316 26.5601 86.0521 26.3704 85.5832 26.2439C85.2496 26.1536 85.1234 25.9819 85.1865 25.738C85.2496 25.4941 85.466 25.3947 85.8176 25.4309C85.8266 25.4309 86.043 25.4489 86.4488 25.476C86.8545 25.5122 87.3053 25.5935 87.7922 25.738C87.8373 25.7561 87.9635 25.7832 88.1889 25.8374C88.1889 25.8645 88.1529 26.0903 88.0807 26.5149L88.0897 26.524Z" fill="black"/>
<path d="M101.975 37.5365H104.454C105.185 37.5365 105.563 37.5365 105.609 37.5184C105.834 37.5003 106.032 37.4281 106.195 37.2926C106.366 37.1571 106.447 37.0757 106.465 37.0667C106.492 37.0667 106.727 37.0938 107.168 37.148C107.61 37.2022 108.007 37.3106 108.35 37.4823C108.575 37.5997 108.665 37.8256 108.629 38.1689C108.593 38.5031 108.449 38.6838 108.196 38.7109C107.971 38.738 107.754 38.747 107.529 38.747C107.304 38.747 107.042 38.738 106.727 38.7109C106.186 38.6477 105.013 38.6025 103.21 38.5844C101.407 38.5664 99.27 38.5844 96.7996 38.6567C96.6192 38.6657 96.4479 38.729 96.2946 38.8374C96.1414 38.9458 96.0692 39 96.0692 39.0181C96.0422 39.0181 95.8438 38.9819 95.4742 38.9006C95.1045 38.8284 94.6717 38.6025 94.1668 38.2231C93.8512 37.9701 93.761 37.7352 93.8873 37.5184C94.0225 37.3016 94.2569 37.2293 94.5996 37.2926C95.0594 37.3558 95.4381 37.401 95.7266 37.4281C96.0151 37.4552 96.4299 37.4823 96.9799 37.5094C97.1061 37.5184 97.5119 37.5274 98.1791 37.5365C98.8463 37.5365 99.6036 37.5365 100.451 37.5365V33.8867L98.7651 33.9229C98.3143 33.9229 97.8996 33.8416 97.5299 33.688C97.1512 33.5344 97.0069 33.1008 97.0791 32.369C97.1602 31.6463 97.1782 30.9236 97.1422 30.2279C97.1061 29.5233 97.0791 29.1438 97.0791 29.0896C97.0791 28.7102 97.052 28.4392 96.9979 28.2856C96.9438 28.132 96.8086 28.0327 96.6012 27.9785C96.2405 27.9243 96.0783 27.7707 96.0963 27.4997C96.1143 27.2377 96.2946 27.1022 96.6192 27.1022C96.7545 27.1202 97.6291 27.1564 99.252 27.2196C100.875 27.2828 102.074 27.2828 102.841 27.2015C103.048 27.1835 103.228 27.1202 103.372 26.9937C103.517 26.8673 103.598 26.795 103.607 26.786C103.634 26.786 103.85 26.8131 104.265 26.8582C104.68 26.9034 105.059 27.0208 105.41 27.2015C105.618 27.319 105.708 27.5358 105.681 27.8429C105.645 28.1591 105.5 28.3217 105.257 28.3489C105.05 28.3669 104.824 28.376 104.608 28.385C104.382 28.385 104.121 28.385 103.814 28.376C103.282 28.3489 102.372 28.3398 101.082 28.3489C99.784 28.3489 99.0176 28.3489 98.7651 28.3489C98.7291 28.5837 98.684 29.1258 98.6569 29.9479C98.6209 30.779 98.6569 31.5469 98.7651 32.2606C98.7651 32.4593 98.8012 32.5858 98.8643 32.6491C98.9274 32.7033 99.0356 32.7394 99.1799 32.7394C99.234 32.7394 99.7028 32.7575 100.577 32.7846C101.452 32.8207 102.272 32.7846 103.048 32.6942C103.273 32.6671 103.454 32.5949 103.598 32.4864C103.742 32.378 103.814 32.3148 103.814 32.2967C103.841 32.2967 104.058 32.3238 104.481 32.369C104.896 32.4142 105.275 32.5226 105.618 32.6942C105.843 32.8297 105.933 33.0466 105.897 33.3537C105.861 33.6609 105.717 33.8235 105.482 33.8506C105.275 33.8687 105.05 33.8777 104.824 33.8777C104.599 33.8777 104.328 33.8777 104.013 33.8777C103.805 33.8596 103.517 33.8596 103.165 33.8596H101.993V37.5365H101.975Z" fill="black"/>
<path d="M118.583 35.8652C118.285 35.82 118.132 35.7929 118.114 35.7748C117.925 35.7748 117.808 35.7477 117.744 35.7026C117.69 35.6574 117.654 35.5309 117.654 35.3141C117.546 34.5281 117.519 33.4712 117.555 32.1251C117.591 30.779 117.627 29.9569 117.654 29.6317C117.853 29.6046 118.177 29.5865 118.619 29.5594C119.061 29.5413 119.737 29.5594 120.648 29.6317C120.684 29.9388 120.729 30.788 120.774 32.1703C120.819 33.5615 120.774 34.745 120.648 35.7297C119.566 35.8652 118.872 35.9013 118.574 35.8561L118.583 35.8652ZM117.636 28.5115C116.302 28.4573 115.59 28.4121 115.499 28.4031C115.184 28.4031 115.013 28.5295 114.995 28.7825C114.976 29.0354 115.139 29.189 115.481 29.2432C115.707 29.2794 115.851 29.3787 115.905 29.5413C115.968 29.704 115.995 29.975 115.995 30.3725C116.013 30.4628 116.031 31.1675 116.076 32.4864C116.113 33.8054 116.085 34.7901 115.995 35.4587C115.932 36.1452 116.067 36.5789 116.401 36.7505C116.735 36.9222 117.14 37.0125 117.618 37.0125C117.681 37.0125 118.168 36.9944 119.07 36.9673C119.972 36.9312 121.053 36.9402 122.307 36.9944C122.226 35.4767 122.217 33.7241 122.289 31.7457C122.352 29.7672 122.397 28.6289 122.406 28.3398C120.558 28.5295 118.962 28.5928 117.627 28.5295L117.636 28.5115ZM126.761 25.8103C126.653 25.7832 126.572 25.7651 126.535 25.747C126.049 25.6025 125.598 25.5122 125.192 25.4851C124.777 25.4489 124.57 25.4399 124.561 25.4399C124.2 25.4038 123.993 25.5031 123.93 25.747C123.867 25.991 123.993 26.1626 124.326 26.253C124.804 26.3885 125.075 26.5782 125.147 26.8131C125.219 27.057 125.255 27.3099 125.255 27.581V41.0417C125.255 41.2495 125.282 41.4211 125.336 41.5476C125.39 41.6741 125.453 41.7644 125.535 41.8367C125.625 41.918 125.769 41.9451 125.958 41.927C126.148 41.909 126.283 41.8638 126.364 41.8006C126.454 41.7373 126.535 41.5747 126.608 41.3127C126.68 41.0507 126.716 40.7616 126.716 40.4274V27.6261C126.716 27.319 126.752 26.9576 126.824 26.533C126.896 26.1084 126.932 25.8826 126.932 25.8555C126.932 25.8555 126.878 25.8374 126.761 25.8193V25.8103Z" fill="black"/>
<path d="M137.896 31.2126C137.031 31.8721 136.309 32.3419 135.714 32.622C135.507 32.7123 135.29 32.7665 135.092 32.7846C134.885 32.7936 134.749 32.7304 134.686 32.5858C134.65 32.4503 134.668 32.3419 134.767 32.2425C134.858 32.1432 134.975 32.0528 135.119 31.9534C135.831 31.5017 136.589 30.8513 137.4 30.0021C138.203 29.1438 138.771 28.2495 139.086 27.3099C139.176 27.1202 139.221 26.9486 139.212 26.786C139.212 26.6233 138.942 26.4698 138.428 26.3433C138.149 26.253 138.04 26.0903 138.103 25.8555C138.167 25.6206 138.356 25.5212 138.69 25.5483C138.924 25.5483 139.23 25.5664 139.609 25.6115C139.988 25.6477 140.349 25.7109 140.691 25.7922C140.944 25.8555 141.106 25.9819 141.196 26.1716C141.286 26.3523 141.277 26.5782 141.187 26.8492C141.079 27.1293 140.971 27.3822 140.871 27.6261C140.763 27.861 140.637 28.1049 140.493 28.3398C141.115 28.6741 141.683 28.9451 142.188 29.1619C142.693 29.3787 143.126 29.5956 143.468 29.8033C144.036 30.1286 144.451 30.4086 144.721 30.6345C144.983 30.8603 145.118 31.1313 145.118 31.4475V32.2606C145.118 32.5768 144.983 32.7484 144.721 32.7665C144.46 32.7846 144.253 32.7033 144.108 32.5226C143.63 31.836 143.044 31.2036 142.341 30.6435C141.638 30.0834 140.871 29.5142 140.024 28.9451C139.465 29.8033 138.762 30.5622 137.905 31.2307L137.896 31.2126ZM137.409 34.9708C136.796 34.9708 136.165 34.9979 135.516 35.016C135.326 35.034 135.164 35.0883 135.011 35.1876C134.858 35.287 134.785 35.3412 134.785 35.3593C134.758 35.3593 134.56 35.3141 134.19 35.2418C133.821 35.1605 133.388 34.9347 132.883 34.5643C132.567 34.3384 132.477 34.1126 132.612 33.8777C132.757 33.6428 132.991 33.5615 133.334 33.6247C133.794 33.706 134.172 33.7603 134.452 33.7874C134.74 33.8145 135.146 33.8416 135.696 33.8687C135.985 33.8777 137.472 33.8958 140.15 33.8958C142.837 33.8958 144.226 33.8958 144.334 33.8958C144.559 33.8777 144.758 33.8054 144.92 33.6609C145.082 33.5163 145.172 33.435 145.19 33.417C145.217 33.417 145.452 33.4441 145.894 33.4983C146.335 33.5525 146.732 33.6699 147.075 33.8506C147.3 33.968 147.39 34.1939 147.354 34.5372C147.318 34.8714 147.165 35.0612 146.921 35.0883C146.696 35.1154 146.471 35.1244 146.254 35.1244C146.038 35.1244 145.767 35.1154 145.452 35.0883C145.118 35.0521 144.541 35.016 143.721 34.9889C142.891 34.9618 141.899 34.9527 140.718 34.9527V37.4371C141.178 37.4281 141.683 37.401 142.215 37.3829C142.747 37.3558 143.342 37.3197 143.991 37.2835C143.928 38.1327 143.901 38.8284 143.91 39.3704C143.919 39.9124 143.937 40.6171 143.946 41.4753C142.63 41.4121 141.376 41.385 140.204 41.4121C139.023 41.4392 138.293 41.4573 137.986 41.4753C137.959 41.6379 137.941 41.8457 137.932 42.1077C137.932 42.3697 137.95 42.6407 138.004 42.9027C138.004 43.1015 138.04 43.2279 138.121 43.2821C138.203 43.3363 138.311 43.3634 138.455 43.3634C138.491 43.3725 138.87 43.4086 139.582 43.4538C140.294 43.499 141.052 43.4809 141.845 43.3815C142.071 43.3544 142.251 43.2821 142.377 43.1557C142.512 43.0292 142.585 42.9569 142.594 42.9479C142.621 42.9479 142.846 42.975 143.261 43.0292C143.676 43.0834 144.054 43.1918 144.379 43.3634C144.613 43.4538 144.721 43.6616 144.685 43.9687C144.649 44.2759 144.505 44.4475 144.235 44.4746C144.027 44.4927 143.82 44.5017 143.612 44.5017C143.405 44.5017 143.153 44.5017 142.846 44.4927C142.242 44.4566 141.322 44.4475 140.114 44.4656C138.897 44.4837 138.248 44.5017 138.149 44.5198C137.689 44.5198 137.247 44.4656 136.841 44.3482C136.435 44.2307 136.264 43.8513 136.345 43.2099C136.408 42.984 136.435 42.7582 136.408 42.5233C136.381 42.2884 136.372 42.171 136.372 42.1529C136.372 41.7825 136.345 41.5386 136.291 41.4121C136.237 41.2856 136.102 41.2043 135.876 41.1591C135.57 41.114 135.426 40.9604 135.444 40.7074C135.462 40.4545 135.606 40.328 135.903 40.328C135.985 40.328 136.697 40.3551 138.04 40.4003C139.393 40.4454 140.799 40.4093 142.26 40.2919C142.323 39.9847 142.359 39.6866 142.359 39.3885C142.359 39.0903 142.332 38.8013 142.278 38.5031C141.313 38.476 140.52 38.458 139.88 38.4489C139.249 38.4309 138.662 38.4851 138.14 38.5844C138.049 38.5935 137.914 38.6386 137.752 38.7019C137.59 38.7651 137.499 38.8013 137.481 38.8013C137.021 38.6928 136.562 38.476 136.111 38.1508C135.795 37.8888 135.696 37.6539 135.822 37.4642C135.949 37.2745 136.165 37.2022 136.49 37.2564C136.823 37.2926 137.085 37.3287 137.274 37.3468C137.463 37.3648 137.788 37.3919 138.239 37.419C138.401 37.4371 138.554 37.4371 138.717 37.4371H139.176V34.9979C138.617 34.9979 138.04 34.9979 137.418 35.0069L137.409 34.9708Z" fill="black"/>
<path d="M159.49 31.1765C159.265 32.098 159.012 32.8388 158.715 33.4079C158.543 33.7693 158.309 33.8958 158.002 33.8054C157.696 33.7151 157.579 33.5434 157.642 33.2905C157.822 32.5497 157.975 31.7999 158.093 31.0591C158.21 30.3092 158.3 29.6859 158.354 29.1981C158.372 29.0083 158.354 28.8728 158.318 28.7735C158.282 28.6741 158.192 28.6199 158.066 28.6199C158.039 28.6199 157.723 28.6018 157.128 28.5747C156.524 28.5386 155.721 28.5747 154.721 28.6831C154.612 28.7012 154.495 28.7463 154.36 28.8096C154.216 28.8819 154.143 28.927 154.134 28.9361C154.116 28.9361 153.963 28.8819 153.666 28.7825C153.368 28.6831 153.025 28.4934 152.647 28.1953C152.286 27.9152 152.187 27.6803 152.349 27.4725C152.512 27.2648 152.764 27.2015 153.098 27.2828C153.548 27.337 153.819 27.3732 153.909 27.3822C153.999 27.4003 154.36 27.4274 154.982 27.4816C155.271 27.4997 155.766 27.4997 156.452 27.4816C157.146 27.4635 157.732 27.4545 158.21 27.4364C158.3 27.4364 158.417 27.4003 158.552 27.328C158.688 27.2557 158.769 27.2106 158.778 27.2015C158.805 27.2015 158.931 27.2377 159.157 27.2919C159.382 27.3551 159.553 27.4545 159.689 27.599C159.86 27.7797 159.968 27.9694 160.013 28.1591C160.058 28.3489 160.058 28.6199 160.004 28.9632C159.887 29.5052 159.716 30.237 159.49 31.1584V31.1765ZM164.431 43.4176C164.395 43.7338 164.251 43.9055 163.989 43.9326C163.782 43.9597 163.575 43.9687 163.367 43.9687C163.16 43.9687 162.916 43.9687 162.628 43.9507L158.264 43.9687C157.831 43.9687 157.416 43.8965 157.011 43.7519C156.614 43.6074 156.461 43.1737 156.56 42.46C156.65 41.8999 156.677 41.4211 156.641 40.9965C156.605 40.581 156.578 40.3641 156.56 40.3551C156.56 40.0479 156.524 39.8131 156.452 39.6504C156.38 39.4878 156.091 39.3433 155.595 39.2258C155.343 39.1626 155.243 39.009 155.289 38.7561C155.334 38.5122 155.532 38.4038 155.893 38.4309C155.92 38.4309 156.163 38.4489 156.614 38.4851C157.074 38.5212 157.489 38.5754 157.876 38.6567C157.93 38.6657 158.021 38.6838 158.138 38.6928C158.255 38.7019 158.318 38.7109 158.336 38.7109C158.327 38.7199 158.282 38.8826 158.228 39.1897C158.174 39.4969 158.138 39.7679 158.138 40.0028C158.138 40.0389 158.138 40.328 158.12 40.852C158.111 41.376 158.138 41.8548 158.219 42.2884C158.219 42.4962 158.255 42.6317 158.336 42.6769C158.417 42.722 158.525 42.7491 158.652 42.7491C158.688 42.7491 158.994 42.7672 159.562 42.8033C160.13 42.8395 160.816 42.8304 161.618 42.7762C161.825 42.7582 161.997 42.6949 162.123 42.5775C162.249 42.46 162.312 42.3968 162.312 42.3787C162.348 42.3787 162.583 42.3968 163.016 42.451C163.448 42.4962 163.827 42.6046 164.152 42.7762C164.377 42.8937 164.467 43.1105 164.44 43.4267L164.431 43.4176ZM163.097 38.2321C163.097 38.5664 163.061 38.8284 162.989 39.0271C162.916 39.2258 162.835 39.3614 162.736 39.4246C162.655 39.4878 162.529 39.533 162.33 39.5511C162.141 39.5691 161.997 39.542 161.907 39.4607C161.825 39.3975 161.762 39.3162 161.708 39.2078C161.654 39.1084 161.627 38.9548 161.627 38.738V27.5629C161.627 27.3009 161.591 27.0479 161.519 26.795C161.447 26.5511 161.176 26.3614 160.698 26.2349C160.365 26.1445 160.239 25.9729 160.302 25.729C160.365 25.4851 160.581 25.3857 160.933 25.4218C160.942 25.4218 161.158 25.4399 161.564 25.467C161.97 25.5031 162.42 25.5844 162.907 25.729C162.952 25.747 163.079 25.7741 163.304 25.8284C163.304 25.8555 163.268 26.0813 163.196 26.5059C163.124 26.9305 163.088 27.2919 163.088 27.599V31.6101H163.187C163.349 31.5921 163.52 31.5198 163.701 31.3933C163.881 31.2668 163.98 31.1946 163.98 31.1765C164.007 31.1765 164.215 31.1946 164.602 31.2397C164.99 31.2759 165.36 31.3933 165.702 31.574C165.928 31.6915 166.018 31.9083 165.982 32.2154C165.946 32.5316 165.793 32.6942 165.549 32.7033C165.324 32.7213 165.107 32.7213 164.9 32.7213H163.097V38.2231V38.2321ZM158.462 35.1063C159.22 35.0069 159.869 34.8985 160.428 34.7811C160.707 34.7179 160.843 34.8263 160.852 35.1063C160.852 35.3954 160.743 35.5761 160.509 35.6664C159.517 35.9555 158.534 36.1723 157.579 36.3078C156.614 36.4434 155.442 36.5608 154.053 36.6602C153.936 36.6782 153.801 36.7234 153.657 36.7957C153.512 36.877 153.431 36.9222 153.422 36.9312C153.413 36.9312 153.242 36.886 152.926 36.7957C152.611 36.7053 152.241 36.4885 151.817 36.1633C151.556 35.9555 151.475 35.7477 151.592 35.549C151.709 35.3502 151.916 35.278 152.214 35.3322C152.584 35.3864 152.881 35.4225 153.107 35.4406C153.332 35.4586 153.666 35.4767 154.098 35.4858H154.387C154.513 35.4858 154.657 35.4857 154.811 35.4677V33.0466C154.811 32.7846 154.784 32.5226 154.721 32.2696C154.666 32.0167 154.459 31.8541 154.098 31.7908C153.819 31.7276 153.702 31.565 153.756 31.312C153.801 31.0591 153.999 30.9416 154.342 30.9597C154.351 30.9597 154.549 30.9687 154.919 30.9868C155.289 31.0049 155.703 31.0681 156.145 31.1765C156.181 31.1946 156.253 31.2036 156.343 31.2307C156.434 31.2488 156.488 31.2578 156.506 31.2578C156.488 31.2849 156.461 31.5198 156.407 31.9715C156.352 32.4232 156.325 32.7755 156.325 33.0466V35.3502C157.011 35.287 157.732 35.1967 158.489 35.0973L158.462 35.1063Z" fill="black"/>
<path d="M32.522 44.0591C32.549 42.9388 31.5572 42.4149 31.4039 43.0111C31.2507 43.6074 30.8089 43.6345 30.7007 42.9298C30.5925 42.2252 30.2589 42.8485 30.2589 42.8485C29.8441 43.5261 29.5015 42.5052 29.5556 41.7735C29.6097 41.0507 29.3212 40.1293 29.7359 40.3099C30.1507 40.4997 29.8892 39.2801 29.8892 39.2801C29.4203 38.4399 29.9703 38.0153 30.0695 38.0424C30.1777 38.0695 30.5654 38.1237 30.5654 37.8346C30.5654 37.7262 30.5474 37.6359 30.5113 37.5636C30.2138 37.2384 29.8621 37.3106 29.4384 37.2564C27.9326 36.5156 26.3909 35.6574 24.4974 36.0188C24.3892 36.1001 24.1999 36.091 24.1818 36.2717C24.8761 36.624 25.6695 36.6963 26.2195 37.3287V37.4552C25.5974 37.4913 24.7679 37.3648 24.1278 37.5455C23.8392 37.4552 23.722 37.7262 23.4515 37.6539C22.9015 37.8617 22.2974 38.1147 21.8286 38.6115C21.7745 38.6477 21.7384 38.7199 21.6663 38.738C21.7565 38.5573 21.8827 38.3676 21.8286 38.1508C21.4048 37.7262 20.8728 37.4552 20.4851 36.9854C20.0073 36.7867 19.5114 37.3558 19.1237 36.9854C19.0696 36.7053 19.1237 36.3621 18.8352 36.2265C17.7712 36.2446 17.0499 37.1119 16.2114 37.7172C16.0671 37.7533 15.9499 37.681 15.8958 37.5636C15.8958 37.3829 15.8057 37.2293 15.6884 37.0757C15.0483 37.2022 14.6786 37.9159 14.345 38.4218C14.1467 38.8464 13.9303 39.262 13.795 39.7047H13.7409L13.9303 37.663C13.5335 37.5094 13.1909 37.1028 12.695 37.2474V37.2745C12.8303 37.2564 12.9204 37.2474 12.9294 37.2564L11.027 37.2926L10.6122 37.8527L10.8196 45.5678L13.2901 46.1098C13.3081 45.8478 13.6057 45.7213 13.786 45.5949C14.0204 45.0799 13.768 43.9778 13.768 43.4357C13.6417 41.8367 13.6778 40.2015 14.7237 39.0723C15.1294 39.0542 15.0753 39.5872 15.3729 39.7498C16.013 39.2891 16.2565 38.4941 17.0048 38.1147C17.6089 37.9069 17.6811 38.6657 17.9335 38.9639C18.1409 39.1626 18.3393 38.9097 18.5737 38.9458C18.754 39 18.7811 39.1807 18.7991 39.3162C18.7179 40.8068 18.5466 42.451 19.1147 43.7519C19.4843 44.5469 20.0163 45.2516 20.422 46.0195C20.3138 46.2453 19.9802 46.1459 19.7819 46.1279C19.4843 46.0917 19.1778 45.8478 18.8622 46.0195C18.9704 46.9771 19.9983 47.5462 20.422 48.3593C20.1065 48.7839 19.4302 48.4315 19.0425 48.7658C19.0606 49.3892 19.854 49.7053 20.0343 50.2926C19.7368 50.5997 19.2229 50.4371 18.8622 50.3648C18.5376 50.3106 18.0958 50.0577 17.8343 50.3287C17.8884 50.9701 18.4384 51.3947 18.7179 51.9277C18.8081 51.9639 18.8622 51.8916 18.9163 51.8735C19.0065 51.747 22.9737 51.9097 23.4155 51.2321C23.3974 50.7533 22.8204 50.663 22.5319 50.401C22.3696 50.2293 22.054 50.139 22.063 49.8499C22.1532 49.7957 22.2073 49.6873 22.2974 49.6511C22.6491 49.4072 23.3253 49.5608 23.4155 49.0097C23.0728 48.7116 22.6671 48.549 22.2974 48.3141C22.1261 48.1244 21.6753 47.9618 21.7835 47.6456C22.063 47.5733 22.2974 47.3926 22.622 47.4107C22.9105 47.3384 23.2982 47.3384 23.4155 47.0764C23.0999 46.6338 22.5499 46.5073 22.1442 46.173C21.9097 45.911 21.486 45.7665 21.4679 45.378C22.036 45.0528 22.5679 45.4864 23.163 45.2516C23.2351 45.1612 23.4786 45.1974 23.4155 45.0076C22.604 44.3843 21.6573 43.7519 21.3056 42.7762C21.3056 42.5594 21.1614 42.3336 21.3056 42.1348C21.8917 42.5956 22.4507 43.1105 23.2171 43.1105C23.3073 43.0744 23.4786 43.0563 23.4064 42.8937C23.136 42.5594 22.8384 42.2252 22.6491 41.8277C22.4778 41.2224 22.5138 40.4545 23.0007 40.0118C23.3523 39.6776 23.7851 39.533 24.2089 39.3704C24.6507 39.262 25.0023 39.4607 25.3991 39.2981C25.3269 39.0271 25.0114 38.8916 24.7769 38.7832C23.6409 38.4038 22.4237 38.8374 21.5761 39.6143L21.5401 39.5782C21.7294 38.6928 22.7032 38.196 23.4515 37.8888C23.9655 37.8888 24.4614 37.6449 25.0474 37.7262C25.2638 37.8527 25.5253 37.7443 25.7236 37.8888C25.922 37.8165 25.9941 38.0334 26.1654 37.9792C27.031 38.1689 27.6171 39.0271 28.5187 39.0994C29.2941 39.7769 29.24 40.861 29.222 41.8819L29.1499 41.9541C29.1138 42.6588 28.7802 43.3363 28.4466 43.9597C28.2663 44.303 27.9777 44.6192 28.0048 44.9896C28.7441 44.9896 29.24 44.3843 29.8802 44.1494C29.9703 44.2217 30.0064 44.294 29.9794 44.4024C29.6818 45.3961 28.9515 46.2001 28.2843 47.0313V47.2481C28.6359 47.3023 29.0687 47.3384 29.3843 47.1939C29.5917 47.2662 29.8441 47.0222 29.9794 47.2842C29.79 48.016 29.0597 48.5129 28.5999 49.1181C28.5638 49.8951 29.6638 49.1904 29.9794 49.7234C29.8802 50.2564 29.3302 50.6088 29.0597 51.0695C29.3572 51.0695 29.6908 50.8978 29.9523 51.1237C29.9794 51.3044 29.9162 51.5302 29.754 51.6386C29.7449 51.8012 29.9162 51.8013 29.9884 51.9187C30.9621 51.991 34.3793 52.0632 34.5777 51.8645C34.8121 51.3857 34.208 51.205 34.0097 50.9249C33.8834 50.6901 34.1179 50.4823 34.0277 50.2655C33.8113 50.3016 33.5138 50.4461 33.3064 50.2655C33.108 49.6963 32.2605 49.7144 32.2605 49.0459C32.4949 48.5851 32.8105 48.1786 32.9457 47.6727C32.9638 47.5191 33.108 47.3023 32.9097 47.1939C32.7203 47.221 32.3957 47.1577 32.2244 47.3565C32.0621 47.3746 31.7826 47.483 31.6744 47.2481C31.8998 46.3808 32.4138 45.631 32.6662 44.7637C32.6662 44.7276 32.6662 44.6915 32.6662 44.6553C32.5671 44.6915 32.522 44.5921 32.54 44.041L32.522 44.0591ZM19.3311 41.8999C19.2048 41.4934 19.1327 40.9604 19.2589 40.5358C19.313 40.1654 19.8811 39.9847 19.9892 40.4274C20.0524 41.3489 20.2327 42.2613 20.3409 43.1105C19.7278 43.0202 19.5655 42.3426 19.3311 41.8999ZM23.6319 38.991C23.695 39.0271 23.7761 39.0813 23.8753 39.0632C23.7671 39.2891 23.4515 39.3794 23.2351 39.542L22.9105 39.795C22.9556 39.6685 22.8564 39.5059 22.7212 39.4427C22.631 39.4427 22.5138 39.4788 22.4417 39.4246C22.8023 39.1897 23.19 39.0181 23.6319 39V38.991ZM31.6023 44.1404C31.5482 44.1584 31.5031 44.1223 31.458 44.1765C31.2687 43.8423 31.5843 43.5532 31.5302 43.2189C31.7466 42.984 32.008 43.3273 32.0441 43.5441C32.0621 43.8061 31.7646 43.9868 31.6023 44.1404Z" fill="#939598"/>
<path d="M10.9548 38.5483C9.68351 39.6143 8.15975 40.1564 6.37451 40.1564C3.5524 40.1564 2.14585 40.6081 2.14585 41.5115C2.14585 41.9993 2.27208 42.3426 2.51552 42.5323C2.82207 42.7762 3.35404 42.9027 4.12944 42.9027H9.1245C12.4696 42.9027 14.1376 44.05 14.1376 46.3537C14.1376 48.1244 13.3351 49.4343 11.7122 50.2835L10.8647 49.1272C11.631 48.6213 12.0187 48.025 12.0187 47.3475C12.0187 45.8207 10.5671 45.1432 7.66385 45.2967C4.76059 45.4593 3.02043 45.4322 2.46142 45.2245C0.820444 44.9083 0.00897217 43.9778 0.00897217 42.4329C0.00897217 40.8881 1.0729 39.8673 3.20076 39.4156V39.3614C2.29912 39 1.58683 38.3315 1.06388 37.3287C0.604051 36.4434 0.387659 35.4677 0.387659 34.3926C0.387659 32.7936 1.04585 31.4204 2.36224 30.2912C3.61551 29.2161 5.06714 28.6831 6.6991 28.6831C8.43024 28.6831 9.89089 29.2523 11.081 30.3996C12.2802 31.5469 12.8753 32.8749 12.8753 34.3746C12.8753 36.082 12.2442 37.4732 10.9729 38.5483H10.9548ZM8.90811 31.1675C8.27696 30.3183 7.51057 29.8937 6.58189 29.8937C5.65321 29.8937 4.91387 30.3183 4.29174 31.1675C3.66059 32.0167 3.34502 33.1279 3.34502 34.501C3.34502 35.8742 3.66059 36.9583 4.29174 37.8075C4.92288 38.6567 5.68026 39.0813 6.58189 39.0813C7.48353 39.0813 8.27696 38.6567 8.90811 37.8075C9.53925 36.9583 9.84581 35.8561 9.84581 34.501C9.84581 33.1459 9.53024 32.0167 8.90811 31.1675Z" fill="#231F20"/>
<path d="M43.8375 43.3544C43.0801 43.3544 42.6654 42.7853 42.6654 42.1167V35.0792C42.6654 33.2453 42.4039 31.1765 39.3203 30.3454C36.4712 29.5775 33.5048 30.517 33.5048 30.517C33.5048 30.517 33.6761 29.704 33.64 29.3065V25.5935C33.64 24.7804 33.5499 23.9944 33.3064 23.2627C32.7745 21.6095 31.1695 19.9924 28.5909 19.9924C24.8851 19.9924 23.7852 23.0007 23.7852 23.0007C23.7852 23.0007 22.5589 19.9924 19.2229 19.9924C15.5081 19.9924 14.4442 22.8923 14.4442 22.8923V20.426H11.1172V34.745H13.3442C13.8311 34.745 13.9844 34.6546 14.2278 34.4649C14.4713 33.5976 14.6155 32.5497 14.3631 31.6372C14.9131 28.3037 13.3532 23.4885 17.0409 21.9347C18.159 21.4649 19.3581 21.8263 20.1606 22.6484C20.4491 22.9104 20.6204 23.2175 20.7557 23.5337C21.2245 24.8978 20.8458 26.3885 20.954 27.8429C20.5483 28.7283 21.4139 29.7401 20.6385 30.517C20.6204 31.0681 21.3778 31.6011 20.7466 32.098C20.1967 32.6129 19.6016 32.9653 18.8893 33.0737C18.709 33.3266 18.5376 33.6428 18.6909 33.9409C18.8893 34.1035 19.1688 34.1126 19.313 34.3475C19.3671 34.492 19.1868 34.6095 19.3221 34.6998C20.5483 34.2933 21.8376 34.0855 23.154 33.8958C23.4696 33.6157 24.1999 33.3989 24.0196 32.902C23.8032 32.64 23.2802 32.4774 23.3794 32.089C23.5778 31.6463 24.3171 31.312 23.9835 30.77C23.7671 30.5441 23.6319 30.237 23.7311 29.9027C24.5786 29.2161 23.5417 28.2856 24.0106 27.4726C24.2089 26.9395 23.9294 26.4246 24.0106 25.8555C23.9745 24.4913 24.3983 23.2536 25.5343 22.4315C26.5532 21.6998 28.131 21.5462 29.2671 22.1425C30.9441 23.0639 30.4573 25.0153 30.5384 26.6685C30.3851 27.6081 30.7548 28.5837 30.3491 29.46C30.4933 30.0834 30.7728 30.8603 30.1327 31.3391C30.0064 32.0167 30.7368 32.4593 30.4663 33.0556C30.2409 33.2182 29.8622 33.2363 29.745 33.5344C29.745 33.8054 29.8351 34.0313 30.0245 34.212C30.5023 33.7874 31.1515 34.2481 31.6835 34.3746C32.1253 34.5552 32.6031 34.8353 33.081 34.7269C33.3966 34.483 33.7482 34.23 34.19 34.3746C34.4695 34.483 34.7581 34.5733 35.0556 34.6546C35.254 34.2842 35.2179 33.8054 35.0646 33.417C34.5687 33.5434 34.0187 33.2724 33.7392 32.8478C33.6761 32.5316 33.4507 32.107 33.6761 31.8179C34.4695 31.2488 35.5335 31.7637 36.4531 31.4656C37.6974 31.5198 39.131 31.7005 39.5728 33.0466C39.8252 33.8416 39.6449 34.7992 39.6088 35.6484C38.8695 36.1272 37.9228 35.6845 37.1294 35.9104C36.8318 36.1272 36.5253 36.4614 36.1015 36.2808C35.7499 36.1904 35.4433 35.9465 35.0195 36.0368C34.5777 36.2536 34.6949 37.0848 34.0638 36.886C33.613 36.7054 33.2433 36.335 32.7204 36.353C32.3327 36.7054 32.7023 37.3829 32.4048 37.7894H32.1163C31.6023 37.4732 31.1425 37.0125 30.5204 36.9222C30.4032 37.0486 30.3671 37.2384 30.4392 37.401C30.4933 37.4371 30.4573 37.5003 30.4573 37.5455C30.4933 37.6178 30.5114 37.7081 30.5114 37.8165C30.5114 38.1056 30.1236 38.0514 30.0155 38.0243C29.9163 37.9972 29.3663 38.4218 29.8351 39.262C29.8351 39.262 30.0966 40.4725 29.6818 40.2919C29.2671 40.1112 29.5466 41.0236 29.5015 41.7554C29.4474 42.4871 29.79 43.508 30.2048 42.8304C30.2048 42.8304 30.5474 42.2071 30.6466 42.9117C30.7548 43.6164 31.1966 43.5893 31.3499 42.9931C31.5032 42.3878 32.4949 42.9117 32.4679 44.041C32.4499 44.5921 32.495 44.6915 32.5941 44.6553C32.6392 44.0771 33.3515 43.9868 33.6761 43.5532C34.4515 43.3725 34.1179 44.4566 34.6949 44.6011C35.2089 44.4385 35.5695 43.8151 36.0564 43.5532C36.5703 43.3905 36.5884 44.1946 37.0843 44.1494C37.9498 43.8513 38.2293 42.3607 39.3654 42.6769C39.5457 42.6046 39.69 42.4239 39.8433 42.3516C39.9965 42.9569 39.9425 43.7248 39.8252 44.3933H44.3605V43.3273H43.7744L43.8375 43.3544ZM32.6482 41.1953C32.2966 41.1772 32.0802 40.8339 31.9179 40.5539C31.7105 40.1112 31.7827 39.5601 31.7286 39.0632C31.972 38.8013 32.1704 39.271 32.3687 39.4336C32.5761 39.8944 32.8827 40.319 32.9367 40.852C32.9007 40.9965 32.7925 41.114 32.6572 41.1953H32.6482ZM39.4285 40.59C39.0769 40.8158 38.6621 41.1049 38.4187 41.4934C38.1212 41.918 37.8867 42.7672 37.1925 42.6588C36.922 42.4962 36.7326 42.0354 36.381 42.18C35.9031 42.4149 35.6867 43.1557 35.1097 43.0111C34.6679 42.7401 34.6318 41.8728 33.9556 42.0896C33.8113 42.1619 33.649 42.2342 33.5048 42.1348C33.1892 41.6018 32.8827 40.9333 33.1531 40.2557C33.4146 39.4698 33.1531 38.476 33.3605 37.663C33.4326 37.4823 33.7031 37.5184 33.8294 37.6088C34.2171 37.7894 34.5867 38.3766 35.0285 38.0514C35.3351 37.7533 35.3441 36.8499 36.0564 37.2022C36.3539 37.3648 36.7056 37.5365 37.1023 37.4461C37.7244 36.4163 38.8334 37.4281 39.69 36.9312C39.7441 38.1237 40.0416 39.542 39.4195 40.5719L39.4285 40.59Z" fill="#231F20"/>
<path d="M50.3473 0.307159C50.3293 0.10841 50.3022 0.00903545 50.2211 1.39792e-06C50.1399 -0.0180667 50.0858 0.0451717 49.9776 0.271023L38.2654 24.7894C38.1572 25.0153 38.1482 25.0876 38.2023 25.1508C38.2564 25.196 38.3465 25.1689 38.5179 25.0514C39.5998 24.3106 44.5498 20.7693 47.7326 14.2557C50.7981 7.68798 50.4375 1.6171 50.3383 0.298125L50.3473 0.307159Z" fill="#00AEEF"/>
</g>
<defs>
<clipPath id="clip0_12_502">
<rect width="166" height="52" fill="white"/>
</clipPath>
</defs>
</svg>
