<svg width="185" height="58" viewBox="0 0 185 58" fill="none" xmlns="http://www.w3.org/2000/svg">
<g clip-path="url(#clip0_162_4)">
<path d="M75.7106 48.26C74.9006 48.96 74.0006 49.31 72.9806 49.31C71.9606 49.31 71.0906 48.96 70.2706 48.25C69.4406 47.54 69.0306 46.61 69.0306 45.47C69.0306 44.33 69.4406 43.34 70.2606 42.65C71.0806 41.95 71.9906 41.61 72.9906 41.61C73.9906 41.61 74.8906 41.96 75.7006 42.65C76.5106 43.35 76.9206 44.28 76.9206 45.47C76.9206 46.66 76.5206 47.56 75.7106 48.26ZM74.5506 43.6C74.1606 43.09 73.6406 42.83 72.9806 42.83C72.3206 42.83 71.8106 43.09 71.4106 43.6C71.0106 44.11 70.8106 44.74 70.8106 45.47C70.8106 46.2 71.0106 46.81 71.4106 47.33C71.8106 47.85 72.3406 48.11 72.9806 48.11C73.6206 48.11 74.1606 47.85 74.5506 47.33C74.9406 46.81 75.1306 46.19 75.1306 45.47C75.1306 44.75 74.9406 44.11 74.5506 43.6ZM68.8906 37.42C67.6706 38.83 66.4106 39.88 65.0906 40.56C64.8106 40.71 64.5806 40.76 64.4006 40.71C64.2206 40.67 64.1006 40.59 64.0606 40.47C64.0106 40.31 64.0806 40.16 64.2606 40.01C64.4406 39.87 64.5806 39.75 64.6806 39.68C65.6306 39.02 66.6606 37.97 67.7806 36.53C68.8906 35.09 69.6606 33.63 70.0906 32.17C70.1206 32.04 70.1106 31.91 70.0606 31.8C70.0106 31.68 69.9206 31.62 69.7906 31.62C69.2506 31.62 68.8006 31.62 68.4506 31.61C68.1006 31.61 67.6406 31.63 67.0706 31.69C66.9806 31.71 66.8606 31.75 66.7006 31.84C66.5406 31.93 66.4506 31.98 66.4406 31.99C65.8506 31.84 65.3106 31.58 64.8106 31.2C64.4906 30.95 64.4006 30.7 64.5406 30.45C64.6806 30.2 64.9206 30.11 65.2806 30.18C65.7906 30.24 66.1006 30.28 66.2006 30.29C66.3006 30.31 66.6806 30.34 67.3206 30.4C67.5506 30.41 67.9906 30.42 68.6406 30.42C69.2906 30.42 69.8406 30.38 70.3106 30.31C70.4406 30.28 70.5806 30.23 70.7306 30.17C70.8806 30.1 70.9606 30.07 70.9706 30.07C71.0006 30.09 71.1306 30.15 71.3706 30.27C71.6006 30.39 71.7706 30.5 71.8506 30.62C72.0506 30.86 72.1806 31.09 72.2206 31.32C72.2606 31.55 72.2406 31.82 72.1306 32.11C72.5806 32.17 72.9506 32.2 73.2206 32.2C73.4906 32.2 73.8906 32.21 74.4206 32.24C74.5806 32.26 74.7506 32.26 74.9206 32.24C75.0906 32.24 75.2506 32.22 75.4106 32.21V30.5C75.4106 30.21 75.3706 29.93 75.2906 29.65C75.2106 29.38 74.9106 29.17 74.3806 29.03C74.0106 28.93 73.8706 28.74 73.9406 28.47C74.0106 28.2 74.2506 28.09 74.6406 28.13C74.6506 28.13 74.8906 28.15 75.3406 28.18C75.7906 28.22 76.2906 28.31 76.8306 28.47C76.8806 28.49 77.0206 28.52 77.2706 28.58C77.2706 28.61 77.2306 28.86 77.1506 29.33C77.0706 29.8 77.0306 30.2 77.0306 30.54V39.46C77.0306 39.83 76.9906 40.12 76.9106 40.34C76.8306 40.56 76.7406 40.71 76.6406 40.78C76.5506 40.85 76.4006 40.9 76.1906 40.92C75.9806 40.94 75.8206 40.91 75.7206 40.82C75.6306 40.75 75.5606 40.66 75.5006 40.55C75.4406 40.44 75.4106 40.27 75.4106 40.03V37.64C75.2006 37.64 74.9706 37.64 74.7006 37.66C74.4306 37.68 74.1306 37.7 73.7906 37.73C73.6906 37.75 73.5606 37.8 73.4106 37.89C73.2606 37.99 73.1806 38.04 73.1806 38.05C73.1706 38.05 73.0006 38.01 72.6806 37.94C72.3606 37.87 71.9406 37.65 71.4306 37.28C71.1206 37.07 71.0106 36.85 71.0806 36.61C71.1506 36.37 71.3706 36.28 71.7406 36.34C72.3006 36.4 72.7106 36.43 72.9806 36.44C73.2506 36.44 73.6706 36.47 74.2406 36.49C74.4306 36.5 74.6306 36.51 74.8406 36.49C75.0506 36.49 75.2506 36.47 75.4206 36.46V33.36C75.2306 33.37 75.0206 33.39 74.7806 33.39C74.5506 33.39 74.2906 33.41 74.0106 33.44C73.8906 33.45 73.7606 33.51 73.6106 33.6C73.4606 33.7 73.3806 33.75 73.3706 33.77C73.3606 33.77 73.2006 33.74 72.9106 33.67C72.6206 33.6 72.2206 33.4 71.7206 33.07C71.0806 34.53 70.1406 35.97 68.9306 37.37L68.8906 37.42Z" fill="white"/>
<path d="M89.9015 38.4801C88.5715 40.1201 87.2315 41.2601 85.8715 41.8901C85.5615 42.0301 85.3215 42.1001 85.1615 42.0701C84.9915 42.0501 84.8815 41.9601 84.8215 41.8201C84.7815 41.6601 84.8515 41.5001 85.0315 41.3401C85.2115 41.1801 85.3615 41.0601 85.4815 40.9901C86.5515 40.2901 87.6415 39.1301 88.7615 37.5201C89.8715 35.9101 90.5815 34.4701 90.8915 33.1901C90.9315 33.0301 90.9315 32.8901 90.8715 32.7801C90.8115 32.6701 90.7215 32.6201 90.5815 32.6201C90.0215 32.6201 89.5215 32.6201 89.0615 32.6001C88.6015 32.5801 88.0815 32.6001 87.4815 32.6601C87.3915 32.6801 87.2715 32.7301 87.1115 32.8101C86.9515 32.9001 86.8615 32.9501 86.8515 32.9601C86.8415 32.9601 86.6915 32.9201 86.4115 32.8401C86.1315 32.7601 85.7415 32.5401 85.2215 32.1701C84.8715 31.9201 84.7615 31.6701 84.9115 31.4201C85.0615 31.1701 85.3115 31.0801 85.6615 31.1601C86.1615 31.2201 86.4615 31.2601 86.5715 31.2801C86.6815 31.3001 87.0615 31.3401 87.7015 31.4001C87.9415 31.4201 88.4415 31.4201 89.2115 31.4201C89.9815 31.4201 90.6215 31.3801 91.1315 31.2901C91.2015 31.2801 91.3215 31.2301 91.4915 31.1601C91.6615 31.0901 91.7515 31.0501 91.7715 31.0501C91.8015 31.0501 91.9215 31.0901 92.1415 31.1801C92.3615 31.2701 92.5415 31.4101 92.6915 31.6001C92.8815 31.8601 93.0015 32.1101 93.0415 32.3201C93.0815 32.5401 93.0415 32.8101 92.9315 33.1301C92.2415 35.0501 91.2315 36.8301 89.9115 38.4701L89.9015 38.4801ZM97.7015 29.3601C97.6215 29.8301 97.5815 30.2301 97.5815 30.5701V44.7401C97.5815 45.1101 97.5415 45.4301 97.4615 45.7201C97.3815 46.0001 97.2915 46.1801 97.1815 46.2601C97.0915 46.3301 96.9415 46.3801 96.7315 46.4001C96.5215 46.4201 96.3615 46.3901 96.2615 46.3001C96.1715 46.2301 96.1015 46.1201 96.0415 45.9801C95.9815 45.8401 95.9515 45.6501 95.9515 45.4201V30.5201C95.9515 30.2301 95.9115 29.9501 95.8315 29.6701C95.7515 29.4001 95.4415 29.1901 94.9215 29.0501C94.5515 28.9501 94.4115 28.7601 94.4815 28.4901C94.5515 28.2201 94.7915 28.1101 95.1815 28.1501C95.1915 28.1501 95.4315 28.1701 95.8815 28.2001C96.3315 28.2401 96.8315 28.3301 97.3715 28.4901C97.4215 28.5101 97.5615 28.5401 97.8115 28.6001C97.8115 28.6301 97.7715 28.8801 97.6915 29.3501L97.7015 29.3601Z" fill="white"/>
<path d="M113.101 41.55H115.851C116.661 41.55 117.081 41.55 117.131 41.53C117.381 41.51 117.601 41.43 117.781 41.28C117.971 41.13 118.061 41.04 118.081 41.03C118.111 41.03 118.371 41.06 118.861 41.12C119.351 41.18 119.791 41.3 120.171 41.49C120.421 41.62 120.521 41.87 120.481 42.25C120.441 42.62 120.281 42.82 120.001 42.85C119.751 42.88 119.511 42.89 119.261 42.89C119.011 42.89 118.721 42.88 118.371 42.85C117.771 42.78 116.471 42.73 114.471 42.71C112.471 42.69 110.101 42.71 107.361 42.79C107.161 42.8 106.971 42.87 106.801 42.99C106.631 43.11 106.551 43.17 106.551 43.19C106.521 43.19 106.301 43.15 105.891 43.06C105.481 42.98 105.001 42.73 104.441 42.31C104.091 42.03 103.991 41.77 104.131 41.53C104.281 41.29 104.541 41.21 104.921 41.28C105.431 41.35 105.851 41.4 106.171 41.43C106.491 41.46 106.951 41.49 107.561 41.52C107.701 41.53 108.151 41.54 108.891 41.55C109.631 41.55 110.471 41.55 111.411 41.55V37.51L109.541 37.55C109.041 37.55 108.581 37.46 108.171 37.29C107.751 37.12 107.591 36.64 107.671 35.83C107.761 35.03 107.781 34.23 107.741 33.46C107.701 32.68 107.671 32.26 107.671 32.2C107.671 31.78 107.641 31.48 107.581 31.31C107.521 31.14 107.371 31.03 107.141 30.97C106.741 30.91 106.561 30.74 106.581 30.44C106.601 30.15 106.801 30 107.161 30C107.311 30.02 108.281 30.06 110.081 30.13C111.881 30.2 113.211 30.2 114.061 30.11C114.291 30.09 114.491 30.02 114.651 29.88C114.811 29.74 114.901 29.66 114.911 29.65C114.941 29.65 115.181 29.68 115.641 29.73C116.101 29.78 116.521 29.91 116.911 30.11C117.141 30.24 117.241 30.48 117.211 30.82C117.171 31.17 117.011 31.35 116.741 31.38C116.511 31.4 116.261 31.41 116.021 31.42C115.771 31.42 115.481 31.42 115.141 31.41C114.551 31.38 113.541 31.37 112.111 31.38C110.671 31.38 109.821 31.38 109.541 31.38C109.501 31.64 109.451 32.24 109.421 33.15C109.381 34.07 109.421 34.92 109.541 35.71C109.541 35.93 109.581 36.07 109.651 36.14C109.721 36.2 109.841 36.24 110.001 36.24C110.061 36.24 110.581 36.26 111.551 36.29C112.521 36.33 113.431 36.29 114.291 36.19C114.541 36.16 114.741 36.08 114.901 35.96C115.061 35.84 115.141 35.77 115.141 35.75C115.171 35.75 115.411 35.78 115.881 35.83C116.341 35.88 116.761 36 117.141 36.19C117.391 36.34 117.491 36.58 117.451 36.92C117.411 37.26 117.251 37.44 116.991 37.47C116.761 37.49 116.511 37.5 116.261 37.5C116.011 37.5 115.711 37.5 115.361 37.5C115.131 37.48 114.811 37.48 114.421 37.48H113.121V41.55H113.101Z" fill="white"/>
<path d="M131.521 39.7001C131.191 39.6501 131.021 39.6201 131.001 39.6001C130.791 39.6001 130.661 39.5701 130.591 39.5201C130.531 39.4701 130.491 39.3301 130.491 39.0901C130.371 38.2201 130.341 37.0501 130.381 35.5601C130.421 34.0701 130.461 33.1601 130.491 32.8001C130.711 32.7701 131.071 32.7501 131.561 32.7201C132.051 32.7001 132.801 32.7201 133.811 32.8001C133.851 33.1401 133.901 34.0801 133.951 35.6101C134.001 37.1501 133.951 38.4601 133.811 39.5501C132.611 39.7001 131.841 39.7401 131.511 39.6901L131.521 39.7001ZM130.471 31.5601C128.991 31.5001 128.201 31.4501 128.101 31.4401C127.751 31.4401 127.561 31.5801 127.541 31.8601C127.521 32.1401 127.701 32.3101 128.081 32.3701C128.331 32.4101 128.491 32.5201 128.551 32.7001C128.621 32.8801 128.651 33.1801 128.651 33.6201C128.671 33.7201 128.691 34.5001 128.741 35.9601C128.781 37.4201 128.751 38.5101 128.651 39.2501C128.581 40.0101 128.731 40.4901 129.101 40.6801C129.471 40.8701 129.921 40.9701 130.451 40.9701C130.521 40.9701 131.061 40.9501 132.061 40.9201C133.061 40.8801 134.261 40.8901 135.651 40.9501C135.561 39.2701 135.551 37.3301 135.631 35.1401C135.701 32.9501 135.751 31.6901 135.761 31.3701C133.711 31.5801 131.941 31.6501 130.461 31.5801L130.471 31.5601ZM140.591 28.5701C140.471 28.5401 140.381 28.5201 140.341 28.5001C139.801 28.3401 139.301 28.2401 138.851 28.2101C138.391 28.1701 138.161 28.1601 138.151 28.1601C137.751 28.1201 137.521 28.2301 137.451 28.5001C137.381 28.7701 137.521 28.9601 137.891 29.0601C138.421 29.2101 138.721 29.4201 138.801 29.6801C138.881 29.9501 138.921 30.2301 138.921 30.5301V45.4301C138.921 45.6601 138.951 45.8501 139.011 45.9901C139.071 46.1301 139.141 46.2301 139.231 46.3101C139.331 46.4001 139.491 46.4301 139.701 46.4101C139.911 46.3901 140.061 46.3401 140.151 46.2701C140.251 46.2001 140.341 46.0201 140.421 45.7301C140.501 45.4401 140.541 45.1201 140.541 44.7501V30.5801C140.541 30.2401 140.581 29.8401 140.661 29.3701C140.741 28.9001 140.781 28.6501 140.781 28.6201C140.781 28.6201 140.721 28.6001 140.591 28.5801V28.5701Z" fill="white"/>
<path d="M152.941 34.5501C151.981 35.2801 151.181 35.8001 150.521 36.1101C150.291 36.2101 150.051 36.2701 149.831 36.2901C149.601 36.3001 149.451 36.2301 149.381 36.0701C149.341 35.9201 149.361 35.8001 149.471 35.6901C149.571 35.5801 149.701 35.4801 149.861 35.3701C150.651 34.8701 151.491 34.1501 152.391 33.2101C153.281 32.2601 153.911 31.2701 154.261 30.2301C154.361 30.0201 154.411 29.8301 154.401 29.6501C154.401 29.4701 154.101 29.3001 153.531 29.1601C153.221 29.0601 153.101 28.8801 153.171 28.6201C153.241 28.3601 153.451 28.2501 153.821 28.2801C154.081 28.2801 154.421 28.3001 154.841 28.3501C155.261 28.3901 155.661 28.4601 156.041 28.5501C156.321 28.6201 156.501 28.7601 156.601 28.9701C156.701 29.1701 156.691 29.4201 156.591 29.7201C156.471 30.0301 156.351 30.3101 156.241 30.5801C156.121 30.8401 155.981 31.1101 155.821 31.3701C156.511 31.7401 157.141 32.0401 157.701 32.2801C158.261 32.5201 158.741 32.7601 159.121 32.9901C159.751 33.3501 160.211 33.6601 160.511 33.9101C160.801 34.1601 160.951 34.4601 160.951 34.8101V35.7101C160.951 36.0601 160.801 36.2501 160.511 36.2701C160.221 36.2901 159.991 36.2001 159.831 36.0001C159.301 35.2401 158.651 34.5401 157.871 33.9201C157.091 33.3001 156.241 32.6701 155.301 32.0401C154.681 32.9901 153.901 33.8301 152.951 34.5701L152.941 34.5501ZM152.401 38.7101C151.721 38.7101 151.021 38.7401 150.301 38.7601C150.091 38.7801 149.911 38.8401 149.741 38.9501C149.571 39.0601 149.491 39.1201 149.491 39.1401C149.461 39.1401 149.241 39.0901 148.831 39.0101C148.421 38.9201 147.941 38.6701 147.381 38.2601C147.031 38.0101 146.931 37.7601 147.081 37.5001C147.241 37.2401 147.501 37.1501 147.881 37.2201C148.391 37.3101 148.811 37.3701 149.121 37.4001C149.441 37.4301 149.891 37.4601 150.501 37.4901C150.821 37.5001 152.471 37.5201 155.441 37.5201C158.421 37.5201 159.961 37.5201 160.081 37.5201C160.331 37.5001 160.551 37.4201 160.731 37.2601C160.911 37.1001 161.011 37.0101 161.031 36.9901C161.061 36.9901 161.321 37.0201 161.811 37.0801C162.301 37.1401 162.741 37.2701 163.121 37.4701C163.371 37.6001 163.471 37.8501 163.431 38.2301C163.391 38.6001 163.221 38.8101 162.951 38.8401C162.701 38.8701 162.451 38.8801 162.211 38.8801C161.971 38.8801 161.671 38.8701 161.321 38.8401C160.951 38.8001 160.311 38.7601 159.401 38.7301C158.481 38.7001 157.381 38.6901 156.071 38.6901V41.4401C156.581 41.4301 157.141 41.4001 157.731 41.3801C158.321 41.3501 158.981 41.3101 159.701 41.2701C159.631 42.2101 159.601 42.9801 159.611 43.5801C159.621 44.1801 159.641 44.9601 159.651 45.9101C158.191 45.8401 156.801 45.8101 155.501 45.8401C154.191 45.8701 153.381 45.8901 153.041 45.9101C153.011 46.0901 152.991 46.3201 152.981 46.6101C152.981 46.9001 153.001 47.2001 153.061 47.4901C153.061 47.7101 153.101 47.8501 153.191 47.9101C153.281 47.9701 153.401 48.0001 153.561 48.0001C153.601 48.0101 154.021 48.0501 154.811 48.1001C155.601 48.1501 156.441 48.1301 157.321 48.0201C157.571 47.9901 157.771 47.9101 157.911 47.7701C158.061 47.6301 158.141 47.5501 158.151 47.5401C158.181 47.5401 158.431 47.5701 158.891 47.6301C159.351 47.6901 159.771 47.8101 160.131 48.0001C160.391 48.1001 160.511 48.3301 160.471 48.6701C160.431 49.0101 160.271 49.2001 159.971 49.2301C159.741 49.2501 159.511 49.2601 159.281 49.2601C159.051 49.2601 158.771 49.2601 158.431 49.2501C157.761 49.2101 156.741 49.2001 155.401 49.2201C154.051 49.2401 153.331 49.2601 153.221 49.2801C152.711 49.2801 152.221 49.2201 151.771 49.0901C151.321 48.9601 151.131 48.5401 151.221 47.8301C151.291 47.5801 151.321 47.3301 151.291 47.0701C151.261 46.8101 151.251 46.6801 151.251 46.6601C151.251 46.2501 151.221 45.9801 151.161 45.8401C151.101 45.7001 150.951 45.6101 150.701 45.5601C150.361 45.5101 150.201 45.3401 150.221 45.0601C150.241 44.7801 150.401 44.6401 150.731 44.6401C150.821 44.6401 151.611 44.6701 153.101 44.7201C154.601 44.7701 156.161 44.7301 157.781 44.6001C157.851 44.2601 157.891 43.9301 157.891 43.6001C157.891 43.2701 157.861 42.9501 157.801 42.6201C156.731 42.5901 155.851 42.5701 155.141 42.5601C154.441 42.5401 153.791 42.6001 153.211 42.7101C153.111 42.7201 152.961 42.7701 152.781 42.8401C152.601 42.9101 152.501 42.9501 152.481 42.9501C151.971 42.8301 151.461 42.5901 150.961 42.2301C150.611 41.9401 150.501 41.6801 150.641 41.4701C150.781 41.2601 151.021 41.1801 151.381 41.2401C151.751 41.2801 152.041 41.3201 152.251 41.3401C152.461 41.3601 152.821 41.3901 153.321 41.4201C153.501 41.4401 153.671 41.4401 153.851 41.4401H154.361V38.7401C153.741 38.7401 153.101 38.7401 152.411 38.7501L152.401 38.7101Z" fill="white"/>
<path d="M176.89 34.5101C176.64 35.5301 176.36 36.3501 176.03 36.9801C175.84 37.3801 175.58 37.5201 175.24 37.4201C174.9 37.3201 174.77 37.1301 174.84 36.8501C175.04 36.0301 175.21 35.2001 175.34 34.3801C175.47 33.5501 175.57 32.8601 175.63 32.3201C175.65 32.1101 175.63 31.9601 175.59 31.8501C175.55 31.7401 175.45 31.6801 175.31 31.6801C175.28 31.6801 174.93 31.6601 174.27 31.6301C173.6 31.5901 172.71 31.6301 171.6 31.7501C171.48 31.7701 171.35 31.8201 171.2 31.8901C171.04 31.9701 170.96 32.0201 170.95 32.0301C170.93 32.0301 170.76 31.9701 170.43 31.8601C170.1 31.7501 169.72 31.5401 169.3 31.2101C168.9 30.9001 168.79 30.6401 168.97 30.4101C169.15 30.1801 169.43 30.1101 169.8 30.2001C170.3 30.2601 170.6 30.3001 170.7 30.3101C170.8 30.3301 171.2 30.3601 171.89 30.4201C172.21 30.4401 172.76 30.4401 173.52 30.4201C174.29 30.4001 174.94 30.3901 175.47 30.3701C175.57 30.3701 175.7 30.3301 175.85 30.2501C176 30.1701 176.09 30.1201 176.1 30.1101C176.13 30.1101 176.27 30.1501 176.52 30.2101C176.77 30.2801 176.96 30.3901 177.11 30.5501C177.3 30.7501 177.42 30.9601 177.47 31.1701C177.52 31.3801 177.52 31.6801 177.46 32.0601C177.33 32.6601 177.14 33.4701 176.89 34.4901V34.5101ZM182.37 48.0601C182.33 48.4101 182.17 48.6001 181.88 48.6301C181.65 48.6601 181.42 48.6701 181.19 48.6701C180.96 48.6701 180.69 48.6701 180.37 48.6501L175.53 48.6701C175.05 48.6701 174.59 48.5901 174.14 48.4301C173.7 48.2701 173.53 47.7901 173.64 47.0001C173.74 46.3801 173.77 45.8501 173.73 45.3801C173.69 44.9201 173.66 44.6801 173.64 44.6701C173.64 44.3301 173.6 44.0701 173.52 43.8901C173.44 43.7101 173.12 43.5501 172.57 43.4201C172.29 43.3501 172.18 43.1801 172.23 42.9001C172.28 42.6301 172.5 42.5101 172.9 42.5401C172.93 42.5401 173.2 42.5601 173.7 42.6001C174.21 42.6401 174.67 42.7001 175.1 42.7901C175.16 42.8001 175.26 42.8201 175.39 42.8301C175.52 42.8401 175.59 42.8501 175.61 42.8501C175.6 42.8601 175.55 43.0401 175.49 43.3801C175.43 43.7201 175.39 44.0201 175.39 44.2801C175.39 44.3201 175.39 44.6401 175.37 45.2201C175.36 45.8001 175.39 46.3301 175.48 46.8101C175.48 47.0401 175.52 47.1901 175.61 47.2401C175.7 47.2901 175.82 47.3201 175.96 47.3201C176 47.3201 176.34 47.3401 176.97 47.3801C177.6 47.4201 178.36 47.4101 179.25 47.3501C179.48 47.3301 179.67 47.2601 179.81 47.1301C179.95 47.0001 180.02 46.9301 180.02 46.9101C180.06 46.9101 180.32 46.9301 180.8 46.9901C181.28 47.0401 181.7 47.1601 182.06 47.3501C182.31 47.4801 182.41 47.7201 182.38 48.0701L182.37 48.0601ZM180.89 42.3201C180.89 42.6901 180.85 42.9801 180.77 43.2001C180.69 43.4201 180.6 43.5701 180.49 43.6401C180.4 43.7101 180.26 43.7601 180.04 43.7801C179.83 43.8001 179.67 43.7701 179.57 43.6801C179.48 43.6101 179.41 43.5201 179.35 43.4001C179.29 43.2901 179.26 43.1201 179.26 42.8801V30.5101C179.26 30.2201 179.22 29.9401 179.14 29.6601C179.06 29.3901 178.76 29.1801 178.23 29.0401C177.86 28.9401 177.72 28.7501 177.79 28.4801C177.86 28.2101 178.1 28.1001 178.49 28.1401C178.5 28.1401 178.74 28.1601 179.19 28.1901C179.64 28.2301 180.14 28.3201 180.68 28.4801C180.73 28.5001 180.87 28.5301 181.12 28.5901C181.12 28.6201 181.08 28.8701 181 29.3401C180.92 29.8101 180.88 30.2101 180.88 30.5501V34.9901H180.99C181.17 34.9701 181.36 34.8901 181.56 34.7501C181.76 34.6101 181.87 34.5301 181.87 34.5101C181.9 34.5101 182.13 34.5301 182.56 34.5801C182.99 34.6201 183.4 34.7501 183.78 34.9501C184.03 35.0801 184.13 35.3201 184.09 35.6601C184.05 36.0101 183.88 36.1901 183.61 36.2001C183.36 36.2201 183.12 36.2201 182.89 36.2201H180.89V42.3101V42.3201ZM175.75 38.8601C176.59 38.7501 177.31 38.6301 177.93 38.5001C178.24 38.4301 178.39 38.5501 178.4 38.8601C178.4 39.1801 178.28 39.3801 178.02 39.4801C176.92 39.8001 175.83 40.0401 174.77 40.1901C173.7 40.3401 172.4 40.4701 170.86 40.5801C170.73 40.6001 170.58 40.6501 170.42 40.7301C170.26 40.8201 170.17 40.8701 170.16 40.8801C170.15 40.8801 169.96 40.8301 169.61 40.7301C169.26 40.6301 168.85 40.3901 168.38 40.0301C168.09 39.8001 168 39.5701 168.13 39.3501C168.26 39.1301 168.49 39.0501 168.82 39.1101C169.23 39.1701 169.56 39.2101 169.81 39.2301C170.06 39.2501 170.43 39.2701 170.91 39.2801H171.23C171.37 39.2801 171.53 39.2801 171.7 39.2601V36.5801C171.7 36.2901 171.67 36.0001 171.6 35.7201C171.54 35.4401 171.31 35.2601 170.91 35.1901C170.6 35.1201 170.47 34.9401 170.53 34.6601C170.58 34.3801 170.8 34.2501 171.18 34.2701C171.19 34.2701 171.41 34.2801 171.82 34.3001C172.23 34.3201 172.69 34.3901 173.18 34.5101C173.22 34.5301 173.3 34.5401 173.4 34.5701C173.5 34.5901 173.56 34.6001 173.58 34.6001C173.56 34.6301 173.53 34.8901 173.47 35.3901C173.41 35.8901 173.38 36.2801 173.38 36.5801V39.1301C174.14 39.0601 174.94 38.9601 175.78 38.8501L175.75 38.8601Z" fill="white"/>
<path d="M36.0695 48.77C36.0995 47.53 34.9995 46.95 34.8295 47.61C34.6595 48.27 34.1695 48.3 34.0495 47.52C33.9295 46.74 33.5595 47.43 33.5595 47.43C33.0995 48.18 32.7195 47.05 32.7795 46.24C32.8395 45.44 32.5195 44.42 32.9795 44.62C33.4395 44.83 33.1495 43.48 33.1495 43.48C32.6295 42.55 33.2395 42.08 33.3495 42.11C33.4695 42.14 33.8995 42.2 33.8995 41.88C33.8995 41.76 33.8795 41.66 33.8395 41.58C33.5095 41.22 33.1195 41.3 32.6495 41.24C30.9795 40.42 29.2695 39.47 27.1695 39.87C27.0495 39.96 26.8395 39.95 26.8195 40.15C27.5895 40.54 28.4695 40.62 29.0795 41.32V41.46C28.3895 41.5 27.4695 41.36 26.7595 41.56C26.4395 41.46 26.3095 41.76 26.0095 41.68C25.3995 41.91 24.7295 42.19 24.2095 42.74C24.1495 42.78 24.1095 42.86 24.0295 42.88C24.1295 42.68 24.2695 42.47 24.2095 42.23C23.7395 41.76 23.1495 41.46 22.7195 40.94C22.1895 40.72 21.6395 41.35 21.2095 40.94C21.1495 40.63 21.2095 40.25 20.8895 40.1C19.7095 40.12 18.9095 41.08 17.9795 41.75C17.8195 41.79 17.6895 41.71 17.6295 41.58C17.6295 41.38 17.5295 41.21 17.3995 41.04C16.6895 41.18 16.2795 41.97 15.9095 42.53C15.6895 43 15.4495 43.46 15.2995 43.95H15.2395L15.4495 41.69C15.0095 41.52 14.6295 41.07 14.0795 41.23V41.26C14.2295 41.24 14.3295 41.23 14.3395 41.24L12.2295 41.28L11.7695 41.9L11.9995 50.44L14.7395 51.04C14.7595 50.75 15.0895 50.61 15.2895 50.47C15.5495 49.9 15.2695 48.68 15.2695 48.08C15.1295 46.31 15.1695 44.5 16.3295 43.25C16.7795 43.23 16.7195 43.82 17.0495 44C17.7595 43.49 18.0295 42.61 18.8595 42.19C19.5295 41.96 19.6095 42.8 19.8895 43.13C20.1195 43.35 20.3395 43.07 20.5995 43.11C20.7995 43.17 20.8295 43.37 20.8495 43.52C20.7595 45.17 20.5695 46.99 21.1995 48.43C21.6095 49.31 22.1995 50.09 22.6495 50.94C22.5295 51.19 22.1595 51.08 21.9395 51.06C21.6095 51.02 21.2695 50.75 20.9195 50.94C21.0395 52 22.1795 52.63 22.6495 53.53C22.2995 54 21.5495 53.61 21.1195 53.98C21.1395 54.67 22.0195 55.02 22.2195 55.67C21.8895 56.01 21.3195 55.83 20.9195 55.75C20.5595 55.69 20.0695 55.41 19.7795 55.71C19.8395 56.42 20.4495 56.89 20.7595 57.48C20.8595 57.52 20.9195 57.44 20.9795 57.42C21.0795 57.28 25.4795 57.46 25.9695 56.71C25.9495 56.18 25.3095 56.08 24.9895 55.79C24.8095 55.6 24.4595 55.5 24.4695 55.18C24.5695 55.12 24.6295 55 24.7295 54.96C25.1195 54.69 25.8695 54.86 25.9695 54.25C25.5895 53.92 25.1395 53.74 24.7295 53.48C24.5395 53.27 24.0395 53.09 24.1595 52.74C24.4695 52.66 24.7295 52.46 25.0895 52.48C25.4095 52.4 25.8395 52.4 25.9695 52.11C25.6195 51.62 25.0095 51.48 24.5595 51.11C24.2995 50.82 23.8295 50.66 23.8095 50.23C24.4395 49.87 25.0295 50.35 25.6895 50.09C25.7695 49.99 26.0395 50.03 25.9695 49.82C25.0695 49.13 24.0195 48.43 23.6295 47.35C23.6295 47.11 23.4695 46.86 23.6295 46.64C24.2795 47.15 24.8995 47.72 25.7495 47.72C25.8495 47.68 26.0395 47.66 25.9595 47.48C25.6595 47.11 25.3295 46.74 25.1195 46.3C24.9295 45.63 24.9695 44.78 25.5095 44.29C25.8995 43.92 26.3795 43.76 26.8495 43.58C27.3395 43.46 27.7295 43.68 28.1695 43.5C28.0895 43.2 27.7395 43.05 27.4795 42.93C26.2195 42.51 24.8695 42.99 23.9295 43.85L23.8895 43.81C24.0995 42.83 25.1795 42.28 26.0095 41.94C26.5795 41.94 27.1295 41.67 27.7795 41.76C28.0195 41.9 28.3095 41.78 28.5295 41.94C28.7495 41.86 28.8295 42.1 29.0195 42.04C29.9795 42.25 30.6295 43.2 31.6295 43.28C32.4895 44.03 32.4295 45.23 32.4095 46.36L32.3295 46.44C32.2895 47.22 31.9195 47.97 31.5495 48.66C31.3495 49.04 31.0295 49.39 31.0595 49.8C31.8795 49.8 32.4295 49.13 33.1395 48.87C33.2395 48.95 33.2795 49.03 33.2495 49.15C32.9195 50.25 32.1095 51.14 31.3695 52.06V52.3C31.7595 52.36 32.2395 52.4 32.5895 52.24C32.8195 52.32 33.0995 52.05 33.2495 52.34C33.0395 53.15 32.2295 53.7 31.7195 54.37C31.6795 55.23 32.8995 54.45 33.2495 55.04C33.1395 55.63 32.5295 56.02 32.2295 56.53C32.5595 56.53 32.9295 56.34 33.2195 56.59C33.2495 56.79 33.1795 57.04 32.9995 57.16C32.9895 57.34 33.1795 57.34 33.2595 57.47C34.3395 57.55 38.1295 57.63 38.3495 57.41C38.6095 56.88 37.9395 56.68 37.7195 56.37C37.5795 56.11 37.8395 55.88 37.7395 55.64C37.4995 55.68 37.1695 55.84 36.9395 55.64C36.7195 55.01 35.7795 55.03 35.7795 54.29C36.0395 53.78 36.3895 53.33 36.5395 52.77C36.5595 52.6 36.7195 52.36 36.4995 52.24C36.2895 52.27 35.9295 52.2 35.7395 52.42C35.5595 52.44 35.2495 52.56 35.1295 52.3C35.3795 51.34 35.9495 50.51 36.2295 49.55C36.2295 49.51 36.2295 49.47 36.2295 49.43C36.1195 49.47 36.0695 49.36 36.0895 48.75L36.0695 48.77ZM21.4395 46.38C21.2995 45.93 21.2195 45.34 21.3595 44.87C21.4195 44.46 22.0495 44.26 22.1695 44.75C22.2395 45.77 22.4395 46.78 22.5595 47.72C21.8795 47.62 21.6995 46.87 21.4395 46.38ZM26.2095 43.16C26.2795 43.2 26.3695 43.26 26.4795 43.24C26.3595 43.49 26.0095 43.59 25.7695 43.77L25.4095 44.05C25.4595 43.91 25.3495 43.73 25.1995 43.66C25.0995 43.66 24.9695 43.7 24.8895 43.64C25.2895 43.38 25.7195 43.19 26.2095 43.17V43.16ZM35.0495 48.86C34.9895 48.88 34.9395 48.84 34.8895 48.9C34.6795 48.53 35.0295 48.21 34.9695 47.84C35.2095 47.58 35.4995 47.96 35.5395 48.2C35.5595 48.49 35.2295 48.69 35.0495 48.86Z" fill="#939598"/>
<path d="M12.1498 42.67C10.7398 43.85 9.04977 44.45 7.06977 44.45C3.93977 44.45 2.37977 44.95 2.37977 45.95C2.37977 46.49 2.51977 46.87 2.78977 47.08C3.12977 47.35 3.71977 47.49 4.57977 47.49H10.1198C13.8298 47.49 15.6798 48.76 15.6798 51.31C15.6798 53.27 14.7898 54.72 12.9898 55.66L12.0498 54.38C12.8998 53.82 13.3298 53.16 13.3298 52.41C13.3298 50.72 11.7198 49.97 8.49977 50.14C5.27977 50.32 3.34977 50.29 2.72977 50.06C0.909766 49.71 0.00976562 48.68 0.00976562 46.97C0.00976562 45.26 1.18977 44.13 3.54977 43.63V43.57C2.54977 43.17 1.75977 42.43 1.17977 41.32C0.669766 40.34 0.429766 39.26 0.429766 38.07C0.429766 36.3 1.15977 34.78 2.61977 33.53C4.00977 32.34 5.61977 31.75 7.42977 31.75C9.34977 31.75 10.9698 32.38 12.2898 33.65C13.6198 34.92 14.2798 36.39 14.2798 38.05C14.2798 39.94 13.5798 41.48 12.1698 42.67H12.1498ZM9.87977 34.5C9.17977 33.56 8.32977 33.09 7.29977 33.09C6.26977 33.09 5.44977 33.56 4.75977 34.5C4.05977 35.44 3.70977 36.67 3.70977 38.19C3.70977 39.71 4.05977 40.91 4.75977 41.85C5.45977 42.79 6.29977 43.26 7.29977 43.26C8.29977 43.26 9.17977 42.79 9.87977 41.85C10.5798 40.91 10.9198 39.69 10.9198 38.19C10.9198 36.69 10.5698 35.44 9.87977 34.5Z" fill="#231F20"/>
<path d="M48.6201 47.99C47.7801 47.99 47.3201 47.36 47.3201 46.62V38.83C47.3201 36.8 47.0301 34.51 43.6101 33.59C40.4501 32.74 37.1601 33.78 37.1601 33.78C37.1601 33.78 37.3501 32.88 37.3101 32.44V28.33C37.3101 27.43 37.2101 26.56 36.9401 25.75C36.3501 23.92 34.5701 22.13 31.7101 22.13C27.6001 22.13 26.3801 25.46 26.3801 25.46C26.3801 25.46 25.0201 22.13 21.3201 22.13C17.2001 22.13 16.0201 25.34 16.0201 25.34V22.61H12.3301V38.46H14.8001C15.3401 38.46 15.5101 38.36 15.7801 38.15C16.0501 37.19 16.2101 36.03 15.9301 35.02C16.5401 31.33 14.8101 26 18.9001 24.28C20.1401 23.76 21.4701 24.16 22.3601 25.07C22.6801 25.36 22.8701 25.7 23.0201 26.05C23.5401 27.56 23.1201 29.21 23.2401 30.82C22.7901 31.8 23.7501 32.92 22.8901 33.78C22.8701 34.39 23.7101 34.98 23.0101 35.53C22.4001 36.1 21.7401 36.49 20.9501 36.61C20.7501 36.89 20.5601 37.24 20.7301 37.57C20.9501 37.75 21.2601 37.76 21.4201 38.02C21.4801 38.18 21.2801 38.31 21.4301 38.41C22.7901 37.96 24.2201 37.73 25.6801 37.52C26.0301 37.21 26.8401 36.97 26.6401 36.42C26.4001 36.13 25.8201 35.95 25.9301 35.52C26.1501 35.03 26.9701 34.66 26.6001 34.06C26.3601 33.81 26.2101 33.47 26.3201 33.1C27.2601 32.34 26.1101 31.31 26.6301 30.41C26.8501 29.82 26.5401 29.25 26.6301 28.62C26.5901 27.11 27.0601 25.74 28.3201 24.83C29.4501 24.02 31.2001 23.85 32.4601 24.51C34.3201 25.53 33.7801 27.69 33.8701 29.52C33.7001 30.56 34.1101 31.64 33.6601 32.61C33.8201 33.3 34.1301 34.16 33.4201 34.69C33.2801 35.44 34.0901 35.93 33.7901 36.59C33.5401 36.77 33.1201 36.79 32.9901 37.12C32.9901 37.42 33.0901 37.67 33.3001 37.87C33.8301 37.4 34.5501 37.91 35.1401 38.05C35.6301 38.25 36.1601 38.56 36.6901 38.44C37.0401 38.17 37.4301 37.89 37.9201 38.05C38.2301 38.17 38.5501 38.27 38.8801 38.36C39.1001 37.95 39.0601 37.42 38.8901 36.99C38.3401 37.13 37.7301 36.83 37.4201 36.36C37.3501 36.01 37.1001 35.54 37.3501 35.22C38.2301 34.59 39.4101 35.16 40.4301 34.83C41.8101 34.89 43.4001 35.09 43.8901 36.58C44.1701 37.46 43.9701 38.52 43.9301 39.46C43.1101 39.99 42.0601 39.5 41.1801 39.75C40.8501 39.99 40.5101 40.36 40.0401 40.16C39.6501 40.06 39.3101 39.79 38.8401 39.89C38.3501 40.13 38.4801 41.05 37.7801 40.83C37.2801 40.63 36.8701 40.22 36.2901 40.24C35.8601 40.63 36.2701 41.38 35.9401 41.83H35.6201C35.0501 41.48 34.5401 40.97 33.8501 40.87C33.7201 41.01 33.6801 41.22 33.7601 41.4C33.8201 41.44 33.7801 41.51 33.7801 41.56C33.8201 41.64 33.8401 41.74 33.8401 41.86C33.8401 42.18 33.4101 42.12 33.2901 42.09C33.1801 42.06 32.5701 42.53 33.0901 43.46C33.0901 43.46 33.3801 44.8 32.9201 44.6C32.4601 44.4 32.7701 45.41 32.7201 46.22C32.6601 47.03 33.0401 48.16 33.5001 47.41C33.5001 47.41 33.8801 46.72 33.9901 47.5C34.1101 48.28 34.6001 48.25 34.7701 47.59C34.9401 46.92 36.0401 47.5 36.0101 48.75C35.9901 49.36 36.0401 49.47 36.1501 49.43C36.2001 48.79 36.9901 48.69 37.3501 48.21C38.2101 48.01 37.8401 49.21 38.4801 49.37C39.0501 49.19 39.4501 48.5 39.9901 48.21C40.5601 48.03 40.5801 48.92 41.1301 48.87C42.0901 48.54 42.4001 46.89 43.6601 47.24C43.8601 47.16 44.0201 46.96 44.1901 46.88C44.3601 47.55 44.3001 48.4 44.1701 49.14H49.2001V47.96H48.5501L48.6201 47.99ZM36.2101 45.6C35.8201 45.58 35.5801 45.2 35.4001 44.89C35.1701 44.4 35.2501 43.79 35.1901 43.24C35.4601 42.95 35.6801 43.47 35.9001 43.65C36.1301 44.16 36.4701 44.63 36.5301 45.22C36.4901 45.38 36.3701 45.51 36.2201 45.6H36.2101ZM43.7301 44.93C43.3401 45.18 42.8801 45.5 42.6101 45.93C42.2801 46.4 42.0201 47.34 41.2501 47.22C40.9501 47.04 40.7401 46.53 40.3501 46.69C39.8201 46.95 39.5801 47.77 38.9401 47.61C38.4501 47.31 38.4101 46.35 37.6601 46.59C37.5001 46.67 37.3201 46.75 37.1601 46.64C36.8101 46.05 36.4701 45.31 36.7701 44.56C37.0601 43.69 36.7701 42.59 37.0001 41.69C37.0801 41.49 37.3801 41.53 37.5201 41.63C37.9501 41.83 38.3601 42.48 38.8501 42.12C39.1901 41.79 39.2001 40.79 39.9901 41.18C40.3201 41.36 40.7101 41.55 41.1501 41.45C41.8401 40.31 43.0701 41.43 44.0201 40.88C44.0801 42.2 44.4101 43.77 43.7201 44.91L43.7301 44.93Z" fill="#231F20"/>
<path d="M55.8399 0.340045C55.8199 0.120045 55.7899 0.0100453 55.6999 4.53226e-05C55.6099 -0.0199547 55.5499 0.0500453 55.4299 0.300045L42.4399 27.44C42.3199 27.69 42.3099 27.77 42.3699 27.84C42.4299 27.89 42.5299 27.86 42.7199 27.73C43.9199 26.91 49.4099 22.99 52.9399 15.78C56.3399 8.51005 55.9399 1.79005 55.8299 0.330045L55.8399 0.340045Z" fill="#00AEEF"/>
</g>
<defs>
<clipPath id="clip0_162_4">
<rect width="184.11" height="57.56" fill="white"/>
</clipPath>
</defs>
</svg>
