<svg width="166" height="52" viewBox="0 0 166 52" fill="none" xmlns="http://www.w3.org/2000/svg">
<g clip-path="url(#clip0_73_93)">
<path d="M68.2624 43.5983C67.532 44.2306 66.7206 44.5468 65.8009 44.5468C64.8812 44.5468 64.0968 44.2307 63.3575 43.5892C62.6091 42.9478 62.2394 42.1077 62.2394 41.0778C62.2394 40.0479 62.6091 39.1535 63.3485 38.5302C64.0878 37.8978 64.9083 37.5906 65.8099 37.5906C66.7115 37.5906 67.523 37.9068 68.2533 38.5302C68.9837 39.1626 69.3533 40.0027 69.3533 41.0778C69.3533 42.1528 68.9927 42.9659 68.2624 43.5983ZM67.2165 39.3884C66.8648 38.9277 66.396 38.6928 65.8009 38.6928C65.2058 38.6928 64.746 38.9277 64.3853 39.3884C64.0247 39.8491 63.8443 40.4183 63.8443 41.0778C63.8443 41.7373 64.0247 42.2883 64.3853 42.7581C64.746 43.2279 65.2239 43.4628 65.8009 43.4628C66.3779 43.4628 66.8648 43.2279 67.2165 42.7581C67.5681 42.2883 67.7394 41.7282 67.7394 41.0778C67.7394 40.4273 67.5681 39.8491 67.2165 39.3884ZM62.1132 33.8054C61.0132 35.0792 59.8772 36.0277 58.687 36.6421C58.4345 36.7776 58.2272 36.8227 58.0649 36.7776C57.9026 36.7414 57.7944 36.6692 57.7583 36.5607C57.7132 36.4162 57.7763 36.2807 57.9386 36.1452C58.1009 36.0187 58.2272 35.9103 58.3173 35.8471C59.1739 35.2508 60.1026 34.3022 61.1124 33.0013C62.1132 31.7004 62.8075 30.3815 63.1952 29.0625C63.2222 28.945 63.2132 28.8276 63.1681 28.7282C63.123 28.6198 63.0419 28.5656 62.9247 28.5656C62.4378 28.5656 62.0321 28.5656 61.7165 28.5566C61.4009 28.5566 60.9862 28.5746 60.4722 28.6288C60.3911 28.6469 60.2829 28.6831 60.1386 28.7644C59.9944 28.8457 59.9132 28.8908 59.9042 28.8999C59.3722 28.7644 58.8854 28.5295 58.4345 28.1862C58.146 27.9603 58.0649 27.7345 58.1911 27.5086C58.3173 27.2828 58.5337 27.2015 58.8583 27.2647C59.3181 27.3189 59.5976 27.355 59.6878 27.3641C59.778 27.3821 60.1206 27.4092 60.6976 27.4635C60.905 27.4725 61.3017 27.4815 61.8878 27.4815C62.4739 27.4815 62.9698 27.4454 63.3935 27.3821C63.5107 27.355 63.637 27.3099 63.7722 27.2557C63.9075 27.1924 63.9796 27.1653 63.9886 27.1653C64.0157 27.1834 64.1329 27.2376 64.3493 27.346C64.5566 27.4544 64.7099 27.5538 64.782 27.6622C64.9624 27.879 65.0796 28.0868 65.1157 28.2946C65.1517 28.5024 65.1337 28.7463 65.0345 29.0083C65.4402 29.0625 65.7738 29.0896 66.0173 29.0896C66.2607 29.0896 66.6214 29.0986 67.0992 29.1257C67.2435 29.1438 67.3968 29.1438 67.5501 29.1257C67.7033 29.1257 67.8476 29.1077 67.9919 29.0986V27.5538C67.9919 27.2918 67.9558 27.0389 67.8837 26.7859C67.8115 26.542 67.541 26.3523 67.0632 26.2258C66.7296 26.1354 66.6034 25.9638 66.6665 25.7199C66.7296 25.476 66.946 25.3766 67.2976 25.4127C67.3066 25.4127 67.523 25.4308 67.9288 25.4579C68.3345 25.494 68.7853 25.5753 69.2722 25.7199C69.3173 25.7379 69.4435 25.7651 69.6689 25.8193C69.6689 25.8464 69.6328 26.0722 69.5607 26.4968C69.4886 26.9214 69.4525 27.2828 69.4525 27.5899V35.6483C69.4525 35.9826 69.4165 36.2446 69.3443 36.4433C69.2722 36.642 69.191 36.7776 69.1009 36.8408C69.0197 36.904 68.8845 36.9492 68.6951 36.9673C68.5058 36.9853 68.3615 36.9582 68.2714 36.8769C68.1902 36.8137 68.1271 36.7324 68.073 36.633C68.0189 36.5336 67.9919 36.3801 67.9919 36.1632V34.0041C67.8025 34.0041 67.5951 34.0041 67.3517 34.0222C67.1083 34.0402 66.8378 34.0583 66.5312 34.0854C66.4411 34.1035 66.3238 34.1487 66.1886 34.23C66.0534 34.3203 65.9812 34.3655 65.9812 34.3745C65.9722 34.3745 65.8189 34.3384 65.5304 34.2751C65.2419 34.2119 64.8632 34.0131 64.4034 33.6789C64.1239 33.4892 64.0247 33.2904 64.0878 33.0736C64.1509 32.8568 64.3493 32.7755 64.6829 32.8297C65.1878 32.8839 65.5575 32.911 65.8009 32.92C66.0443 32.92 66.423 32.9471 66.937 32.9652C67.1083 32.9742 67.2886 32.9833 67.4779 32.9652C67.6673 32.9652 67.8476 32.9471 68.0009 32.9381V30.1375C67.8296 30.1466 67.6402 30.1646 67.4238 30.1646C67.2165 30.1646 66.982 30.1827 66.7296 30.2098C66.6214 30.2188 66.5042 30.273 66.3689 30.3543C66.2337 30.4447 66.1616 30.4899 66.1525 30.5079C66.1435 30.5079 65.9993 30.4808 65.7378 30.4176C65.4763 30.3543 65.1157 30.1737 64.6648 29.8755C64.0878 31.1945 63.2403 32.4954 62.1493 33.7602L62.1132 33.8054Z" fill="black"/>
<path d="M81.0569 34.763C79.8578 36.2445 78.6496 37.2744 77.4234 37.8436C77.1438 37.9701 76.9275 38.0333 76.7832 38.0062C76.6299 37.9881 76.5307 37.9068 76.4766 37.7803C76.4406 37.6358 76.5037 37.4912 76.666 37.3467C76.8283 37.2022 76.9635 37.0938 77.0717 37.0305C78.0365 36.3981 79.0192 35.3502 80.0291 33.8957C81.0299 32.4412 81.67 31.1403 81.9496 29.984C81.9856 29.8394 81.9856 29.7129 81.9315 29.6136C81.8774 29.5142 81.7963 29.469 81.6701 29.469C81.1651 29.469 80.7143 29.469 80.2996 29.4509C79.8848 29.4329 79.416 29.4509 78.875 29.5051C78.7938 29.5232 78.6856 29.5684 78.5414 29.6407C78.3971 29.722 78.316 29.7671 78.307 29.7762C78.2979 29.7762 78.1627 29.74 77.9102 29.6678C77.6578 29.5955 77.3061 29.3967 76.8373 29.0625C76.5217 28.8366 76.4225 28.6108 76.5578 28.3849C76.693 28.1591 76.9184 28.0778 77.234 28.15C77.6848 28.2042 77.9553 28.2404 78.0545 28.2584C78.1537 28.2765 78.4963 28.3127 79.0733 28.3669C79.2897 28.3849 79.7406 28.3849 80.4348 28.3849C81.1291 28.3849 81.7061 28.3488 82.1659 28.2675C82.2291 28.2584 82.3373 28.2133 82.4905 28.15C82.6438 28.0868 82.725 28.0507 82.743 28.0507C82.77 28.0507 82.8782 28.0868 83.0766 28.1681C83.275 28.2494 83.4373 28.3759 83.5725 28.5475C83.7438 28.7824 83.852 29.0083 83.8881 29.198C83.9241 29.3967 83.8881 29.6407 83.7889 29.9297C83.1668 31.6643 82.2561 33.2723 81.066 34.7539L81.0569 34.763ZM88.0897 26.5239C88.0176 26.9485 87.9815 27.3099 87.9815 27.617V40.4183C87.9815 40.7525 87.9454 41.0416 87.8733 41.3036C87.8012 41.5566 87.72 41.7192 87.6208 41.7915C87.5397 41.8547 87.4045 41.8999 87.2151 41.9179C87.0258 41.936 86.8815 41.9089 86.7913 41.8276C86.7102 41.7644 86.6471 41.665 86.593 41.5385C86.5389 41.412 86.5118 41.2404 86.5118 41.0326V27.5719C86.5118 27.3099 86.4758 27.0569 86.4036 26.804C86.3315 26.56 86.052 26.3703 85.5831 26.2439C85.2495 26.1535 85.1233 25.9819 85.1864 25.7379C85.2495 25.494 85.4659 25.3947 85.8176 25.4308C85.8266 25.4308 86.043 25.4489 86.4487 25.476C86.8544 25.5121 87.3053 25.5934 87.7922 25.7379C87.8372 25.756 87.9635 25.7831 88.1889 25.8373C88.1889 25.8644 88.1528 26.0903 88.0807 26.5149L88.0897 26.5239Z" fill="black"/>
<path d="M101.975 37.5364H104.454C105.185 37.5364 105.563 37.5364 105.608 37.5183C105.834 37.5003 106.032 37.428 106.194 37.2925C106.366 37.157 106.447 37.0757 106.465 37.0666C106.492 37.0666 106.726 37.0937 107.168 37.1479C107.61 37.2021 108.007 37.3106 108.349 37.4822C108.575 37.5997 108.665 37.8255 108.629 38.1688C108.593 38.5031 108.448 38.6837 108.196 38.7108C107.971 38.7379 107.754 38.747 107.529 38.747C107.303 38.747 107.042 38.7379 106.726 38.7108C106.185 38.6476 105.013 38.6024 103.21 38.5844C101.407 38.5663 99.2698 38.5844 96.7993 38.6566C96.619 38.6657 96.4477 38.7289 96.2944 38.8373C96.1411 38.9457 96.069 38.9999 96.069 39.018C96.0419 39.018 95.8436 38.9819 95.4739 38.9006C95.1042 38.8283 94.6715 38.6024 94.1665 38.223C93.851 37.97 93.7608 37.7352 93.887 37.5183C94.0223 37.3015 94.2567 37.2293 94.5993 37.2925C95.0592 37.3557 95.4378 37.4009 95.7264 37.428C96.0149 37.4551 96.4296 37.4822 96.9796 37.5093C97.1059 37.5183 97.5116 37.5274 98.1788 37.5364C98.846 37.5364 99.6034 37.5364 100.451 37.5364V33.8867L98.7649 33.9228C98.3141 33.9228 97.8993 33.8415 97.5296 33.6879C97.151 33.5343 97.0067 33.1007 97.0788 32.3689C97.16 31.6462 97.178 30.9235 97.1419 30.2279C97.1059 29.5232 97.0788 29.1438 97.0788 29.0896C97.0788 28.7101 97.0518 28.4391 96.9977 28.2855C96.9436 28.132 96.8083 28.0326 96.601 27.9784C96.2403 27.9242 96.078 27.7706 96.096 27.4996C96.1141 27.2376 96.2944 27.1021 96.619 27.1021C96.7542 27.1201 97.6288 27.1563 99.2518 27.2195C100.875 27.2828 102.074 27.2828 102.84 27.2015C103.048 27.1834 103.228 27.1201 103.372 26.9937C103.516 26.8672 103.598 26.7949 103.607 26.7859C103.634 26.7859 103.85 26.813 104.265 26.8582C104.68 26.9033 105.058 27.0208 105.41 27.2015C105.617 27.3189 105.707 27.5357 105.68 27.8429C105.644 28.1591 105.5 28.3217 105.257 28.3488C105.049 28.3668 104.824 28.3759 104.607 28.3849C104.382 28.3849 104.121 28.3849 103.814 28.3759C103.282 28.3488 102.371 28.3397 101.082 28.3488C99.7837 28.3488 99.0173 28.3488 98.7649 28.3488C98.7288 28.5837 98.6837 29.1257 98.6567 29.9478C98.6206 30.7789 98.6567 31.5468 98.7649 32.2605C98.7649 32.4593 98.8009 32.5857 98.8641 32.649C98.9272 32.7032 99.0354 32.7393 99.1796 32.7393C99.2337 32.7393 99.7026 32.7574 100.577 32.7845C101.452 32.8206 102.272 32.7845 103.048 32.6942C103.273 32.6671 103.453 32.5948 103.598 32.4864C103.742 32.378 103.814 32.3147 103.814 32.2967C103.841 32.2967 104.057 32.3238 104.481 32.3689C104.896 32.4141 105.275 32.5225 105.617 32.6942C105.843 32.8297 105.933 33.0465 105.897 33.3536C105.861 33.6608 105.716 33.8234 105.482 33.8505C105.275 33.8686 105.049 33.8776 104.824 33.8776C104.598 33.8776 104.328 33.8776 104.012 33.8776C103.805 33.8596 103.516 33.8596 103.165 33.8596H101.993V37.5364H101.975Z" fill="black"/>
<path d="M118.582 35.8651C118.285 35.82 118.131 35.7928 118.113 35.7748C117.924 35.7748 117.807 35.7477 117.744 35.7025C117.689 35.6573 117.653 35.5309 117.653 35.314C117.545 34.5281 117.518 33.4711 117.554 32.125C117.59 30.7789 117.626 29.9568 117.653 29.6316C117.852 29.6045 118.176 29.5865 118.618 29.5594C119.06 29.5413 119.736 29.5594 120.647 29.6316C120.683 29.9388 120.728 30.788 120.773 32.1702C120.818 33.5614 120.773 34.7449 120.647 35.7296C119.565 35.8651 118.871 35.9013 118.573 35.8561L118.582 35.8651ZM117.635 28.5114C116.301 28.4572 115.589 28.412 115.498 28.403C115.183 28.403 115.012 28.5295 114.994 28.7824C114.976 29.0354 115.138 29.189 115.48 29.2432C115.706 29.2793 115.85 29.3787 115.904 29.5413C115.967 29.7039 115.994 29.9749 115.994 30.3724C116.012 30.4628 116.03 31.1674 116.076 32.4864C116.112 33.8054 116.085 34.7901 115.994 35.4586C115.931 36.1452 116.066 36.5788 116.4 36.7505C116.734 36.9221 117.139 37.0124 117.617 37.0124C117.68 37.0124 118.167 36.9944 119.069 36.9673C119.971 36.9311 121.053 36.9402 122.306 36.9944C122.225 35.4767 122.216 33.724 122.288 31.7456C122.351 29.7671 122.396 28.6288 122.405 28.3398C120.557 28.5295 118.961 28.5927 117.626 28.5295L117.635 28.5114ZM126.76 25.8102C126.652 25.7831 126.571 25.765 126.534 25.747C126.048 25.6024 125.597 25.5121 125.191 25.485C124.776 25.4489 124.569 25.4398 124.56 25.4398C124.199 25.4037 123.992 25.5031 123.929 25.747C123.866 25.9909 123.992 26.1625 124.325 26.2529C124.803 26.3884 125.074 26.5781 125.146 26.813C125.218 27.0569 125.254 27.3099 125.254 27.5809V41.0416C125.254 41.2494 125.281 41.4211 125.335 41.5475C125.389 41.674 125.452 41.7644 125.534 41.8366C125.624 41.9179 125.768 41.945 125.957 41.927C126.147 41.9089 126.282 41.8637 126.363 41.8005C126.453 41.7373 126.534 41.5746 126.607 41.3127C126.679 41.0507 126.715 40.7616 126.715 40.4273V27.6261C126.715 27.3189 126.751 26.9575 126.823 26.5329C126.895 26.1083 126.931 25.8825 126.931 25.8554C126.931 25.8554 126.877 25.8373 126.76 25.8193V25.8102Z" fill="black"/>
<path d="M137.895 31.2126C137.03 31.8721 136.308 32.3419 135.713 32.622C135.506 32.7123 135.289 32.7665 135.091 32.7846C134.884 32.7936 134.749 32.7304 134.685 32.5858C134.649 32.4503 134.667 32.3419 134.767 32.2425C134.857 32.1431 134.974 32.0528 135.118 31.9534C135.83 31.5017 136.588 30.8513 137.399 30.0021C138.202 29.1438 138.77 28.2495 139.085 27.3099C139.176 27.1202 139.221 26.9486 139.212 26.786C139.212 26.6233 138.941 26.4698 138.427 26.3433C138.148 26.2529 138.039 26.0903 138.103 25.8554C138.166 25.6206 138.355 25.5212 138.689 25.5483C138.923 25.5483 139.23 25.5664 139.608 25.6115C139.987 25.6477 140.348 25.7109 140.69 25.7922C140.943 25.8554 141.105 25.9819 141.195 26.1716C141.285 26.3523 141.276 26.5782 141.186 26.8492C141.078 27.1292 140.97 27.3822 140.871 27.6261C140.762 27.861 140.636 28.1049 140.492 28.3398C141.114 28.6741 141.682 28.9451 142.187 29.1619C142.692 29.3787 143.125 29.5955 143.467 29.8033C144.035 30.1286 144.45 30.4086 144.721 30.6345C144.982 30.8603 145.117 31.1313 145.117 31.4475V32.2606C145.117 32.5768 144.982 32.7484 144.721 32.7665C144.459 32.7846 144.252 32.7033 144.107 32.5226C143.63 31.836 143.044 31.2036 142.34 30.6435C141.637 30.0834 140.871 29.5142 140.023 28.9451C139.464 29.8033 138.761 30.5622 137.904 31.2307L137.895 31.2126ZM137.408 34.9708C136.795 34.9708 136.164 34.9979 135.515 35.016C135.326 35.034 135.163 35.0882 135.01 35.1876C134.857 35.287 134.785 35.3412 134.785 35.3593C134.758 35.3593 134.559 35.3141 134.19 35.2418C133.82 35.1605 133.387 34.9347 132.882 34.5643C132.567 34.3384 132.476 34.1126 132.612 33.8777C132.756 33.6428 132.99 33.5615 133.333 33.6247C133.793 33.706 134.171 33.7602 134.451 33.7873C134.739 33.8144 135.145 33.8416 135.695 33.8687C135.984 33.8777 137.471 33.8958 140.149 33.8958C142.836 33.8958 144.225 33.8958 144.333 33.8958C144.558 33.8777 144.757 33.8054 144.919 33.6609C145.081 33.5163 145.171 33.435 145.189 33.417C145.216 33.417 145.451 33.4441 145.893 33.4983C146.335 33.5525 146.731 33.6699 147.074 33.8506C147.299 33.968 147.389 34.1939 147.353 34.5372C147.317 34.8714 147.164 35.0611 146.921 35.0882C146.695 35.1154 146.47 35.1244 146.253 35.1244C146.037 35.1244 145.766 35.1154 145.451 35.0882C145.117 35.0521 144.54 35.016 143.72 34.9889C142.89 34.9618 141.898 34.9527 140.717 34.9527V37.4371C141.177 37.4281 141.682 37.401 142.214 37.3829C142.746 37.3558 143.341 37.3197 143.99 37.2835C143.927 38.1327 143.9 38.8283 143.909 39.3704C143.918 39.9124 143.936 40.6171 143.945 41.4753C142.629 41.4121 141.376 41.385 140.203 41.4121C139.022 41.4392 138.292 41.4573 137.985 41.4753C137.958 41.6379 137.94 41.8457 137.931 42.1077C137.931 42.3697 137.949 42.6407 138.003 42.9027C138.003 43.1015 138.039 43.2279 138.121 43.2821C138.202 43.3363 138.31 43.3634 138.454 43.3634C138.49 43.3725 138.869 43.4086 139.581 43.4538C140.294 43.4989 141.051 43.4809 141.844 43.3815C142.07 43.3544 142.25 43.2821 142.376 43.1557C142.512 43.0292 142.584 42.9569 142.593 42.9479C142.62 42.9479 142.845 42.975 143.26 43.0292C143.675 43.0834 144.053 43.1918 144.378 43.3634C144.612 43.4538 144.721 43.6616 144.685 43.9687C144.648 44.2759 144.504 44.4475 144.234 44.4746C144.026 44.4927 143.819 44.5017 143.612 44.5017C143.404 44.5017 143.152 44.5017 142.845 44.4927C142.241 44.4566 141.321 44.4475 140.113 44.4656C138.896 44.4837 138.247 44.5017 138.148 44.5198C137.688 44.5198 137.246 44.4656 136.84 44.3482C136.435 44.2307 136.263 43.8513 136.344 43.2099C136.408 42.984 136.435 42.7582 136.408 42.5233C136.38 42.2884 136.371 42.1709 136.371 42.1529C136.371 41.7825 136.344 41.5386 136.29 41.4121C136.236 41.2856 136.101 41.2043 135.876 41.1591C135.569 41.114 135.425 40.9604 135.443 40.7074C135.461 40.4545 135.605 40.328 135.903 40.328C135.984 40.328 136.696 40.3551 138.039 40.4003C139.392 40.4454 140.798 40.4093 142.259 40.2919C142.322 39.9847 142.358 39.6866 142.358 39.3885C142.358 39.0903 142.331 38.8012 142.277 38.5031C141.312 38.476 140.519 38.458 139.879 38.4489C139.248 38.4308 138.662 38.4851 138.139 38.5844C138.049 38.5935 137.913 38.6386 137.751 38.7019C137.589 38.7651 137.498 38.8012 137.48 38.8012C137.021 38.6928 136.561 38.476 136.11 38.1508C135.794 37.8888 135.695 37.6539 135.821 37.4642C135.948 37.2745 136.164 37.2022 136.489 37.2564C136.822 37.2926 137.084 37.3287 137.273 37.3468C137.462 37.3648 137.787 37.3919 138.238 37.419C138.4 37.4371 138.553 37.4371 138.716 37.4371H139.176V34.9979C138.617 34.9979 138.039 34.9979 137.417 35.0069L137.408 34.9708Z" fill="black"/>
<path d="M159.49 31.1764C159.264 32.0979 159.012 32.8387 158.714 33.4079C158.543 33.7692 158.309 33.8957 158.002 33.8054C157.696 33.715 157.578 33.5434 157.641 33.2904C157.822 32.5496 157.975 31.7998 158.092 31.059C158.209 30.3092 158.3 29.6858 158.354 29.198C158.372 29.0083 158.354 28.8728 158.318 28.7734C158.282 28.674 158.191 28.6198 158.065 28.6198C158.038 28.6198 157.723 28.6017 157.128 28.5746C156.523 28.5385 155.721 28.5746 154.72 28.683C154.612 28.7011 154.495 28.7463 154.359 28.8095C154.215 28.8818 154.143 28.927 154.134 28.936C154.116 28.936 153.963 28.8818 153.665 28.7824C153.368 28.6831 153.025 28.4933 152.646 28.1952C152.286 27.9152 152.187 27.6803 152.349 27.4725C152.511 27.2647 152.764 27.2015 153.097 27.2828C153.548 27.337 153.819 27.3731 153.909 27.3821C153.999 27.4002 154.359 27.4273 154.982 27.4815C155.27 27.4996 155.766 27.4996 156.451 27.4815C157.146 27.4635 157.732 27.4544 158.209 27.4364C158.3 27.4364 158.417 27.4002 158.552 27.3279C158.687 27.2557 158.768 27.2105 158.778 27.2015C158.805 27.2015 158.931 27.2376 159.156 27.2918C159.382 27.355 159.553 27.4544 159.688 27.599C159.859 27.7796 159.968 27.9694 160.013 28.1591C160.058 28.3488 160.058 28.6198 160.004 28.9631C159.887 29.5051 159.715 30.2369 159.49 31.1584V31.1764ZM164.431 43.4176C164.395 43.7338 164.25 43.9054 163.989 43.9325C163.782 43.9596 163.574 43.9687 163.367 43.9687C163.159 43.9687 162.916 43.9687 162.627 43.9506L158.264 43.9687C157.831 43.9687 157.416 43.8964 157.01 43.7518C156.614 43.6073 156.46 43.1737 156.559 42.46C156.65 41.8999 156.677 41.4211 156.641 40.9965C156.605 40.5809 156.578 40.3641 156.559 40.355C156.559 40.0479 156.523 39.813 156.451 39.6504C156.379 39.4878 156.091 39.3432 155.595 39.2258C155.342 39.1625 155.243 39.009 155.288 38.756C155.333 38.5121 155.532 38.4037 155.892 38.4308C155.919 38.4308 156.163 38.4489 156.614 38.485C157.073 38.5211 157.488 38.5753 157.876 38.6566C157.93 38.6657 158.02 38.6837 158.137 38.6928C158.255 38.7018 158.318 38.7108 158.336 38.7108C158.327 38.7199 158.282 38.8825 158.228 39.1897C158.173 39.4968 158.137 39.7678 158.137 40.0027C158.137 40.0388 158.137 40.3279 158.119 40.8519C158.11 41.3759 158.137 41.8547 158.218 42.2883C158.218 42.4961 158.255 42.6316 158.336 42.6768C158.417 42.722 158.525 42.7491 158.651 42.7491C158.687 42.7491 158.994 42.7671 159.562 42.8033C160.13 42.8394 160.815 42.8304 161.618 42.7762C161.825 42.7581 161.996 42.6949 162.123 42.5774C162.249 42.46 162.312 42.3967 162.312 42.3787C162.348 42.3787 162.582 42.3967 163.015 42.4509C163.448 42.4961 163.827 42.6045 164.151 42.7762C164.377 42.8936 164.467 43.1104 164.44 43.4266L164.431 43.4176ZM163.096 38.232C163.096 38.5663 163.06 38.8283 162.988 39.027C162.916 39.2258 162.835 39.3613 162.736 39.4245C162.655 39.4878 162.528 39.5329 162.33 39.551C162.141 39.5691 161.996 39.542 161.906 39.4607C161.825 39.3974 161.762 39.3161 161.708 39.2077C161.654 39.1083 161.627 38.9548 161.627 38.7379V27.5628C161.627 27.3008 161.591 27.0479 161.518 26.7949C161.446 26.551 161.176 26.3613 160.698 26.2348C160.364 26.1445 160.238 25.9728 160.301 25.7289C160.364 25.485 160.581 25.3856 160.932 25.4218C160.941 25.4218 161.158 25.4398 161.564 25.4669C161.969 25.5031 162.42 25.5844 162.907 25.7289C162.952 25.747 163.078 25.7741 163.304 25.8283C163.304 25.8554 163.268 26.0812 163.196 26.5058C163.123 26.9304 163.087 27.2918 163.087 27.599V31.6101H163.187C163.349 31.592 163.52 31.5197 163.7 31.3933C163.881 31.2668 163.98 31.1945 163.98 31.1764C164.007 31.1764 164.214 31.1945 164.602 31.2397C164.99 31.2758 165.359 31.3933 165.702 31.5739C165.927 31.6914 166.018 31.9082 165.982 32.2154C165.946 32.5316 165.792 32.6942 165.549 32.7032C165.323 32.7213 165.107 32.7213 164.9 32.7213H163.096V38.223V38.232ZM158.462 35.1063C159.219 35.0069 159.868 34.8985 160.427 34.781C160.707 34.7178 160.842 34.8262 160.851 35.1063C160.851 35.3953 160.743 35.576 160.509 35.6664C159.517 35.9555 158.534 36.1723 157.578 36.3078C156.614 36.4433 155.441 36.5607 154.053 36.6601C153.936 36.6782 153.8 36.7234 153.656 36.7956C153.512 36.8769 153.431 36.9221 153.422 36.9311C153.413 36.9311 153.241 36.886 152.926 36.7956C152.61 36.7053 152.241 36.4885 151.817 36.1632C151.555 35.9555 151.474 35.7477 151.591 35.5489C151.709 35.3502 151.916 35.2779 152.214 35.3321C152.583 35.3863 152.881 35.4225 153.106 35.4405C153.332 35.4586 153.665 35.4767 154.098 35.4857H154.387C154.513 35.4857 154.657 35.4857 154.81 35.4676V33.0465C154.81 32.7845 154.783 32.5225 154.72 32.2696C154.666 32.0166 154.459 31.854 154.098 31.7908C153.819 31.7275 153.701 31.5649 153.755 31.312C153.8 31.059 153.999 30.9416 154.341 30.9596C154.35 30.9596 154.549 30.9687 154.919 30.9867C155.288 31.0048 155.703 31.068 156.145 31.1764C156.181 31.1945 156.253 31.2035 156.343 31.2307C156.433 31.2487 156.487 31.2578 156.505 31.2578C156.487 31.2849 156.46 31.5197 156.406 31.9714C156.352 32.4231 156.325 32.7755 156.325 33.0465V35.3502C157.01 35.2869 157.732 35.1966 158.489 35.0972L158.462 35.1063Z" fill="black"/>
<path d="M32.523 44.0589C32.5501 42.9387 31.5583 42.4147 31.405 43.011C31.2517 43.6072 30.8099 43.6343 30.7017 42.9297C30.5935 42.225 30.2599 42.8484 30.2599 42.8484C29.8452 43.5259 29.5025 42.5051 29.5566 41.7733C29.6107 41.0506 29.3222 40.1291 29.737 40.3098C30.1517 40.4995 29.8902 39.2799 29.8902 39.2799C29.4214 38.4398 29.9714 38.0152 30.0706 38.0423C30.1788 38.0694 30.5665 38.1236 30.5665 37.8345C30.5665 37.7261 30.5484 37.6357 30.5124 37.5635C30.2148 37.2382 29.8632 37.3105 29.4394 37.2563C27.9337 36.5155 26.3919 35.6573 24.4985 36.0186C24.3903 36.0999 24.2009 36.0909 24.1829 36.2716C24.8771 36.6239 25.6706 36.6962 26.2206 37.3286V37.455C25.5985 37.4912 24.7689 37.3647 24.1288 37.5454C23.8403 37.4551 23.7231 37.7261 23.4526 37.6538C22.9026 37.8616 22.2985 38.1145 21.8296 38.6114C21.7755 38.6475 21.7395 38.7198 21.6673 38.7379C21.7575 38.5572 21.8837 38.3675 21.8296 38.1507C21.4058 37.7261 20.8739 37.455 20.4862 36.9853C20.0083 36.7865 19.5124 37.3557 19.1247 36.9853C19.0706 36.7052 19.1247 36.3619 18.8362 36.2264C17.7723 36.2445 17.051 37.1118 16.2124 37.717C16.0682 37.7532 15.951 37.6809 15.8969 37.5635C15.8969 37.3828 15.8067 37.2292 15.6895 37.0756C15.0493 37.2021 14.6797 37.9158 14.346 38.4217C14.1477 38.8463 13.9313 39.2619 13.7961 39.7045H13.742L13.9313 37.6628C13.5346 37.5093 13.192 37.1027 12.6961 37.2473V37.2744C12.8313 37.2563 12.9215 37.2473 12.9305 37.2563L11.028 37.2924L10.6133 37.8526L10.8207 45.5676L13.2911 46.1097C13.3092 45.8477 13.6067 45.7212 13.787 45.5947C14.0215 45.0798 13.769 43.9776 13.769 43.4356C13.6428 41.8366 13.6788 40.2014 14.7247 39.0721C15.1305 39.0541 15.0764 39.5871 15.3739 39.7497C16.0141 39.289 16.2575 38.494 17.0059 38.1145C17.61 37.9068 17.6821 38.6656 17.9346 38.9637C18.1419 39.1625 18.3403 38.9095 18.5747 38.9457C18.755 38.9999 18.7821 39.1806 18.8001 39.3161C18.719 40.8067 18.5477 42.4509 19.1157 43.7518C19.4854 44.5468 20.0173 45.2514 20.4231 46.0193C20.3149 46.2452 19.9813 46.1458 19.7829 46.1277C19.4854 46.0916 19.1788 45.8477 18.8632 46.0193C18.9714 46.9769 19.9993 47.5461 20.4231 48.3591C20.1075 48.7837 19.4313 48.4314 19.0436 48.7657C19.0616 49.389 19.855 49.7052 20.0354 50.2924C19.7378 50.5996 19.2239 50.437 18.8632 50.3647C18.5387 50.3105 18.0969 50.0576 17.8354 50.3286C17.8895 50.97 18.4395 51.3946 18.719 51.9276C18.8091 51.9637 18.8632 51.8915 18.9173 51.8734C19.0075 51.7469 22.9747 51.9095 23.4165 51.232C23.3985 50.7532 22.8214 50.6628 22.5329 50.4008C22.3706 50.2292 22.055 50.1389 22.064 49.8498C22.1542 49.7956 22.2083 49.6872 22.2985 49.651C22.6501 49.4071 23.3263 49.5607 23.4165 49.0096C23.0739 48.7115 22.6681 48.5489 22.2985 48.314C22.1272 48.1243 21.6763 47.9617 21.7845 47.6455C22.064 47.5732 22.2985 47.3925 22.6231 47.4106C22.9116 47.3383 23.2993 47.3383 23.4165 47.0763C23.1009 46.6336 22.5509 46.5072 22.1452 46.1729C21.9108 45.9109 21.487 45.7664 21.469 45.3779C22.037 45.0527 22.569 45.4863 23.164 45.2514C23.2362 45.1611 23.4796 45.1972 23.4165 45.0075C22.605 44.3842 21.6583 43.7518 21.3067 42.7761C21.3067 42.5593 21.1624 42.3334 21.3067 42.1347C21.8927 42.5954 22.4517 43.1104 23.2181 43.1104C23.3083 43.0742 23.4796 43.0562 23.4075 42.8935C23.137 42.5593 22.8395 42.225 22.6501 41.8275C22.4788 41.2222 22.5149 40.4544 23.0017 40.0117C23.3534 39.6774 23.7862 39.5329 24.2099 39.3703C24.6517 39.2619 25.0034 39.4606 25.4001 39.298C25.328 39.027 25.0124 38.8915 24.778 38.7831C23.6419 38.4036 22.4247 38.8373 21.5772 39.6142L21.5411 39.5781C21.7304 38.6927 22.7042 38.1958 23.4526 37.8887C23.9665 37.8887 24.4624 37.6448 25.0485 37.7261C25.2648 37.8525 25.5263 37.7441 25.7247 37.8887C25.923 37.8164 25.9952 38.0332 26.1665 37.979C27.0321 38.1687 27.6181 39.027 28.5197 39.0992C29.2952 39.7768 29.2411 40.8609 29.223 41.8817L29.1509 41.954C29.1148 42.6587 28.7812 43.3362 28.4476 43.9596C28.2673 44.3029 27.9788 44.6191 28.0058 44.9894C28.7452 44.9894 29.2411 44.3842 29.8812 44.1493C29.9714 44.2216 30.0074 44.2938 29.9804 44.4022C29.6829 45.396 28.9525 46.2 28.2853 47.0311V47.248C28.637 47.3022 29.0697 47.3383 29.3853 47.1938C29.5927 47.266 29.8452 47.0221 29.9804 47.2841C29.7911 48.0159 29.0607 48.5127 28.6009 49.118C28.5648 49.8949 29.6648 49.1903 29.9804 49.7233C29.8812 50.2563 29.3312 50.6086 29.0607 51.0694C29.3583 51.0694 29.6919 50.8977 29.9534 51.1236C29.9804 51.3043 29.9173 51.5301 29.755 51.6385C29.746 51.8011 29.9173 51.8011 29.9894 51.9186C30.9632 51.9908 34.3804 52.0631 34.5787 51.8644C34.8132 51.3856 34.2091 51.2049 34.0107 50.9248C33.8845 50.6899 34.1189 50.4822 34.0287 50.2653C33.8123 50.3015 33.5148 50.446 33.3074 50.2653C33.1091 49.6962 32.2615 49.7143 32.2615 49.0457C32.496 48.585 32.8115 48.1785 32.9468 47.6726C32.9648 47.519 33.1091 47.3022 32.9107 47.1938C32.7214 47.2209 32.3968 47.1576 32.2255 47.3564C32.0632 47.3744 31.7837 47.4828 31.6755 47.248C31.9009 46.3807 32.4148 45.6309 32.6673 44.7636C32.6673 44.7275 32.6673 44.6913 32.6673 44.6552C32.5681 44.6913 32.523 44.592 32.541 44.0409L32.523 44.0589ZM19.3321 41.8998C19.2059 41.4933 19.1337 40.9603 19.26 40.5357C19.3141 40.1653 19.8821 39.9846 19.9903 40.4273C20.0534 41.3487 20.2337 42.2612 20.3419 43.1104C19.7288 43.02 19.5665 42.3425 19.3321 41.8998ZM23.6329 38.9908C23.696 39.027 23.7771 39.0812 23.8763 39.0631C23.7681 39.289 23.4526 39.3793 23.2362 39.5419L22.9116 39.7949C22.9567 39.6684 22.8575 39.5058 22.7222 39.4425C22.6321 39.4425 22.5149 39.4787 22.4427 39.4245C22.8034 39.1896 23.1911 39.0179 23.6329 38.9999V38.9908ZM31.6033 44.1402C31.5492 44.1583 31.5042 44.1222 31.4591 44.1764C31.2697 43.8421 31.5853 43.553 31.5312 43.2188C31.7476 42.9839 32.0091 43.3272 32.0451 43.544C32.0632 43.806 31.7656 43.9867 31.6033 44.1402Z" fill="#939598"/>
<path d="M10.9556 38.5483C9.68431 39.6143 8.16054 40.1564 6.37531 40.1564C3.55319 40.1564 2.14664 40.6081 2.14664 41.5115C2.14664 41.9993 2.27287 42.3426 2.51631 42.5323C2.82287 42.7762 3.35483 42.9027 4.13024 42.9027H9.12529C12.4704 42.9027 14.1384 44.05 14.1384 46.3537C14.1384 48.1244 13.3359 49.4343 11.713 50.2835L10.8654 49.1272C11.6318 48.6213 12.0195 48.025 12.0195 47.3475C12.0195 45.8207 10.5679 45.1431 7.66465 45.2967C4.76138 45.4593 3.02123 45.4322 2.46221 45.2245C0.821237 44.9083 0.00976562 43.9778 0.00976562 42.4329C0.00976562 40.8881 1.07369 39.8673 3.20155 39.4156V39.3614C2.29992 39 1.58763 38.3315 1.06468 37.3287C0.604845 36.4434 0.388452 35.4677 0.388452 34.3926C0.388452 32.7936 1.04665 31.4204 2.36303 30.2912C3.61631 29.2161 5.06794 28.6831 6.6999 28.6831C8.43104 28.6831 9.89168 29.2523 11.0818 30.3996C12.281 31.5469 12.8761 32.8749 12.8761 34.3746C12.8761 36.082 12.245 37.4732 10.9736 38.5483H10.9556ZM8.9089 31.1675C8.27776 30.3183 7.51137 29.8937 6.58268 29.8937C5.654 29.8937 4.91466 30.3183 4.29253 31.1675C3.66139 32.0167 3.34581 33.1279 3.34581 34.501C3.34581 35.8742 3.66139 36.9583 4.29253 37.8075C4.92368 38.6567 5.68105 39.0813 6.58268 39.0813C7.48432 39.0813 8.27776 38.6567 8.9089 37.8075C9.54005 36.9583 9.8466 35.8561 9.8466 34.501C9.8466 33.1459 9.53103 32.0167 8.9089 31.1675Z" fill="#231F20"/>
<path d="M43.8375 43.3545C43.0801 43.3545 42.6654 42.7853 42.6654 42.1168V35.0793C42.6654 33.2454 42.4039 31.1766 39.3203 30.3455C36.4712 29.5776 33.5048 30.5171 33.5048 30.5171C33.5048 30.5171 33.6761 29.704 33.64 29.3065V25.5935C33.64 24.7805 33.5499 23.9945 33.3064 23.2628C32.7745 21.6095 31.1695 19.9924 28.5909 19.9924C24.8851 19.9924 23.7852 23.0008 23.7852 23.0008C23.7852 23.0008 22.5589 19.9924 19.2229 19.9924C15.5081 19.9924 14.4442 22.8924 14.4442 22.8924V20.4261H11.1172V34.745H13.3442C13.8311 34.745 13.9844 34.6547 14.2278 34.465C14.4713 33.5977 14.6155 32.5498 14.3631 31.6373C14.9131 28.3038 13.3532 23.4886 17.0409 21.9348C18.159 21.465 19.3581 21.8263 20.1606 22.6484C20.4491 22.9104 20.6204 23.2176 20.7557 23.5338C21.2245 24.8979 20.8458 26.3885 20.954 27.843C20.5483 28.7284 21.4139 29.7402 20.6385 30.5171C20.6204 31.0682 21.3778 31.6012 20.7466 32.0981C20.1967 32.613 19.6016 32.9653 18.8893 33.0737C18.709 33.3267 18.5376 33.6429 18.6909 33.941C18.8893 34.1036 19.1688 34.1127 19.313 34.3475C19.3671 34.4921 19.1868 34.6095 19.3221 34.6999C20.5483 34.2933 21.8376 34.0856 23.154 33.8958C23.4696 33.6158 24.1999 33.399 24.0196 32.9021C23.8032 32.6401 23.2802 32.4775 23.3794 32.089C23.5778 31.6464 24.3171 31.3121 23.9835 30.7701C23.7671 30.5442 23.6319 30.237 23.7311 29.9028C24.5786 29.2162 23.5417 28.2857 24.0106 27.4726C24.2089 26.9396 23.9294 26.4247 24.0106 25.8555C23.9745 24.4914 24.3983 23.2537 25.5343 22.4316C26.5532 21.6999 28.131 21.5463 29.2671 22.1425C30.9441 23.064 30.4573 25.0154 30.5384 26.6686C30.3851 27.6081 30.7548 28.5838 30.3491 29.4601C30.4933 30.0835 30.7728 30.8604 30.1327 31.3392C30.0064 32.0168 30.7368 32.4594 30.4663 33.0557C30.2409 33.2183 29.8622 33.2364 29.745 33.5345C29.745 33.8055 29.8351 34.0313 30.0245 34.212C30.5023 33.7874 31.1515 34.2482 31.6835 34.3746C32.1253 34.5553 32.6031 34.8354 33.081 34.727C33.3966 34.483 33.7482 34.2301 34.19 34.3746C34.4695 34.4831 34.7581 34.5734 35.0556 34.6547C35.254 34.2843 35.2179 33.8055 35.0646 33.417C34.5687 33.5435 34.0187 33.2725 33.7392 32.8479C33.6761 32.5317 33.4507 32.1071 33.6761 31.818C34.4695 31.2489 35.5335 31.7638 36.4531 31.4657C37.6974 31.5199 39.131 31.7006 39.5728 33.0466C39.8252 33.8416 39.6449 34.7992 39.6088 35.6484C38.8695 36.1272 37.9228 35.6846 37.1294 35.9104C36.8318 36.1272 36.5253 36.4615 36.1015 36.2808C35.7499 36.1905 35.4433 35.9466 35.0195 36.0369C34.5777 36.2537 34.6949 37.0849 34.0638 36.8861C33.613 36.7054 33.2433 36.335 32.7204 36.3531C32.3327 36.7054 32.7023 37.383 32.4048 37.7895H32.1163C31.6023 37.4733 31.1425 37.0126 30.5204 36.9222C30.4032 37.0487 30.3671 37.2384 30.4392 37.4011C30.4933 37.4372 30.4573 37.5004 30.4573 37.5456C30.4933 37.6179 30.5114 37.7082 30.5114 37.8166C30.5114 38.1057 30.1236 38.0515 30.0155 38.0244C29.9163 37.9973 29.3663 38.4219 29.8351 39.2621C29.8351 39.2621 30.0966 40.4726 29.6818 40.2919C29.2671 40.1113 29.5466 41.0237 29.5015 41.7555C29.4474 42.4872 29.79 43.5081 30.2048 42.8305C30.2048 42.8305 30.5474 42.2072 30.6466 42.9118C30.7548 43.6165 31.1966 43.5894 31.3499 42.9931C31.5032 42.3878 32.4949 42.9118 32.4679 44.0411C32.4499 44.5922 32.495 44.6915 32.5941 44.6554C32.6392 44.0772 33.3515 43.9869 33.6761 43.5532C34.4515 43.3726 34.1179 44.4566 34.6949 44.6012C35.2089 44.4386 35.5695 43.8152 36.0564 43.5532C36.5703 43.3906 36.5884 44.1947 37.0843 44.1495C37.9498 43.8514 38.2293 42.3607 39.3654 42.6769C39.5457 42.6047 39.69 42.424 39.8433 42.3517C39.9965 42.957 39.9425 43.7249 39.8252 44.3934H44.3605V43.3274H43.7744L43.8375 43.3545ZM32.6482 41.1953C32.2966 41.1773 32.0802 40.834 31.9179 40.5539C31.7105 40.1113 31.7827 39.5602 31.7286 39.0633C31.972 38.8013 32.1704 39.2711 32.3687 39.4337C32.5761 39.8944 32.8827 40.319 32.9367 40.8521C32.9007 40.9966 32.7925 41.114 32.6572 41.1953H32.6482ZM39.4285 40.5901C39.0769 40.8159 38.6621 41.105 38.4187 41.4935C38.1212 41.9181 37.8867 42.7673 37.1925 42.6589C36.922 42.4963 36.7326 42.0355 36.381 42.1801C35.9031 42.4149 35.6867 43.1557 35.1097 43.0112C34.6679 42.7402 34.6318 41.8729 33.9556 42.0897C33.8113 42.162 33.649 42.2343 33.5048 42.1349C33.1892 41.6019 32.8827 40.9334 33.1531 40.2558C33.4146 39.4698 33.1531 38.4761 33.3605 37.663C33.4326 37.4824 33.7031 37.5185 33.8294 37.6088C34.2171 37.7895 34.5867 38.3767 35.0285 38.0515C35.3351 37.7534 35.3441 36.85 36.0564 37.2023C36.3539 37.3649 36.7056 37.5366 37.1023 37.4462C37.7244 36.4163 38.8334 37.4282 39.69 36.9313C39.7441 38.1238 40.0416 39.5421 39.4195 40.572L39.4285 40.5901Z" fill="#231F20"/>
<path d="M50.3473 0.307136C50.3293 0.108387 50.3022 0.00901256 50.2211 -2.14903e-05C50.1399 -0.0180896 50.0858 0.0451488 49.9776 0.271L38.2654 24.7894C38.1572 25.0153 38.1482 25.0875 38.2023 25.1508C38.2564 25.1959 38.3465 25.1688 38.5179 25.0514C39.5998 24.3106 44.5498 20.7693 47.7326 14.2557C50.7981 7.68796 50.4375 1.61707 50.3383 0.298102L50.3473 0.307136Z" fill="#00AEEF"/>
</g>
<defs>
<clipPath id="clip0_73_93">
<rect width="166" height="52" fill="white"/>
</clipPath>
</defs>
</svg>
