<svg width="115" height="18" viewBox="0 0 115 18" fill="none" xmlns="http://www.w3.org/2000/svg">
<path d="M114.893 9.12842L111.524 9.08587V11.3516C111.524 14.2663 111.009 16.4044 110.763 17.0426C110.602 17.2235 110.226 17.3298 110.001 17.266C109.862 16.7554 109.572 15.1705 109.572 12.5324V2.34177C109.572 1.91627 108.36 1.03337 107.909 0.895084C107.791 0.852534 108.177 0.405764 108.295 0.405764C109.218 0.405764 111.642 0.958908 111.589 1.3844C111.546 1.67161 111.524 2.01201 111.524 2.38432V8.2136L114.078 7.21369C114.303 7.12859 115.312 9.12842 114.904 9.12842M107.898 10.2347C108.252 10.724 107.297 12.7983 106.954 12.309C106.461 11.6176 105.109 9.57519 103.896 8.2136C102.276 10.4581 100.259 12.2664 98.4462 13.2238C98.2209 13.2025 97.9527 12.8728 97.9527 12.6707C100.195 10.6921 102.727 7.22433 103.789 4.06502C103.853 3.88419 103.092 3.33104 102.759 3.12893C102.652 3.06511 103.113 2.72471 103.231 2.72471C103.843 2.72471 105.538 3.41614 105.946 3.70335C106.171 3.86291 106.192 3.96929 106.085 4.23522C105.634 5.3947 105.034 6.50099 104.358 7.52217C105.881 8.56464 107.566 9.76666 107.898 10.2347ZM97.0086 9.31989L93.6183 9.25607V11.3516C93.6183 14.2663 93.1463 16.4044 92.878 17.0426C92.7171 17.2235 92.3416 17.3298 92.1378 17.266C91.9768 16.7554 91.7086 15.1705 91.7086 12.5324V2.34177C91.7086 1.91627 90.4963 1.07592 90.0457 0.895084C89.9384 0.852534 90.3139 0.405764 90.4319 0.405764C91.3546 0.405764 93.7256 0.958908 93.6827 1.3844C93.6612 1.67161 93.6183 2.01201 93.6183 2.38432V8.39444L96.1825 7.4158C96.4292 7.30943 97.4377 9.30926 97.0086 9.30926M85.9902 10.3198C86.9344 10.3198 87.6317 9.67093 87.6317 8.67101C87.6317 7.6711 86.9773 7.00094 85.9902 7.00094C85.0032 7.00094 84.3488 7.6711 84.3488 8.67101C84.3488 9.67093 85.0032 10.3198 85.9902 10.3198ZM82.7824 1.82054C82.7609 1.73544 82.8682 1.45886 82.9862 1.4695C83.6621 1.59715 84.3488 1.71416 85.207 1.82054L87.2991 2.04392C87.4815 2.0652 88.2862 3.16085 87.7497 3.16085H84.5848C84.0484 3.16085 82.8146 2.00137 82.7716 1.82054M80.6796 4.29905C80.6581 4.23522 80.7868 4.01184 80.8405 4.03311C81.1945 4.16076 82.4498 4.19267 83.6407 4.1714L87.9214 4.12885C89.1552 4.10757 89.52 3.50124 89.7131 3.50124C89.9169 3.50124 90.7001 4.57562 90.7001 5.07558C90.7001 5.16068 90.6143 5.21386 90.4748 5.21386C90.271 5.21386 89.0801 5.15004 88.136 5.15004L83.5334 5.17131C82.7931 5.17131 82.2996 5.33087 82.0743 5.53298C81.4949 5.37342 80.7761 4.51179 80.701 4.28841M90.904 12.6388C89.0586 13.4791 85.5182 13.9684 83.0935 14.2663C82.4391 14.3514 82.0421 14.4684 81.6559 14.6918C81.0336 14.5322 80.1324 13.628 80.0466 13.2876C80.068 13.1813 80.1538 13.0855 80.2075 13.0217C80.8834 13.0217 81.8704 13.043 83.0613 12.9792C83.8016 12.9366 84.4989 12.8941 85.1319 12.8409L85.0139 11.0857C83.4475 10.8198 82.482 9.90495 82.482 8.6391C82.482 7.25624 83.6943 6.32015 85.604 6.21378C85.6255 6.12868 85.6469 6.07549 85.6469 5.99039C85.6469 5.83083 85.604 5.63936 85.3787 5.4798C85.3787 5.09685 86.6125 5.4798 86.6125 5.68191C86.6125 5.76701 86.5052 6.01167 86.4516 6.21378C88.3184 6.34143 89.4985 7.27751 89.4985 8.6391C89.4985 9.90495 88.49 10.8198 86.9451 11.0857L86.8593 12.6707C88.8119 12.4473 90.1315 12.1388 91.0113 11.8516C91.1936 11.7878 91.1185 12.5217 90.8932 12.6281M67.5262 2.71408L67.5047 6.11804H72.2897L72.4078 2.71408H67.5155H67.5262ZM64.4256 1.95882C64.4042 1.85245 64.6938 1.51205 64.8333 1.51205C65.1874 1.51205 66.4104 1.5546 67.2151 1.69289H71.7748C72.3541 1.69289 72.6545 1.60779 72.8798 1.40568C73.1266 1.32058 74.7251 1.56524 74.693 1.83117L74.0171 5.92657C74.3067 6.1925 74.693 6.72437 74.693 7.01158C74.693 7.09668 74.6071 7.14987 74.4677 7.14987C74.2638 7.14987 73.5021 7.12859 72.3541 7.12859H67.3009C67.1722 7.35198 67.0112 7.55409 66.8288 7.76683C66.6465 7.94767 66.3139 8.03277 66.0671 7.96894C65.8633 7.47962 65.6916 6.54354 65.5521 4.85219L65.3697 2.73535C65.3483 2.53324 64.7689 2.08647 64.4256 1.95882ZM75.8087 16.4257C75.8087 16.5108 75.7444 16.564 75.5834 16.564H73.4699L67.1829 16.5852C65.4341 16.5852 65.0908 15.9895 65.0908 14.8301V13.0962C65.0908 12.7877 64.4364 12.2558 64.0608 12.2026C63.9428 12.1814 64.3505 11.6708 64.5114 11.6708C65.2303 11.6708 66.3031 11.8303 66.8396 12.0324C66.9469 12.075 67.1078 12.1388 67.0649 12.3622C67.022 12.6281 67.022 13.0111 67.022 13.3408V14.8513C67.022 15.4789 67.2473 15.564 67.8051 15.564L73.0837 15.5428C74.1994 15.5428 74.5642 14.9258 74.7037 14.9258C74.9934 14.9258 75.8087 15.947 75.8087 16.415M77.8043 9.83049C77.8043 9.93686 77.7184 9.99005 77.579 9.99005H71.0667V11.1708C71.0667 12.3728 70.6161 13.4153 70.3049 13.8833C70.144 14.0642 69.79 14.1493 69.5647 14.0854C69.3823 13.5323 69.1141 12.7983 69.1141 11.458V9.99005H64.7368C63.9965 9.99005 63.503 10.1922 63.2777 10.3943C62.6983 10.2347 61.5289 9.33053 61.5289 9.12842C61.5289 9.04332 61.6362 8.81994 61.6898 8.84121C62.0439 8.96886 63.2991 8.9795 64.49 8.9795L74.5642 8.95822C75.8409 8.95822 76.2701 8.24552 76.431 8.24552C76.6563 8.24552 77.8043 9.33053 77.8043 9.81985M49.1051 4.67136C49.1051 5.97975 49.9634 6.85202 51.2616 6.85202C52.5597 6.85202 53.5468 5.97975 53.5468 4.67136C53.5468 3.36296 52.6241 2.49069 51.283 2.49069C49.9419 2.49069 49.1051 3.37359 49.1051 4.67136ZM47.1525 4.73518C47.1525 2.90555 48.633 1.68225 50.9182 1.5546C50.9397 1.49078 50.9612 1.43759 50.9612 1.37377C50.9612 1.19293 50.9182 0.99082 50.65 0.799347C50.65 0.395126 52.0233 0.799347 52.0233 1.02273C52.0233 1.10783 51.916 1.35249 51.8624 1.5546C54.0403 1.71416 55.4779 2.93746 55.4779 4.73518C55.4779 6.62863 53.815 7.87321 51.3259 7.87321C48.8369 7.87321 47.1525 6.62863 47.1525 4.73518ZM59.4475 10.2985C59.4475 10.3836 59.3617 10.4368 59.2222 10.4368H54.7591V11.4155C54.7591 14.1705 54.2656 16.3087 53.9974 16.9363C53.8364 17.1171 53.4609 17.2022 53.2571 17.1596C53.0962 16.6491 52.8065 15.0641 52.8065 12.5962V10.4368L49.663 10.4581V11.0751C49.663 13.8089 49.1695 15.947 48.9227 16.5746C48.7618 16.7554 48.3863 16.8405 48.161 16.798C48.0215 16.2874 47.7318 14.7024 47.7318 12.2558V10.4581H46.38C45.6397 10.4581 45.1462 10.6602 44.9209 10.8623C44.3416 10.7028 43.1721 9.79858 43.1721 9.57519C43.1721 9.51137 43.2794 9.28798 43.3331 9.30926C43.6871 9.42627 44.9424 9.44754 46.1333 9.44754L56.2075 9.40499C57.4842 9.40499 57.9133 8.69229 58.0743 8.69229C58.2996 8.69229 59.4475 9.78794 59.4475 10.2773M30.9093 3.85228C30.9093 4.9692 31.7568 5.76701 33.0228 5.76701C34.2888 5.76701 35.1364 4.9692 35.1364 3.85228C35.1364 2.73535 34.2888 1.9801 33.0228 1.9801C31.7568 1.9801 30.9093 2.75663 30.9093 3.85228ZM28.9567 3.93738C28.9567 2.33113 30.3728 1.16102 32.5722 1.02273C32.5937 0.916358 32.6366 0.841897 32.6366 0.735523C32.6366 0.554687 32.5722 0.363214 32.3255 0.182379C32.3255 -0.243117 33.6987 0.182379 33.6987 0.384489C33.6987 0.512138 33.5593 0.78871 33.4734 1.01209C35.6513 1.15038 37.1104 2.32049 37.1104 3.92674C37.1104 5.61808 35.4475 6.82011 33.0228 6.82011C30.5981 6.82011 28.9567 5.61808 28.9567 3.92674M38.6983 16.7554C38.6983 16.8618 38.6125 16.8937 38.473 16.8937H30.4801C29.1069 16.8937 28.6241 16.4257 28.5919 15.3619L28.549 14.0003C28.549 13.7982 28.0125 13.5323 27.6692 13.3834C27.6478 13.277 27.9589 12.9366 28.1198 12.9366C28.5061 12.9366 29.9759 13.0217 30.5016 13.2025H35.705L35.7264 11.5537H30.523C29.8901 11.5537 29.4716 11.7133 29.2463 11.9261C28.5061 11.8197 27.9053 10.8623 27.8945 10.724C27.8731 10.6177 27.9804 10.4155 28.0769 10.4368C28.7314 10.5538 29.5575 10.5538 30.7483 10.5538H35.0076C35.587 10.5538 35.8874 10.49 36.1127 10.2666C36.3594 10.2453 38.0009 10.4262 37.9473 10.6921L37.4323 13.0962C37.8185 13.3834 38.0653 13.8727 38.0653 13.9897C38.0653 14.0961 38.0009 14.1705 37.9044 14.1705C37.722 14.1705 36.5526 14.1493 35.5977 14.1493H30.5016V15.0428C30.5016 15.7342 30.7054 15.8725 31.6281 15.8725H36.1341C37.4108 15.8725 37.5932 15.3407 37.7327 15.3407C38.0224 15.3407 38.6983 16.298 38.6983 16.7235M41.0479 8.87312C41.0479 8.95822 40.962 9.01141 40.8226 9.01141H37.9258L27.9911 9.03268C27.2723 9.03268 26.7787 9.23479 26.5534 9.41563C25.9526 9.25607 24.8905 8.37317 24.8047 8.14978C24.7832 8.08596 24.912 7.86257 24.9656 7.88385C25.3196 8.01149 26.5642 8.03277 27.7658 8.03277L37.8185 7.99022C39.0738 7.99022 39.5029 7.27752 39.6853 7.27752C39.9106 7.27752 41.0371 8.37317 41.0371 8.86249M18.346 8.83057C18.346 9.01141 18.2065 9.01141 17.713 9.16033C17.5092 9.22416 17.4019 9.54328 17.241 10.0539C16.8869 11.1282 15.7604 12.8621 13.4216 12.8621C11.0827 12.8621 9.84891 10.8836 9.76308 10.7772C9.64507 10.6177 9.45195 10.4687 9.29102 10.4687C9.18374 10.4687 9.10864 10.5113 9.04426 10.5538C8.1967 11.1282 7.27403 11.7771 7.27403 13.2664C7.27403 14.245 8.10014 15.3619 9.49487 15.3619C10.6857 15.3619 11.4689 14.245 11.7157 13.4685C11.8015 13.2025 11.7801 13.0962 11.9195 13.0962C12.1019 13.0962 12.1663 13.5004 12.4131 13.5004C12.6169 13.5004 12.5525 13.394 12.8208 13.394C13.0675 13.394 13.1319 13.7238 13.3357 13.7238C13.6254 13.7238 14.0116 13.4791 14.2047 13.4791C14.2691 13.4791 14.3657 13.4791 14.3657 13.5429C14.3657 13.6493 14.1833 13.745 14.0116 13.894C13.6576 14.2025 13.4001 14.3833 13.1319 14.8301C12.1878 16.415 11.0934 16.7022 10.5355 16.8724C10.3317 16.9363 10.1279 17.032 10.042 17.2235C9.7309 17.9149 9.54851 18 9.46268 18C9.3554 18 9.32321 17.883 9.30175 17.6171C9.28029 17.3298 9.11936 17.0001 8.56147 16.9043C7.14529 16.6384 5.39652 15.213 5.39652 12.9685C5.39652 10.9474 6.94145 10.1602 7.72464 9.38372C7.83192 9.27734 7.90703 9.16033 7.90703 8.9795V8.91567C7.90703 8.81994 7.88557 8.69229 7.75682 8.53273C6.97363 7.55409 6.38355 6.90521 5.31069 6.90521C4.14126 6.90521 3.11131 7.86257 3.11131 9.24543C3.11131 10.7347 3.85159 11.2453 4.59187 11.4261C4.83863 11.4899 4.92446 11.5112 4.92446 11.5857C4.92446 11.7452 4.76353 11.7133 4.76353 11.958C4.76353 12.1388 4.903 12.1175 4.903 12.4047C4.903 12.6068 4.72061 12.6707 4.72061 12.9792C4.72061 13.2238 4.83863 13.3089 4.83863 13.4472C4.83863 13.628 4.94591 13.6068 4.94591 14.0003C4.94591 14.1067 4.98883 14.1812 4.903 14.1812C4.81717 14.1812 4.72061 14.0429 4.59187 13.8514C4.30219 13.4259 3.99106 13.16 3.76576 12.9898C1.97407 11.7027 1.9097 11.1389 1.4591 10.256C1.35181 10.0539 1.31963 9.70284 1.10505 9.6071C0.450604 9.27734 0 9.18161 0 8.64974C0 8.40508 0.289674 8.64974 0.740278 8.64974C0.987037 8.64974 1.27671 8.69229 1.41618 8.18169C1.72731 7.09668 3.01475 5.36279 5.2785 5.36279C7.68172 5.36279 8.8726 7.34134 8.95843 7.44771C9.11936 7.6711 9.26956 7.7562 9.43049 7.7562C9.53778 7.7562 9.61288 7.7562 9.79527 7.59664C11.3187 6.25633 11.4368 5.66063 11.4368 4.8841C11.4368 3.90546 10.6536 2.76726 9.25884 2.76726C7.86411 2.76726 7.19893 3.86291 7.01655 4.68199C6.95217 4.94793 6.90926 5.08621 6.79124 5.08621C6.60886 5.08621 6.60886 4.84155 6.40501 4.84155C6.07242 4.84155 6.04024 4.97984 5.86858 4.97984C5.64328 4.97984 5.64328 4.57562 5.31069 4.57562C5.22486 4.57562 5.04247 4.68199 4.92446 4.68199C4.61333 4.68199 4.59187 4.74582 4.4524 4.74582C4.29147 4.74582 4.11981 4.66072 4.11981 4.54371C4.11981 4.4267 4.22709 4.3416 4.54895 4.18204C4.9781 3.95865 5.37506 3.79909 5.57891 3.34168C6.2119 1.93755 7.61735 1.49078 8.15378 1.28867C8.35763 1.20357 8.46492 1.12911 8.56147 0.937633C8.99062 0.161104 9.18374 0.0760048 9.30175 0.0760048C9.41977 0.0760048 9.40904 0.278115 9.46268 0.522775C9.52705 0.809984 9.52705 1.03337 9.99911 1.15038C11.3402 1.50141 13.3035 2.72471 13.3035 4.95856C13.3035 7.19242 11.0827 8.60719 10.9754 8.69229C10.7287 8.87312 10.6428 9.02205 10.6428 9.16033C10.6428 9.26671 10.7072 9.38372 10.7716 9.51137C11.308 10.5751 12.2307 11.2665 13.3035 11.2665C14.5803 11.2665 15.5673 10.0858 15.5673 8.86249C15.5673 7.63919 14.7412 6.90521 14.0224 6.68182C13.7541 6.59672 13.6361 6.59672 13.6361 6.45844C13.6361 6.29888 13.8185 6.35206 13.8185 6.1074C13.8185 5.92657 13.7327 5.96912 13.7327 5.68191C13.7327 5.4798 13.9794 5.41597 13.9794 5.10749C13.9794 4.86283 13.8614 4.77773 13.8614 4.63944C13.8614 4.45861 13.7971 4.47988 13.7971 4.0863C13.7971 3.97993 13.7541 3.90546 13.84 3.90546C13.9473 3.90546 14.0438 4.04375 14.1726 4.23522C14.4622 4.66072 14.6875 4.99048 14.9128 5.12876C16.5329 6.14995 16.8869 6.79883 17.2624 7.71365C17.3482 7.91576 17.4233 8.26679 17.6701 8.40508C17.874 8.53273 18.3246 8.67101 18.3246 8.83057" fill="#0D0D0D"/>
</svg>
