<svg width="177" height="29" viewBox="0 0 177 29" fill="none" xmlns="http://www.w3.org/2000/svg">
<path d="M176.836 14.6998L171.651 14.6336V18.1581C171.651 22.692 170.858 26.0179 170.478 27.0108C170.231 27.2921 169.653 27.4575 169.306 27.3583C169.091 26.564 168.645 24.0985 168.645 19.9948V4.14275C168.645 3.48087 166.779 2.10746 166.086 1.89235C165.904 1.82616 166.499 1.13119 166.68 1.13119C168.1 1.13119 171.832 1.99163 171.75 2.65352C171.684 3.10029 171.651 3.62979 171.651 4.20894V13.2767L175.581 11.7213C175.928 11.5889 177.48 14.6998 176.852 14.6998M166.069 16.4207C166.614 17.1818 165.145 20.4085 164.616 19.6473C163.857 18.5718 161.776 15.3947 159.91 13.2767C157.417 16.7681 154.312 19.5811 151.522 21.0704C151.175 21.0373 150.762 20.5243 150.762 20.2099C154.213 17.1322 158.11 11.7378 159.745 6.82337C159.844 6.54207 158.672 5.68162 158.16 5.36723C157.995 5.26795 158.705 4.73844 158.886 4.73844C159.828 4.73844 162.437 5.814 163.064 6.26077C163.411 6.50898 163.444 6.67445 163.279 7.08812C162.585 8.89175 161.66 10.6126 160.62 12.2012C162.965 13.8228 165.557 15.6926 166.069 16.4207ZM149.309 14.9976L144.091 14.8983V18.1581C144.091 22.692 143.364 26.0179 142.951 27.0108C142.704 27.2921 142.126 27.4575 141.812 27.3583C141.564 26.564 141.152 24.0985 141.152 19.9948V4.14275C141.152 3.48087 139.286 2.17365 138.592 1.89235C138.427 1.82616 139.005 1.13119 139.186 1.13119C140.607 1.13119 144.256 1.99163 144.19 2.65352C144.157 3.10029 144.091 3.62979 144.091 4.20894V13.558L148.037 12.0357C148.417 11.8702 149.969 14.9811 149.309 14.9811M132.35 16.553C133.803 16.553 134.877 15.5437 134.877 13.9882C134.877 12.4328 133.869 11.3904 132.35 11.3904C130.831 11.3904 129.824 12.4328 129.824 13.9882C129.824 15.5437 130.831 16.553 132.35 16.553ZM127.413 3.33194C127.38 3.19957 127.545 2.76935 127.727 2.78589C128.767 2.98446 129.824 3.16647 131.145 3.33194L134.365 3.67943C134.645 3.71253 135.884 5.41687 135.058 5.41687H130.187C129.361 5.41687 127.462 3.61324 127.396 3.33194M124.176 7.18741C124.143 7.08812 124.341 6.74064 124.424 6.77373C124.969 6.97229 126.901 7.02194 128.734 6.98884L135.323 6.92265C137.221 6.88956 137.783 5.94638 138.08 5.94638C138.394 5.94638 139.599 7.61763 139.599 8.39534C139.599 8.52772 139.467 8.61045 139.253 8.61045C138.939 8.61045 137.106 8.51117 135.653 8.51117L128.569 8.54426C127.429 8.54426 126.67 8.79247 126.323 9.10686C125.431 8.85866 124.325 7.51835 124.209 7.17086M139.913 20.1603C137.073 21.4675 131.624 22.2287 127.892 22.692C126.884 22.8244 126.273 23.0064 125.679 23.3539C124.721 23.1057 123.334 21.6992 123.202 21.1697C123.235 21.0042 123.367 20.8553 123.45 20.756C124.49 20.756 126.009 20.7891 127.842 20.6898C128.982 20.6236 130.055 20.5574 131.029 20.4747L130.848 17.7444C128.437 17.3307 126.951 15.9077 126.951 13.9386C126.951 11.7875 128.816 10.3313 131.756 10.1659C131.789 10.0335 131.822 9.95076 131.822 9.81839C131.822 9.57018 131.756 9.27233 131.409 9.02413C131.409 8.42843 133.308 9.02413 133.308 9.33852C133.308 9.4709 133.143 9.85148 133.06 10.1659C135.933 10.3644 137.75 11.8206 137.75 13.9386C137.75 15.9077 136.198 17.3307 133.82 17.7444L133.688 20.2099C136.693 19.8624 138.724 19.3826 140.078 18.9358C140.359 18.8365 140.243 19.9783 139.897 20.1437M103.932 4.7219L103.899 10.0169H111.263L111.445 4.7219H103.915H103.932ZM99.1594 3.54706C99.1264 3.38159 99.5723 2.85208 99.7869 2.85208C100.332 2.85208 102.214 2.91827 103.453 3.13338H110.471C111.362 3.13338 111.825 3.001 112.172 2.68661C112.551 2.55423 115.012 2.93482 114.962 3.34849L113.922 9.7191C114.368 10.1328 114.962 10.9601 114.962 11.4069C114.962 11.5393 114.83 11.622 114.615 11.622C114.302 11.622 113.129 11.5889 111.362 11.5889H103.585C103.387 11.9364 103.139 12.2508 102.858 12.5817C102.578 12.863 102.066 12.9954 101.686 12.8961C101.372 12.135 101.108 10.6788 100.893 8.04785L100.613 4.75499C100.58 4.4406 99.6878 3.74562 99.1594 3.54706ZM116.68 26.051C116.68 26.1834 116.58 26.2661 116.333 26.2661H113.08L103.403 26.2992C100.712 26.2992 100.183 25.3726 100.183 23.569V20.8718C100.183 20.3919 99.1759 19.5646 98.598 19.4819C98.4164 19.4488 99.0438 18.6545 99.2915 18.6545C100.398 18.6545 102.049 18.9027 102.875 19.2171C103.04 19.2833 103.288 19.3826 103.222 19.7301C103.156 20.1437 103.156 20.7394 103.156 21.2524V23.6021C103.156 24.5783 103.502 24.7107 104.361 24.7107L112.485 24.6776C114.203 24.6776 114.764 23.7179 114.979 23.7179C115.425 23.7179 116.68 25.3064 116.68 26.0345M119.751 15.7919C119.751 15.9573 119.619 16.0401 119.404 16.0401H109.381V17.8768C109.381 19.7466 108.687 21.3682 108.208 22.0963C107.961 22.3776 107.416 22.51 107.069 22.4107C106.788 21.5502 106.376 20.4085 106.376 18.3236V16.0401H99.6383C98.4989 16.0401 97.7393 16.3545 97.3926 16.6689C96.5009 16.4207 94.701 15.0142 94.701 14.6998C94.701 14.5674 94.8661 14.2199 94.9487 14.253C95.4936 14.4516 97.4256 14.4681 99.2585 14.4681L114.764 14.435C116.729 14.435 117.39 13.3264 117.637 13.3264C117.984 13.3264 119.751 15.0142 119.751 15.7753M75.5791 7.76655C75.5791 9.80184 76.9002 11.1587 78.8982 11.1587C80.8963 11.1587 82.4154 9.80184 82.4154 7.76655C82.4154 5.73127 80.9953 4.37441 78.9312 4.37441C76.8671 4.37441 75.5791 5.74781 75.5791 7.76655ZM72.5738 7.86583C72.5738 5.01974 74.8526 3.11683 78.3698 2.91827C78.4028 2.81899 78.4359 2.73625 78.4359 2.63697C78.4359 2.35567 78.3698 2.04128 77.957 1.74343C77.957 1.11464 80.0706 1.74343 80.0706 2.09092C80.0706 2.22329 79.9055 2.60387 79.8229 2.91827C83.175 3.16647 85.3877 5.06938 85.3877 7.86583C85.3877 10.8112 82.8283 12.7472 78.9973 12.7472C75.1663 12.7472 72.5738 10.8112 72.5738 7.86583ZM91.4975 16.5199C91.4975 16.6523 91.3654 16.7351 91.1507 16.7351H84.2814V18.2574C84.2814 22.5431 83.5218 25.869 83.109 26.8453C82.8613 27.1266 82.2833 27.259 81.9696 27.1928C81.7219 26.3985 81.2761 23.933 81.2761 20.0941V16.7351L76.4378 16.7681V17.7279C76.4378 21.9805 75.6782 25.3064 75.2984 26.2827C75.0507 26.564 74.4728 26.6964 74.126 26.6302C73.9113 25.8359 73.4655 23.3704 73.4655 19.5646V16.7681H71.3849C70.2455 16.7681 69.4859 17.0825 69.1391 17.3969C68.2475 17.1487 66.4476 15.7422 66.4476 15.3947C66.4476 15.2955 66.6127 14.948 66.6953 14.9811C67.2402 15.1631 69.1722 15.1962 71.0051 15.1962L86.5106 15.13C88.4756 15.13 89.1362 14.0213 89.3839 14.0213C89.7306 14.0213 91.4975 15.7257 91.4975 16.4868M47.5734 6.49243C47.5734 8.22987 48.8779 9.4709 50.8264 9.4709C52.7749 9.4709 54.0795 8.22987 54.0795 6.49243C54.0795 4.75499 52.7749 3.58015 50.8264 3.58015C48.8779 3.58015 47.5734 4.78808 47.5734 6.49243ZM44.5681 6.62481C44.5681 4.1262 46.7478 2.30603 50.1329 2.09092C50.1659 1.92545 50.232 1.80962 50.232 1.64415C50.232 1.36285 50.1329 1.065 49.7531 0.7837C49.7531 0.121818 51.8667 0.7837 51.8667 1.09809C51.8667 1.29666 51.6521 1.72688 51.52 2.07437C54.8721 2.28948 57.1178 4.10966 57.1178 6.60826C57.1178 9.23924 54.5583 11.1091 50.8264 11.1091C47.0945 11.1091 44.5681 9.23924 44.5681 6.60826M59.5617 26.564C59.5617 26.7295 59.4296 26.7791 59.2149 26.7791H46.9129C44.7993 26.7791 44.0562 26.051 44.0066 24.3963L43.9406 22.2783C43.9406 21.9639 43.115 21.5502 42.5865 21.3186C42.5535 21.1531 43.0324 20.6236 43.2801 20.6236C43.8745 20.6236 46.1368 20.756 46.9459 21.0373H54.9546L54.9877 18.4725H46.979C46.0047 18.4725 45.3607 18.7207 45.0139 19.0516C43.8745 18.8862 42.9498 17.3969 42.9333 17.1818C42.9003 17.0163 43.0654 16.702 43.214 16.7351C44.2213 16.9171 45.4928 16.9171 47.3257 16.9171H53.8813C54.773 16.9171 55.2354 16.8178 55.5821 16.4703C55.9619 16.4372 58.4884 16.7185 58.4058 17.1322L57.6132 20.8718C58.2077 21.3186 58.5875 22.0797 58.5875 22.2618C58.5875 22.4272 58.4884 22.5431 58.3398 22.5431C58.059 22.5431 56.2591 22.51 54.7895 22.51H46.9459V23.8999C46.9459 24.9755 47.2597 25.1906 48.6798 25.1906H55.6151C57.5802 25.1906 57.8609 24.3632 58.0756 24.3632C58.5214 24.3632 59.5617 25.8525 59.5617 26.5144M63.178 14.3026C63.178 14.435 63.0459 14.5177 62.8312 14.5177H58.3728L43.0819 14.5508C41.9756 14.5508 41.216 14.8652 40.8692 15.1465C39.9445 14.8983 38.3097 13.5249 38.1776 13.1774C38.1446 13.0782 38.3428 12.7307 38.4253 12.7638C38.9702 12.9623 40.8857 12.9954 42.7352 12.9954L58.2077 12.9292C60.1397 12.9292 60.8002 11.8206 61.0809 11.8206C61.4277 11.8206 63.1615 13.5249 63.1615 14.2861M28.2369 14.2364C28.2369 14.5177 28.0222 14.5177 27.2627 14.7494C26.9489 14.8487 26.7838 15.3451 26.5361 16.1394C25.9912 17.8106 24.2573 20.5078 20.6575 20.5078C17.0577 20.5078 15.1588 17.43 15.0267 17.2646C14.845 17.0163 14.5478 16.7847 14.3001 16.7847C14.135 16.7847 14.0194 16.8509 13.9203 16.9171C12.6158 17.8106 11.1957 18.82 11.1957 21.1366C11.1957 22.6589 12.4672 24.3963 14.6138 24.3963C16.4468 24.3963 17.6522 22.6589 18.032 21.451C18.1641 21.0373 18.1311 20.8718 18.3457 20.8718C18.6265 20.8718 18.7255 21.5006 19.1053 21.5006C19.4191 21.5006 19.32 21.3351 19.7328 21.3351C20.1126 21.3351 20.2117 21.8481 20.5254 21.8481C20.9713 21.8481 21.5657 21.4675 21.863 21.4675C21.962 21.4675 22.1107 21.4675 22.1107 21.5668C22.1107 21.7323 21.8299 21.8812 21.5657 22.1128C21.0208 22.5927 20.6245 22.874 20.2117 23.569C18.7586 26.0345 17.0742 26.4813 16.2156 26.746C15.9018 26.8453 15.5881 26.9942 15.456 27.2921C14.9771 28.3676 14.6964 28.5 14.5643 28.5C14.3992 28.5 14.3496 28.318 14.3166 27.9043C14.2836 27.4575 14.0359 26.9446 13.1772 26.7957C10.9975 26.382 8.30595 24.1647 8.30595 20.6732C8.30595 17.5293 10.6838 16.3048 11.8892 15.0969C12.0544 14.9314 12.1699 14.7494 12.1699 14.4681V14.3688C12.1699 14.2199 12.1369 14.0213 11.9388 13.7731C10.7333 12.2508 9.82512 11.2414 8.17384 11.2414C6.37395 11.2414 4.78872 12.7307 4.78872 14.8818C4.78872 17.1984 5.9281 17.9926 7.06748 18.2739C7.44728 18.3732 7.57938 18.4063 7.57938 18.5221C7.57938 18.7703 7.33169 18.7207 7.33169 19.1013C7.33169 19.3826 7.54636 19.3495 7.54636 19.7963C7.54636 20.1106 7.26564 20.2099 7.26564 20.6898C7.26564 21.0704 7.44728 21.2028 7.44728 21.4179C7.44728 21.6992 7.61241 21.6661 7.61241 22.2783C7.61241 22.4438 7.67846 22.5596 7.54636 22.5596C7.41425 22.5596 7.26564 22.3445 7.06748 22.0467C6.62164 21.3848 6.14277 20.9711 5.796 20.7063C3.03836 18.7041 2.93928 17.8272 2.24574 16.4538C2.08061 16.1394 2.03108 15.5933 1.70082 15.4444C0.693538 14.9314 0 14.7825 0 13.9551C0 13.5746 0.445846 13.9551 1.13938 13.9551C1.51918 13.9551 1.96502 14.0213 2.17969 13.2271C2.65856 11.5393 4.6401 8.84211 8.1243 8.84211C11.8232 8.84211 13.6561 11.9199 13.7882 12.0853C14.0359 12.4328 14.2671 12.5652 14.5148 12.5652C14.6799 12.5652 14.7955 12.5652 15.0762 12.317C17.421 10.2321 17.6027 9.30543 17.6027 8.09749C17.6027 6.57517 16.3972 4.80463 14.2506 4.80463C12.1039 4.80463 11.0801 6.50898 10.7994 7.7831C10.7003 8.19678 10.6343 8.41189 10.4526 8.41189C10.1719 8.41189 10.1719 8.03131 9.85815 8.03131C9.34625 8.03131 9.29671 8.24642 9.03251 8.24642C8.68574 8.24642 8.68574 7.61763 8.17384 7.61763C8.04174 7.61763 7.76102 7.7831 7.57938 7.7831C7.10051 7.7831 7.06748 7.88238 6.85282 7.88238C6.60512 7.88238 6.34092 7.75001 6.34092 7.56799C6.34092 7.38597 6.50605 7.25359 7.00143 7.00539C7.66195 6.6579 8.27292 6.40969 8.58666 5.69817C9.56092 3.51396 11.7241 2.81899 12.5497 2.50459C12.8635 2.37222 13.0286 2.25639 13.1772 1.95854C13.8377 0.750606 14.135 0.61823 14.3166 0.61823C14.4982 0.61823 14.4817 0.932624 14.5643 1.31321C14.6634 1.75998 14.6634 2.10746 15.3899 2.28948C17.454 2.83553 20.4759 4.73844 20.4759 8.21332C20.4759 11.6882 17.0577 13.889 16.8926 14.0213C16.5128 14.3026 16.3807 14.5343 16.3807 14.7494C16.3807 14.9149 16.4798 15.0969 16.5789 15.2955C17.4045 16.9502 18.8246 18.0257 20.4759 18.0257C22.4409 18.0257 23.9601 16.189 23.9601 14.2861C23.9601 12.3832 22.6886 11.2414 21.5822 10.8939C21.1694 10.7616 20.9878 10.7616 20.9878 10.5465C20.9878 10.2983 21.2685 10.381 21.2685 10.0004C21.2685 9.7191 21.1364 9.78529 21.1364 9.33852C21.1364 9.02413 21.5162 8.92485 21.5162 8.44498C21.5162 8.0644 21.3346 7.93202 21.3346 7.71691C21.3346 7.43561 21.2355 7.46871 21.2355 6.85646C21.2355 6.69099 21.1694 6.57517 21.3015 6.57517C21.4667 6.57517 21.6153 6.79028 21.8134 7.08812C22.2593 7.75001 22.606 8.26296 22.9528 8.47808C25.4462 10.0666 25.9912 11.076 26.5691 12.499C26.7012 12.8134 26.8168 13.3595 27.1966 13.5746C27.5103 13.7731 28.2039 13.9882 28.2039 14.2364" fill="#0D0D0D"/>
</svg>
