<svg width="177" height="28" viewBox="0 0 177 28" fill="none" xmlns="http://www.w3.org/2000/svg">
<path d="M176.836 14.1998L171.651 14.1336V17.6581C171.651 22.192 170.858 25.5179 170.478 26.5108C170.231 26.7921 169.653 26.9575 169.306 26.8583C169.091 26.064 168.645 23.5985 168.645 19.4948V3.64275C168.645 2.98087 166.779 1.60746 166.086 1.39235C165.904 1.32616 166.499 0.631188 166.68 0.631188C168.1 0.631188 171.832 1.49163 171.75 2.15352C171.684 2.60029 171.651 3.12979 171.651 3.70894V12.7767L175.581 11.2213C175.928 11.0889 177.48 14.1998 176.852 14.1998M166.069 15.9207C166.614 16.6818 165.145 19.9085 164.616 19.1473C163.857 18.0718 161.776 14.8947 159.91 12.7767C157.417 16.2681 154.312 19.0811 151.522 20.5704C151.175 20.5373 150.762 20.0243 150.762 19.7099C154.213 16.6322 158.11 11.2378 159.745 6.32337C159.844 6.04207 158.672 5.18162 158.16 4.86723C157.995 4.76795 158.705 4.23844 158.886 4.23844C159.828 4.23844 162.437 5.314 163.064 5.76077C163.411 6.00898 163.444 6.17445 163.279 6.58812C162.585 8.39175 161.66 10.1126 160.62 11.7012C162.965 13.3228 165.557 15.1926 166.069 15.9207ZM149.309 14.4976L144.091 14.3983V17.6581C144.091 22.192 143.364 25.5179 142.951 26.5108C142.704 26.7921 142.126 26.9575 141.812 26.8583C141.564 26.064 141.152 23.5985 141.152 19.4948V3.64275C141.152 2.98087 139.286 1.67365 138.592 1.39235C138.427 1.32616 139.005 0.631188 139.186 0.631188C140.607 0.631188 144.256 1.49163 144.19 2.15352C144.157 2.60029 144.091 3.12979 144.091 3.70894V13.058L148.037 11.5357C148.417 11.3702 149.969 14.4811 149.309 14.4811M132.35 16.053C133.803 16.053 134.877 15.0437 134.877 13.4882C134.877 11.9328 133.869 10.8904 132.35 10.8904C130.831 10.8904 129.824 11.9328 129.824 13.4882C129.824 15.0437 130.831 16.053 132.35 16.053ZM127.413 2.83194C127.38 2.69957 127.545 2.26935 127.727 2.28589C128.767 2.48446 129.824 2.66647 131.145 2.83194L134.365 3.17943C134.645 3.21253 135.884 4.91687 135.058 4.91687H130.187C129.361 4.91687 127.462 3.11324 127.396 2.83194M124.176 6.68741C124.143 6.58812 124.341 6.24064 124.424 6.27373C124.969 6.47229 126.901 6.52194 128.734 6.48884L135.323 6.42265C137.221 6.38956 137.783 5.44638 138.08 5.44638C138.394 5.44638 139.599 7.11763 139.599 7.89534C139.599 8.02772 139.467 8.11045 139.253 8.11045C138.939 8.11045 137.106 8.01117 135.653 8.01117L128.569 8.04426C127.429 8.04426 126.67 8.29247 126.323 8.60686C125.431 8.35866 124.325 7.01835 124.209 6.67086M139.913 19.6603C137.073 20.9675 131.624 21.7287 127.892 22.192C126.884 22.3244 126.273 22.5064 125.679 22.8539C124.721 22.6057 123.334 21.1992 123.202 20.6697C123.235 20.5042 123.367 20.3553 123.45 20.256C124.49 20.256 126.009 20.2891 127.842 20.1898C128.982 20.1236 130.055 20.0574 131.029 19.9747L130.848 17.2444C128.437 16.8307 126.951 15.4077 126.951 13.4386C126.951 11.2875 128.816 9.83134 131.756 9.66587C131.789 9.5335 131.822 9.45076 131.822 9.31839C131.822 9.07018 131.756 8.77233 131.409 8.52413C131.409 7.92843 133.308 8.52413 133.308 8.83852C133.308 8.9709 133.143 9.35148 133.06 9.66587C135.933 9.86444 137.75 11.3206 137.75 13.4386C137.75 15.4077 136.198 16.8307 133.82 17.2444L133.688 19.7099C136.693 19.3624 138.724 18.8826 140.078 18.4358C140.359 18.3365 140.243 19.4783 139.897 19.6437M103.932 4.2219L103.899 9.51695H111.263L111.445 4.2219H103.915H103.932ZM99.1594 3.04706C99.1264 2.88159 99.5723 2.35208 99.7869 2.35208C100.332 2.35208 102.214 2.41827 103.453 2.63338H110.471C111.362 2.63338 111.825 2.501 112.172 2.18661C112.551 2.05423 115.012 2.43482 114.962 2.84849L113.922 9.2191C114.368 9.63278 114.962 10.4601 114.962 10.9069C114.962 11.0393 114.83 11.122 114.615 11.122C114.302 11.122 113.129 11.0889 111.362 11.0889H103.585C103.387 11.4364 103.139 11.7508 102.858 12.0817C102.578 12.363 102.066 12.4954 101.686 12.3961C101.372 11.635 101.108 10.1788 100.893 7.54785L100.613 4.25499C100.58 3.9406 99.6878 3.24562 99.1594 3.04706ZM116.68 25.551C116.68 25.6834 116.58 25.7661 116.333 25.7661H113.08L103.403 25.7992C100.712 25.7992 100.183 24.8726 100.183 23.069V20.3718C100.183 19.8919 99.1759 19.0646 98.598 18.9819C98.4164 18.9488 99.0438 18.1545 99.2915 18.1545C100.398 18.1545 102.049 18.4027 102.875 18.7171C103.04 18.7833 103.288 18.8826 103.222 19.2301C103.156 19.6437 103.156 20.2394 103.156 20.7524V23.1021C103.156 24.0783 103.502 24.2107 104.361 24.2107L112.485 24.1776C114.203 24.1776 114.764 23.2179 114.979 23.2179C115.425 23.2179 116.68 24.8064 116.68 25.5345M119.751 15.2919C119.751 15.4573 119.619 15.5401 119.404 15.5401H109.381V17.3768C109.381 19.2466 108.687 20.8682 108.208 21.5963C107.961 21.8776 107.416 22.01 107.069 21.9107C106.788 21.0502 106.376 19.9085 106.376 17.8236V15.5401H99.6383C98.4989 15.5401 97.7393 15.8545 97.3926 16.1689C96.5009 15.9207 94.701 14.5142 94.701 14.1998C94.701 14.0674 94.8661 13.7199 94.9487 13.753C95.4936 13.9516 97.4256 13.9681 99.2585 13.9681L114.764 13.935C116.729 13.935 117.39 12.8264 117.637 12.8264C117.984 12.8264 119.751 14.5142 119.751 15.2753M75.5791 7.26655C75.5791 9.30184 76.9002 10.6587 78.8982 10.6587C80.8963 10.6587 82.4154 9.30184 82.4154 7.26655C82.4154 5.23127 80.9953 3.87441 78.9312 3.87441C76.8671 3.87441 75.5791 5.24781 75.5791 7.26655ZM72.5738 7.36583C72.5738 4.51974 74.8526 2.61683 78.3698 2.41827C78.4028 2.31899 78.4359 2.23625 78.4359 2.13697C78.4359 1.85567 78.3698 1.54128 77.957 1.24343C77.957 0.614641 80.0706 1.24343 80.0706 1.59092C80.0706 1.72329 79.9055 2.10388 79.8229 2.41827C83.175 2.66647 85.3877 4.56938 85.3877 7.36583C85.3877 10.3112 82.8283 12.2472 78.9973 12.2472C75.1663 12.2472 72.5738 10.3112 72.5738 7.36583ZM91.4975 16.0199C91.4975 16.1523 91.3654 16.2351 91.1507 16.2351H84.2814V17.7574C84.2814 22.0431 83.5218 25.369 83.109 26.3453C82.8613 26.6266 82.2833 26.759 81.9696 26.6928C81.7219 25.8985 81.2761 23.433 81.2761 19.5941V16.2351L76.4378 16.2681V17.2279C76.4378 21.4805 75.6782 24.8064 75.2984 25.7827C75.0507 26.064 74.4728 26.1964 74.126 26.1302C73.9113 25.3359 73.4655 22.8704 73.4655 19.0646V16.2681H71.3849C70.2455 16.2681 69.4859 16.5825 69.1391 16.8969C68.2475 16.6487 66.4476 15.2422 66.4476 14.8947C66.4476 14.7955 66.6127 14.448 66.6953 14.4811C67.2402 14.6631 69.1722 14.6962 71.0051 14.6962L86.5106 14.63C88.4756 14.63 89.1362 13.5213 89.3839 13.5213C89.7306 13.5213 91.4975 15.2257 91.4975 15.9868M47.5734 5.99243C47.5734 7.72987 48.8779 8.9709 50.8264 8.9709C52.775 8.9709 54.0795 7.72987 54.0795 5.99243C54.0795 4.25499 52.775 3.08015 50.8264 3.08015C48.8779 3.08015 47.5734 4.28808 47.5734 5.99243ZM44.5681 6.12481C44.5681 3.6262 46.7478 1.80603 50.1329 1.59092C50.1659 1.42545 50.232 1.30962 50.232 1.14415C50.232 0.862847 50.1329 0.565 49.7531 0.2837C49.7531 -0.378182 51.8667 0.2837 51.8667 0.598094C51.8667 0.796658 51.6521 1.22688 51.52 1.57437C54.8721 1.78948 57.1178 3.60966 57.1178 6.10826C57.1178 8.73924 54.5583 10.6091 50.8264 10.6091C47.0945 10.6091 44.5681 8.73924 44.5681 6.10826M59.5617 26.064C59.5617 26.2295 59.4296 26.2791 59.2149 26.2791H46.9129C44.7993 26.2791 44.0562 25.551 44.0066 23.8963L43.9406 21.7783C43.9406 21.4639 43.115 21.0502 42.5865 20.8186C42.5535 20.6531 43.0324 20.1236 43.2801 20.1236C43.8745 20.1236 46.1368 20.256 46.9459 20.5373H54.9546L54.9877 17.9725H46.979C46.0047 17.9725 45.3607 18.2207 45.0139 18.5516C43.8745 18.3862 42.9498 16.8969 42.9333 16.6818C42.9003 16.5163 43.0654 16.202 43.214 16.2351C44.2213 16.4171 45.4928 16.4171 47.3257 16.4171H53.8813C54.773 16.4171 55.2354 16.3178 55.5821 15.9703C55.9619 15.9372 58.4884 16.2185 58.4058 16.6322L57.6132 20.3718C58.2077 20.8186 58.5875 21.5797 58.5875 21.7618C58.5875 21.9272 58.4884 22.0431 58.3398 22.0431C58.059 22.0431 56.2591 22.01 54.7895 22.01H46.9459V23.3999C46.9459 24.4755 47.2597 24.6906 48.6798 24.6906H55.6151C57.5802 24.6906 57.8609 23.8632 58.0756 23.8632C58.5214 23.8632 59.5617 25.3525 59.5617 26.0144M63.178 13.8026C63.178 13.935 63.0459 14.0177 62.8312 14.0177H58.3728L43.0819 14.0508C41.9756 14.0508 41.216 14.3652 40.8692 14.6465C39.9445 14.3983 38.3097 13.0249 38.1776 12.6774C38.1446 12.5782 38.3428 12.2307 38.4253 12.2638C38.9702 12.4623 40.8857 12.4954 42.7352 12.4954L58.2077 12.4292C60.1397 12.4292 60.8002 11.3206 61.0809 11.3206C61.4277 11.3206 63.1615 13.0249 63.1615 13.7861M28.2369 13.7364C28.2369 14.0177 28.0222 14.0177 27.2627 14.2494C26.9489 14.3487 26.7838 14.8451 26.5361 15.6394C25.9912 17.3106 24.2573 20.0078 20.6575 20.0078C17.0577 20.0078 15.1588 16.93 15.0267 16.7646C14.845 16.5163 14.5478 16.2847 14.3001 16.2847C14.135 16.2847 14.0194 16.3509 13.9203 16.4171C12.6158 17.3106 11.1957 18.32 11.1957 20.6366C11.1957 22.1589 12.4672 23.8963 14.6138 23.8963C16.4468 23.8963 17.6522 22.1589 18.032 20.951C18.1641 20.5373 18.1311 20.3718 18.3457 20.3718C18.6265 20.3718 18.7255 21.0006 19.1053 21.0006C19.4191 21.0006 19.32 20.8351 19.7328 20.8351C20.1126 20.8351 20.2117 21.3481 20.5254 21.3481C20.9713 21.3481 21.5657 20.9675 21.863 20.9675C21.962 20.9675 22.1107 20.9675 22.1107 21.0668C22.1107 21.2323 21.8299 21.3812 21.5657 21.6128C21.0208 22.0927 20.6245 22.374 20.2117 23.069C18.7586 25.5345 17.0742 25.9813 16.2156 26.246C15.9018 26.3453 15.5881 26.4942 15.456 26.7921C14.9771 27.8676 14.6964 28 14.5643 28C14.3992 28 14.3496 27.818 14.3166 27.4043C14.2836 26.9575 14.0359 26.4446 13.1772 26.2957C10.9975 25.882 8.30595 23.6647 8.30595 20.1732C8.30595 17.0293 10.6838 15.8048 11.8892 14.5969C12.0544 14.4314 12.1699 14.2494 12.1699 13.9681V13.8688C12.1699 13.7199 12.1369 13.5213 11.9388 13.2731C10.7333 11.7508 9.82512 10.7414 8.17384 10.7414C6.37395 10.7414 4.78872 12.2307 4.78872 14.3818C4.78872 16.6984 5.9281 17.4926 7.06748 17.7739C7.44728 17.8732 7.57938 17.9063 7.57938 18.0221C7.57938 18.2703 7.33169 18.2207 7.33169 18.6013C7.33169 18.8826 7.54636 18.8495 7.54636 19.2963C7.54636 19.6106 7.26564 19.7099 7.26564 20.1898C7.26564 20.5704 7.44728 20.7028 7.44728 20.9179C7.44728 21.1992 7.61241 21.1661 7.61241 21.7783C7.61241 21.9438 7.67846 22.0596 7.54636 22.0596C7.41425 22.0596 7.26564 21.8445 7.06748 21.5467C6.62164 20.8848 6.14277 20.4711 5.796 20.2063C3.03836 18.2041 2.93928 17.3272 2.24574 15.9538C2.08061 15.6394 2.03108 15.0933 1.70082 14.9444C0.693538 14.4314 0 14.2825 0 13.4551C0 13.0746 0.445846 13.4551 1.13938 13.4551C1.51918 13.4551 1.96502 13.5213 2.17969 12.7271C2.65856 11.0393 4.6401 8.34211 8.1243 8.34211C11.8232 8.34211 13.6561 11.4199 13.7882 11.5853C14.0359 11.9328 14.2671 12.0652 14.5148 12.0652C14.6799 12.0652 14.7955 12.0652 15.0762 11.817C17.421 9.73206 17.6027 8.80543 17.6027 7.59749C17.6027 6.07517 16.3972 4.30463 14.2506 4.30463C12.1039 4.30463 11.0801 6.00898 10.7994 7.2831C10.7003 7.69678 10.6343 7.91189 10.4526 7.91189C10.1719 7.91189 10.1719 7.53131 9.85815 7.53131C9.34625 7.53131 9.29671 7.74642 9.03251 7.74642C8.68574 7.74642 8.68574 7.11763 8.17384 7.11763C8.04174 7.11763 7.76102 7.2831 7.57938 7.2831C7.10051 7.2831 7.06748 7.38238 6.85282 7.38238C6.60512 7.38238 6.34092 7.25001 6.34092 7.06799C6.34092 6.88597 6.50605 6.75359 7.00143 6.50539C7.66195 6.1579 8.27292 5.90969 8.58666 5.19817C9.56092 3.01396 11.7241 2.31899 12.5497 2.00459C12.8635 1.87222 13.0286 1.75639 13.1772 1.45854C13.8377 0.250606 14.135 0.11823 14.3166 0.11823C14.4982 0.11823 14.4817 0.432623 14.5643 0.813205C14.6634 1.25998 14.6634 1.60746 15.3899 1.78948C17.454 2.33553 20.4759 4.23844 20.4759 7.71332C20.4759 11.1882 17.0577 13.389 16.8926 13.5213C16.5128 13.8026 16.3807 14.0343 16.3807 14.2494C16.3807 14.4149 16.4798 14.5969 16.5789 14.7955C17.4045 16.4502 18.8246 17.5257 20.4759 17.5257C22.4409 17.5257 23.9601 15.689 23.9601 13.7861C23.9601 11.8832 22.6886 10.7414 21.5822 10.3939C21.1694 10.2616 20.9878 10.2616 20.9878 10.0465C20.9878 9.79825 21.2685 9.88098 21.2685 9.5004C21.2685 9.2191 21.1364 9.28529 21.1364 8.83852C21.1364 8.52413 21.5162 8.42485 21.5162 7.94498C21.5162 7.5644 21.3346 7.43202 21.3346 7.21691C21.3346 6.93561 21.2355 6.96871 21.2355 6.35646C21.2355 6.19099 21.1694 6.07517 21.3015 6.07517C21.4667 6.07517 21.6153 6.29028 21.8134 6.58812C22.2593 7.25001 22.606 7.76296 22.9528 7.97808C25.4462 9.56659 25.9912 10.576 26.5691 11.999C26.7012 12.3134 26.8168 12.8595 27.1966 13.0746C27.5103 13.2731 28.2039 13.4882 28.2039 13.7364" fill="white"/>
</svg>
