<svg width="134" height="43" viewBox="0 0 134 43" fill="none" xmlns="http://www.w3.org/2000/svg">
<path d="M15.9136 19.9961H2.81885V17.4355H15.9136V19.9961ZM19.3838 27.3408H0.550293V24.769H19.3838V27.3408ZM17.2275 19.1201C17.2275 20.318 17.1938 21.3774 17.1265 22.2983C17.0591 23.2192 16.8869 24.2637 16.6099 25.4316L13.353 25.3643C13.5402 24.5856 13.6787 23.8481 13.7686 23.1519C13.8659 22.4556 13.9258 21.8341 13.9482 21.2876C13.9782 20.741 13.9969 20.0822 14.0044 19.311V19.1201V17.4355H17.2275V19.1201ZM17.104 36.9429H2.729V29.3286H17.104V36.9429ZM5.90723 34.3486H13.8921V31.8442H5.90723V34.3486ZM37.9482 21.5796H20.7207V19.0078H37.9482V21.5796ZM38.8017 35.1572H19.9682V32.563H38.8017V35.1572ZM30.9179 33.585H27.7172V29.98H30.9179V33.585ZM29.3232 22.3096C30.7607 22.3096 32.0148 22.4705 33.0854 22.7925C34.156 23.1069 34.9796 23.5711 35.5561 24.1851C36.1326 24.799 36.4209 25.5177 36.4209 26.3413C36.4209 27.1948 36.1326 27.9285 35.5561 28.5425C34.9796 29.1489 34.156 29.6206 33.0854 29.9575C32.0223 30.2869 30.7682 30.4554 29.3232 30.4629C27.8632 30.4554 26.5942 30.2869 25.5161 29.9575C24.4454 29.6206 23.6219 29.1489 23.0454 28.5425C22.4689 27.9285 22.1844 27.1948 22.1919 26.3413C22.1844 25.5103 22.4689 24.7915 23.0454 24.1851C23.6219 23.5711 24.4454 23.1069 25.5161 22.7925C26.5942 22.4705 27.8632 22.3096 29.3232 22.3096ZM29.3232 24.814C28.4622 24.8215 27.7509 24.8776 27.1894 24.9824C26.6354 25.0872 26.2161 25.252 25.9316 25.4766C25.6546 25.7012 25.5198 25.9894 25.5273 26.3413C25.5198 26.7082 25.6546 27.0039 25.9316 27.2285C26.2161 27.4456 26.6354 27.6104 27.1894 27.7227C27.7509 27.8275 28.4622 27.8799 29.3232 27.8799C30.1692 27.8799 30.8655 27.8275 31.4121 27.7227C31.9661 27.6104 32.3854 27.4456 32.6699 27.2285C32.9544 27.0039 33.0966 26.7082 33.0966 26.3413C33.0966 25.9969 32.9544 25.7124 32.6699 25.4878C32.3854 25.2557 31.9661 25.0872 31.4121 24.9824C30.8655 24.8776 30.1692 24.8215 29.3232 24.814ZM30.9179 20.6138H27.7172V16.7168H30.9179V20.6138ZM58.1972 29.1714H39.3637V26.6108H58.1972V29.1714ZM50.6503 32.5181H47.4609V28.228H50.6503V32.5181ZM55.8163 25.1396H41.6772V17.4131H55.8163V25.1396ZM44.8329 22.6353H52.6381V19.9062H44.8329V22.6353ZM56.1308 36.8306H41.4975V34.2363H56.1308V36.8306ZM44.7319 35.0898H41.4975V30.7998H44.7319V35.0898ZM66.6879 32.0464H63.4423V28.6885H66.6879V32.0464ZM75.4252 37.145H72.1571V16.5259H75.4252V37.145ZM77.9183 27.4531H74.2909V24.8027H77.9183V27.4531ZM58.557 31.2266C61.1475 31.2266 63.446 31.1966 65.4525 31.1367C67.459 31.0768 69.3794 30.9196 71.2137 30.665L71.4271 32.9897C70.087 33.2518 68.6944 33.4465 67.2494 33.5737C65.8044 33.6935 64.4568 33.7684 63.2064 33.7983C61.9636 33.8283 60.5523 33.8433 58.9725 33.8433L58.557 31.2266ZM71.1127 21.2764H58.9501V18.7607H71.1127V21.2764ZM65.0931 21.9727C66.0739 21.9727 66.9537 22.1374 67.7323 22.4668C68.5109 22.7962 69.1174 23.2567 69.5516 23.8481C69.9934 24.4321 70.2142 25.106 70.2142 25.8696C70.2142 26.6258 69.9934 27.2996 69.5516 27.8911C69.1174 28.4751 68.5109 28.9318 67.7323 29.2612C66.9537 29.5832 66.0739 29.7441 65.0931 29.7441C64.0974 29.7441 63.2102 29.5832 62.4315 29.2612C61.6529 28.9318 61.0427 28.4751 60.601 27.8911C60.1667 27.2996 59.9533 26.6258 59.9608 25.8696C59.9533 25.106 60.1667 24.4321 60.601 23.8481C61.0427 23.2567 61.6529 22.7962 62.4315 22.4668C63.2102 22.1374 64.0974 21.9727 65.0931 21.9727ZM65.0931 24.4097C64.6739 24.4172 64.307 24.4733 63.9926 24.5781C63.6856 24.6829 63.446 24.8477 63.2738 25.0723C63.1091 25.2894 63.0305 25.5552 63.038 25.8696C63.0305 26.1841 63.1091 26.4499 63.2738 26.667C63.446 26.8766 63.6856 27.0376 63.9926 27.1499C64.2995 27.2547 64.6664 27.3071 65.0931 27.3071C65.4974 27.3071 65.8493 27.2547 66.1488 27.1499C66.4558 27.0376 66.6916 26.8766 66.8563 26.667C67.0285 26.4499 67.1146 26.1841 67.1146 25.8696C67.1146 25.5552 67.0285 25.2894 66.8563 25.0723C66.6916 24.8477 66.4558 24.6829 66.1488 24.5781C65.8493 24.4733 65.4974 24.4172 65.0931 24.4097ZM66.6879 20.6587H63.4423V16.6719H66.6879V20.6587ZM96.2806 37.145H93.1922V16.5259H96.2806V37.145ZM94.2142 26.9702H90.9012V24.3647H94.2142V26.9702ZM91.7772 36.2354H88.7225V16.8066H91.7772V36.2354ZM84.2079 21.4673C84.2079 23.3091 84.0693 24.9862 83.7923 26.4985C83.5228 28.0034 83.0549 29.3473 82.3885 30.5303C81.7222 31.7132 80.8275 32.6416 79.7044 33.3154L77.7166 30.8335C78.7274 30.2495 79.5322 29.4821 80.1312 28.5312C80.7302 27.5729 81.1532 26.506 81.4002 25.3306C81.6473 24.1551 81.7671 22.8674 81.7596 21.4673V19.7153H84.2079V21.4673ZM84.9154 21.4673C84.9229 22.755 85.0539 23.9455 85.3084 25.0386C85.563 26.1242 85.9898 27.1087 86.5887 27.9922C87.1952 28.8757 88.0038 29.5794 89.0145 30.1035L87.1615 32.5518C86.0085 31.9453 85.0801 31.0881 84.3763 29.98C83.68 28.8719 83.1821 27.6066 82.8827 26.1841C82.5907 24.7616 82.4447 23.1893 82.4447 21.4673V19.7153H84.9154V21.4673ZM87.8578 21.1416H78.4915V18.5698H87.8578V21.1416ZM114.048 31.4512H110.802V16.5596H114.048V31.4512ZM116.743 24.6567H113.104V22.0063H116.743V24.6567ZM100.133 25.5439C102.506 25.5439 104.333 25.5028 105.614 25.4204C106.894 25.3381 108.122 25.1733 109.297 24.9263L109.645 27.498C108.432 27.7526 107.148 27.9211 105.793 28.0034C104.446 28.0858 102.559 28.127 100.133 28.127H98.3699V25.5439H100.133ZM107.702 20.7261H101.593V26.9253H98.3699V18.1543H107.702V20.7261ZM114.721 36.8306H100.526V34.2363H114.721V36.8306ZM103.772 35.584H100.526V29.8228H103.772V35.584Z" fill="#454B52"/>
<path d="M112 8.74124C112 9.04533 112.044 9.36048 112.166 9.65904C112.702 10.986 114.068 11.8043 115.805 11.1132C116.22 10.9473 127.706 6.31957 127.706 6.31957C127.706 6.31957 123.182 17.7866 123.011 18.2123C122.353 19.8544 123.144 21.3417 124.488 21.8393C124.786 21.9499 125.096 22.0052 125.4 21.9996C126.501 21.9941 127.469 21.3472 127.944 20.0534C128.016 19.8599 133.674 4.32915 133.795 3.95872C133.867 3.73756 134 3.21784 134 2.85846C134 2.08994 133.718 1.36565 133.17 0.818282C132.634 0.276447 131.915 0 131.157 0C130.787 0 130.488 0.0663472 130.035 0.210099C129.764 0.298562 115.18 5.72244 113.936 6.18687C112.691 6.65131 112 7.64651 112.006 8.74124" fill="#ED1C24"/>
</svg>
