<svg xmlns="http://www.w3.org/2000/svg" width="65" height="65" viewBox="0 0 65 65">
  <g id="그룹_7" data-name="그룹 7" transform="translate(-8448 -15073)">
    <path id="패스_10" data-name="패스 10" d="M376.452,176v3.639H371.7l1.621,1.26c1.812,1.961,2.355,4.339.785,6.658-4.207,6.214-21.338,6.251-24.821-.606-1.5-2.959.265-5.658,2.71-7.311h-5l-.151-.152V176Zm-16.087,4.58c-2.267.177-7.173,1.467-5.946,4.675,1.062,2.775,6.767,3.146,9.248,2.876,2.263-.247,7.142-1.67,5.58-4.872-1.257-2.575-6.415-2.871-8.883-2.678" transform="translate(8136.22 14933.887)" fill="#174193"/>
    <path id="패스_11" data-name="패스 11" d="M372.615,0V3.033h11.52V6.571H380.4l1.029,1.548c1.328,2.85-.49,5.322-2.918,6.722-3.533,2.038-8.618,2.32-12.563,1.589-4.834-.9-10.68-4.589-6.364-9.859h-3.739V3.033H367.26V0Zm-3.557,6.6c-1.943.127-6.044.971-5.713,3.633.334,2.686,5.318,3.217,7.4,3.109,1.986-.1,6.7-1.152,5.759-4.042-.786-2.417-5.342-2.838-7.446-2.7" transform="translate(8128.133 15092.094)" fill="#174193"/>
    <path id="패스_12" data-name="패스 12" d="M21.524,30v3.639H13.945c.289,2.69.811,5.288,2.486,7.471a11.458,11.458,0,0,0,4.789,3.449l-2.4,2.814a12.719,12.719,0,0,1-7.609-6.793l-.2-.066a9.545,9.545,0,0,1-2.985,3.637,17.66,17.66,0,0,1-5.656,3.242L0,44.611c2.646-1.27,5.213-2.811,6.687-5.444a15.3,15.3,0,0,0,1.6-5.527H.607V30Z" transform="translate(8448 15065.127)" fill="#174193"/>
    <path id="패스_13" data-name="패스 13" d="M43.343,219v6.47H63.451v3.639h-24.3a1.726,1.726,0,0,1-1.162-1.163V219Z" transform="translate(8413.854 14895.234)" fill="#174193"/>
    <path id="패스_14" data-name="패스 14" d="M242.251,25V45.624h-5.2l-.152-.152V25Z" transform="translate(8235.054 15069.621)" fill="#174193"/>
    <path id="패스_15" data-name="패스 15" d="M0,0H65V65H0Z" transform="translate(8448 15073)" fill="none"/>
  </g>
</svg>
