<svg width="583" height="89" viewBox="0 0 583 89" fill="none" xmlns="http://www.w3.org/2000/svg">
<path d="M549.807 82.7999C546.54 82.7999 543.407 82.4999 540.407 81.8999C537.474 81.2999 534.874 80.1666 532.607 78.4999C530.407 76.7666 528.64 74.2999 527.307 71.0999C526.04 67.8332 525.407 63.5666 525.407 58.2999C525.407 53.5666 526.04 49.4999 527.307 46.0999C528.574 42.6999 530.074 39.9999 531.807 37.9999C533.607 35.9999 535.24 34.7666 536.707 34.2999L536.207 32.3999H534.507C531.44 32.3999 529.007 31.4332 527.207 29.4999C525.474 27.4999 524.574 24.7999 524.507 21.3999C524.44 18.0666 525.307 15.3999 527.107 13.3999C528.974 11.3999 531.44 10.3999 534.507 10.3999H570.407C577.54 10.3999 581.107 13.7332 581.107 20.3999C581.107 23.3999 580.24 25.7999 578.507 27.5999C576.774 29.3999 574.074 30.2999 570.407 30.2999H549.707C547.24 30.2999 546.007 31.7332 546.007 34.5999V42.0999C549.34 41.3666 552.807 40.4999 556.407 39.4999C560.074 38.4999 563.54 37.9999 566.807 37.9999C569.94 37.9999 572.274 38.6999 573.807 40.0999C575.407 41.4332 576.207 43.2666 576.207 45.5999C576.207 47.9999 575.407 49.8999 573.807 51.2999C572.274 52.6332 569.94 53.3332 566.807 53.3999C563.54 53.4666 560.074 52.9999 556.407 51.9999C552.74 50.9999 549.24 50.1332 545.907 49.3999V62.4999C545.907 63.7666 546.24 64.6666 546.907 65.1999C547.64 65.6666 548.774 65.4666 550.307 64.5999C553.64 62.6666 556.907 61.1332 560.107 59.9999C563.307 58.7999 566.44 58.1999 569.507 58.1999C573.84 58.1999 577.107 59.3332 579.307 61.5999C581.574 63.8666 582.707 66.8332 582.707 70.4999C582.707 74.4332 581.507 77.4666 579.107 79.5999C576.774 81.7332 572.974 82.7999 567.707 82.7999H549.807Z" fill="#FA0F12"/>
<path d="M509.849 83.0002C506.516 83.0002 503.883 82.0002 501.949 80.0002C500.016 77.9335 498.983 75.2669 498.849 72.0002C498.583 66.3335 497.149 62.3335 494.549 60.0002C492.016 57.6002 488.616 56.4002 484.349 56.4002H482.349V72.4002C482.349 75.8669 481.416 78.5002 479.549 80.3002C477.683 82.1002 475.216 83.0002 472.149 83.0002C468.883 83.0002 466.316 82.1002 464.449 80.3002C462.583 78.5002 461.649 75.8669 461.649 72.4002V58.3002C461.649 51.2335 462.683 45.8669 464.749 42.2002C466.883 38.5335 469.583 35.9002 472.849 34.3002L472.349 32.4002H470.749C467.683 32.4002 465.249 31.4335 463.449 29.5002C461.716 27.5002 460.783 24.8002 460.649 21.4002C460.583 18.0669 461.483 15.3669 463.349 13.3002C465.216 11.2335 467.683 10.2002 470.749 10.2002H496.249C503.383 10.2002 509.149 11.9335 513.549 15.4002C517.949 18.8669 520.149 24.4002 520.149 32.0002C520.149 35.9335 519.483 39.2335 518.149 41.9002C516.816 44.5002 515.116 46.5002 513.049 47.9002C510.983 49.3002 508.816 50.1335 506.549 50.4002V51.7002C510.683 52.7002 514.083 54.9002 516.749 58.3002C519.483 61.7002 520.849 66.2669 520.849 72.0002C520.849 75.6669 519.849 78.4335 517.849 80.3002C515.916 82.1002 513.249 83.0002 509.849 83.0002ZM481.849 41.1002C481.849 42.5669 482.116 43.5335 482.649 44.0002C483.183 44.4669 484.183 44.7002 485.649 44.7002H495.049C497.849 44.7002 499.883 44.0669 501.149 42.8002C502.416 41.5335 503.049 39.7669 503.049 37.5002C503.049 35.1669 502.416 33.3669 501.149 32.1002C499.883 30.8335 497.849 30.2002 495.049 30.2002H485.649C484.183 30.2002 483.183 30.4002 482.649 30.8002C482.116 31.2002 481.849 32.1669 481.849 33.7002V41.1002Z" fill="#FA0F12"/>
<path d="M399.327 83.0002C394.861 82.3335 391.961 80.3002 390.627 76.9002C389.294 73.4335 389.561 69.0669 391.427 63.8002L404.627 26.3002C405.827 22.8335 407.194 19.8669 408.727 17.4002C410.327 14.9335 412.294 13.0335 414.627 11.7002C417.027 10.3669 419.994 9.7002 423.527 9.7002C428.861 9.7002 432.861 11.1669 435.527 14.1002C438.261 17.0335 440.527 21.1002 442.327 26.3002L455.427 63.8002C457.294 69.0669 457.627 73.4335 456.427 76.9002C455.294 80.3002 452.461 82.3335 447.927 83.0002C444.261 83.4669 441.061 83.0335 438.327 81.7002C435.661 80.3669 434.061 78.2002 433.527 75.2002C433.127 73.2002 433.061 71.5335 433.327 70.2002C433.661 68.8669 433.961 67.8002 434.227 67.0002C434.427 66.3335 434.427 65.7002 434.227 65.1002C434.094 64.4335 433.594 64.1002 432.727 64.1002H414.127C413.261 64.1002 412.727 64.4335 412.527 65.1002C412.394 65.7002 412.461 66.3335 412.727 67.0002C412.994 67.8002 413.261 68.8669 413.527 70.2002C413.794 71.5335 413.761 73.2002 413.427 75.2002C412.894 78.2002 411.327 80.3669 408.727 81.7002C406.127 83.0335 402.994 83.4669 399.327 83.0002ZM430.827 50.1002L425.627 33.8002C425.494 33.1335 425.261 32.6335 424.927 32.3002C424.661 31.9002 424.194 31.7002 423.527 31.7002C422.861 31.7002 422.361 31.9002 422.027 32.3002C421.761 32.6335 421.527 33.1335 421.327 33.8002L416.227 50.1002H430.827Z" fill="#FA0F12"/>
<path d="M359.416 83.2001C352.883 83.2001 346.983 81.8668 341.716 79.2001C336.516 76.4668 332.416 72.4334 329.416 67.1001C326.416 61.7668 324.916 55.2001 324.916 47.4001C324.916 39.6001 326.416 32.8668 329.416 27.2001C332.483 21.5334 336.65 17.2001 341.916 14.2001C347.25 11.1334 353.316 9.6001 360.116 9.6001C367.983 9.6001 374.016 10.7001 378.216 12.9001C382.416 15.1001 384.516 18.3668 384.516 22.7001C384.516 26.0334 383.616 28.8001 381.816 31.0001C380.016 33.1334 377.55 34.2001 374.416 34.2001C371.75 34.2001 369.15 33.8668 366.616 33.2001C364.15 32.4668 361.25 32.1001 357.916 32.1001C353.65 32.1001 350.283 33.3334 347.816 35.8001C345.35 38.2668 344.116 41.5001 344.116 45.5001C344.116 49.4334 345.35 52.7334 347.816 55.4001C350.283 58.0001 353.65 59.3001 357.916 59.3001C360.183 59.3001 362.25 59.1334 364.116 58.8001C366.05 58.4001 367.916 58.0001 369.716 57.6001C371.583 57.2001 373.583 57.0001 375.716 57.0001C379.25 57.0001 381.85 58.1668 383.516 60.5001C385.183 62.7668 386.016 65.6001 386.016 69.0001C386.016 72.4001 384.783 75.1668 382.316 77.3001C379.85 79.3668 376.583 80.8668 372.516 81.8001C368.516 82.7334 364.15 83.2001 359.416 83.2001Z" fill="#FA0F12"/>
<path d="M271.516 32.3999C268.183 32.3999 265.45 31.4332 263.316 29.4999C261.25 27.5666 260.216 24.8999 260.216 21.4999C260.216 18.1666 261.15 15.4999 263.016 13.4999C264.95 11.4332 267.783 10.3999 271.516 10.3999H314.616C318.35 10.3999 321.15 11.4332 323.016 13.4999C324.95 15.4999 325.916 18.1666 325.916 21.4999C325.916 24.8999 324.85 27.5666 322.716 29.4999C320.65 31.4332 317.95 32.3999 314.616 32.3999C312.35 32.3999 310.516 32.1666 309.116 31.6999C307.783 31.1666 306.683 30.5666 305.816 29.8999C304.95 29.1666 304.116 28.5666 303.316 28.0999C302.516 27.5666 301.516 27.2999 300.316 27.2999L299.416 29.0999C299.683 29.6999 300.15 30.5666 300.816 31.6999C301.483 32.7666 302.116 34.3332 302.716 36.3999C303.316 38.3999 303.616 41.1332 303.616 44.5999V73.4999C303.616 76.2332 302.583 78.4999 300.516 80.2999C298.516 82.0999 296.05 82.9999 293.116 82.9999C290.116 82.9999 287.583 82.0999 285.516 80.2999C283.516 78.4999 282.516 76.2332 282.516 73.4999V44.5999C282.516 41.1332 282.816 38.3999 283.416 36.3999C284.016 34.3332 284.65 32.7666 285.316 31.6999C286.05 30.5666 286.55 29.6999 286.816 29.0999L285.816 27.2999C284.616 27.2999 283.616 27.5666 282.816 28.0999C282.016 28.5666 281.183 29.1666 280.316 29.8999C279.45 30.5666 278.35 31.1666 277.016 31.6999C275.683 32.1666 273.85 32.3999 271.516 32.3999Z" fill="#FA0F12"/>
<path d="M225.491 82.7999C222.224 82.7999 219.091 82.4999 216.091 81.8999C213.157 81.2999 210.557 80.1666 208.291 78.4999C206.091 76.7666 204.324 74.2999 202.991 71.0999C201.724 67.8332 201.091 63.5666 201.091 58.2999C201.091 53.5666 201.724 49.4999 202.991 46.0999C204.257 42.6999 205.757 39.9999 207.491 37.9999C209.291 35.9999 210.924 34.7666 212.391 34.2999L211.891 32.3999H210.191C207.124 32.3999 204.691 31.4332 202.891 29.4999C201.157 27.4999 200.257 24.7999 200.191 21.3999C200.124 18.0666 200.991 15.3999 202.791 13.3999C204.657 11.3999 207.124 10.3999 210.191 10.3999H246.091C253.224 10.3999 256.791 13.7332 256.791 20.3999C256.791 23.3999 255.924 25.7999 254.191 27.5999C252.457 29.3999 249.757 30.2999 246.091 30.2999H225.391C222.924 30.2999 221.691 31.7332 221.691 34.5999V42.0999C225.024 41.3666 228.491 40.4999 232.091 39.4999C235.757 38.4999 239.224 37.9999 242.491 37.9999C245.624 37.9999 247.957 38.6999 249.491 40.0999C251.091 41.4332 251.891 43.2666 251.891 45.5999C251.891 47.9999 251.091 49.8999 249.491 51.2999C247.957 52.6332 245.624 53.3332 242.491 53.3999C239.224 53.4666 235.757 52.9999 232.091 51.9999C228.424 50.9999 224.924 50.1332 221.591 49.3999V62.4999C221.591 63.7666 221.924 64.6666 222.591 65.1999C223.324 65.6666 224.457 65.4666 225.991 64.5999C229.324 62.6666 232.591 61.1332 235.791 59.9999C238.991 58.7999 242.124 58.1999 245.191 58.1999C249.524 58.1999 252.791 59.3332 254.991 61.5999C257.257 63.8666 258.391 66.8332 258.391 70.4999C258.391 74.4332 257.191 77.4666 254.791 79.5999C252.457 81.7332 248.657 82.7999 243.391 82.7999H225.491Z" fill="#FA0F12"/>
<path fill-rule="evenodd" clip-rule="evenodd" d="M158.9 72.4002V59.9002H172.7C176.9 59.9002 180.8 59.1669 184.4 57.7002C188 56.2335 190.9 53.7002 193.1 50.1002C195.3 46.5002 196.4 41.5669 196.4 35.3002C196.4 26.6335 194.267 20.3002 190 16.3002C185.8 12.2335 180.333 10.2002 173.6 10.2002H147.3C144.233 10.2002 141.767 11.2335 139.9 13.3002C138.1 15.3669 137.233 18.0669 137.3 21.4002L138.2 58.3002V72.4002C138.2 75.8669 139.133 78.5002 141 80.3002C142.933 82.1002 145.533 83.0002 148.8 83.0002H148.9C151.9 83.0002 154.3 82.1002 156.1 80.3002C157.967 78.5002 158.9 75.8669 158.9 72.4002ZM157.6 40.6003C157.6 42.067 157.867 43.0336 158.4 43.5003C159 43.967 160.033 44.2003 161.5 44.2003H170.8C173.6 44.2003 175.633 43.567 176.9 42.3003C178.167 40.967 178.8 39.1003 178.8 36.7003C178.8 34.3003 178.167 32.467 176.9 31.2003C175.633 29.9336 173.6 29.3003 170.8 29.3003H161.5C160.033 29.3003 159 29.5003 158.4 29.9003C157.867 30.3003 157.6 31.267 157.6 32.8003V40.6003Z" fill="#FA0F12"/>
<path d="M49.7669 43.6323C46.5669 46.0323 36.7669 53.9656 32.2669 57.6323C17.3512 69.6323 25.2669 82.1323 32.2669 86.1323C39.2669 90.1323 48.4307 82.5774 52.2669 80.6323C54.5 79.5 57.5 79.5 60.2669 82.1323C62.697 84.4441 66.7669 88.1323 74.2669 88.1323C81.7669 88.1323 88.7669 82.6323 88.2669 72.6323C87.7669 62.6323 67.2669 46.6323 63.2669 43.6323C59.2669 40.6323 53.7669 40.6323 49.7669 43.6323Z" fill="#FA0F12"/>
<path d="M30.2669 43.6323C31.4669 51.2323 25.7669 56.1323 22.7669 57.6323C20.4336 58.1322 14.8669 57.3321 11.2669 50.1321C6.76693 41.1321 8.26693 33.6323 13.7669 27.1323C19.2669 20.6323 28.7669 34.1323 30.2669 43.6323Z" fill="#FA0F12"/>
<path d="M52.2669 18.6321C52.2669 25.8321 50.6002 31.2987 49.7669 33.1321C42.7669 42.6318 30.2669 34.6323 30.2669 24.6323C30.2669 14.6323 32.2669 10.6321 39.767 3.13207C47.267 -4.36793 52.2669 9.63207 52.2669 18.6321Z" fill="#FA0F12"/>
<path d="M71.767 3.13207C64.967 -1.26813 61.2669 6.63216 60.2669 11.1323L59.767 23.6323C59.4336 27.6323 60.567 36.0323 67.767 37.6323C76.767 39.6323 78.767 36.1323 82.267 27.1323C85.767 18.1322 80.267 8.63232 71.767 3.13207Z" fill="#FA0F12"/>
<path d="M103.767 33.1321C101.367 27.5319 95.4336 30.7987 92.767 33.1321C88.4336 36.6321 80.267 45.3323 82.267 52.1323C84.767 60.6324 94.767 61.1323 100.767 54.6323C106.767 48.1323 106.767 40.1323 103.767 33.1321Z" fill="#FA0F12"/>
<path d="M102.767 74.6323C102.934 76.1323 101.967 79.4323 96.767 80.6323C99.4336 81.4656 104.367 81.4323 102.767 74.6323Z" fill="#FA0F12"/>
<path d="M107.767 74.6323C109.1 77.799 109.567 84.5323 100.767 86.1323C104.767 85.9656 111.767 83.4323 107.767 74.6323Z" fill="#FA0F12"/>
<path d="M2.76689 8.13232C-0.433115 10.5323 1.43355 16.1322 2.76689 18.6321C2.76689 9.03187 8.43358 7.63216 11.2669 8.13232C9.76692 7.13232 5.96689 5.73232 2.76689 8.13232Z" fill="#FA0F12"/>
<path d="M7.76691 20.6323C6.76692 18.299 6.56693 13.5323 13.7669 13.1323C11.7669 13.4657 7.76691 15.4324 7.76691 20.6323Z" fill="#FA0F12"/>
<path d="M49.7669 43.6323C46.5669 46.0323 36.7669 53.9656 32.2669 57.6323C17.3512 69.6323 25.2669 82.1323 32.2669 86.1323C39.2669 90.1323 48.4307 82.5774 52.2669 80.6323C54.5 79.5 57.5 79.5 60.2669 82.1323C62.697 84.4441 66.7669 88.1323 74.2669 88.1323C81.7669 88.1323 88.7669 82.6323 88.2669 72.6323C87.7669 62.6323 67.2669 46.6323 63.2669 43.6323C59.2669 40.6323 53.7669 40.6323 49.7669 43.6323Z" stroke="#FA0F12"/>
<path d="M30.2669 43.6323C31.4669 51.2323 25.7669 56.1323 22.7669 57.6323C20.4336 58.1322 14.8669 57.3321 11.2669 50.1321C6.76693 41.1321 8.26693 33.6323 13.7669 27.1323C19.2669 20.6323 28.7669 34.1323 30.2669 43.6323Z" stroke="#FA0F12"/>
<path d="M52.2669 18.6321C52.2669 25.8321 50.6002 31.2987 49.7669 33.1321C42.7669 42.6318 30.2669 34.6323 30.2669 24.6323C30.2669 14.6323 32.2669 10.6321 39.767 3.13207C47.267 -4.36793 52.2669 9.63207 52.2669 18.6321Z" stroke="#FA0F12"/>
<path d="M71.767 3.13207C64.967 -1.26813 61.2669 6.63216 60.2669 11.1323L59.767 23.6323C59.4336 27.6323 60.567 36.0323 67.767 37.6323C76.767 39.6323 78.767 36.1323 82.267 27.1323C85.767 18.1322 80.267 8.63232 71.767 3.13207Z" stroke="#FA0F12"/>
<path d="M103.767 33.1321C101.367 27.5319 95.4336 30.7987 92.767 33.1321C88.4336 36.6321 80.267 45.3323 82.267 52.1323C84.767 60.6324 94.767 61.1323 100.767 54.6323C106.767 48.1323 106.767 40.1323 103.767 33.1321Z" stroke="#FA0F12"/>
<path d="M102.767 74.6323C102.934 76.1323 101.967 79.4323 96.767 80.6323C99.4336 81.4656 104.367 81.4323 102.767 74.6323Z" stroke="#FA0F12"/>
<path d="M107.767 74.6323C109.1 77.799 109.567 84.5323 100.767 86.1323C104.767 85.9656 111.767 83.4323 107.767 74.6323Z" stroke="#FA0F12"/>
<path d="M2.76689 8.13232C-0.433115 10.5323 1.43355 16.1322 2.76689 18.6321C2.76689 9.03187 8.43358 7.63216 11.2669 8.13232C9.76692 7.13232 5.96689 5.73232 2.76689 8.13232Z" stroke="#FA0F12"/>
<path d="M7.76691 20.6323C6.76692 18.299 6.56693 13.5323 13.7669 13.1323C11.7669 13.4657 7.76691 15.4324 7.76691 20.6323Z" stroke="#FA0F12"/>
</svg>
