<svg width="201" height="32" viewBox="0 0 201 32" fill="none" xmlns="http://www.w3.org/2000/svg">
<path d="M189.689 29.1237C188.565 29.1237 187.488 29.0206 186.457 28.8143C185.448 28.608 184.554 28.2183 183.775 27.6453C183.019 27.0493 182.411 26.2013 181.953 25.1011C181.517 23.9779 181.299 22.511 181.299 20.7002C181.299 19.0728 181.517 17.6746 181.953 16.5057C182.388 15.3367 182.904 14.4084 183.5 13.7208C184.119 13.0331 184.68 12.6091 185.185 12.4486L185.013 11.7954H184.428C183.374 11.7954 182.537 11.463 181.918 10.7983C181.322 10.1107 181.013 9.18239 180.99 8.01342C180.967 6.86737 181.265 5.95052 181.884 5.26289C182.526 4.57526 183.374 4.23145 184.428 4.23145H196.771C199.224 4.23145 200.45 5.3775 200.45 7.6696C200.45 8.70105 200.152 9.52621 199.556 10.1451C198.96 10.7639 198.032 11.0734 196.771 11.0734H189.654C188.806 11.0734 188.382 11.5662 188.382 12.5518V15.1304C189.528 14.8783 190.72 14.5803 191.958 14.2365C193.218 13.8927 194.41 13.7208 195.533 13.7208C196.611 13.7208 197.413 13.9614 197.94 14.4428C198.49 14.9012 198.765 15.5315 198.765 16.3338C198.765 17.1589 198.49 17.8122 197.94 18.2935C197.413 18.7519 196.611 18.9926 195.533 19.0155C194.41 19.0384 193.218 18.878 191.958 18.5342C190.697 18.1904 189.494 17.8924 188.348 17.6403V22.1442C188.348 22.5797 188.462 22.8892 188.691 23.0725C188.944 23.233 189.333 23.1642 189.86 22.8663C191.007 22.2015 192.13 21.6744 193.23 21.2847C194.33 20.8721 195.407 20.6658 196.462 20.6658C197.952 20.6658 199.075 21.0555 199.831 21.8348C200.61 22.6141 201 23.6341 201 24.8948C201 26.2471 200.587 27.29 199.762 28.0235C198.96 28.757 197.654 29.1237 195.843 29.1237H189.689Z" fill="white"/>
<path d="M175.95 29.1929C174.804 29.1929 173.899 28.8491 173.234 28.1614C172.57 27.4509 172.214 26.534 172.168 25.4109C172.077 23.4626 171.584 22.0873 170.69 21.2851C169.819 20.4599 168.65 20.0474 167.183 20.0474H166.495V25.5484C166.495 26.7403 166.175 27.6457 165.533 28.2646C164.891 28.8834 164.043 29.1929 162.989 29.1929C161.865 29.1929 160.983 28.8834 160.341 28.2646C159.699 27.6457 159.378 26.7403 159.378 25.5484V20.7006C159.378 18.271 159.734 16.4258 160.444 15.1652C161.178 13.9045 162.106 12.9991 163.229 12.449L163.057 11.7958H162.507C161.453 11.7958 160.616 11.4634 159.997 10.7987C159.401 10.1111 159.08 9.18279 159.035 8.01382C159.012 6.86777 159.321 5.93947 159.963 5.22891C160.605 4.51836 161.453 4.16309 162.507 4.16309H171.274C173.727 4.16309 175.71 4.75903 177.222 5.95093C178.735 7.14282 179.492 9.04527 179.492 11.6583C179.492 13.0106 179.262 14.1452 178.804 15.062C178.346 15.956 177.761 16.6436 177.051 17.1249C176.34 17.6063 175.595 17.8928 174.816 17.9845V18.4314C176.237 18.7753 177.406 19.5316 178.323 20.7006C179.262 21.8696 179.732 23.4397 179.732 25.4109C179.732 26.6716 179.389 27.6228 178.701 28.2646C178.036 28.8834 177.119 29.1929 175.95 29.1929ZM166.324 14.787C166.324 15.2913 166.415 15.6236 166.599 15.7841C166.782 15.9445 167.126 16.0247 167.63 16.0247H170.862C171.825 16.0247 172.524 15.807 172.959 15.3715C173.395 14.936 173.612 14.3286 173.612 13.5493C173.612 12.747 173.395 12.1281 172.959 11.6926C172.524 11.2571 171.825 11.0394 170.862 11.0394H167.63C167.126 11.0394 166.782 11.1082 166.599 11.2457C166.415 11.3832 166.324 11.7156 166.324 12.2428V14.787Z" fill="white"/>
<path d="M137.951 29.1919C136.415 28.9627 135.418 28.2636 134.96 27.0946C134.501 25.9028 134.593 24.4014 135.235 22.5907L139.773 9.69757C140.186 8.50568 140.656 7.48569 141.183 6.63762C141.733 5.78954 142.409 5.13629 143.211 4.67786C144.037 4.21944 145.057 3.99023 146.271 3.99023C148.105 3.99023 149.48 4.4945 150.397 5.50302C151.337 6.51155 152.116 7.90973 152.735 9.69757L157.239 22.5907C157.881 24.4014 157.996 25.9028 157.583 27.0946C157.193 28.2636 156.219 28.9627 154.66 29.1919C153.4 29.3524 152.3 29.2034 151.36 28.745C150.443 28.2865 149.893 27.5416 149.71 26.5102C149.572 25.8225 149.549 25.2495 149.641 24.7911C149.755 24.3327 149.859 23.9659 149.95 23.6909C150.019 23.4617 150.019 23.2439 149.95 23.0376C149.904 22.8084 149.732 22.6938 149.434 22.6938H143.04C142.742 22.6938 142.558 22.8084 142.489 23.0376C142.444 23.2439 142.467 23.4617 142.558 23.6909C142.65 23.9659 142.742 24.3327 142.833 24.7911C142.925 25.2495 142.913 25.8225 142.799 26.5102C142.615 27.5416 142.077 28.2865 141.183 28.745C140.289 29.2034 139.212 29.3524 137.951 29.1919ZM148.781 17.8804L146.993 12.2762C146.948 12.047 146.867 11.8751 146.753 11.7605C146.661 11.6229 146.501 11.5542 146.271 11.5542C146.042 11.5542 145.87 11.6229 145.756 11.7605C145.664 11.8751 145.584 12.047 145.515 12.2762L143.762 17.8804H148.781Z" fill="white"/>
<path d="M124.229 29.2619C121.983 29.2619 119.954 28.8034 118.144 27.8866C116.356 26.9468 114.946 25.5601 113.915 23.7264C112.883 21.8927 112.367 19.635 112.367 16.9533C112.367 14.2715 112.883 11.9565 113.915 10.0082C114.969 8.0599 116.402 6.57003 118.212 5.53858C120.046 4.48421 122.132 3.95703 124.47 3.95703C127.174 3.95703 129.249 4.33523 130.693 5.09162C132.137 5.84802 132.859 6.97115 132.859 8.46102C132.859 9.60707 132.549 10.5583 131.931 11.3147C131.312 12.0482 130.464 12.4149 129.386 12.4149C128.469 12.4149 127.576 12.3003 126.705 12.0711C125.856 11.8189 124.859 11.6929 123.713 11.6929C122.246 11.6929 121.089 12.1169 120.241 12.965C119.393 13.8131 118.969 14.9248 118.969 16.3C118.969 17.6524 119.393 18.7869 120.241 19.7038C121.089 20.5977 122.246 21.0447 123.713 21.0447C124.493 21.0447 125.203 20.9874 125.845 20.8728C126.51 20.7352 127.152 20.5977 127.77 20.4602C128.412 20.3227 129.1 20.2539 129.833 20.2539C131.048 20.2539 131.942 20.655 132.515 21.4573C133.088 22.2366 133.375 23.2107 133.375 24.3797C133.375 25.5487 132.951 26.4999 132.102 27.2334C131.254 27.9439 130.131 28.4596 128.733 28.7805C127.358 29.1014 125.856 29.2619 124.229 29.2619Z" fill="white"/>
<path d="M94.0077 11.7954C92.8616 11.7954 91.9219 11.463 91.1884 10.7983C90.4778 10.1336 90.1226 9.21677 90.1226 8.0478C90.1226 6.90175 90.4435 5.98491 91.0852 5.29727C91.75 4.58672 92.7241 4.23145 94.0077 4.23145H108.826C110.11 4.23145 111.072 4.58672 111.714 5.29727C112.379 5.98491 112.711 6.90175 112.711 8.0478C112.711 9.21677 112.345 10.1336 111.611 10.7983C110.9 11.463 109.972 11.7954 108.826 11.7954C108.047 11.7954 107.416 11.7152 106.935 11.5547C106.477 11.3714 106.099 11.1651 105.801 10.9359C105.503 10.6837 105.216 10.4774 104.941 10.317C104.666 10.1336 104.322 10.0419 103.91 10.0419L103.6 10.6608C103.692 10.8671 103.852 11.1651 104.081 11.5547C104.311 11.9215 104.528 12.4601 104.735 13.1707C104.941 13.8583 105.044 14.798 105.044 15.9899V25.9262C105.044 26.866 104.689 27.6453 103.978 28.2642C103.291 28.883 102.443 29.1925 101.434 29.1925C100.403 29.1925 99.5316 28.883 98.8211 28.2642C98.1335 27.6453 97.7896 26.866 97.7896 25.9262V15.9899C97.7896 14.798 97.8928 13.8583 98.0991 13.1707C98.3054 12.4601 98.5231 11.9215 98.7523 11.5547C99.0045 11.1651 99.1764 10.8671 99.2681 10.6608L98.9242 10.0419C98.5117 10.0419 98.1678 10.1336 97.8928 10.317C97.6177 10.4774 97.3312 10.6837 97.0333 10.9359C96.7353 11.1651 96.3571 11.3714 95.8987 11.5547C95.4402 11.7152 94.8099 11.7954 94.0077 11.7954Z" fill="white"/>
<path d="M78.1834 29.1237C77.0603 29.1237 75.983 29.0206 74.9515 28.8143C73.943 28.608 73.0491 28.2183 72.2698 27.6453C71.5134 27.0493 70.906 26.2013 70.4476 25.1011C70.0121 23.9779 69.7943 22.511 69.7943 20.7002C69.7943 19.0728 70.0121 17.6746 70.4476 16.5057C70.8831 15.3367 71.3988 14.4084 71.9947 13.7208C72.6136 13.0331 73.1752 12.6091 73.6794 12.4486L73.5075 11.7954H72.923C71.8687 11.7954 71.032 11.463 70.4132 10.7983C69.8172 10.1107 69.5078 9.18239 69.4849 8.01342C69.4619 6.86737 69.7599 5.95052 70.3788 5.26289C71.0206 4.57526 71.8687 4.23145 72.923 4.23145H85.266C87.7186 4.23145 88.9448 5.3775 88.9448 7.6696C88.9448 8.70105 88.6469 9.52621 88.0509 10.1451C87.455 10.7639 86.5267 11.0734 85.266 11.0734H78.149C77.3009 11.0734 76.8769 11.5662 76.8769 12.5518V15.1304C78.023 14.8783 79.2149 14.5803 80.4526 14.2365C81.7132 13.8927 82.9051 13.7208 84.0283 13.7208C85.1056 13.7208 85.9078 13.9614 86.435 14.4428C86.9851 14.9012 87.2601 15.5315 87.2601 16.3338C87.2601 17.1589 86.9851 17.8122 86.435 18.2935C85.9078 18.7519 85.1056 18.9926 84.0283 19.0155C82.9051 19.0384 81.7132 18.878 80.4526 18.5342C79.1919 18.1904 77.9886 17.8924 76.8425 17.6403V22.1442C76.8425 22.5797 76.9571 22.8892 77.1863 23.0725C77.4385 23.233 77.8281 23.1642 78.3553 22.8663C79.5014 22.2015 80.6245 21.6744 81.7247 21.2847C82.8249 20.8721 83.9022 20.6658 84.9566 20.6658C86.4464 20.6658 87.5696 21.0555 88.326 21.8348C89.1053 22.6141 89.4949 23.6341 89.4949 24.8948C89.4949 26.2471 89.0824 27.29 88.2572 28.0235C87.455 28.757 86.1485 29.1237 84.3377 29.1237H78.1834Z" fill="white"/>
<path fill-rule="evenodd" clip-rule="evenodd" d="M55.2885 25.5484V21.2507H60.0331C61.4772 21.2507 62.818 20.9986 64.0558 20.4943C65.2935 19.9901 66.2906 19.1191 67.047 17.8813C67.8034 16.6436 68.1816 14.9474 68.1816 12.7929C68.1816 9.81312 67.4481 7.63562 65.9812 6.26036C64.5371 4.86218 62.6576 4.16309 60.3426 4.16309H51.3002C50.2459 4.16309 49.3978 4.51836 48.756 5.22891C48.1371 5.93947 47.8391 6.86777 47.8621 8.01382L48.1715 20.7006V25.5484C48.1715 26.7403 48.4924 27.6457 49.1342 28.2646C49.7989 28.8834 50.6928 29.1929 51.8159 29.1929H51.8503C52.8818 29.1929 53.7069 28.8834 54.3258 28.2646C54.9676 27.6457 55.2885 26.7403 55.2885 25.5484ZM54.8415 14.6151C54.8415 15.1194 54.9332 15.4517 55.1166 15.6122C55.3229 15.7726 55.6781 15.8529 56.1824 15.8529H59.3799C60.3426 15.8529 61.0417 15.6351 61.4772 15.1996C61.9127 14.7412 62.1304 14.0994 62.1304 13.2742C62.1304 12.4491 61.9127 11.8187 61.4772 11.3832C61.0417 10.9477 60.3426 10.73 59.3799 10.73H56.1824C55.6781 10.73 55.3229 10.7988 55.1166 10.9363C54.9332 11.0738 54.8415 11.4062 54.8415 11.9334V14.6151Z" fill="white"/>
<path d="M17.7668 15.6576C16.6666 16.4828 13.2972 19.2104 11.7501 20.4711C6.62179 24.5969 9.34335 28.8945 11.7501 30.2698C14.1568 31.6451 17.3074 29.0476 18.6264 28.3788C19.3941 27.9895 20.4256 27.9895 21.3769 28.8946C22.2124 29.6894 23.6117 30.9574 26.1903 30.9574C28.7689 30.9574 31.1756 29.0665 31.0037 25.6283C30.8318 22.1901 23.7836 16.6891 22.4083 15.6576C21.0331 14.6262 19.1421 14.6262 17.7668 15.6576Z" fill="white"/>
<path d="M11.0624 15.6576C11.475 18.2706 9.51526 19.9553 8.48381 20.4711C7.68158 20.6429 5.76767 20.3678 4.52993 17.8924C2.98276 14.798 3.49849 12.2195 5.38947 9.98469C7.28046 7.74988 10.5467 12.3914 11.0624 15.6576Z" fill="white"/>
<path d="M18.6264 7.06218C18.6264 9.53766 18.0533 11.4172 17.7668 12.0475C15.3601 15.3137 11.0624 12.5633 11.0624 9.12516C11.0624 5.68701 11.7501 4.31166 14.3287 1.73304C16.9073 -0.845577 18.6264 3.96784 18.6264 7.06218Z" fill="white"/>
<path d="M25.3308 1.73304C22.9928 0.220183 21.7207 2.93642 21.3769 4.48365L21.205 8.78135C21.0904 10.1566 21.4801 13.0447 23.9555 13.5948C27.0499 14.2824 27.7375 13.079 28.9409 9.98469C30.1442 6.89033 28.2532 3.62411 25.3308 1.73304Z" fill="white"/>
<path d="M36.3329 12.0475C35.5077 10.1221 33.4678 11.2452 32.5509 12.0475C31.0611 13.2509 28.2532 16.2421 28.9409 18.5801C29.8004 21.5025 33.2385 21.6744 35.3014 19.4396C37.3643 17.2048 37.3643 14.4543 36.3329 12.0475Z" fill="white"/>
<path d="M35.9891 26.3159C36.0464 26.8317 35.714 27.9662 33.9262 28.3788C34.843 28.6653 36.5392 28.6539 35.9891 26.3159Z" fill="white"/>
<path d="M37.7082 26.3159C38.1666 27.4047 38.327 29.7197 35.3014 30.2698C36.6767 30.2125 39.0834 29.3415 37.7082 26.3159Z" fill="white"/>
<path d="M1.60748 3.4522C0.507273 4.27736 1.14906 6.20267 1.60748 7.06218C1.60748 3.76148 3.55578 3.28024 4.52993 3.4522C4.0142 3.10839 2.70769 2.62705 1.60748 3.4522Z" fill="white"/>
<path d="M3.32657 7.7499C2.98276 6.94766 2.914 5.30881 5.38947 5.17128C4.70184 5.28589 3.32657 5.96207 3.32657 7.7499Z" fill="white"/>
<path d="M17.7668 15.6576C16.6666 16.4828 13.2972 19.2104 11.7501 20.4711C6.62179 24.5969 9.34335 28.8945 11.7501 30.2698C14.1568 31.6451 17.3074 29.0476 18.6264 28.3788C19.3941 27.9895 20.4256 27.9895 21.3769 28.8946C22.2124 29.6894 23.6117 30.9574 26.1903 30.9574C28.7689 30.9574 31.1756 29.0665 31.0037 25.6283C30.8318 22.1901 23.7836 16.6891 22.4083 15.6576C21.0331 14.6262 19.1421 14.6262 17.7668 15.6576Z" stroke="white"/>
<path d="M11.0624 15.6576C11.475 18.2706 9.51526 19.9553 8.48381 20.4711C7.68158 20.6429 5.76767 20.3678 4.52993 17.8924C2.98276 14.798 3.49849 12.2195 5.38947 9.98469C7.28046 7.74988 10.5467 12.3914 11.0624 15.6576Z" stroke="white"/>
<path d="M18.6264 7.06218C18.6264 9.53766 18.0533 11.4172 17.7668 12.0475C15.3601 15.3137 11.0624 12.5633 11.0624 9.12516C11.0624 5.68701 11.7501 4.31166 14.3287 1.73304C16.9073 -0.845577 18.6264 3.96784 18.6264 7.06218Z" stroke="white"/>
<path d="M25.3308 1.73304C22.9928 0.220183 21.7207 2.93642 21.3769 4.48365L21.205 8.78135C21.0904 10.1566 21.4801 13.0447 23.9555 13.5948C27.0499 14.2824 27.7375 13.079 28.9409 9.98469C30.1442 6.89033 28.2532 3.62411 25.3308 1.73304Z" stroke="white"/>
<path d="M36.3329 12.0475C35.5077 10.1221 33.4678 11.2452 32.5509 12.0475C31.0611 13.2509 28.2532 16.2421 28.9409 18.5801C29.8004 21.5025 33.2385 21.6744 35.3014 19.4396C37.3643 17.2048 37.3643 14.4543 36.3329 12.0475Z" stroke="white"/>
<path d="M35.9891 26.3159C36.0464 26.8317 35.714 27.9662 33.9262 28.3788C34.843 28.6653 36.5392 28.6539 35.9891 26.3159Z" stroke="white"/>
<path d="M37.7082 26.3159C38.1666 27.4047 38.327 29.7197 35.3014 30.2698C36.6767 30.2125 39.0834 29.3415 37.7082 26.3159Z" stroke="white"/>
<path d="M1.60748 3.4522C0.507273 4.27736 1.14906 6.20267 1.60748 7.06218C1.60748 3.76148 3.55578 3.28024 4.52993 3.4522C4.0142 3.10839 2.70769 2.62705 1.60748 3.4522Z" stroke="white"/>
<path d="M3.32657 7.7499C2.98276 6.94766 2.914 5.30881 5.38947 5.17128C4.70184 5.28589 3.32657 5.96207 3.32657 7.7499Z" stroke="white"/>
</svg>
